<svg width="56" height="56" viewBox="0 0 56 56" fill="none" xmlns="http://www.w3.org/2000/svg">
<g clip-path="url(#clip0)">
<path d="M56 28.0004C56.0019 24.0458 53.2449 20.6257 49.3799 19.7878C48.466 7.98141 38.1534 -0.848843 26.3458 0.0649218C15.8083 0.880345 7.43657 9.25144 6.62107 19.7878C5.04479 20.1346 3.59964 20.9227 2.45467 22.0602C-0.822726 25.3433 -0.817943 30.6614 2.46541 33.9385C3.70861 35.1793 5.3095 35.9992 7.04294 36.2829C7.1729 36.355 7.31815 36.395 7.46667 36.3996C7.52582 36.398 7.58485 36.3917 7.64307 36.3809C7.66757 36.3751 7.69149 36.3676 7.71494 36.3585C7.94174 36.3762 8.16667 36.3996 8.4 36.3996H10.2667C10.7821 36.3996 11.2 35.9817 11.2 35.4663V20.5344C11.2 20.019 10.7821 19.6011 10.2667 19.6011H8.51107C9.51989 8.8379 19.0638 0.930389 29.8279 1.93899C39.1957 2.81683 46.6138 10.2343 47.4917 19.6011H45.7333C45.2179 19.6011 44.8 20.019 44.8 20.5344V35.4663C44.8 35.9817 45.2179 36.3996 45.7333 36.3996H47.6V38.2661C47.6 45.4651 41.972 50.9367 34.3896 51.297C33.8502 49.3114 31.8032 48.1389 29.8174 48.6783C27.8316 49.2177 26.659 51.2644 27.1985 53.25C27.7378 55.2356 29.7849 56.4081 31.7707 55.8687C33.0773 55.5138 34.0886 54.478 34.412 53.1635C43.0472 52.7874 49.4667 46.5197 49.4667 38.2661V36.1858C51.0081 35.8298 52.4202 35.0524 53.5453 33.9405C55.1203 32.3651 56.0035 30.2279 56 28.0004ZM9.33334 34.5331H8.4C8.12642 34.5331 7.85307 34.5169 7.58147 34.4845C3.99969 34.0487 1.44936 30.792 1.88522 27.2105C2.24911 24.2207 4.60997 21.8672 7.60107 21.5124C7.86625 21.4815 8.13307 21.4665 8.4 21.4676H9.33334V34.5331ZM30.8 54.1312C29.769 54.1312 28.9333 53.2956 28.9333 52.2647C28.9333 51.2339 29.769 50.3982 30.8 50.3982C31.831 50.3982 32.6667 51.2339 32.6667 52.2647C32.6667 53.2956 31.831 54.1312 30.8 54.1312ZM48.4213 34.4836C48.1488 34.5166 47.8745 34.5331 47.6 34.5331H46.6667V21.4676H47.6C51.2083 21.4571 54.1418 24.3733 54.1525 27.9812C54.162 31.2862 51.7016 34.0778 48.4213 34.4836Z" fill="url(#paint0_linear)"/>
</g>
<defs>
<linearGradient id="paint0_linear" x1="-0.000244141" y1="55.9999" x2="55.9997" y2="-0.000305175" gradientUnits="userSpaceOnUse">
<stop stop-color="#FE5000"/>
<stop offset="1" stop-color="#FE9800"/>
</linearGradient>
<clipPath id="clip0">
<rect width="56.0002" height="56" fill="white"/>
</clipPath>
</defs>
</svg>
