<svg width="56" height="56" viewBox="0 0 56 56" fill="none" xmlns="http://www.w3.org/2000/svg">
<path d="M18.4861 17.6625H13.9861C13.4683 17.6625 13.0486 18.0822 13.0486 18.6V23.85C13.0486 24.3678 13.4683 24.7875 13.9861 24.7875H18.4861C19.0039 24.7875 19.4236 24.3678 19.4236 23.85V18.6C19.4236 18.0822 19.0039 17.6625 18.4861 17.6625ZM17.5486 22.9125H14.9236V19.5375H17.5486V22.9125Z" fill="url(#paint0_linear)"/>
<path d="M18.4861 28.1625H13.9861C13.4683 28.1625 13.0486 28.5822 13.0486 29.1V34.35C13.0486 34.8678 13.4683 35.2875 13.9861 35.2875H18.4861C19.0039 35.2875 19.4236 34.8678 19.4236 34.35V29.1C19.4236 28.5822 19.0039 28.1625 18.4861 28.1625ZM17.5486 33.4125H14.9236V30.0375H17.5486V33.4125Z" fill="url(#paint1_linear)"/>
<path d="M18.4861 38.6625H13.9861C13.4683 38.6625 13.0486 39.0822 13.0486 39.6V44.85C13.0486 45.3678 13.4683 45.7875 13.9861 45.7875H18.4861C19.0039 45.7875 19.4236 45.3678 19.4236 44.85V39.6C19.4236 39.0822 19.0039 38.6625 18.4861 38.6625ZM17.5486 43.9125H14.9236V40.5375H17.5486V43.9125Z" fill="url(#paint2_linear)"/>
<path d="M42.9529 38.6625H38.4529C37.9351 38.6625 37.5154 39.0822 37.5154 39.6V44.85C37.5154 45.3678 37.9351 45.7875 38.4529 45.7875H42.9529C43.4707 45.7875 43.8904 45.3678 43.8904 44.85V39.6C43.8904 39.0822 43.4707 38.6625 42.9529 38.6625ZM42.0154 43.9125H39.3904V40.5375H42.0154V43.9125Z" fill="url(#paint3_linear)"/>
<path d="M26.6416 17.6625H22.1416C21.6238 17.6625 21.2041 18.0822 21.2041 18.6V23.85C21.2041 24.3678 21.6238 24.7875 22.1416 24.7875H26.6416C27.1594 24.7875 27.5791 24.3678 27.5791 23.85V18.6C27.5791 18.0822 27.1594 17.6625 26.6416 17.6625ZM25.7041 22.9125H23.0791V19.5375H25.7041V22.9125Z" fill="url(#paint4_linear)"/>
<path d="M34.7971 17.6625H30.2971C29.7793 17.6625 29.3596 18.0822 29.3596 18.6V23.85C29.3596 24.3678 29.7793 24.7875 30.2971 24.7875H34.7971C35.3149 24.7875 35.7346 24.3678 35.7346 23.85V18.6C35.7346 18.0822 35.3149 17.6625 34.7971 17.6625ZM33.8596 22.9125H31.2346V19.5375H33.8596V22.9125Z" fill="url(#paint5_linear)"/>
<path d="M26.6416 28.1625H22.1416C21.6238 28.1625 21.2041 28.5822 21.2041 29.1V34.35C21.2041 34.8678 21.6238 35.2875 22.1416 35.2875H26.6416C27.1594 35.2875 27.5791 34.8678 27.5791 34.35V29.1C27.5791 28.5822 27.1594 28.1625 26.6416 28.1625ZM25.7041 33.4125H23.0791V30.0375H25.7041V33.4125Z" fill="url(#paint6_linear)"/>
<path d="M34.7971 28.1625H30.2971C29.7793 28.1625 29.3596 28.5822 29.3596 29.1V34.35C29.3596 34.8678 29.7793 35.2875 30.2971 35.2875H34.7971C35.3149 35.2875 35.7346 34.8678 35.7346 34.35V29.1C35.7346 28.5822 35.3149 28.1625 34.7971 28.1625ZM33.8596 33.4125H31.2346V30.0375H33.8596V33.4125Z" fill="url(#paint7_linear)"/>
<path d="M42.9529 17.6625H38.4529C37.9351 17.6625 37.5154 18.0822 37.5154 18.6V23.85C37.5154 24.3678 37.9351 24.7875 38.4529 24.7875H42.9529C43.4707 24.7875 43.8904 24.3678 43.8904 23.85V18.6C43.8904 18.0822 43.4707 17.6625 42.9529 17.6625ZM42.0154 22.9125H39.3904V19.5375H42.0154V22.9125Z" fill="url(#paint8_linear)"/>
<path d="M42.9529 28.1625H38.4529C37.9351 28.1625 37.5154 28.5822 37.5154 29.1V34.35C37.5154 34.8678 37.9351 35.2875 38.4529 35.2875H42.9529C43.4707 35.2875 43.8904 34.8678 43.8904 34.35V29.1C43.8904 28.5822 43.4707 28.1625 42.9529 28.1625ZM42.0154 33.4125H39.3904V30.0375H42.0154V33.4125Z" fill="url(#paint9_linear)"/>
<path d="M51.0625 50.125H47.5458V13.7559C47.5458 13.2381 47.1261 12.8184 46.6083 12.8184H41.405V9.4375C41.405 8.91972 40.9853 8.5 40.4675 8.5H35.3125V4.9375C35.3125 4.41972 34.8928 4 34.375 4H21.625C21.1072 4 20.6875 4.41972 20.6875 4.9375V8.5H15.5326C15.0148 8.5 14.5951 8.91972 14.5951 9.4375V12.8184H9.39166C8.87388 12.8184 8.45416 13.2381 8.45416 13.7559V50.125H4.9375C4.41972 50.125 4 50.5447 4 51.0625C4 51.5803 4.41972 52 4.9375 52H51.0625C51.5803 52 52 51.5803 52 51.0625C52 50.5447 51.5803 50.125 51.0625 50.125ZM22.5625 5.875H33.4375V8.5H22.5625V5.875ZM31.9375 50.125H25.4508L31.9375 43.6383V50.125ZM31.9375 40.9925C31.9166 41.0101 31.896 41.0282 31.8763 41.0478L24.0625 48.8616V44.8883L30.0759 38.875H31.9375V40.9925ZM24.0625 42.2366V38.875H27.4241L24.0625 42.2366ZM45.6708 50.125H39.3916H33.8125V38.875H34.1406C34.6584 38.875 35.0781 38.4553 35.0781 37.9375C35.0781 37.4197 34.6584 37 34.1406 37H21.8594C21.3416 37 20.9219 37.4197 20.9219 37.9375C20.9219 38.4553 21.3416 38.875 21.8594 38.875H22.1875V50.125H10.3292V14.6934H20.7361C21.2538 14.6934 21.6736 14.2737 21.6736 13.7559C21.6736 13.2381 21.2538 12.8184 20.7361 12.8184H16.4701V10.375H39.53V12.8184H28.1429C27.6251 12.8184 27.2054 13.2381 27.2054 13.7559C27.2054 14.2737 27.6251 14.6934 28.1429 14.6934H45.6708V50.125Z" fill="url(#paint10_linear)"/>
<path d="M25.0544 13.0927C24.88 12.9184 24.6382 12.8181 24.3916 12.8181C24.145 12.8181 23.9032 12.9184 23.7288 13.0927C23.5544 13.2671 23.4541 13.509 23.4541 13.7556C23.4541 14.0021 23.5544 14.244 23.7288 14.4184C23.9032 14.5937 24.145 14.6931 24.3916 14.6931C24.6382 14.6931 24.88 14.5937 25.0544 14.4184C25.2288 14.244 25.3291 14.0021 25.3291 13.7556C25.3291 13.509 25.2288 13.2671 25.0544 13.0927Z" fill="url(#paint11_linear)"/>
<defs>
<linearGradient id="paint0_linear" x1="14.3634" y1="24.7875" x2="20.056" y2="23.1934" gradientUnits="userSpaceOnUse">
<stop stop-color="#FE5000"/>
<stop offset="1" stop-color="#FCA92A"/>
</linearGradient>
<linearGradient id="paint1_linear" x1="14.3634" y1="35.2875" x2="20.056" y2="33.6934" gradientUnits="userSpaceOnUse">
<stop stop-color="#FE5000"/>
<stop offset="1" stop-color="#FCA92A"/>
</linearGradient>
<linearGradient id="paint2_linear" x1="14.3634" y1="45.7875" x2="20.056" y2="44.1934" gradientUnits="userSpaceOnUse">
<stop stop-color="#FE5000"/>
<stop offset="1" stop-color="#FCA92A"/>
</linearGradient>
<linearGradient id="paint3_linear" x1="38.8302" y1="45.7875" x2="44.5228" y2="44.1934" gradientUnits="userSpaceOnUse">
<stop stop-color="#FE5000"/>
<stop offset="1" stop-color="#FCA92A"/>
</linearGradient>
<linearGradient id="paint4_linear" x1="22.5189" y1="24.7875" x2="28.2115" y2="23.1934" gradientUnits="userSpaceOnUse">
<stop stop-color="#FE5000"/>
<stop offset="1" stop-color="#FCA92A"/>
</linearGradient>
<linearGradient id="paint5_linear" x1="30.6745" y1="24.7875" x2="36.367" y2="23.1934" gradientUnits="userSpaceOnUse">
<stop stop-color="#FE5000"/>
<stop offset="1" stop-color="#FCA92A"/>
</linearGradient>
<linearGradient id="paint6_linear" x1="22.5189" y1="35.2875" x2="28.2115" y2="33.6934" gradientUnits="userSpaceOnUse">
<stop stop-color="#FE5000"/>
<stop offset="1" stop-color="#FCA92A"/>
</linearGradient>
<linearGradient id="paint7_linear" x1="30.6745" y1="35.2875" x2="36.367" y2="33.6934" gradientUnits="userSpaceOnUse">
<stop stop-color="#FE5000"/>
<stop offset="1" stop-color="#FCA92A"/>
</linearGradient>
<linearGradient id="paint8_linear" x1="38.8302" y1="24.7875" x2="44.5228" y2="23.1934" gradientUnits="userSpaceOnUse">
<stop stop-color="#FE5000"/>
<stop offset="1" stop-color="#FCA92A"/>
</linearGradient>
<linearGradient id="paint9_linear" x1="38.8302" y1="35.2875" x2="44.5228" y2="33.6934" gradientUnits="userSpaceOnUse">
<stop stop-color="#FE5000"/>
<stop offset="1" stop-color="#FCA92A"/>
</linearGradient>
<linearGradient id="paint10_linear" x1="13.9" y1="52" x2="55.9989" y2="38.8244" gradientUnits="userSpaceOnUse">
<stop stop-color="#FE5000"/>
<stop offset="1" stop-color="#FCA92A"/>
</linearGradient>
<linearGradient id="paint11_linear" x1="23.8408" y1="14.6931" x2="25.4853" y2="14.1784" gradientUnits="userSpaceOnUse">
<stop stop-color="#FE5000"/>
<stop offset="1" stop-color="#FCA92A"/>
</linearGradient>
</defs>
</svg>
