<svg width="56" height="56" viewBox="0 0 56 56" fill="none" xmlns="http://www.w3.org/2000/svg">
<path d="M54.2062 28.9406L44.0562 13.1141C44.0344 13.0813 44.0016 13.0375 43.9797 12.9938L43.75 12.6984C42.8969 11.6703 41.9453 10.5 40.0641 10.5H33.8406V9.1547C33.8187 7.48126 32.8672 5.98282 31.3906 5.20626C29.8594 4.4297 28.0984 4.49532 26.6875 5.35939C25.3422 6.19064 24.5 7.64532 24.5 9.22032V10.5H2.94219C1.09375 10.5 0 12.1953 0 13.8359V41.4422C0 43.1484 1.21406 44.3406 2.94219 44.3406H8.17031C8.17031 48.2016 11.3094 51.3406 15.1703 51.3406C19.0312 51.3406 22.1703 48.2016 22.1703 44.3406H36.1703C36.1703 48.2016 39.3094 51.3406 43.1703 51.3406C47.0312 51.3406 50.1703 48.2016 50.1703 44.3406H52.6531C54.5344 44.3406 56 43.0719 56 41.4313V33.5453C56 31.3469 54.3266 29.1156 54.2062 28.9406ZM44.0672 17.5L50.8266 28H37.3297V17.5H44.0672ZM26.8297 9.22032C26.8406 8.4547 27.2453 7.74376 27.9016 7.35001C28.6234 6.90157 29.5094 6.8797 30.3297 7.29532C31.0187 7.65626 31.4562 8.3672 31.5 9.1547V10.5H26.8297V9.22032ZM15.1703 49C12.5891 49 10.5 46.9109 10.5 44.3297C10.5 41.7484 12.5891 39.6594 15.1703 39.6594C17.7516 39.6594 19.8406 41.7484 19.8406 44.3297C19.8297 46.9109 17.7406 49 15.1703 49ZM43.1703 49C40.5891 49 38.5 46.9109 38.5 44.3297C38.5 41.7484 40.5891 39.6594 43.1703 39.6594C45.7516 39.6594 47.8406 41.7484 47.8406 44.3297C47.8297 46.9109 45.7406 49 43.1703 49ZM53.6703 41.4422C53.6703 41.7813 53.1344 42 52.6531 42H49.7547C48.475 38.3578 44.4828 36.4438 40.8406 37.7344C38.85 38.4344 37.275 40.0094 36.575 42H21.7547C20.475 38.3578 16.4828 36.4438 12.8406 37.7344C10.8172 38.4453 9.23125 40.0422 8.54219 42.0766C8.42188 42.0328 8.30156 42.0109 8.15938 42H2.94219C2.42812 42 2.34063 41.8141 2.34063 41.4422V13.8359C2.34063 13.3547 2.61406 12.8297 2.94219 12.8297H40.0531C40.7531 12.8297 41.1031 13.1797 41.9234 14.175L42.5688 15.1703H36.1703C35.525 15.1703 35 15.6953 35 16.3406V29.1703C35 29.8156 35.525 30.3406 36.1703 30.3406H52.3359C52.7188 30.8547 53.6703 32.3969 53.6703 33.5563V41.4422ZM20.9672 24.5H17.5V21.0328C17.5 20.4531 17.0844 19.9281 16.5047 19.8406C15.7828 19.7313 15.1594 20.3 15.1594 21V24.5H11.7031C11.1234 24.5 10.5984 24.9156 10.5109 25.4953C10.4016 26.2172 10.9703 26.8406 11.6703 26.8406H15.1703V30.2969C15.1703 30.8766 15.5859 31.4016 16.1656 31.4891C16.8875 31.5984 17.5109 31.0297 17.5109 30.3297V26.8297H21.0109C21.7109 26.8297 22.2687 26.2063 22.1703 25.4844C22.0719 24.9266 21.5469 24.5 20.9672 24.5Z" fill="url(#paint0_linear)"/>
<defs>
<linearGradient id="paint0_linear" x1="11.55" y1="51.3406" x2="58.8126" y2="33.5942" gradientUnits="userSpaceOnUse">
<stop stop-color="#FE5000"/>
<stop offset="1" stop-color="#FCA92A"/>
</linearGradient>
</defs>
</svg>
