<svg width="56" height="56" viewBox="0 0 56 56" fill="none" xmlns="http://www.w3.org/2000/svg">
<path d="M28.0268 4.84615C28.9153 4.84615 29.6422 5.57308 29.6422 6.46154C29.6422 7.35 28.9153 8.07692 28.0268 8.07692C27.1383 8.07692 26.4114 7.35 26.4114 6.46154C26.4114 5.57308 27.1383 4.84615 28.0268 4.84615ZM49.5383 12.9231C49.5383 10.5404 47.6133 8.61539 45.2307 8.61539H39.2537C38.4595 7.72692 37.4364 7.05385 36.2518 6.71731C35.2557 6.43462 34.5018 5.66731 34.2057 4.67115C33.4383 1.97885 30.948 0 27.9999 0C25.0518 0 22.5614 1.97885 21.7941 4.67115C21.5114 5.66731 20.7441 6.42115 19.748 6.71731C18.5768 7.05385 17.5537 7.72692 16.746 8.61539H10.7691C8.38643 8.61539 6.46143 10.5404 6.46143 12.9231V51.6923C6.46143 54.075 8.38643 56 10.7691 56C20.6633 56 32.8191 56 45.2307 56C47.6133 56 49.5383 54.075 49.5383 51.6923C49.5383 39.4558 49.5383 27.7442 49.5383 12.9231ZM17.2307 12.8827C17.2441 10.9846 18.523 9.30192 20.3403 8.77692C22.0499 8.27885 23.3691 6.97308 23.8537 5.26346C24.3922 3.43269 26.0883 2.15385 27.9999 2.15385C29.9114 2.15385 31.6076 3.43269 32.146 5.26346C32.6441 6.97308 33.9499 8.29231 35.6595 8.77692C37.4903 9.31538 38.7691 11.0115 38.7691 12.9231V15.0769H17.2307V12.8827ZM45.2307 53.8462C33.721 53.8462 22.2383 53.8462 10.7691 53.8462C9.5845 53.8462 8.61527 52.8769 8.61527 51.6923V12.9231C8.61527 11.7385 9.5845 10.7692 10.7691 10.7692H15.4403C15.2114 11.4288 15.0768 12.1288 15.0768 12.8692V17.2308H40.923V12.9231C40.923 12.1692 40.7883 11.4423 40.546 10.7692H45.2307C46.4153 10.7692 47.3845 11.7385 47.3845 12.9231C47.3845 19.075 47.3845 47.9635 47.3845 51.6923C47.3845 52.8769 46.4153 53.8462 45.2307 53.8462ZM36.9518 26.1827L24.0018 39.1327L18.3076 33.425L16.7864 34.9462L24.0153 42.175L38.4864 27.7038L36.9518 26.1827Z" fill="url(#paint0_linear)"/>
<defs>
<linearGradient id="paint0_linear" x1="15.346" y1="56" x2="54.5552" y2="46.5606" gradientUnits="userSpaceOnUse">
<stop stop-color="#FE5000"/>
<stop offset="1" stop-color="#FCA92A"/>
</linearGradient>
</defs>
</svg>
