<svg width="100" height="100" viewBox="0 0 100 100" fill="none" xmlns="http://www.w3.org/2000/svg">
<circle cx="50" cy="50" r="49.5" fill="white" stroke="url(#paint0_linear)"/>
<path d="M53.4591 50C53.4591 56.6 52.3791 61.84 50.2191 65.72C48.0991 69.56 44.7991 71.48 40.3191 71.48C35.7991 71.48 32.4391 69.54 30.2391 65.66C28.0391 61.78 26.9391 56.56 26.9391 50C26.9391 43.44 28.0191 38.22 30.1791 34.34C32.3791 30.46 35.7191 28.52 40.1991 28.52C44.6791 28.52 47.9991 30.46 50.1591 34.34C52.3591 38.22 53.4591 43.44 53.4591 50ZM40.3191 68.54C46.8791 68.54 50.1591 62.36 50.1591 50C50.1591 37.64 46.8391 31.46 40.1991 31.46C33.5591 31.46 30.2391 37.64 30.2391 50C30.2391 62.36 33.5991 68.54 40.3191 68.54ZM62.271 59.588H58.239V58.04H62.271V45.8C63.255 45.8 64.275 45.788 65.331 45.764C66.387 45.74 67.419 45.728 68.427 45.728C74.403 45.728 77.391 48.044 77.391 52.676C77.391 54.812 76.623 56.504 75.087 57.752C73.575 58.976 71.355 59.588 68.427 59.588H64.251V64.016H70.767V65.564H64.251V71H62.271V65.564H58.239V64.016H62.271V59.588ZM68.607 47.6C67.815 47.6 66.363 47.624 64.251 47.672V58.04H68.355C70.635 58.04 72.363 57.596 73.539 56.708C74.715 55.796 75.303 54.5 75.303 52.82C75.303 49.34 73.071 47.6 68.607 47.6Z" fill="url(#paint1_linear)"/>
<defs>
<linearGradient id="paint0_linear" x1="0" y1="100" x2="100" y2="0" gradientUnits="userSpaceOnUse">
<stop stop-color="#FE5000"/>
<stop offset="1" stop-color="#FE9800"/>
</linearGradient>
<linearGradient id="paint1_linear" x1="23" y1="66" x2="40.3793" y2="25.4483" gradientUnits="userSpaceOnUse">
<stop stop-color="#FE5000"/>
<stop offset="1" stop-color="#FE9800"/>
</linearGradient>
</defs>
</svg>
