<svg width="100" height="100" viewBox="0 0 100 100" fill="none" xmlns="http://www.w3.org/2000/svg">
<circle cx="50" cy="50" r="49.5" stroke="url(#paint0_linear)"/>
<g clip-path="url(#clip0)">
<path d="M77.473 34.7279H70.5163L67.5334 28.2596C67.3523 27.8628 66.8622 27.6804 66.4681 27.8628L63.549 29.2251L54.7067 22.8641C54.3551 22.6067 53.8438 22.6925 53.5881 23.0572L45.321 34.7279H24.5256C24.0781 34.7279 23.7266 35.0926 23.7266 35.5324V64.4624C23.7266 64.9022 24.0888 65.2669 24.5256 65.2669H31.4822L34.4652 71.7351C34.6463 72.132 35.1257 72.3144 35.5305 72.132L38.4496 70.7697L47.2919 77.1307C47.6435 77.3881 48.1548 77.3023 48.4105 76.9376L56.6776 65.2669H77.4624C77.9098 65.2669 78.2614 64.9022 78.2614 64.4624V35.5324C78.272 35.0926 77.9098 34.7279 77.473 34.7279ZM66.4148 29.6649L68.7479 34.7279H55.5696L66.4148 29.6649ZM54.4297 24.6555L61.8871 30.0081L51.777 34.7279H47.2919L54.4297 24.6555ZM42.4766 58.0156V63.5614C42.4766 63.5935 42.4766 63.6257 42.4872 63.6579H37.6825C37.6825 63.6257 37.6932 63.5935 37.6932 63.5614V58.0156V56.5139V36.3369H42.4872V56.5139V58.0156H42.4766ZM25.3246 63.6579V36.3369H36.1911V56.5139H31.397C30.9815 56.5139 30.6513 56.8464 30.6513 57.2648C30.6513 57.6831 30.9815 58.0156 31.397 58.0156H36.1911V63.5614C36.1911 63.5935 36.1911 63.6257 36.2017 63.6579H25.3246ZM35.5838 70.3299L33.2507 65.2669H46.429L35.5838 70.3299ZM47.5689 75.35L40.1115 69.9974L50.2216 65.2776H54.7067L47.5689 75.35ZM76.674 63.6579H43.968C43.968 63.6257 43.9787 63.5935 43.9787 63.5614V58.0156H57.6151C58.0305 58.0156 58.3608 57.6831 58.3608 57.2648C58.3608 56.8464 58.0305 56.5139 57.6151 56.5139H43.968V36.3369H45.7259H69.9943H76.674V63.6579ZM63.0483 45.8408H64.4439V40.9708H68.4496C70.7294 40.9708 72.0078 42.1293 72.0078 44.1245C72.0078 46.1304 70.7294 47.3211 68.4496 47.3211H66.1484V48.3079H69.2166V49.2412H66.1484V51.3221H64.4439V49.2412H63.0483V48.3079H64.4439V47.3211H63.0483V45.8408ZM68.2046 45.8408C69.728 45.8408 70.3033 45.1864 70.3033 44.1245C70.3033 43.0626 69.728 42.4404 68.2046 42.4404H66.1484V45.8408H68.2046Z" fill="url(#paint1_linear)"/>
</g>
<defs>
<linearGradient id="paint0_linear" x1="0" y1="100" x2="100" y2="0" gradientUnits="userSpaceOnUse">
<stop stop-color="#FE5000"/>
<stop offset="1" stop-color="#FE9800"/>
</linearGradient>
<linearGradient id="paint1_linear" x1="23.7266" y1="77.2791" x2="78.2899" y2="22.744" gradientUnits="userSpaceOnUse">
<stop stop-color="#FE5000"/>
<stop offset="1" stop-color="#FE9800"/>
</linearGradient>
<clipPath id="clip0">
<rect x="23.7266" y="22.7273" width="54.5455" height="54.5455" fill="white"/>
</clipPath>
</defs>
</svg>
