<svg width="100" height="100" viewBox="0 0 100 100" fill="none" xmlns="http://www.w3.org/2000/svg">
<path d="M67.0832 39.394H32.9167C32.4309 39.394 32.0371 39.7878 32.0371 40.2737C32.0371 40.7595 32.4309 41.1533 32.9167 41.1533H67.0832C67.5691 41.1533 67.9628 40.7595 67.9628 40.2737C67.9628 39.7878 67.5691 39.394 67.0832 39.394Z" fill="url(#paint0_linear)"/>
<path d="M67.0832 48.9718H32.9167C32.4309 48.9718 32.0371 49.3656 32.0371 49.8514C32.0371 50.3372 32.4309 50.731 32.9167 50.731H67.0832C67.5691 50.731 67.9628 50.3373 67.9628 49.8514C67.9628 49.3656 67.5691 48.9718 67.0832 48.9718Z" fill="url(#paint1_linear)"/>
<path d="M55.8819 55.1874H44.1179C43.632 55.1874 43.2383 55.5811 43.2383 56.067C43.2383 56.5527 43.632 56.9466 44.1179 56.9466H55.8819C56.3677 56.9466 56.7615 56.5528 56.7615 56.067C56.7615 55.5811 56.3677 55.1874 55.8819 55.1874Z" fill="url(#paint2_linear)"/>
<path d="M67.0836 44.1631H41.5984C41.1125 44.1631 40.7188 44.5568 40.7188 45.0427C40.7188 45.5284 41.1125 45.9223 41.5984 45.9223H67.0836C67.5695 45.9223 67.9632 45.5286 67.9632 45.0427C67.9632 44.5568 67.5695 44.1631 67.0836 44.1631Z" fill="url(#paint3_linear)"/>
<path d="M37.5056 44.1631H32.9167C32.4309 44.1631 32.0371 44.5568 32.0371 45.0427C32.0371 45.5286 32.4309 45.9223 32.9167 45.9223H37.5056C37.9914 45.9223 38.3852 45.5286 38.3852 45.0427C38.3852 44.557 37.9914 44.1631 37.5056 44.1631Z" fill="url(#paint4_linear)"/>
<path d="M77.5584 29H22.4416C21.0954 29 20 30.0954 20 31.4416V68.6451C20 69.9915 21.0954 71.0867 22.4416 71.0867H59.3613L58.0542 73.8257C57.8862 74.1774 57.9271 74.5898 58.1606 74.9018C58.3941 75.2138 58.7784 75.3689 59.1629 75.3073L61.5964 74.9162L62.9538 77.1443C63.1441 77.4569 63.4823 77.6456 63.8457 77.6456C63.8634 77.6456 63.8812 77.6451 63.899 77.6442C64.2825 77.6247 64.6234 77.3974 64.7889 77.0507L67.1475 72.1086L69.5057 77.0504C69.671 77.397 70.0119 77.6246 70.3954 77.6443C70.4134 77.6452 70.4314 77.6457 70.4492 77.6457C70.8126 77.6457 71.1508 77.457 71.3411 77.1445L72.6985 74.9164L75.132 75.3077C75.5177 75.3693 75.9013 75.2138 76.1346 74.9016C76.368 74.5895 76.4086 74.1772 76.2406 73.8261L74.9335 71.0871H77.5584C78.9046 71.0871 80 69.9918 80 68.6455V31.4416C80 30.0954 78.9046 29 77.5584 29ZM63.7696 75.1021L62.8489 73.591C62.6272 73.227 62.2121 73.0355 61.7909 73.1032L60.2284 73.3544L61.8744 69.9053C62.5231 70.5673 63.4474 70.925 64.4068 70.8346C64.7348 70.8032 65.0636 70.8916 65.3323 71.0825C65.4209 71.1455 65.5129 71.2014 65.6061 71.2542L63.7696 75.1021ZM67.3572 69.8864C67.3545 69.8867 67.3518 69.887 67.349 69.8874C67.2157 69.9071 67.0801 69.9071 66.9467 69.8875C66.9433 69.8871 66.9399 69.8867 66.9366 69.8862C66.73 69.8543 66.5292 69.7752 66.3513 69.6487C65.8193 69.2704 65.184 69.0693 64.5359 69.0693C64.4377 69.0693 64.3393 69.074 64.2409 69.0833C63.6586 69.1382 63.1053 68.8184 62.8623 68.2873C62.7543 68.0516 62.6166 67.8334 62.4568 67.6338C62.4498 67.6238 62.442 67.6145 62.4347 67.6048C62.4257 67.5941 62.4174 67.5829 62.4085 67.5723C62.3983 67.5603 62.3877 67.5489 62.3768 67.5376C62.0859 67.2029 61.7265 66.9296 61.3171 66.7423C60.7859 66.4993 60.4661 65.9452 60.5212 65.3636C60.592 64.6153 60.3913 63.8657 59.9558 63.2532C59.6172 62.7771 59.6172 62.1373 59.9557 61.6612C60.3912 61.0487 60.592 60.2991 60.5212 59.5508C60.4661 58.9692 60.7861 58.4151 61.3171 58.1721C62.0007 57.8593 62.5494 57.3106 62.8621 56.6271C63.1053 56.0959 63.6605 55.7759 64.2409 55.8311C64.99 55.9018 65.7389 55.7011 66.3514 55.2656C66.8277 54.9271 67.4674 54.9271 67.9434 55.2656C68.5561 55.7011 69.305 55.9013 70.0539 55.8311C70.636 55.7758 71.1897 56.096 71.4328 56.6271C71.7455 57.3106 72.2942 57.8593 72.9777 58.172C73.5089 58.4151 73.8288 58.9692 73.7737 59.5507C73.7029 60.2991 73.9037 61.0487 74.3391 61.6611C74.6777 62.1372 74.6777 62.777 74.3391 63.2531C73.9037 63.8657 73.7029 64.6153 73.7737 65.3635C73.8288 65.9451 73.5089 66.4992 72.9775 66.7423C72.5691 66.9293 72.2105 67.2018 71.92 67.5355C71.9081 67.5479 71.8964 67.5604 71.8854 67.5734C71.8777 67.5826 71.8706 67.5921 71.863 67.6013C71.8542 67.6126 71.8453 67.6236 71.8371 67.6352C71.6777 67.8344 71.5404 68.0521 71.4328 68.2873C71.1896 68.8184 70.6355 69.1385 70.0539 69.0833C69.3063 69.0129 68.5563 69.2132 67.9434 69.6487C67.7653 69.7753 67.5642 69.8545 67.3572 69.8864ZM72.5039 73.103C72.0826 73.0357 71.6677 73.227 71.4459 73.5911L70.5253 75.1023L68.6888 71.2542C68.782 71.2014 68.8739 71.1455 68.9626 71.0825C69.2314 70.8915 69.5605 70.8029 69.8881 70.8345C70.8479 70.925 71.7719 70.5673 72.4207 69.9053L74.0666 73.3543L72.5039 73.103ZM78.2409 68.6452C78.2409 69.0215 77.9348 69.3277 77.5584 69.3277H74.094L73.6405 68.3773C73.6633 68.3653 73.6861 68.3526 73.7097 68.3418C74.921 67.7874 75.6505 66.5239 75.525 65.1978C75.4939 64.8697 75.5819 64.541 75.7729 64.2723C76.5447 63.1865 76.5447 61.7275 75.7728 60.6418C75.5819 60.3732 75.4939 60.0446 75.525 59.7164C75.6505 58.3903 74.921 57.1268 73.7096 56.5723C73.41 56.4351 73.1694 56.1945 73.0321 55.8949C72.4778 54.6835 71.2137 53.9543 69.888 54.0796C69.5596 54.1109 69.2312 54.0227 68.9626 53.8317C67.8768 53.0599 66.4177 53.0598 65.3321 53.8317C65.0634 54.0227 64.734 54.1109 64.4067 54.0795C63.0789 53.9546 61.8168 54.6835 61.2627 55.8948C61.1254 56.1945 60.8848 56.435 60.5851 56.5722C59.3738 57.1266 58.6443 58.39 58.7698 59.7162C58.8009 60.0445 58.7129 60.3731 58.5219 60.6418C57.7501 61.7275 57.7501 63.1865 58.5219 64.2721C58.7129 64.5407 58.8009 64.8695 58.7698 65.1977C58.6443 66.5239 59.3738 67.7874 60.5851 68.3417C60.6087 68.3525 60.6314 68.3652 60.6542 68.3772L60.2007 69.3277H22.4416C22.0653 69.3277 21.7591 69.0216 21.7591 68.6452V31.4416C21.7591 31.0653 22.0652 30.7591 22.4416 30.7591H77.5584C77.9347 30.7591 78.2409 31.0653 78.2409 31.4416V68.6452Z" fill="url(#paint5_linear)"/>
<path d="M67.0821 56.9922C64.0688 56.9922 61.6172 59.4437 61.6172 62.457C61.6172 65.4704 64.0688 67.9219 67.0821 67.9219C70.0955 67.9219 72.5469 65.4702 72.5469 62.457C72.5469 59.4436 70.0955 56.9922 67.0821 56.9922ZM67.0821 66.1627C65.0387 66.1627 63.3763 64.5003 63.3763 62.4569C63.3763 60.4136 65.0387 58.7512 67.0821 58.7512C69.1254 58.7512 70.7878 60.4136 70.7878 62.4569C70.7878 64.5003 69.1254 66.1627 67.0821 66.1627Z" fill="url(#paint6_linear)"/>
<circle cx="50" cy="50" r="49.5" stroke="url(#paint7_linear)"/>
<defs>
<linearGradient id="paint0_linear" x1="32.0371" y1="41.1533" x2="32.209" y2="37.6432" gradientUnits="userSpaceOnUse">
<stop stop-color="#FE5000"/>
<stop offset="1" stop-color="#FE9800"/>
</linearGradient>
<linearGradient id="paint1_linear" x1="32.0371" y1="50.731" x2="32.209" y2="47.221" gradientUnits="userSpaceOnUse">
<stop stop-color="#FE5000"/>
<stop offset="1" stop-color="#FE9800"/>
</linearGradient>
<linearGradient id="paint2_linear" x1="43.2383" y1="56.9466" x2="43.6884" y2="53.4867" gradientUnits="userSpaceOnUse">
<stop stop-color="#FE5000"/>
<stop offset="1" stop-color="#FE9800"/>
</linearGradient>
<linearGradient id="paint3_linear" x1="40.7188" y1="45.9223" x2="40.945" y2="42.4185" gradientUnits="userSpaceOnUse">
<stop stop-color="#FE5000"/>
<stop offset="1" stop-color="#FE9800"/>
</linearGradient>
<linearGradient id="paint4_linear" x1="32.0371" y1="45.9223" x2="32.9426" y2="42.6548" gradientUnits="userSpaceOnUse">
<stop stop-color="#FE5000"/>
<stop offset="1" stop-color="#FE9800"/>
</linearGradient>
<linearGradient id="paint5_linear" x1="20" y1="77.6457" x2="67.5946" y2="18.9422" gradientUnits="userSpaceOnUse">
<stop stop-color="#FE5000"/>
<stop offset="1" stop-color="#FE9800"/>
</linearGradient>
<linearGradient id="paint6_linear" x1="61.6172" y1="67.9219" x2="72.5469" y2="56.9922" gradientUnits="userSpaceOnUse">
<stop stop-color="#FE5000"/>
<stop offset="1" stop-color="#FE9800"/>
</linearGradient>
<linearGradient id="paint7_linear" x1="0" y1="100" x2="100" y2="0" gradientUnits="userSpaceOnUse">
<stop stop-color="#FE5000"/>
<stop offset="1" stop-color="#FE9800"/>
</linearGradient>
</defs>
</svg>
