<svg width="80" height="80" viewBox="0 0 80 80" fill="none" xmlns="http://www.w3.org/2000/svg">
<path d="M16.1831 58.4625C16.7835 58.4625 17.2703 57.9757 17.2703 57.3753V37.6397C17.2703 37.0393 16.7835 36.5525 16.1831 36.5525H11.9648C11.3643 36.5525 10.8776 37.0393 10.8776 37.6397C10.8776 38.2401 11.3643 38.7269 11.9648 38.7269H15.0959V57.3753C15.0959 57.9757 15.5825 58.4625 16.1831 58.4625Z" fill="#FE5000"/>
<path d="M34.9303 43.3123C34.9385 43.2768 34.9451 43.2408 34.9495 43.2046L35.0471 42.4412C35.053 42.3956 35.0559 42.3495 35.0559 42.3034C35.0559 38.9193 32.3027 36.1663 28.9188 36.1663C25.9925 36.1663 23.46 38.2476 22.8968 41.1152C22.7811 41.7043 23.165 42.2757 23.7541 42.3915C24.3435 42.5068 24.9148 42.1234 25.0304 41.5342C25.3939 39.6838 27.0291 38.3408 28.9188 38.3408C31.0822 38.3408 32.8462 40.0832 32.8811 42.2385L32.8 42.8725C32.5282 44.001 31.8832 45.2978 30.8823 46.7281C27.7425 51.2142 25.8676 53.6692 24.8604 54.988C23.6957 56.5131 23.4189 56.8755 23.6264 57.55C23.7399 57.919 24.0234 58.2035 24.4045 58.3305C24.5506 58.3792 24.8097 58.4656 28.5382 58.4656C30.0166 58.4656 32.0405 58.452 34.8191 58.4172C35.4195 58.4096 35.9 57.9168 35.8925 57.3164C35.885 56.7159 35.393 56.2328 34.7917 56.2429C31.8034 56.2806 28.5379 56.2998 26.608 56.2822C27.6296 54.9447 29.5184 52.4691 32.6637 47.9749C33.8402 46.2937 34.6028 44.7251 34.9303 43.3123Z" fill="#FE5000"/>
<path fill-rule="evenodd" clip-rule="evenodd" d="M76.7402 29.0249C76.6232 26.9827 76.4756 24.9281 76.3017 22.9188C76.1574 21.2397 75.9962 19.5789 75.8223 17.9833C75.451 14.5639 72.7019 11.8865 69.2848 11.617C67.9424 11.5116 66.6071 11.4139 65.2994 11.3248V11.1723C65.2994 8.87165 63.4277 6.99994 61.127 6.99994C58.934 6.99994 57.1318 8.70132 56.9682 10.8532C45.7025 10.3394 34.2983 10.3394 23.0326 10.8532C22.869 8.70132 21.067 6.99994 18.8738 6.99994C16.5731 6.99994 14.7014 8.87165 14.7014 11.1723V11.3248C13.3939 11.4139 12.0584 11.5116 10.7157 11.6172C7.2992 11.8864 4.55005 14.5638 4.17881 17.9828C4.005 19.5789 3.84366 21.2396 3.69957 22.9179C3.52548 24.9279 3.37791 26.9826 3.26107 29.0239C2.70167 38.639 2.78053 48.3933 3.49562 58.0159L3.86091 62.3355C3.95572 63.3543 4.06255 64.4136 4.17852 65.4846C4.54947 68.904 7.29877 71.5814 10.7156 71.8508C20.4315 72.617 30.2159 73 40.0003 73C49.7846 73 59.569 72.6169 69.2849 71.8508C72.7019 71.5814 75.4512 68.9039 75.8221 65.4844C77.1346 53.3876 77.4434 41.1204 76.7402 29.0249ZM5.43184 29.1493C4.87795 38.6699 4.95608 48.3275 5.66406 57.8548L6.02602 62.134C6.11981 63.1419 6.22549 64.1902 6.34029 65.2502C6.59861 67.6314 8.51062 69.4959 10.8866 69.6832C30.2052 71.2067 49.7956 71.2067 69.1141 69.6832C71.49 69.4959 73.402 67.6314 73.6605 65.25C74.9598 53.2725 75.2655 41.1268 74.5693 29.1501C74.5446 28.7187 74.5178 28.2869 74.4904 27.8551H67.6411L62.6706 27.8552H5.51069C5.4833 28.2868 5.45648 28.7183 5.43184 29.1493ZM5.66044 25.6808H62.6706L67.6411 25.6807H74.3406C74.2769 24.8173 74.209 23.957 74.1352 23.1055C73.9925 21.4421 73.8329 19.7981 73.6606 18.2183C73.4022 15.8364 71.4902 13.9719 69.1143 13.7846C67.8305 13.6839 66.5523 13.5899 65.2995 13.504V17.1317C65.2995 19.4324 63.428 21.3041 61.1273 21.3041C58.8267 21.3041 56.955 19.4324 56.955 17.1317V13.0292C45.6986 12.5132 34.3026 12.5132 23.0463 13.0292V17.1317C23.0463 19.4324 21.1747 21.3041 18.874 21.3041C16.5734 21.3041 14.7017 19.4324 14.7017 17.1317V13.504C13.4489 13.5899 12.1707 13.684 10.8865 13.7848C8.51106 13.972 6.5989 15.8365 6.34044 18.218C6.16837 19.7982 6.00877 21.4422 5.86599 23.1049C5.7922 23.9567 5.72422 24.8174 5.66044 25.6808ZM18.874 19.1297C19.9756 19.1297 20.8719 18.2334 20.8719 17.1317V11.1722C20.8719 10.0705 19.9757 9.17418 18.874 9.17418C17.7724 9.17418 16.8761 10.0705 16.8761 11.1722V17.1317C16.8761 18.2334 17.7725 19.1297 18.874 19.1297ZM61.1273 19.1297C62.2289 19.1297 63.1252 18.2334 63.1252 17.1317L63.1253 11.1722C63.1253 10.0705 62.2292 9.17418 61.1275 9.17418C60.0258 9.17418 59.1295 10.0705 59.1295 11.1722V17.1317C59.1295 18.2334 60.0256 19.1297 61.1273 19.1297Z" fill="#449099"/>
<path d="M44.8239 38.2432H66.8054C67.4058 38.2432 67.8926 37.7565 67.8926 37.156C67.8926 36.5556 67.4058 36.0688 66.8054 36.0688H44.8239C44.2235 36.0688 43.7367 36.5556 43.7367 37.156C43.7367 37.7565 44.2235 38.2432 44.8239 38.2432Z" fill="#449099"/>
<path d="M44.8239 43.6904H66.8054C67.4058 43.6904 67.8926 43.2036 67.8926 42.6032C67.8926 42.0028 67.4058 41.516 66.8054 41.516H44.8239C44.2235 41.516 43.7367 42.0028 43.7367 42.6032C43.7367 43.2036 44.2235 43.6904 44.8239 43.6904Z" fill="#449099"/>
<path d="M44.8239 49.1377H66.8054C67.4058 49.1377 67.8926 48.6509 67.8926 48.0505C67.8926 47.4501 67.4058 46.9633 66.8054 46.9633H44.8239C44.2235 46.9633 43.7367 47.4501 43.7367 48.0505C43.7367 48.6509 44.2235 49.1377 44.8239 49.1377Z" fill="#449099"/>
<path d="M44.8239 54.5848H66.8054C67.4058 54.5848 67.8926 54.098 67.8926 53.4976C67.8926 52.8972 67.4058 52.4104 66.8054 52.4104H44.8239C44.2235 52.4104 43.7367 52.8972 43.7367 53.4976C43.7367 54.098 44.2235 54.5848 44.8239 54.5848Z" fill="#449099"/>
<path d="M44.8239 60.0319H66.8054C67.4058 60.0319 67.8926 59.5452 67.8926 58.9447C67.8926 58.3443 67.4058 57.8575 66.8054 57.8575H44.8239C44.2235 57.8575 43.7367 58.3443 43.7367 58.9447C43.7367 59.5452 44.2235 60.0319 44.8239 60.0319Z" fill="#449099"/>
</svg>
