<svg width="80" height="80" viewBox="0 0 80 80" fill="none" xmlns="http://www.w3.org/2000/svg">
<path fill-rule="evenodd" clip-rule="evenodd" d="M20.9467 52.6058H12.3842C12.3162 52.6058 12.3162 52.6058 12.2482 52.5379C12.2482 52.4699 12.1803 52.4019 12.1803 52.266L13.9472 45.9461C15.5101 40.9853 18.5002 39.4902 24.3445 37.9952C24.6163 37.9272 24.8202 37.7913 24.9561 37.6554C25.4318 38.0632 25.9754 38.4029 26.5191 38.6748C26.7229 38.8107 26.9268 38.8107 27.1307 38.8107C27.6064 38.8107 28.0821 38.5389 28.3539 38.0632C28.6937 37.3836 28.4219 36.5681 27.7423 36.2283C24.6163 34.5974 22.3737 29.9764 22.3737 25.2194C22.3737 21.0061 25.8395 17.5403 30.0528 17.5403C30.8683 17.5403 31.6158 17.6762 32.3633 17.8801L33.6545 15.4337C32.4992 15.026 31.276 14.8221 30.0528 14.8221C26.3832 14.8221 23.1213 16.7928 21.2864 19.7149C21.1505 19.579 21.0146 19.5111 20.8787 19.4431C19.8594 18.8995 18.84 18.6956 17.6847 18.6956C13.8792 18.6276 10.8212 21.6857 10.8212 25.4912C10.8212 27.6658 11.4328 29.7045 12.3842 31.3355C9.25816 32.151 6.47195 33.3742 5.18078 37.5195L4.09348 41.461C3.88961 42.1405 4.02552 42.8881 4.43326 43.4317C4.841 44.0433 5.58852 44.3831 6.33604 44.3831H11.5687C11.5007 44.6549 11.3648 44.9267 11.2969 45.1986L9.52999 51.5865C9.25816 52.4699 9.46203 53.4213 10.0736 54.1688C10.6173 54.9163 11.4328 55.3241 12.3842 55.3241H19.5875L20.9467 52.6058ZM7.83108 38.267L6.87969 41.6648H12.9278C15.3063 37.9272 18.908 36.5681 22.9853 35.5488C20.9467 32.8985 19.6555 29.0929 19.6555 25.2194C19.6555 24.0641 19.8594 22.9768 20.1991 21.9575C20.0378 21.9575 19.919 21.9149 19.7755 21.8635C19.7376 21.85 19.698 21.8358 19.6555 21.8216C19.0439 21.4818 18.4323 21.3459 17.6847 21.3459C15.3742 21.3459 13.5394 23.1807 13.5394 25.4912C13.5394 28.2095 14.8306 30.8598 16.5974 31.8112C17.2091 32.151 17.4809 32.9664 17.1411 33.646C16.8693 34.1217 16.3936 34.3935 15.9179 34.3935C15.714 34.3935 15.5101 34.3935 15.3063 34.2576C14.8985 34.0537 14.6267 33.8499 14.2869 33.578C14.151 33.7139 13.9472 33.7819 13.7433 33.8499C10.3455 34.6653 8.64656 35.4808 7.83108 38.267Z" fill="#449099"/>
<path fill-rule="evenodd" clip-rule="evenodd" d="M31.2081 23.7923C31.2081 21.6857 31.6158 19.715 32.3633 17.8801L33.6545 15.4337C36.3728 11.2204 41.1297 8.4342 46.4982 8.4342C54.9928 8.4342 61.8564 15.2978 61.8564 23.7923C61.8564 35.209 54.653 45.1986 46.4982 45.1986C38.2076 45.1986 31.2081 35.4129 31.2081 23.7923ZM39.091 25.3553C44.5275 25.3553 49.0126 23.6564 51.3231 20.4625C53.022 21.9575 55.1287 22.773 57.3713 22.773C57.9149 22.773 58.5265 22.705 59.0702 22.5691C59.1381 22.9769 59.1381 23.3166 59.1381 23.7244C59.1381 33.714 53.2259 42.4803 46.4982 42.4803C40.0424 42.4803 34.402 34.3935 33.9263 24.8796C35.6932 25.2194 37.46 25.3553 39.091 25.3553ZM35.4893 17.8122C35.4214 17.9481 35.3534 18.0161 35.2854 18.084C34.6738 19.3752 34.2661 20.7343 34.0622 22.1614C41.3336 23.5885 47.7215 21.9575 49.6242 18.084C49.6582 18.05 49.6752 18.0161 49.6922 17.9821C49.7092 17.9481 49.7262 17.9141 49.7601 17.8801C49.8281 17.6083 49.964 17.4044 50.2358 17.2006C50.8474 16.7249 51.6629 16.8608 52.1386 17.4724C53.6337 19.5111 56.148 20.4625 58.5265 19.9868C56.8956 14.8901 52.1386 11.1525 46.4982 11.1525C41.8093 11.1525 37.7319 13.7348 35.6252 17.5404C35.5913 17.5743 35.5743 17.6253 35.5573 17.6763C35.5403 17.7272 35.5233 17.7782 35.4893 17.8122Z" fill="#FE5000"/>
<path fill-rule="evenodd" clip-rule="evenodd" d="M75.8554 66.6728L73.0012 56.7511C72.9332 56.5473 72.7973 56.3434 72.6614 56.2075C70.8946 50.8389 66.5453 46.6936 61.0409 45.2665L60.2254 45.1306C59.0022 44.7908 57.6431 45.1986 56.7596 46.2179C53.7696 49.6157 49.964 49.8876 45.9546 49.8876C41.9452 49.8876 38.1396 49.6157 35.1495 46.2179C34.2661 45.1986 32.907 44.7908 31.6837 45.1306L30.8683 45.3345C26.7229 46.4218 23.1892 49.0721 20.9466 52.6058L19.5875 55.3241C19.3836 55.7997 19.2477 56.2754 19.1118 56.7511L16.2577 66.7407C15.9858 67.896 16.1897 69.1192 16.9372 70.0706C17.6847 71.022 18.772 71.5656 19.9273 71.5656H60.7011H63.0116H72.1857C73.341 71.5656 74.4962 71.022 75.1758 70.0706C75.9233 69.1192 76.1952 67.896 75.8554 66.6728ZM72.1857 68.8474C72.6614 68.8474 72.9332 68.5755 73.0692 68.4396C73.273 68.1678 73.341 67.7601 73.273 67.4203L71.778 62.2556C71.6421 62.1197 71.5741 61.9838 71.5062 61.7799L70.2829 57.5666C68.9238 52.8776 65.1183 49.208 60.4293 47.9848L59.6138 47.7809C59.274 47.7129 59.0022 47.8489 58.7983 48.0527C55.0607 52.334 50.4397 52.6738 45.9546 52.6738C41.4695 52.6738 36.8484 52.334 33.1108 48.0527C32.907 47.8489 32.5672 47.7129 32.3633 47.7809L31.5478 47.9848C26.7909 49.208 23.0533 52.8776 21.6942 57.5666L18.84 67.4882C18.772 67.7601 18.84 68.1678 19.0439 68.4396C19.1798 68.5755 19.4516 68.8474 19.9273 68.8474H60.7011H63.0116H72.1857Z" fill="#449099"/>
</svg>
