<svg width="80" height="80" viewBox="0 0 80 80" fill="none" xmlns="http://www.w3.org/2000/svg">
<path d="M76.5856 12.2017H68.8083C68.1609 12.2017 67.6364 12.7263 67.6364 13.3736C67.6364 14.0209 68.1609 14.5455 68.8083 14.5455H76.5856C77.1758 14.5455 77.6559 15.0256 77.6559 15.6161V50.0898C77.6559 50.68 77.1758 51.1602 76.5856 51.1602H73.2733V22.7634C73.2733 20.8806 71.7416 19.3489 69.8591 19.3489H15.7973V15.6163C15.7973 15.0259 16.2773 14.5456 16.8677 14.5456H64.5892C65.2366 14.5456 65.7611 14.0211 65.7611 13.3738C65.7611 12.7264 65.2366 12.2019 64.5892 12.2019H16.8677C14.985 12.2019 13.4534 13.7338 13.4534 15.6164V19.3489H10.1409C8.25813 19.3489 6.72656 20.8808 6.72656 22.7634V26.4959H3.41437C1.53172 26.4958 0 28.0277 0 29.9103V64.3841C0 66.2667 1.53172 67.7983 3.41437 67.7983H63.1322C65.015 67.7983 66.5466 66.2666 66.5466 64.3841V60.6512H69.8589C71.7416 60.6512 73.2731 59.1195 73.2731 57.237V53.5042H76.5855C78.4683 53.5042 79.9997 51.9725 79.9997 50.09V15.6163C80 13.7334 78.4683 12.2017 76.5856 12.2017ZM64.2027 64.3841C64.2027 64.9742 63.7225 65.4544 63.1322 65.4544H3.41437C2.82422 65.4544 2.34391 64.9744 2.34391 64.3841V29.9103C2.34391 29.32 2.82406 28.8397 3.41437 28.8397C4.61625 28.8397 60.66 28.8397 63.1322 28.8397C63.7223 28.8397 64.2027 29.3198 64.2027 29.9103C64.2027 31.7061 64.2027 62.8787 64.2027 64.3841ZM70.9294 57.2369C70.9294 57.827 70.4494 58.3072 69.8591 58.3072H66.5467V29.9103C66.5467 28.0275 65.015 26.4958 63.1323 26.4958H9.07047V22.7633C9.07047 22.173 9.55062 21.6927 10.1409 21.6927C11.3428 21.6927 67.3866 21.6927 69.8589 21.6927C70.4491 21.6927 70.9292 22.1728 70.9292 22.7633C70.9294 24.5591 70.9294 55.7317 70.9294 57.2369Z" fill="#449099"/>
<path d="M44.1499 39.6019C43.7785 39.0724 43.0476 38.9439 42.5174 39.316C41.9876 39.6877 41.8596 40.4186 42.2315 40.9485C47.2963 48.1658 42.1041 58.1588 33.2735 58.1588C27.2435 58.1588 22.3379 53.2528 22.3379 47.2228C22.3379 38.3092 32.4905 33.145 39.6866 38.3639C40.2101 38.7438 40.9434 38.6272 41.3235 38.1033C41.7035 37.5792 41.5866 36.8466 41.0629 36.4664C38.7868 34.8158 36.0934 33.9433 33.2737 33.9433C25.9513 33.9433 19.9941 39.9005 19.9941 47.2228C19.9941 54.5453 25.9513 60.5027 33.2737 60.5027C44.0045 60.5027 50.2979 48.3616 44.1499 39.6019Z" fill="#FE5000"/>
<path d="M59.3585 32.1438H48.4204C47.7731 32.1438 47.2485 32.6683 47.2485 33.3157C47.2485 33.963 47.7731 34.4875 48.4204 34.4875H59.3585C60.0057 34.4875 60.5304 33.963 60.5304 33.3157C60.5304 32.6683 60.006 32.1438 59.3585 32.1438Z" fill="#449099"/>
<path d="M18.1261 59.958H7.18799C6.54064 59.958 6.01611 60.4825 6.01611 61.1299C6.01611 61.7771 6.54064 62.3018 7.18799 62.3018H18.1261C18.7735 62.3018 19.298 61.7771 19.298 61.1299C19.298 60.4825 18.7735 59.958 18.1261 59.958Z" fill="#449099"/>
<path d="M34.712 48.769H32.604V49.704H36.395V51.2H32.604V52.9H30.275V51.2H29V49.704H30.275V48.769H29V46.712H30.275V41H34.712C35.834 41 36.7803 41.3853 37.551 42.156C38.333 42.9267 38.724 43.856 38.724 44.944C38.724 46.032 38.3387 46.9443 37.568 47.681C36.7973 48.4063 35.8453 48.769 34.712 48.769ZM32.604 43.193V46.712H34.712C35.188 46.712 35.5847 46.542 35.902 46.202C36.2307 45.862 36.395 45.4427 36.395 44.944C36.395 44.4453 36.2307 44.0317 35.902 43.703C35.5847 43.363 35.188 43.193 34.712 43.193H32.604Z" fill="#FE5000"/>
</svg>
