<svg width="56" height="56" viewBox="0 0 56 56" fill="none" xmlns="http://www.w3.org/2000/svg">
<path d="M25.7906 2.00156C23.2531 0.689062 20.3875 0 17.4781 0C7.84219 0 0 7.44844 0 16.6031C0 22.0391 2.75625 27.0594 7.41563 30.1766L5.30469 36.5094C5.20625 36.8156 5.29375 37.1547 5.53437 37.3734C5.80781 37.625 6.22344 37.6578 6.52969 37.4609L13.7375 32.8234C14.9625 33.075 16.2203 33.2062 17.4781 33.2062C18.7469 33.2062 19.9937 33.075 21.1969 32.8234C21.0984 33.5453 21.0437 34.2781 21.0437 35.0109C21.0437 44.1656 28.8859 51.6141 38.5219 51.6141C39.7797 51.6141 41.0375 51.4828 42.2625 51.2313L49.4703 55.8687C49.7766 56.0656 50.1922 56.0328 50.4656 55.7812C50.7062 55.5625 50.7938 55.2234 50.6953 54.9172L48.5844 48.5844C53.2438 45.4672 56 40.4469 56 35.0109C56 25.8563 48.1578 18.4078 38.5219 18.4078C37.2641 18.4078 36.0281 18.5391 34.8031 18.7906C34.9016 18.0797 34.9562 17.3469 34.9562 16.6031C34.9562 11.9656 32.8891 7.50313 29.2797 4.36406L25.7906 2.00156ZM28.2078 5.6C31.4562 8.42188 33.3156 12.4359 33.3156 16.6031C33.3156 24.85 26.2172 31.5656 17.4781 31.5656C16.2203 31.5656 14.9734 31.4234 13.7594 31.15C13.5406 31.1062 13.3219 31.1391 13.1359 31.2594L7.60156 34.8141L9.17656 30.0891C9.29688 29.7281 9.15469 29.3344 8.82656 29.1266C4.33125 26.3594 1.64062 21.6672 1.64062 16.6031C1.64062 8.35625 8.75 1.64062 17.4781 1.64062C20.125 1.64062 22.7391 2.26406 25.0469 3.45625L28.2078 5.6ZM47.1734 47.5453C46.8453 47.7422 46.7031 48.1469 46.8234 48.5078L48.3984 53.2328L42.8641 49.6781C42.6781 49.5578 42.4484 49.5141 42.2406 49.5688C41.0266 49.8422 39.7797 49.9844 38.5219 49.9844C29.7938 49.9844 22.6844 43.2688 22.6844 35.0219C22.6844 34.1359 22.7719 33.25 22.9359 32.3859C28.6234 30.6141 33.0203 26.1297 34.4641 20.5625C35.7875 20.2344 37.1438 20.0594 38.5219 20.0594C47.25 20.0594 54.3594 26.775 54.3594 35.0219C54.3594 40.0859 51.6687 44.7672 47.1734 47.5453ZM25.375 13.1469H20.9344V8.71719C20.9344 8.25781 20.5625 7.89687 20.1141 7.89687H14.8531C14.3938 7.89687 14.0328 8.26875 14.0328 8.71719V13.1578H9.59219C9.13281 13.1578 8.77187 13.5297 8.77187 13.9781V19.2391C8.77187 19.6984 9.14375 20.0594 9.59219 20.0594H14.0328V24.5C14.0328 24.9484 14.4047 25.3203 14.8531 25.3203H20.1141C20.5734 25.3203 20.9344 24.9484 20.9344 24.5V20.0594H25.375C25.8344 20.0594 26.1953 19.6875 26.1953 19.2391V13.9781C26.1953 13.5188 25.8234 13.1469 25.375 13.1469ZM24.5437 18.4078H20.1031C19.6438 18.4078 19.2828 18.7797 19.2828 19.2281V23.6687H15.6625V19.2281C15.6625 18.7688 15.2906 18.4078 14.8422 18.4078H10.4125V14.7875H14.8531C15.3125 14.7875 15.6734 14.4156 15.6734 13.9672V9.5375H19.2937V13.9781C19.2937 14.4375 19.6656 14.7984 20.1141 14.7984H24.5547L24.5437 18.4078Z" fill="url(#paint0_linear)"/>
<defs>
<linearGradient id="paint0_linear" x1="11.55" y1="55.9962" x2="60.6648" y2="40.6238" gradientUnits="userSpaceOnUse">
<stop stop-color="#FE5000"/>
<stop offset="1" stop-color="#FCA92A"/>
</linearGradient>
</defs>
</svg>
