<svg width="148" height="52" viewBox="0 0 148 52" fill="none" xmlns="http://www.w3.org/2000/svg">
<g filter="url(#filter0_d)">
<rect x="15" y="12" width="118" height="22" fill="white"/>
</g>
<path d="M138 16L133 12V16H138Z" fill="#C8C8C8"/>
<path d="M21.3141 26H20.3681L23.6791 18.256H24.4821L27.7931 26H26.7921L25.8021 23.668H22.2931L21.3141 26ZM25.4391 22.788L24.0531 19.499L22.6671 22.788H25.4391ZM29.114 26V18.3H33.47V19.18H30.049V21.391C30.4377 21.347 30.83 21.325 31.226 21.325C32.0767 21.325 32.7367 21.5267 33.206 21.93C33.6827 22.3333 33.921 22.887 33.921 23.591C33.921 24.3757 33.6607 24.9807 33.14 25.406C32.6267 25.8313 31.9007 26.044 30.962 26.044C30.808 26.044 30.4597 26.0367 29.917 26.022C29.8143 26.022 29.697 26.0183 29.565 26.011C29.4403 26.011 29.3413 26.0073 29.268 26C29.202 26 29.1507 26 29.114 26ZM31.171 22.205C30.8337 22.205 30.4597 22.227 30.049 22.271V25.12C30.4523 25.1493 30.8043 25.164 31.105 25.164C31.721 25.164 32.1867 25.0357 32.502 24.779C32.8247 24.515 32.986 24.141 32.986 23.657C32.986 23.2023 32.8283 22.8467 32.513 22.59C32.205 22.3333 31.7577 22.205 31.171 22.205ZM41.2063 24.548L41.5803 25.252C41.3237 25.516 40.9753 25.725 40.5353 25.879C40.0953 26.033 39.6333 26.11 39.1493 26.11C37.998 26.11 37.0557 25.7507 36.3223 25.032C35.6037 24.2987 35.2443 23.338 35.2443 22.15C35.2443 21.006 35.589 20.0637 36.2783 19.323C36.9677 18.5677 37.9027 18.19 39.0833 18.19C40.0587 18.19 40.8397 18.4393 41.4263 18.938L40.9973 19.642C40.484 19.2607 39.8497 19.07 39.0943 19.07C38.2583 19.07 37.5727 19.356 37.0373 19.928C36.502 20.4927 36.2343 21.2333 36.2343 22.15C36.2343 23.0667 36.5093 23.811 37.0593 24.383C37.624 24.9477 38.35 25.23 39.2373 25.23C39.9853 25.23 40.6417 25.0027 41.2063 24.548ZM42.1623 22.15C42.1623 21.0353 42.5326 20.0967 43.2733 19.334C44.014 18.5713 44.9526 18.19 46.0893 18.19C47.2186 18.19 48.1536 18.5603 48.8943 19.301C49.6423 20.0417 50.0163 20.9913 50.0163 22.15C50.0163 23.2793 49.6423 24.2253 48.8943 24.988C48.1463 25.736 47.2113 26.11 46.0893 26.11C44.9673 26.11 44.0286 25.7397 43.2733 24.999C42.5326 24.2583 42.1623 23.3087 42.1623 22.15ZM43.1523 22.15C43.1523 23.0153 43.4346 23.7487 43.9993 24.35C44.564 24.9367 45.2606 25.23 46.0893 25.23C46.9546 25.23 47.6586 24.9367 48.2013 24.35C48.7513 23.7633 49.0263 23.03 49.0263 22.15C49.0263 21.27 48.744 20.5367 48.1793 19.95C47.6146 19.3633 46.918 19.07 46.0893 19.07C45.246 19.07 44.5456 19.3597 43.9883 19.939C43.431 20.5183 43.1523 21.2553 43.1523 22.15ZM57.1015 26H56.1665V19.18H53.3725L53.2405 20.632C53.1525 21.5853 53.0388 22.403 52.8995 23.085C52.7602 23.7597 52.6098 24.2913 52.4485 24.68C52.2872 25.0687 52.0965 25.3693 51.8765 25.582C51.6638 25.7947 51.4548 25.9267 51.2495 25.978C51.0442 26.0293 50.8095 26.0367 50.5455 26L50.5565 25.065C50.7105 25.087 50.8425 25.076 50.9525 25.032C51.0625 24.9807 51.1872 24.867 51.3265 24.691C51.4805 24.5077 51.6198 24.2327 51.7445 23.866C52.0378 23.0447 52.2505 21.7027 52.3825 19.84L52.4925 18.3H57.1015V26ZM60.342 26H59.407V18.3H60.342V21.633H62.003C62.113 20.6283 62.509 19.8033 63.191 19.158C63.8803 18.5127 64.731 18.19 65.743 18.19C66.8576 18.19 67.7743 18.5603 68.493 19.301C69.2043 20.0343 69.56 20.984 69.56 22.15C69.56 23.2867 69.2006 24.2327 68.482 24.988C67.7633 25.736 66.8503 26.11 65.743 26.11C64.731 26.11 63.8693 25.7763 63.158 25.109C62.454 24.4417 62.0653 23.5763 61.992 22.513H60.342V26ZM62.971 22.15C62.971 23.0227 63.235 23.756 63.763 24.35C64.3056 24.9367 64.973 25.23 65.765 25.23C66.6376 25.23 67.3196 24.9403 67.811 24.361C68.317 23.7817 68.57 23.0447 68.57 22.15C68.57 21.2553 68.3096 20.5183 67.789 19.939C67.2756 19.3597 66.601 19.07 65.765 19.07C64.9583 19.07 64.291 19.3597 63.763 19.939C63.235 20.5183 62.971 21.2553 62.971 22.15ZM72.5511 19.18H69.8561V18.3H76.1811V19.18H73.4861V26H72.5511V19.18ZM83.5481 26H82.6131V22.513H78.3781V26H77.4431V18.3H78.3781V21.633H82.6131V18.3H83.5481V26ZM92.8392 26H91.9042V18.3H92.8392V26ZM87.7462 21.985C87.4896 21.985 87.1706 22.007 86.7892 22.051V25.109C87.3832 25.131 87.6912 25.142 87.7132 25.142C89.0186 25.142 89.6712 24.5957 89.6712 23.503C89.6712 23.0117 89.5062 22.6377 89.1762 22.381C88.8462 22.117 88.3696 21.985 87.7462 21.985ZM85.8542 18.3H86.7892V21.16C87.3026 21.1233 87.6436 21.105 87.8122 21.105C88.7436 21.105 89.4512 21.314 89.9352 21.732C90.4192 22.1427 90.6612 22.7257 90.6612 23.481C90.6612 24.2877 90.3936 24.9147 89.8582 25.362C89.3229 25.802 88.5712 26.022 87.6032 26.022C87.2366 26.022 86.9176 26.0183 86.6462 26.011C86.3822 26.0037 86.1182 26 85.8542 26V18.3ZM100.646 19.84L95.9712 26H95.1462V18.3H96.0812V24.46L100.756 18.3H101.581V26H100.646V19.84ZM96.3782 16.54H97.2582C97.4342 17.0167 97.8265 17.255 98.4352 17.255C99.0805 17.255 99.4582 17.0167 99.5682 16.54H100.448C100.397 16.9507 100.181 17.2843 99.7992 17.541C99.4252 17.7903 98.9705 17.915 98.4352 17.915C97.8705 17.915 97.4012 17.7903 97.0272 17.541C96.6605 17.2917 96.4442 16.958 96.3782 16.54ZM111.08 18.3H112.191L109.463 22.084L112.29 26H111.179L108.847 22.799L106.526 26H105.426L108.253 22.084L105.547 18.3H106.647L108.88 21.38L111.08 18.3ZM119.166 19.84L114.491 26H113.666V18.3H114.601V24.46L119.276 18.3H120.101V26H119.166V19.84ZM124.06 19.18H121.365V18.3H127.69V19.18H124.995V26H124.06V19.18Z" fill="#FE5000"/>
<defs>
<filter id="filter0_d" x="0" y="0" width="148" height="52" filterUnits="userSpaceOnUse" color-interpolation-filters="sRGB">
<feFlood flood-opacity="0" result="BackgroundImageFix"/>
<feColorMatrix in="SourceAlpha" type="matrix" values="0 0 0 0 0 0 0 0 0 0 0 0 0 0 0 0 0 0 127 0"/>
<feOffset dy="3"/>
<feGaussianBlur stdDeviation="7.5"/>
<feColorMatrix type="matrix" values="0 0 0 0 0.529412 0 0 0 0 0.592157 0 0 0 0 0.607843 0 0 0 0.25 0"/>
<feBlend mode="normal" in2="BackgroundImageFix" result="effect1_dropShadow"/>
<feBlend mode="normal" in="SourceGraphic" in2="effect1_dropShadow" result="shape"/>
</filter>
</defs>
</svg>
