<svg width="148" height="52" viewBox="0 0 148 52" fill="none" xmlns="http://www.w3.org/2000/svg">
<g filter="url(#filter0_d)">
<rect x="15" y="12" width="118" height="22" fill="white"/>
</g>
<path d="M138 22L133 12V22H138Z" fill="#C8C8C8"/>
<path d="M20.3681 26H21.3141L22.2931 23.668H25.8021L26.7921 26H27.7931L24.4821 18.256H23.6791L20.3681 26ZM24.0531 19.499L25.4391 22.788H22.6671L24.0531 19.499ZM29.114 26C29.565 26 30.181 26.044 30.962 26.044C32.81 26.044 33.921 25.186 33.921 23.591C33.921 22.205 32.953 21.325 31.226 21.325C30.929 21.325 30.434 21.347 30.049 21.391V19.18H33.47V18.3H29.114V26ZM31.171 22.205C32.403 22.205 32.986 22.799 32.986 23.657C32.986 24.592 32.37 25.164 31.105 25.164C30.731 25.164 30.39 25.142 30.049 25.12V22.271C30.456 22.227 30.874 22.205 31.171 22.205ZM41.2063 24.548C40.6783 24.977 39.9743 25.23 39.2373 25.23C37.4553 25.23 36.2343 23.987 36.2343 22.15C36.2343 20.324 37.4223 19.07 39.0943 19.07C39.8973 19.07 40.4913 19.268 40.9973 19.642L41.4263 18.938C40.8763 18.465 40.0733 18.19 39.0833 18.19C36.6743 18.19 35.2443 19.939 35.2443 22.15C35.2443 24.548 36.8393 26.11 39.1493 26.11C40.1063 26.11 41.0633 25.78 41.5803 25.252L41.2063 24.548ZM42.1623 22.15C42.1623 24.493 43.8563 26.11 46.0893 26.11C48.3223 26.11 50.0163 24.438 50.0163 22.15C50.0163 19.807 48.3223 18.19 46.0893 18.19C43.8013 18.19 42.1623 19.917 42.1623 22.15ZM43.1523 22.15C43.1523 20.357 44.4173 19.07 46.0893 19.07C47.7393 19.07 49.0263 20.357 49.0263 22.15C49.0263 23.888 47.8493 25.23 46.0893 25.23C44.4393 25.23 43.1523 23.899 43.1523 22.15ZM56.1665 26H57.1015V18.3H52.4925L52.3825 19.84C52.0305 24.845 51.1065 25.12 50.5565 25.065L50.5455 26C51.7555 26.154 52.7895 25.527 53.2405 20.632L53.3725 19.18H56.1665V26ZM59.407 26H60.342V22.513H61.992C62.146 24.658 63.73 26.11 65.743 26.11C67.976 26.11 69.56 24.438 69.56 22.15C69.56 19.807 67.976 18.19 65.743 18.19C63.686 18.19 62.223 19.653 62.003 21.633H60.342V18.3H59.407V26ZM62.971 22.15C62.971 20.357 64.148 19.07 65.765 19.07C67.426 19.07 68.57 20.357 68.57 22.15C68.57 23.888 67.536 25.23 65.765 25.23C64.17 25.23 62.971 23.899 62.971 22.15ZM69.8561 19.18H72.5511V26H73.4861V19.18H76.1811V18.3H69.8561V19.18ZM82.6131 26H83.5481V18.3H82.6131V21.633H78.3781V18.3H77.4431V26H78.3781V22.513H82.6131V26ZM91.9042 26H92.8392V18.3H91.9042V26ZM87.7462 21.985C88.9892 21.985 89.6712 22.524 89.6712 23.503C89.6712 24.592 88.9782 25.142 87.7132 25.142C87.3612 25.142 87.0862 25.12 86.7892 25.109V22.051C87.1742 22.007 87.4932 21.985 87.7462 21.985ZM86.7892 18.3H85.8542V26C86.3052 26 86.9432 26.022 87.6032 26.022C89.5172 26.022 90.6612 25.098 90.6612 23.481C90.6612 22.029 89.7482 21.105 87.8122 21.105C87.5592 21.105 87.2072 21.127 86.7892 21.16V18.3ZM95.9712 26L100.646 19.84V26H101.581V18.3H100.756L96.0812 24.46V18.3H95.1462V26H95.9712ZM96.3782 16.54C96.5102 17.343 97.2802 17.915 98.4352 17.915C99.4912 17.915 100.349 17.365 100.448 16.54H99.5682C99.4582 17.024 99.0072 17.255 98.4352 17.255C97.8082 17.255 97.4232 16.991 97.2582 16.54H96.3782ZM112.191 18.3H111.08L108.88 21.38L106.647 18.3H105.547L108.253 22.084L105.426 26H106.526L108.847 22.799L111.179 26H112.29L109.463 22.084L112.191 18.3ZM114.491 26L119.166 19.84V26H120.101V18.3H119.276L114.601 24.46V18.3H113.666V26H114.491ZM121.365 19.18H124.06V26H124.995V19.18H127.69V18.3H121.365V19.18Z" fill="#FE5000"/>
<defs>
<filter id="filter0_d" x="0" y="0" width="148" height="52" filterUnits="userSpaceOnUse" color-interpolation-filters="sRGB">
<feFlood flood-opacity="0" result="BackgroundImageFix"/>
<feColorMatrix in="SourceAlpha" type="matrix" values="0 0 0 0 0 0 0 0 0 0 0 0 0 0 0 0 0 0 127 0"/>
<feOffset dy="3"/>
<feGaussianBlur stdDeviation="7.5"/>
<feColorMatrix type="matrix" values="0 0 0 0 0.529412 0 0 0 0 0.592157 0 0 0 0 0.607843 0 0 0 0.25 0"/>
<feBlend mode="normal" in2="BackgroundImageFix" result="effect1_dropShadow"/>
<feBlend mode="normal" in="SourceGraphic" in2="effect1_dropShadow" result="shape"/>
</filter>
</defs>
</svg>
