<svg width="100" height="100" viewBox="0 0 100 100" fill="none" xmlns="http://www.w3.org/2000/svg">
<circle cx="50" cy="50" r="49.5" fill="white" stroke="url(#paint0_linear)"/>
<path d="M70.6251 47.0535C70.0358 47.0535 69.643 47.4464 69.643 48.0356V51.9641V57.857V58.8391C69.643 59.9195 68.759 60.8034 67.6787 60.8034H65.7143C64.0447 60.8034 62.7679 62.0802 62.7679 63.7499V65.7142C62.7679 66.7945 61.884 67.6785 60.8036 67.6785H55.8929H31.3392C30.7499 67.6785 30.3571 67.2856 30.3571 66.6964V48.0356C30.3571 47.4463 29.9642 47.0535 29.375 47.0535C28.7857 47.0535 28.3928 47.4463 28.3928 48.0356V66.6964C28.3928 68.366 29.6695 69.6428 31.3392 69.6428H55.8929H60.8036H62.0804C63.3571 69.6428 64.634 69.1518 65.5179 68.1696L70.134 63.5535C71.0179 62.6695 71.6072 61.3927 71.6072 60.116V58.8392V57.8571V51.9642V48.0357C71.6072 47.4463 71.2143 47.0535 70.6251 47.0535ZM64.634 66.4017C64.634 66.2053 64.7322 66.0088 64.7322 65.7143V63.7499C64.7322 63.1606 65.1251 62.7678 65.7143 62.7678H67.6787C67.8751 62.7678 68.0716 62.7678 68.3661 62.6696L64.634 66.4017Z" fill="url(#paint1_linear)"/>
<path d="M68.6608 33.3036H61.7857V31.3393C61.7857 30.75 61.3928 30.3572 60.8036 30.3572C60.2144 30.3572 59.8215 30.7501 59.8215 31.3393V33.3036H40.1785V31.3393C40.1785 30.75 39.7856 30.3572 39.1964 30.3572C38.6072 30.3572 38.2143 30.7501 38.2143 31.3393V33.3036H31.3392C29.6695 33.3036 28.3928 34.5804 28.3928 36.25V44.1072C28.3928 44.6965 28.7857 45.0893 29.3749 45.0893H70.625C71.2143 45.0893 71.6071 44.6964 71.6071 44.1072V36.25C71.6072 34.5804 70.3304 33.3036 68.6608 33.3036ZM69.6429 43.125H30.3571V36.25C30.3571 35.6607 30.75 35.2679 31.3392 35.2679H38.2143V37.5269C37.625 37.8215 37.2321 38.509 37.2321 39.1966C37.2321 40.2769 38.1161 41.1609 39.1965 41.1609C40.2768 41.1609 41.1607 40.2768 41.1607 39.1965C41.1607 38.509 40.7678 37.8215 40.1786 37.5268V35.2679H59.8215V37.5269C59.2322 37.8215 58.8394 38.509 58.8394 39.1966C58.8394 40.2769 59.7233 41.1609 60.8037 41.1609C61.884 41.1609 62.7679 40.2768 62.7679 39.1965C62.7679 38.509 62.375 37.8215 61.7858 37.5268V35.2679H68.6609C69.2502 35.2679 69.643 35.6608 69.643 36.25V43.125H69.6429Z" fill="url(#paint2_linear)"/>
<path d="M46.0714 52.9465C47.1563 52.9465 48.0357 52.067 48.0357 50.9821C48.0357 49.8973 47.1563 49.0178 46.0714 49.0178C44.9866 49.0178 44.1071 49.8973 44.1071 50.9821C44.1071 52.067 44.9866 52.9465 46.0714 52.9465Z" fill="url(#paint3_linear)"/>
<path d="M53.9286 52.9465C55.0134 52.9465 55.8929 52.067 55.8929 50.9821C55.8929 49.8973 55.0134 49.0178 53.9286 49.0178C52.8437 49.0178 51.9643 49.8973 51.9643 50.9821C51.9643 52.067 52.8437 52.9465 53.9286 52.9465Z" fill="url(#paint4_linear)"/>
<path d="M61.7857 52.9465C62.8706 52.9465 63.75 52.067 63.75 50.9821C63.75 49.8973 62.8706 49.0178 61.7857 49.0178C60.7008 49.0178 59.8214 49.8973 59.8214 50.9821C59.8214 52.067 60.7008 52.9465 61.7857 52.9465Z" fill="url(#paint5_linear)"/>
<path d="M38.2142 61.7858C39.2991 61.7858 40.1785 60.9064 40.1785 59.8215C40.1785 58.7366 39.2991 57.8572 38.2142 57.8572C37.1294 57.8572 36.2499 58.7366 36.2499 59.8215C36.2499 60.9064 37.1294 61.7858 38.2142 61.7858Z" fill="url(#paint6_linear)"/>
<path d="M46.0714 61.7858C47.1563 61.7858 48.0357 60.9064 48.0357 59.8215C48.0357 58.7366 47.1563 57.8572 46.0714 57.8572C44.9866 57.8572 44.1071 58.7366 44.1071 59.8215C44.1071 60.9064 44.9866 61.7858 46.0714 61.7858Z" fill="url(#paint7_linear)"/>
<path d="M53.9286 61.7858C55.0134 61.7858 55.8929 60.9064 55.8929 59.8215C55.8929 58.7366 55.0134 57.8572 53.9286 57.8572C52.8437 57.8572 51.9643 58.7366 51.9643 59.8215C51.9643 60.9064 52.8437 61.7858 53.9286 61.7858Z" fill="url(#paint8_linear)"/>
<defs>
<linearGradient id="paint0_linear" x1="0" y1="100" x2="100" y2="0" gradientUnits="userSpaceOnUse">
<stop stop-color="#FE5000"/>
<stop offset="1" stop-color="#FE9800"/>
</linearGradient>
<linearGradient id="paint1_linear" x1="37.3057" y1="69.6428" x2="67.9389" y2="51.3021" gradientUnits="userSpaceOnUse">
<stop stop-color="#FE5000"/>
<stop offset="1" stop-color="#FCA92A"/>
</linearGradient>
<linearGradient id="paint2_linear" x1="37.3057" y1="45.0893" x2="59.8878" y2="24.3582" gradientUnits="userSpaceOnUse">
<stop stop-color="#FE5000"/>
<stop offset="1" stop-color="#FCA92A"/>
</linearGradient>
<linearGradient id="paint3_linear" x1="44.9174" y1="52.9465" x2="48.363" y2="51.8681" gradientUnits="userSpaceOnUse">
<stop stop-color="#FE5000"/>
<stop offset="1" stop-color="#FCA92A"/>
</linearGradient>
<linearGradient id="paint4_linear" x1="52.7745" y1="52.9465" x2="56.2202" y2="51.8681" gradientUnits="userSpaceOnUse">
<stop stop-color="#FE5000"/>
<stop offset="1" stop-color="#FCA92A"/>
</linearGradient>
<linearGradient id="paint5_linear" x1="60.6317" y1="52.9465" x2="64.0773" y2="51.8681" gradientUnits="userSpaceOnUse">
<stop stop-color="#FE5000"/>
<stop offset="1" stop-color="#FCA92A"/>
</linearGradient>
<linearGradient id="paint6_linear" x1="37.0602" y1="61.7858" x2="40.5058" y2="60.7074" gradientUnits="userSpaceOnUse">
<stop stop-color="#FE5000"/>
<stop offset="1" stop-color="#FCA92A"/>
</linearGradient>
<linearGradient id="paint7_linear" x1="44.9174" y1="61.7858" x2="48.363" y2="60.7074" gradientUnits="userSpaceOnUse">
<stop stop-color="#FE5000"/>
<stop offset="1" stop-color="#FCA92A"/>
</linearGradient>
<linearGradient id="paint8_linear" x1="52.7745" y1="61.7858" x2="56.2202" y2="60.7074" gradientUnits="userSpaceOnUse">
<stop stop-color="#FE5000"/>
<stop offset="1" stop-color="#FCA92A"/>
</linearGradient>
</defs>
</svg>
