<svg width="100" height="100" viewBox="0 0 100 100" fill="none" xmlns="http://www.w3.org/2000/svg">
<circle cx="50" cy="50" r="49.5" stroke="#7F94A8"/>
<path d="M49.9571 28.043C42.9577 28.043 37.2632 33.7375 37.2632 40.7369C37.2632 45.0723 39.4485 48.9065 42.775 51.1975C39.6693 52.2693 36.8227 54.0396 34.4312 56.4311C30.284 60.5784 28 66.0922 28 71.9572H31.4308C31.4308 61.7417 39.7416 53.4309 49.9571 53.4309C56.9566 53.4309 62.651 47.7363 62.651 40.7369C62.651 33.7374 56.9566 28.043 49.9571 28.043ZM49.9571 50.0001C44.8494 50.0001 40.694 45.8447 40.694 40.737C40.694 35.6293 44.8494 31.4738 49.9571 31.4738C55.0648 31.4738 59.2202 35.6292 59.2202 40.737C59.2202 45.8448 55.0648 50.0001 49.9571 50.0001Z" fill="#7F94A8"/>
<path d="M64.7952 61.3219V54.1172H61.3644V61.3219H54.1597V64.7527H61.3644V71.9574H64.7952V64.7527H71.9999V61.3219H64.7952Z" fill="#7F94A8"/>
</svg>
