<svg width="100" height="100" viewBox="0 0 100 100" fill="none" xmlns="http://www.w3.org/2000/svg">
<circle cx="50" cy="50" r="49.5" stroke="#7F94A8"/>
<g clip-path="url(#clip0)">
<path d="M56.3636 36.117V32.3803C56.3636 25.2066 28 25.2066 28 32.3803V54.2366C28 57.0567 32.4144 58.8146 37.725 59.4396C35.7826 60.3108 34.5455 61.4875 34.5455 62.9791V69.536C34.5455 73.1229 41.68 75 48.7273 75C55.7746 75 62.9092 73.1228 62.9092 69.536V66.2394C69.5829 66.056 76.0001 64.1952 76.0001 60.7935V41.1229C76 36.594 64.6993 34.9277 56.3636 36.117ZM42.1819 29.1818C49.9461 29.1818 54.1818 31.3433 54.1818 32.4545C54.1818 33.5657 49.946 35.7273 42.1819 35.7273C34.4177 35.7273 30.1819 33.5657 30.1819 32.4545C30.1818 31.3434 34.4176 29.1818 42.1819 29.1818ZM30.1818 35.4903C32.8289 37.0835 37.5178 37.9092 42.1818 37.9092C46.8457 37.9092 51.5347 37.0835 54.1818 35.4903V36.5744C50.3907 37.4152 47.6364 38.9506 47.6364 41.1819V41.8273C45.9267 42.1016 44.0812 42.2727 42.1819 42.2727C34.4176 42.2727 30.1819 40.1112 30.1819 39V35.4903H30.1818ZM49.8182 57.3085C50.0258 57.4333 50.2418 57.5547 50.4736 57.6701C50.2553 57.661 50.0373 57.6521 49.8182 57.6464V57.3085ZM30.1818 42.0358C32.8289 43.629 37.5178 44.4546 42.1818 44.4546C44.0701 44.4546 45.9056 44.285 47.6363 44.0265V49.4637C45.9266 49.738 44.0811 49.9091 42.1818 49.9091C34.4175 49.9091 30.1818 47.7476 30.1818 46.6364V42.0358ZM30.1818 54.2728V49.6722C32.8289 51.2654 37.5178 52.091 42.1818 52.091C44.0701 52.091 45.9056 51.9214 47.6363 51.6629V57.1001C45.9266 57.3744 44.0811 57.5455 42.1818 57.5455C34.4176 57.5455 30.1818 55.3839 30.1818 54.2728ZM60.7273 69.5455C60.7273 70.6567 56.4915 72.8182 48.7273 72.8182C40.9632 72.8182 36.7272 70.6567 36.7272 69.5455V66.0357C39.3744 67.6289 44.0633 68.4546 48.7272 68.4546C53.1916 68.4546 57.685 67.7 60.3834 66.2384C60.4967 66.2427 60.6134 66.2432 60.7272 66.2467V69.5455H60.7273ZM48.7273 66.2728C40.9631 66.2728 36.7273 64.1112 36.7273 63C36.7273 61.8889 40.9632 59.7273 48.7273 59.7273C56.4915 59.7273 60.7273 61.8889 60.7273 63C60.7273 64.1112 56.4915 66.2728 48.7273 66.2728ZM73.8182 60.8183C73.8182 61.8741 69.9527 63.8566 62.9091 64.0532V63C62.9091 61.6371 61.8777 60.5354 60.2139 59.6912C60.7473 59.7128 61.2824 59.7273 61.8181 59.7273C66.4821 59.7273 71.1711 58.9017 73.8181 57.3085V60.8183H73.8182ZM73.8182 54.2728C73.8182 55.384 69.5824 57.5455 61.8182 57.5455C54.0541 57.5455 49.8183 55.384 49.8183 54.2728V50.763C52.4653 52.3562 57.1543 53.1819 61.8182 53.1819C66.4822 53.1819 71.1712 52.3562 73.8182 50.763V54.2728ZM73.8182 47.7273C73.8182 48.8385 69.5824 51.0001 61.8182 51.0001C54.0541 51.0001 49.8183 48.8385 49.8183 47.7273V44.2175C52.4653 45.8108 57.1543 46.6364 61.8182 46.6364C66.4822 46.6364 71.1712 45.8108 73.8182 44.2175V47.7273ZM61.8182 44.4546C54.054 44.4546 49.8183 42.2931 49.8183 41.1819C49.8183 40.0707 54.0541 37.9092 61.8182 37.9092C69.5824 37.9092 73.8182 40.0707 73.8182 41.1819C73.8182 42.2931 69.5824 44.4546 61.8182 44.4546Z" fill="#7F94A8"/>
</g>
<defs>
<clipPath id="clip0">
<rect width="48" height="48" fill="white" transform="translate(28 27)"/>
</clipPath>
</defs>
</svg>
