<svg width="100" height="100" viewBox="0 0 100 100" fill="none" xmlns="http://www.w3.org/2000/svg">
<circle cx="50" cy="50" r="49.5" stroke="#7F94A8"/>
<path d="M72.275 46.8174C71.6385 46.8174 71.2143 47.2417 71.2143 47.8781V52.1209V58.4852V59.5459C71.2143 60.7127 70.2596 61.6673 69.0928 61.6673H66.9714C65.1681 61.6673 63.7892 63.0463 63.7892 64.8495V66.971C63.7892 68.1377 62.8346 69.0924 61.6678 69.0924H56.3642H29.8462C29.2098 69.0924 28.7855 68.6681 28.7855 68.0317V47.8781C28.7855 47.2416 28.3612 46.8174 27.7248 46.8174C27.0885 46.8174 26.6641 47.2416 26.6641 47.8781V68.0317C26.6641 69.835 28.043 71.2139 29.8462 71.2139H56.3642H61.6678H63.0467C64.4256 71.2139 65.8046 70.6835 66.7592 69.6228L71.7446 64.6374C72.6992 63.6827 73.3357 62.3038 73.3357 60.9249V59.546V58.4853V52.121V47.8782C73.3357 47.2416 72.9113 46.8174 72.275 46.8174ZM65.8046 67.7135C65.8046 67.5014 65.9107 67.2892 65.9107 66.971V64.8496C65.9107 64.2131 66.335 63.7889 66.9714 63.7889H69.0928C69.305 63.7889 69.5172 63.7889 69.8353 63.6828L65.8046 67.7135Z" fill="#7F94A8"/>
<path d="M70.1535 31.9683H62.7285V29.8468C62.7285 29.2104 62.3041 28.7861 61.6678 28.7861C61.0314 28.7861 60.6071 29.2105 60.6071 29.8468V31.9683H39.3926V29.8468C39.3926 29.2104 38.9683 28.7861 38.332 28.7861C37.6956 28.7861 37.2713 29.2105 37.2713 29.8468V31.9683H29.8462C28.043 31.9683 26.6641 33.3472 26.6641 35.1504V43.6362C26.6641 44.2726 27.0884 44.6969 27.7247 44.6969H72.2749C72.9113 44.6969 73.3356 44.2725 73.3356 43.6362V35.1504C73.3357 33.3472 71.9568 31.9683 70.1535 31.9683ZM71.2142 42.5754H28.7855V35.1504C28.7855 34.514 29.2099 34.0897 29.8462 34.0897H37.2713V36.5294C36.6348 36.8476 36.2106 37.5901 36.2106 38.3327C36.2106 39.4995 37.1653 40.4541 38.3321 40.4541C39.4988 40.4541 40.4534 39.4994 40.4534 38.3326C40.4534 37.5901 40.0291 36.8476 39.3927 36.5293V34.0897H60.6071V36.5294C59.9706 36.8476 59.5464 37.5901 59.5464 38.3327C59.5464 39.4995 60.5011 40.4541 61.6679 40.4541C62.8346 40.4541 63.7892 39.4994 63.7892 38.3326C63.7892 37.5901 63.3649 36.8476 62.7285 36.5293V34.0897H70.1536C70.7901 34.0897 71.2143 34.5141 71.2143 35.1504V42.5754H71.2142Z" fill="#7F94A8"/>
<path d="M45.7572 53.1824C46.9289 53.1824 47.8787 52.2326 47.8787 51.0609C47.8787 49.8893 46.9289 48.9395 45.7572 48.9395C44.5856 48.9395 43.6357 49.8893 43.6357 51.0609C43.6357 52.2326 44.5856 53.1824 45.7572 53.1824Z" fill="#7F94A8"/>
<path d="M54.243 53.1824C55.4147 53.1824 56.3645 52.2326 56.3645 51.0609C56.3645 49.8893 55.4147 48.9395 54.243 48.9395C53.0714 48.9395 52.1216 49.8893 52.1216 51.0609C52.1216 52.2326 53.0714 53.1824 54.243 53.1824Z" fill="#7F94A8"/>
<path d="M62.7284 53.1824C63.9 53.1824 64.8499 52.2326 64.8499 51.0609C64.8499 49.8893 63.9 48.9395 62.7284 48.9395C61.5567 48.9395 60.6069 49.8893 60.6069 51.0609C60.6069 52.2326 61.5567 53.1824 62.7284 53.1824Z" fill="#7F94A8"/>
<path d="M37.2714 62.7283C38.443 62.7283 39.3928 61.7785 39.3928 60.6068C39.3928 59.4352 38.443 58.4854 37.2714 58.4854C36.0997 58.4854 35.1499 59.4352 35.1499 60.6068C35.1499 61.7785 36.0997 62.7283 37.2714 62.7283Z" fill="#7F94A8"/>
<path d="M45.7572 62.7283C46.9289 62.7283 47.8787 61.7785 47.8787 60.6068C47.8787 59.4352 46.9289 58.4854 45.7572 58.4854C44.5856 58.4854 43.6357 59.4352 43.6357 60.6068C43.6357 61.7785 44.5856 62.7283 45.7572 62.7283Z" fill="#7F94A8"/>
<path d="M54.243 62.7283C55.4147 62.7283 56.3645 61.7785 56.3645 60.6068C56.3645 59.4352 55.4147 58.4854 54.243 58.4854C53.0714 58.4854 52.1216 59.4352 52.1216 60.6068C52.1216 61.7785 53.0714 62.7283 54.243 62.7283Z" fill="#7F94A8"/>
</svg>
