<svg width="100" height="100" viewBox="0 0 100 100" fill="none" xmlns="http://www.w3.org/2000/svg">
<circle cx="50" cy="50" r="49.5" stroke="#7F94A8"/>
<path d="M71.9865 49.2459V42.7414C71.9865 40.5323 70.2683 38.6914 68.0592 38.5686L62.0456 28.0141C61.432 27.0323 60.5729 26.2959 59.4683 26.0505C58.3638 25.805 57.2592 25.9277 56.2774 26.4186L35.6592 38.4459H31.9774C29.6456 38.4459 27.8047 40.2868 27.8047 42.6186V67.9005C27.8047 70.2323 29.6456 72.0732 31.9774 72.0732H67.691C70.0229 72.0732 71.8638 70.2323 71.8638 67.9005V61.3959C73.091 60.905 73.9501 59.8005 73.9501 58.4505V52.1914C74.1956 50.8414 73.2138 49.6141 71.9865 49.2459ZM57.5047 28.2596C57.9956 28.0141 58.4865 27.8914 59.1001 28.0141C59.591 28.1368 60.082 28.505 60.3274 28.9959L62.4138 32.555C61.432 32.9232 60.4501 33.1686 59.4683 33.1686C57.2592 33.1686 55.1729 32.1868 53.7001 30.3459L57.5047 28.2596ZM51.8592 31.4505C53.7001 33.905 56.4001 35.255 59.3456 35.255C60.6956 35.255 62.0456 34.8868 63.2729 34.3959L65.6047 38.4459H39.832L51.8592 31.4505ZM69.9001 67.9005C69.9001 69.005 68.9183 69.9868 67.8138 69.9868H32.1001C30.9956 69.9868 30.0138 69.005 30.0138 67.9005V42.7414C30.0138 41.6368 30.9956 40.655 32.1001 40.655H67.8138C68.9183 40.655 69.9001 41.6368 69.9001 42.7414V49.0005H63.641C60.2047 49.0005 57.382 51.8232 57.382 55.2596C57.382 58.6959 60.2047 61.5186 63.641 61.5186H69.9001V67.9005ZM71.9865 58.4505C71.9865 59.0641 71.4956 59.555 70.882 59.555H63.5183C61.1865 59.555 59.3456 57.7141 59.3456 55.3823C59.3456 53.0505 61.1865 51.2096 63.5183 51.2096H70.882C71.4956 51.2096 71.9865 51.7005 71.9865 52.3141V58.4505ZM63.641 53.1732C62.5365 53.1732 61.5547 54.155 61.5547 55.2596C61.5547 56.3641 62.5365 57.3459 63.641 57.3459C64.7456 57.3459 65.7274 56.3641 65.7274 55.2596C65.7274 54.155 64.7456 53.1732 63.641 53.1732Z" fill="#7F94A8"/>
</svg>
