<svg width="100" height="100" viewBox="0 0 100 100" fill="none" xmlns="http://www.w3.org/2000/svg">
<circle cx="50" cy="50" r="49.5" stroke="#7F94A8"/>
<g clip-path="url(#clip0)">
<path d="M74.7093 35.7465H68.2164L65.4323 29.7095C65.2632 29.3391 64.8059 29.1689 64.438 29.3391L61.7135 30.6106L53.4607 24.6737C53.1325 24.4334 52.6553 24.5135 52.4166 24.8539L44.7007 35.7465H25.2916C24.874 35.7465 24.5459 36.0869 24.5459 36.4974V63.4987C24.5459 63.9092 24.884 64.2496 25.2916 64.2496H31.7845L34.5686 70.2866C34.7377 70.6571 35.1851 70.8273 35.5629 70.6571L38.2874 69.3856L46.5402 75.3225C46.8683 75.5627 47.3456 75.4827 47.5843 75.1423L55.3002 64.2496H74.6993C75.1169 64.2496 75.4451 63.9092 75.4451 63.4987V36.4974C75.455 36.0869 75.1169 35.7465 74.7093 35.7465ZM64.3882 31.021L66.5658 35.7465H54.2661L64.3882 31.021ZM53.2022 26.3456L60.1624 31.3414L50.7263 35.7465H46.5402L53.2022 26.3456ZM42.0459 57.4818V62.6578C42.0459 62.6878 42.0459 62.7178 42.0558 62.7479H37.5715C37.5715 62.7178 37.5814 62.6878 37.5814 62.6578V57.4818V56.0801V37.2483H42.0558V56.0801V57.4818H42.0459ZM26.0374 62.7479V37.2483H36.1794V56.0801H31.705C31.3172 56.0801 31.009 56.3905 31.009 56.7809C31.009 57.1714 31.3172 57.4818 31.705 57.4818H36.1794V62.6578C36.1794 62.6878 36.1794 62.7178 36.1894 62.7479H26.0374ZM35.6127 68.9751L33.4351 64.2496H45.7348L35.6127 68.9751ZM46.7987 73.6605L39.8385 68.6647L49.2746 64.2596H53.4607L46.7987 73.6605ZM73.9635 62.7479H43.4379C43.4379 62.7178 43.4479 62.6878 43.4479 62.6578V57.4818H56.1752C56.563 57.4818 56.8712 57.1714 56.8712 56.7809C56.8712 56.3905 56.563 56.0801 56.1752 56.0801H43.4379V37.2483H45.0786H67.7291H73.9635V62.7479ZM61.2462 46.1186H62.5487V41.5733H66.2874C68.4152 41.5733 69.6084 42.6545 69.6084 44.5167C69.6084 46.3889 68.4152 47.5002 66.2874 47.5002H64.1397V48.4212H67.0033V49.2922H64.1397V51.2345H62.5487V49.2922H61.2462V48.4212H62.5487V47.5002H61.2462V46.1186ZM66.0587 46.1186C67.4806 46.1186 68.0175 45.5079 68.0175 44.5167C68.0175 43.5255 67.4806 42.9449 66.0587 42.9449H64.1397V46.1186H66.0587Z" fill="#7F94A8"/>
</g>
<defs>
<clipPath id="clip0">
<rect width="50.9091" height="50.9091" fill="white" transform="translate(24.5459 24.5459)"/>
</clipPath>
</defs>
</svg>
