<svg width="100" height="100" viewBox="0 0 100 100" fill="none" xmlns="http://www.w3.org/2000/svg">
<circle cx="50" cy="50" r="49.5" stroke="#7F94A8"/>
<g clip-path="url(#clip0)">
<path d="M74.8995 68.5224L72.9175 61.6324C72.8703 61.4909 72.7759 61.3493 72.6815 61.2549C71.4545 57.5267 68.4342 54.6481 64.6117 53.657L64.0454 53.5626C63.196 53.3267 62.2521 53.6098 61.6386 54.3177C59.5622 56.6773 56.9195 56.8661 54.1352 56.8661C51.3508 56.8661 48.7081 56.6773 46.6317 54.3177C46.0182 53.6098 45.0743 53.3267 44.2249 53.5626L43.6586 53.7042C40.7799 54.4593 38.3259 56.2998 36.7686 58.7537H30.8224C30.7752 58.7537 30.7752 58.7537 30.7281 58.7065C30.7281 58.6593 30.6809 58.6122 30.6809 58.5178L31.9078 54.1289C32.9933 50.6839 35.0697 49.6457 39.1282 48.6075C39.3169 48.5603 39.4585 48.4659 39.5529 48.3715C39.8832 48.6547 40.2608 48.8907 40.6383 49.0794C40.7799 49.1738 40.9215 49.1738 41.063 49.1738C41.3934 49.1738 41.7237 48.985 41.9125 48.6547C42.1485 48.1828 41.9597 47.6165 41.4878 47.3805C39.3169 46.2479 37.7596 43.0389 37.7596 39.7355C37.7596 36.8096 40.1664 34.4028 43.0923 34.4028C43.6586 34.4028 44.1777 34.4972 44.6968 34.6388C44.1777 35.9129 43.8945 37.2815 43.8945 38.7444C43.8945 46.8142 48.7553 53.6098 54.5127 53.6098C60.1757 53.6098 65.178 46.6726 65.178 38.7444C65.178 32.8455 60.4117 28.0791 54.5127 28.0791C50.7845 28.0791 47.4811 30.014 45.5934 32.9399C44.7912 32.6567 43.9417 32.5151 43.0923 32.5151C40.5439 32.5151 38.2787 33.8837 37.0046 35.9129C36.9102 35.8185 36.8158 35.7714 36.7214 35.7242C36.0135 35.3466 35.3057 35.2051 34.5034 35.2051C31.8607 35.1579 29.737 37.2815 29.737 39.9242C29.737 41.4344 30.1618 42.8501 30.8224 43.9827C28.6516 44.549 26.7168 45.3985 25.8201 48.2772L25.065 51.0143C24.9235 51.4862 25.0179 52.0053 25.301 52.3828C25.5842 52.8076 26.1033 53.0435 26.6224 53.0435H30.2561C30.2089 53.2323 30.1146 53.4211 30.0674 53.6098L28.8404 58.0459C28.6516 58.6593 28.7932 59.32 29.2179 59.8391C29.5955 60.3582 30.1618 60.6414 30.8224 60.6414H35.8248C35.6832 60.9717 35.5888 61.3021 35.4944 61.6324L33.5124 68.5696C33.3236 69.3719 33.4652 70.2213 33.9843 70.882C34.5034 71.5427 35.2585 71.9202 36.0607 71.9202H64.3758H65.9803H72.3512C73.1534 71.9202 73.9557 71.5427 74.4276 70.882C74.9467 70.2213 75.1355 69.3719 74.8995 68.5224ZM46.726 34.7803C46.7732 34.7331 46.8204 34.6859 46.8676 34.5916C46.9148 34.5444 46.9148 34.45 46.962 34.4028C48.425 31.7601 51.2565 29.9668 54.5127 29.9668C58.4296 29.9668 61.733 32.5623 62.8656 36.1017C61.2139 36.432 59.4678 35.7714 58.4296 34.3556C58.0993 33.9309 57.533 33.8365 57.1082 34.1668C56.9195 34.3084 56.8251 34.45 56.7779 34.6388C56.7307 34.6859 56.7307 34.7331 56.6835 34.7803C55.3621 37.4703 50.9261 38.6029 45.8766 37.6118C46.0182 36.6208 46.3013 35.677 46.726 34.7803ZM49.3688 39.8298C53.1441 39.8298 56.2588 38.6501 57.8633 36.432C59.0431 37.4703 60.506 38.0366 62.0634 38.0366C62.4409 38.0366 62.8656 37.9894 63.2432 37.895C63.2903 38.1781 63.2903 38.4141 63.2903 38.6972C63.2903 45.6344 59.1847 51.7222 54.5127 51.7222C50.0295 51.7222 46.1126 46.1063 45.7822 39.4995C47.0092 39.7355 48.2362 39.8298 49.3688 39.8298ZM26.9999 51.1559L27.6606 48.7963C28.2269 46.8614 29.4067 46.2951 31.7663 45.7288C31.9078 45.6816 32.0494 45.6344 32.1438 45.54C32.3798 45.7288 32.5685 45.8704 32.8517 46.012C32.9933 46.1063 33.1348 46.1063 33.2764 46.1063C33.6067 46.1063 33.9371 45.9176 34.1259 45.5872C34.3618 45.1153 34.173 44.549 33.7483 44.3131C32.5213 43.6524 31.6247 41.8119 31.6247 39.9242C31.6247 38.3197 32.8989 37.0455 34.5034 37.0455C35.0225 37.0455 35.4472 37.1399 35.872 37.3759C36.0135 37.4231 36.1079 37.4703 36.2495 37.4703C36.0135 38.1781 35.872 38.9332 35.872 39.7355C35.872 42.4254 36.7686 45.0681 38.1843 46.9086C35.3528 47.6165 32.8517 48.5603 31.2 51.1559H26.9999ZM72.9647 69.7494C72.8703 69.8438 72.6815 70.0326 72.3512 70.0326H65.9803H64.3758H36.0607C35.7304 70.0326 35.5416 69.8438 35.4472 69.7494C35.3057 69.5606 35.2585 69.2775 35.3057 69.0887L37.2877 62.1987C38.2315 58.9425 40.8271 56.3941 44.1305 55.5447L44.6968 55.4031C44.8384 55.3559 45.0743 55.4503 45.2159 55.5919C47.8115 58.565 51.0205 58.8009 54.1352 58.8009C57.2498 58.8009 60.4588 58.565 63.0544 55.5919C63.196 55.4503 63.3847 55.3559 63.6207 55.4031L64.187 55.5447C67.4432 56.3941 70.086 58.9425 71.0298 62.1987L71.8792 65.1246C71.9264 65.2662 71.9736 65.3606 72.068 65.455L73.1062 69.0415C73.1534 69.2775 73.1062 69.5606 72.9647 69.7494Z" fill="#7F94A8"/>
</g>
<defs>
<clipPath id="clip0">
<rect width="50" height="50" fill="white" transform="translate(25 25)"/>
</clipPath>
</defs>
</svg>
