<svg width="100" height="100" viewBox="0 0 100 100" fill="none" xmlns="http://www.w3.org/2000/svg">
<circle cx="50" cy="50" r="49.5" stroke="#7F94A8"/>
<path d="M43.405 41.4072C38.5546 41.4072 34.623 45.3388 34.623 50.1887C34.623 55.0387 38.5546 58.9707 43.4046 58.9707C48.2549 58.9707 52.1865 55.0387 52.1865 50.1887C52.1809 45.341 48.2523 41.4128 43.405 41.4072ZM43.405 57.2068C39.5289 57.2072 36.3865 54.0648 36.3865 50.1887C36.3865 46.3127 39.5285 43.1707 43.4046 43.1707C47.2806 43.1707 50.4231 46.3127 50.4231 50.1887C50.4183 54.0626 47.2789 57.2021 43.405 57.2064V57.2068Z" fill="#7F94A8"/>
<path d="M46.2689 47.1578C45.3033 46.4225 44.2265 46.0682 43.1519 46.1349C41.1082 46.2628 39.4795 47.8919 39.3516 49.9356C39.2853 51.0089 39.6392 52.0866 40.3746 53.0522C40.4223 53.1155 40.4787 53.1715 40.5416 53.2197C41.4311 53.8969 42.4153 54.2504 43.4038 54.2504C43.4886 54.2504 43.5738 54.2478 43.6586 54.2426C45.7024 54.1148 47.3311 52.4857 47.4593 50.4424C47.5252 49.3686 47.1718 48.291 46.436 47.3253C46.3882 47.262 46.3318 47.2061 46.2689 47.1578ZM45.0303 51.8136C44.363 52.4813 43.1002 52.8886 41.7062 51.8876C40.7052 50.494 41.1129 49.2317 41.7802 48.564C42.4476 47.8962 43.7099 47.4889 45.1044 48.4899C46.1053 49.8831 45.6981 51.1463 45.0303 51.8136Z" fill="#7F94A8"/>
<path d="M76.6279 45.6506C77.1149 45.6506 77.4545 45.2748 77.4545 44.7878V40.1588C77.4545 39.6718 77.1149 39.2581 76.6279 39.2581H76.0217V34.7014C76.0217 32.11 74.0478 30 71.5533 30H28.5787C26.0842 30 24 32.11 24 34.7014V65.6754C24 68.2668 26.0842 70.3389 28.5787 70.3389H29.5108V72.7636C29.5108 73.2506 29.9056 73.6454 30.3925 73.6454H41.4141C41.901 73.6454 42.2958 73.2506 42.2958 72.7636V70.3389H58.1668V72.7636C58.1668 73.2506 58.5616 73.6454 59.0485 73.6454H70.0701C70.557 73.6454 70.9518 73.2506 70.9518 72.7636V70.3389H71.5533C74.0478 70.3389 76.0217 68.2668 76.0217 65.6754V61.0808H76.6279C77.1149 61.0808 77.4545 60.7049 77.4545 60.218V55.589C77.4545 55.102 77.1149 54.6883 76.6279 54.6883H76.0217V45.6506H76.6279ZM75.6911 56.4517V59.3173H69.8497V56.4517H75.6911ZM68.9679 54.6883C68.4771 54.6973 68.0849 55.0981 68.0862 55.589V60.218C68.0871 60.4501 68.1809 60.6718 68.3463 60.8341C68.512 60.996 68.7359 61.0851 68.9679 61.0808H69.4088V62.4934C69.4088 63.0599 69.036 63.5055 68.5185 63.5055H31.6135C31.0956 63.5055 30.7231 63.0599 30.7231 62.4934V37.8834C30.7231 37.3168 31.096 36.8334 31.6135 36.8334H68.5185C69.0364 36.8334 69.4088 37.3168 69.4088 37.8834V39.2581H68.9679C68.4771 39.2671 68.0849 39.668 68.0862 40.1588V44.7878C68.0871 45.0199 68.1809 45.2416 68.3463 45.4039C68.512 45.5658 68.7359 45.6549 68.9679 45.6506H69.4088V54.6883H68.9679ZM69.8497 43.8872V41.0216H75.6911V43.8872H69.8497ZM40.5323 71.8819H31.2742V70.3389H40.5323V71.8819ZM69.1884 71.8819H59.9303V70.3389H69.1884V71.8819ZM74.2583 65.6754C74.2583 67.2946 73.0752 68.5754 71.5533 68.5754H28.5787C27.0568 68.5754 25.7634 67.2946 25.7634 65.6754V34.7014C25.7634 33.0822 27.0568 31.7634 28.5787 31.7634H71.5533C73.0752 31.7634 74.2583 33.0822 74.2583 34.7014V39.2581H71.1723V37.8834C71.1723 36.3443 70.0085 35.0699 68.5185 35.0699H31.6135C30.1234 35.0699 28.9597 36.3443 28.9597 37.8834V62.4934C28.9597 64.0325 30.1234 65.269 31.6135 65.269H68.5185C70.0085 65.269 71.1723 64.0325 71.1723 62.4934V61.0808H74.2583V65.6754ZM74.2583 54.6883H71.1723V45.6506H74.2583V54.6883Z" fill="#7F94A8"/>
</svg>
