<svg width="127" height="127" viewBox="0 0 127 127" fill="none" xmlns="http://www.w3.org/2000/svg">
<path d="M35.7308 48.569C35.709 48.6875 35.6967 48.8077 35.6927 48.9278V51.3953C35.6959 52.4122 36.3275 53.3213 37.2801 53.6785V57.3092C37.2845 58.5247 38.2403 59.5238 39.4543 59.5813V80.5564C38.2403 80.6143 37.2845 81.6134 37.2801 82.8285V86.4485C36.3255 86.8152 35.6943 87.731 35.6927 88.7531V91.1667C35.6927 91.6167 36.0583 91.9818 36.5082 91.9818H91.4931C91.9431 91.9818 92.3082 91.6167 92.3082 91.1667V88.7531C92.3066 87.7306 91.6755 86.8148 90.7212 86.4485V82.8071C90.7169 81.5916 89.7606 80.5925 88.5471 80.535V59.5813C89.7606 59.5238 90.7169 58.5247 90.7212 57.3092V53.6785C91.6735 53.3213 92.3051 52.4122 92.3082 51.3953V48.944C92.3047 48.8239 92.292 48.7038 92.2702 48.5852C92.6801 48.7668 93.1594 48.5821 93.341 48.1721C93.5226 47.7626 93.3378 47.2833 92.9283 47.1013L64.3757 32.0944C64.1375 31.9687 63.8528 31.9687 63.6145 32.0944L35.0624 47.0851C34.6639 47.2956 34.5113 47.7884 34.721 48.1868C34.9129 48.5508 35.3458 48.7149 35.7308 48.569ZM38.9108 55.0914V53.8359H48.3138V55.0807L38.9108 55.0914ZM59.8478 59.5868V80.5564C58.6339 80.6143 57.6781 81.6134 57.6737 82.8285V86.2963H49.9333V82.8285C49.929 81.6134 48.9731 80.6143 47.7592 80.5564V59.5813C48.9731 59.5238 49.929 58.5247 49.9333 57.3092V53.8359H57.6626V57.304C57.6646 58.5216 58.6212 59.523 59.8371 59.5813L59.8478 59.5868ZM59.3043 55.0914V53.8359H68.7078V55.0807L59.3043 55.0914ZM80.2418 59.5868V80.5564C79.0279 80.6143 78.0716 81.6134 78.0672 82.8285V86.2963H70.3273V82.8285C70.3229 81.6134 69.3667 80.6143 68.1531 80.5564V59.5813C69.3667 59.5238 70.3229 58.5247 70.3273 57.3092V53.8359H78.0565V57.304C78.0581 58.5216 79.0148 59.523 80.2307 59.5813L80.2418 59.5868ZM79.6982 55.0914V53.8359H89.1013V55.0807L79.6982 55.0914ZM89.1013 85.0518V86.2963H79.6872V85.0518H89.1013ZM68.7078 85.0518V86.2963H59.2936V85.0518H68.7078ZM60.6522 57.9669H59.9458C59.5854 57.9669 59.2936 57.6751 59.2936 57.3147V56.7221H68.6967V57.3147C68.6967 57.6751 68.4049 57.9669 68.0445 57.9669H60.6522ZM66.5281 59.5975V80.5457H61.4677V59.5975H66.5281ZM60.6522 82.1763H68.0445C68.4049 82.1763 68.6967 82.4681 68.6967 82.8285V83.4212H59.2936V82.8285C59.2936 82.4681 59.5854 82.1763 59.9458 82.1763H60.6522ZM48.3031 85.0518V86.2963H38.8996V85.0518H48.3031ZM38.8996 57.331V56.7221H48.3031V57.3147C48.3031 57.6751 48.0113 57.9669 47.6506 57.9669H39.5356C39.1795 57.9582 38.8965 57.6652 38.8996 57.3092V57.331ZM46.129 59.6138V80.5457H41.0738V59.5975L46.129 59.6138ZM38.8996 82.8451C38.8996 82.4844 39.1914 82.1926 39.5518 82.1926H47.6506C48.0113 82.1926 48.3031 82.4844 48.3031 82.8451V83.4374H38.8996V82.8451ZM90.6776 88.786V90.3837H37.3126V88.786C37.3126 88.3206 37.6897 87.9431 38.1551 87.9431H89.8352C90.2939 87.9431 90.6689 88.3106 90.6776 88.7693V88.786ZM89.0906 82.8451V83.4374H79.6872V82.8451C79.6872 82.4844 79.9789 82.1926 80.3393 82.1926H88.4547C88.8024 82.2013 89.0819 82.4808 89.0906 82.8285V82.8451ZM81.8613 80.562V59.5975H86.9216V80.5457L81.8613 80.562ZM89.0906 57.331C89.0906 57.6914 88.7988 57.9832 88.4385 57.9832H80.3449C79.9845 57.9832 79.6927 57.6914 79.6927 57.331V56.7221H89.0958L89.0906 57.331ZM63.9951 33.725L88.2751 46.4872H39.7152L63.9951 33.725ZM37.3126 48.944C37.3126 48.4941 37.6778 48.1289 38.1278 48.1289H89.8625C90.3125 48.1289 90.6776 48.4941 90.6776 48.944V51.412C90.6776 51.8619 90.3125 52.2271 89.8625 52.2271H38.1278C37.6778 52.2271 37.3126 51.8619 37.3126 51.412V48.944Z" fill="#7F94A8"/>
<circle cx="63.5" cy="63.5" r="62.5" stroke="#7F94A8"/>
</svg>
