<svg width="127" height="127" viewBox="0 0 127 127" fill="none" xmlns="http://www.w3.org/2000/svg">
<circle cx="63.5" cy="63.5" r="62.5" stroke="#7F94A8"/>
<path d="M93.7 69.7534H93.656C93.239 57.558 85.3711 46.8722 73.8494 42.8529C73.603 41.2472 72.2246 40.0596 70.6 40.0534H67.0976C66.5015 38.3426 64.6315 37.439 62.9209 38.0349C61.9753 38.3643 61.2319 39.1077 60.9024 40.0534H57.4C55.7754 40.0594 54.397 41.2472 54.1506 42.8529C42.6289 46.8722 34.761 57.558 34.344 69.7534H34.3C32.4774 69.7534 31 71.2308 31 73.0534C31 74.876 32.4774 76.3534 34.3 76.3534V77.7317C34.3098 80.0044 35.7079 82.0403 37.8255 82.8654L39.9155 83.6673C47.6004 86.6274 55.7647 88.1466 64 88.1487C72.2371 88.1466 80.4033 86.6275 88.09 83.6673L90.18 82.8654C92.2956 82.0385 93.6911 80.0031 93.7 77.7317V76.3534C95.5226 76.3534 97 74.876 97 73.0534C97 71.2308 95.5226 69.7534 93.7 69.7534ZM54.1 45.2146V58.7534C54.1 59.3609 54.5925 59.8534 55.2 59.8534C55.8075 59.8534 56.3 59.3609 56.3 58.7534V43.3534C56.3 42.7459 56.7925 42.2534 57.4 42.2534H60.7V63.1534C60.7 63.7609 61.1925 64.2534 61.8 64.2534C62.4075 64.2534 62.9 63.7609 62.9 63.1534V41.1534C62.9 40.5459 63.3925 40.0534 64 40.0534C64.6075 40.0534 65.1 40.5459 65.1 41.1534V63.1534C65.1 63.7609 65.5925 64.2534 66.2 64.2534C66.8075 64.2534 67.3 63.7609 67.3 63.1534V42.2534H70.6C71.2075 42.2534 71.7 42.7459 71.7 43.3534V58.7534C71.7 59.3609 72.1925 59.8534 72.8 59.8534C73.4075 59.8534 73.9 59.3609 73.9 58.7534V45.2146C84.1403 49.1375 91.0497 58.7949 91.456 69.7534H36.544C36.9503 58.7949 43.8597 49.1375 54.1 45.2146ZM91.5 77.7317C91.4938 79.0951 90.6551 80.3164 89.3847 80.8117L87.2947 81.6136C72.3003 87.393 55.6931 87.393 40.6987 81.6136L38.6087 80.8117C37.341 80.3144 36.5051 79.0935 36.5 77.7317V76.3534H91.5V77.7317ZM93.7 74.1534H34.3C33.6925 74.1534 33.2 73.6609 33.2 73.0534C33.2 72.4459 33.6925 71.9534 34.3 71.9534H93.7C94.3075 71.9534 94.8 72.4459 94.8 73.0534C94.8 73.6609 94.3075 74.1534 93.7 74.1534Z" fill="#7F94A8"/>
</svg>
