<svg width="127" height="127" viewBox="0 0 127 127" fill="none" xmlns="http://www.w3.org/2000/svg">
<circle cx="63.5" cy="63.5" r="62.5" stroke="#7F94A8"/>
<g clip-path="url(#clip0)">
<path d="M93.8794 86.2272L91.501 77.9592C91.4443 77.7893 91.3311 77.6194 91.2178 77.5061C89.7454 73.0324 86.1211 69.5779 81.5341 68.3887L80.8545 68.2754C79.8352 67.9923 78.7026 68.3321 77.9664 69.1815C75.4746 72.013 72.3034 72.2395 68.9622 72.2395C65.621 72.2395 62.4497 72.013 59.958 69.1815C59.2218 68.3321 58.0892 67.9923 57.0699 68.2754L56.3903 68.4453C52.9359 69.3514 49.9911 71.56 48.1223 74.5047H40.9869C40.9303 74.5047 40.9303 74.5047 40.8737 74.4481C40.8737 74.3915 40.817 74.3349 40.817 74.2216L42.2894 68.955C43.5919 64.821 46.0836 63.5751 50.9538 62.3293C51.1803 62.2726 51.3502 62.1594 51.4635 62.0461C51.8599 62.3859 52.3129 62.6691 52.766 62.8956C52.9359 63.0088 53.1058 63.0088 53.2757 63.0088C53.6721 63.0088 54.0685 62.7823 54.295 62.3859C54.5781 61.8196 54.3516 61.14 53.7853 60.8569C51.1803 59.4978 49.3115 55.6469 49.3115 51.6828C49.3115 48.1718 52.1997 45.2836 55.7107 45.2836C56.3903 45.2836 57.0132 45.3969 57.6362 45.5668C57.0132 47.0958 56.6735 48.7381 56.6735 50.4936C56.6735 60.1773 62.5064 68.3321 69.4152 68.3321C76.2108 68.3321 82.2136 60.0074 82.2136 50.4936C82.2136 43.4148 76.494 37.6952 69.4152 37.6952C64.9414 37.6952 60.9773 40.017 58.7121 43.5281C57.7494 43.1883 56.7301 43.0184 55.7107 43.0184C52.6527 43.0184 49.9345 44.6607 48.4055 47.0958C48.2922 46.9825 48.1789 46.9259 48.0657 46.8693C47.2162 46.4162 46.3668 46.2463 45.4041 46.2463C42.2328 46.1897 39.6844 48.7381 39.6844 51.9093C39.6844 53.7215 40.1941 55.4204 40.9869 56.7795C38.3819 57.4591 36.0601 58.4784 34.9841 61.9329L34.0781 65.2174C33.9082 65.7837 34.0214 66.4066 34.3612 66.8597C34.701 67.3694 35.3239 67.6525 35.9468 67.6525H40.3074C40.2507 67.879 40.1375 68.1055 40.0808 68.3321L38.6085 73.6553C38.3819 74.3915 38.5518 75.1843 39.0615 75.8072C39.5145 76.4302 40.1941 76.7699 40.9869 76.7699H46.9897C46.8198 77.1664 46.7066 77.5628 46.5933 77.9592L44.2148 86.2838C43.9883 87.2465 44.1582 88.2659 44.7811 89.0587C45.4041 89.8515 46.3102 90.3045 47.2729 90.3045H81.2509H83.1763H90.8214C91.7841 90.3045 92.7468 89.8515 93.3131 89.0587C93.936 88.2659 94.1626 87.2465 93.8794 86.2272ZM60.0713 45.7367C60.1279 45.68 60.1845 45.6234 60.2411 45.5101C60.2978 45.4535 60.2978 45.3403 60.3544 45.2836C62.1099 42.1123 65.5077 39.9604 69.4152 39.9604C74.1155 39.9604 78.0796 43.075 79.4387 47.3223C77.4567 47.7187 75.3614 46.9259 74.1155 45.227C73.7191 44.7173 73.0395 44.6041 72.5299 45.0005C72.3034 45.1704 72.1901 45.3403 72.1335 45.5668C72.0768 45.6234 72.0768 45.68 72.0202 45.7367C70.4346 48.9646 65.1113 50.3237 59.0519 49.1345C59.2218 47.9452 59.5616 46.8126 60.0713 45.7367ZM63.2425 51.7961C67.7729 51.7961 71.5105 50.3803 73.436 47.7187C74.8517 48.9646 76.6072 49.6441 78.476 49.6441C78.9291 49.6441 79.4387 49.5875 79.8918 49.4742C79.9484 49.814 79.9484 50.0972 79.9484 50.437C79.9484 58.7616 75.0216 66.0669 69.4152 66.0669C64.0354 66.0669 59.3351 59.3279 58.9387 51.3997C60.411 51.6828 61.8834 51.7961 63.2425 51.7961ZM36.3999 65.3873L37.1927 62.5558C37.8723 60.234 39.288 59.5544 42.1195 58.8748C42.2894 58.8182 42.4593 58.7616 42.5726 58.6483C42.8557 58.8748 43.0822 59.0447 43.422 59.2146C43.5919 59.3279 43.7618 59.3279 43.9317 59.3279C44.3281 59.3279 44.7245 59.1014 44.951 58.705C45.2342 58.1387 45.0077 57.4591 44.498 57.1759C43.0256 56.3831 41.9496 54.1745 41.9496 51.9093C41.9496 49.9839 43.4786 48.4549 45.4041 48.4549C46.027 48.4549 46.5367 48.5682 47.0463 48.8513C47.2162 48.9079 47.3295 48.9646 47.4994 48.9646C47.2162 49.814 47.0463 50.7201 47.0463 51.6828C47.0463 54.9107 48.1223 58.082 49.8212 60.2906C46.4234 61.14 43.422 62.2726 41.44 65.3873H36.3999ZM91.5576 87.6996C91.4443 87.8128 91.2178 88.0393 90.8214 88.0393H83.1763H81.2509H47.2729C46.8765 88.0393 46.6499 87.8128 46.5367 87.6996C46.3668 87.473 46.3102 87.1332 46.3668 86.9067L48.7452 78.6387C49.8778 74.7313 52.9925 71.6732 56.9566 70.6539L57.6362 70.484C57.8061 70.4274 58.0892 70.5406 58.2591 70.7105C61.3738 74.2782 65.2246 74.5614 68.9622 74.5614C72.6998 74.5614 76.5506 74.2782 79.6653 70.7105C79.8352 70.5406 80.0617 70.4274 80.3448 70.484L81.0244 70.6539C84.9319 71.6732 88.1031 74.7313 89.2357 78.6387L90.2551 82.1498C90.3117 82.3197 90.3684 82.433 90.4816 82.5462L91.7275 86.8501C91.7841 87.1332 91.7275 87.473 91.5576 87.6996Z" fill="#7F94A8"/>
</g>
<defs>
<clipPath id="clip0">
<rect width="60" height="60" fill="white" transform="translate(34 34)"/>
</clipPath>
</defs>
</svg>
