<svg width="100" height="100" viewBox="0 0 100 100" fill="none" xmlns="http://www.w3.org/2000/svg">
<circle cx="50" cy="50" r="49.5" stroke="#7F94A8"/>
<g clip-path="url(#clip0)">
<path d="M76.4738 34.729H69.5171L66.5341 28.2607C66.353 27.8639 65.863 27.6815 65.4688 27.8639L62.5497 29.2262L53.7074 22.8652C53.3559 22.6078 52.8445 22.6936 52.5888 23.0583L44.3218 34.729H23.5263C23.0789 34.729 22.7273 35.0937 22.7273 35.5335V64.4635C22.7273 64.9033 23.0895 65.268 23.5263 65.268H30.483L33.4659 71.7362C33.647 72.1331 34.1264 72.3155 34.5313 72.1331L37.4503 70.7708L46.2926 77.1318C46.6442 77.3892 47.1556 77.3034 47.4112 76.9387L55.6783 65.268H76.4631C76.9105 65.268 77.2621 64.9033 77.2621 64.4635V35.5335C77.2728 35.0937 76.9105 34.729 76.4738 34.729ZM65.4155 29.6659L67.7486 34.729H54.5703L65.4155 29.6659ZM53.4304 24.6566L60.8878 30.0092L50.7777 34.729H46.2926L53.4304 24.6566ZM41.4773 58.0167V63.5624C41.4773 63.5946 41.4773 63.6268 41.488 63.659H36.6833C36.6833 63.6268 36.6939 63.5946 36.6939 63.5624V58.0167V56.515V36.338H41.488V56.515V58.0167H41.4773ZM24.3253 63.659V36.338H35.1918V56.515H30.3978C29.9823 56.515 29.652 56.8475 29.652 57.2658C29.652 57.6842 29.9823 58.0167 30.3978 58.0167H35.1918V63.5624C35.1918 63.5946 35.1918 63.6268 35.2024 63.659H24.3253ZM34.5845 70.331L32.2514 65.268H45.4297L34.5845 70.331ZM46.5696 75.3511L39.1122 69.9985L49.2223 65.2787H53.7074L46.5696 75.3511ZM75.6747 63.659H42.9688C42.9688 63.6268 42.9794 63.5946 42.9794 63.5624V58.0167H56.6158C57.0313 58.0167 57.3615 57.6842 57.3615 57.2658C57.3615 56.8475 57.0313 56.515 56.6158 56.515H42.9688V36.338H44.7266H68.9951H75.6747V63.659ZM62.049 45.8419H63.4446V40.9719H67.4503C69.7301 40.9719 71.0086 42.1304 71.0086 44.1256C71.0086 46.1315 69.7301 47.3222 67.4503 47.3222H65.1492V48.309H68.2174V49.2422H65.1492V51.3232H63.4446V49.2422H62.049V48.309H63.4446V47.3222H62.049V45.8419ZM67.2053 45.8419C68.7287 45.8419 69.304 45.1875 69.304 44.1256C69.304 43.0636 68.7287 42.4415 67.2053 42.4415H65.1492V45.8419H67.2053Z" fill="#7F94A8"/>
</g>
<defs>
<clipPath id="clip0">
<rect width="54.5455" height="54.5454" fill="white" transform="translate(22.7273 22.7275)"/>
</clipPath>
</defs>
</svg>
