<svg width="100" height="100" viewBox="0 0 100 100" fill="none" xmlns="http://www.w3.org/2000/svg">
<circle cx="50" cy="50" r="49.5" stroke="#7F94A8"/>
<path d="M67.7025 75.455H42.7108C39.7951 75.455 37.5042 73.1217 37.5042 70.152V38.3338C37.5042 35.3641 39.7951 33.0307 42.7108 33.0307H67.7025C70.6182 33.0307 72.9091 35.3641 72.9091 38.3338V70.152C72.9091 73.1217 70.6182 75.455 67.7025 75.455ZM42.7108 35.152C40.9405 35.152 39.5868 36.5307 39.5868 38.3338V70.152C39.5868 71.955 40.9405 73.3338 42.7108 73.3338H67.7025C69.4728 73.3338 70.8265 71.955 70.8265 70.152V38.3338C70.8265 36.5307 69.4728 35.152 67.7025 35.152H42.7108ZM34.3802 69.0914H32.2976C29.3819 69.0914 27.0909 66.758 27.0909 63.7883V29.8489C27.0909 26.8792 29.3819 24.5459 32.2976 24.5459H57.2893C60.205 24.5459 62.4959 26.8792 62.4959 29.8489C62.4959 30.4853 62.0794 30.9095 61.4546 30.9095C60.8298 30.9095 60.4133 30.4853 60.4133 29.8489C60.4133 28.0459 59.0595 26.6671 57.2893 26.6671H32.2976C30.5273 26.6671 29.1736 28.0459 29.1736 29.8489V63.7883C29.1736 65.5914 30.5273 66.9701 32.2976 66.9701H34.3802C35.005 66.9701 35.4215 67.3944 35.4215 68.0308C35.4215 68.6671 35.005 69.0914 34.3802 69.0914ZM63.5372 60.6065H46.8761C46.2513 60.6065 45.8347 60.1823 45.8347 59.5459C45.8347 58.9095 46.2513 58.4853 46.8761 58.4853H63.5372C64.162 58.4853 64.5785 58.9095 64.5785 59.5459C64.5785 60.1823 64.162 60.6065 63.5372 60.6065ZM63.5372 69.0914H46.8761C46.2513 69.0914 45.8347 68.6671 45.8347 68.0308C45.8347 67.3944 46.2513 66.9701 46.8761 66.9701H63.5372C64.162 66.9701 64.5785 67.3944 64.5785 68.0308C64.5785 68.6671 64.162 69.0914 63.5372 69.0914ZM63.5372 52.1217H46.8761C46.2513 52.1217 45.8347 51.6974 45.8347 51.0611C45.8347 50.4247 46.2513 50.0004 46.8761 50.0004H63.5372C64.162 50.0004 64.5785 50.4247 64.5785 51.0611C64.5785 51.6974 64.162 52.1217 63.5372 52.1217ZM63.5372 43.6368H46.8761C46.2513 43.6368 45.8347 43.2126 45.8347 42.5762C45.8347 41.9398 46.2513 41.5156 46.8761 41.5156H63.5372C64.162 41.5156 64.5785 41.9398 64.5785 42.5762C64.5785 43.2126 64.162 43.6368 63.5372 43.6368Z" fill="#7F94A8"/>
</svg>
