<svg width="100" height="100" viewBox="0 0 100 100" fill="none" xmlns="http://www.w3.org/2000/svg">
<circle cx="50" cy="50" r="49.5" stroke="#7F94A8"/>
<path fill-rule="evenodd" clip-rule="evenodd" d="M37.058 26.1152C37.058 25.5629 36.6103 25.1152 36.058 25.1152C35.5057 25.1152 35.058 25.5629 35.058 26.1152V27.5828H31.5188C28.7574 27.5828 26.5188 29.8213 26.5188 32.5828V69.5453C26.5188 72.3067 28.7574 74.5453 31.5188 74.5453H68.4813C71.2427 74.5453 73.4813 72.3067 73.4813 69.5453V32.5828C73.4813 29.8213 71.2427 27.5828 68.4813 27.5828H64.2084V26.1152C64.2084 25.5629 63.7607 25.1152 63.2084 25.1152C62.6561 25.1152 62.2084 25.5629 62.2084 26.1152V27.5828H37.058V26.1152ZM62.2084 33.4531V29.5828H37.058V33.4531C37.058 34.0054 36.6103 34.4531 36.058 34.4531C35.5057 34.4531 35.058 34.0054 35.058 33.4531V29.5828H31.5188C29.8619 29.5828 28.5188 30.9259 28.5188 32.5828V37.5895H71.4813V32.5828C71.4813 30.9259 70.1382 29.5828 68.4813 29.5828H64.2084V33.4531C64.2084 34.0054 63.7607 34.4531 63.2084 34.4531C62.6561 34.4531 62.2084 34.0054 62.2084 33.4531ZM28.5188 69.5453V39.5895H71.4813V69.5453C71.4813 71.2021 70.1382 72.5453 68.4813 72.5453H31.5188C29.8619 72.5453 28.5188 71.2021 28.5188 69.5453ZM46.9213 62.496C47.8173 62.992 48.8573 63.24 50.0413 63.24C51.5933 63.24 52.8573 62.8 53.8333 61.92C54.8253 61.024 55.3213 59.84 55.3213 58.368C55.3213 57.328 55.0253 56.432 54.4333 55.68C53.8413 54.928 53.0493 54.472 52.0573 54.312V54.24C52.9053 53.888 53.5533 53.36 54.0013 52.656C54.4493 51.952 54.6733 51.136 54.6733 50.208C54.6733 48.912 54.2493 47.88 53.4013 47.112C52.5693 46.344 51.4493 45.96 50.0413 45.96C48.9533 45.96 47.9933 46.2 47.1613 46.68C46.3453 47.144 45.7453 47.8 45.3613 48.648L46.4413 49.968C47.2253 48.576 48.3773 47.88 49.8973 47.88C50.7453 47.88 51.4093 48.12 51.8893 48.6C52.3853 49.064 52.6333 49.712 52.6333 50.544C52.6333 51.392 52.3373 52.088 51.7453 52.632C51.1853 53.176 50.5133 53.448 49.7293 53.448H48.5293V55.368H49.8493C50.8733 55.368 51.6973 55.632 52.3213 56.16C52.9613 56.688 53.2813 57.4 53.2813 58.296C53.2813 59.192 52.9773 59.92 52.3693 60.48C51.7773 61.04 50.9773 61.32 49.9693 61.32C49.1533 61.32 48.3933 61.12 47.6893 60.72C46.9853 60.304 46.4413 59.728 46.0573 58.992L44.9533 60.36C45.3853 61.288 46.0413 62 46.9213 62.496Z" fill="#7F94A8"/>
</svg>
