<?xml version="1.0" encoding="utf-8"?>
<!-- Generator: Adobe Illustrator 21.0.2, SVG Export Plug-In . SVG Version: 6.00 Build 0)  -->
<svg version="1.1" id="Слой_1" xmlns="http://www.w3.org/2000/svg" xmlns:xlink="http://www.w3.org/1999/xlink" x="0px" y="0px"
	 viewBox="0 0 225 50" style="enable-background:new 0 0 225 50;" xml:space="preserve">
<style type="text/css">
	.st0{fill:#2A2C29;}
	.st1{fill:#FE5000;}
</style>
<path class="st0" d="M77.7,11.6c-0.4-1.1-1-1.4-2.2-1.4h-3.4c-1.2,0-1.8,0.3-2.2,1.5L59.5,39.7c-0.4,1.2-0.1,1.8,1.2,1.8h3
	c2.2,0,2.8-0.4,3.2-1.6l1.4-4.1h10.8l1.4,4.1c0.4,1.3,1.1,1.6,3.3,1.6H87c1.3,0,1.6-0.6,1.2-1.8L77.7,11.6z M70.2,29.9l2.3-6.9
	c1.1-3.1,1-5.4,1-5.4h0.4c0,0,0.1,2.2,1.1,5.4l2.3,6.8C77.3,29.9,70.2,29.9,70.2,29.9z M107.7,10.2H86.8c-1.4,0-1.8,0.4-1.8,1.8V15
	c0,1.3,0.4,1.8,1.8,1.8h6.9v22.9c0,1.4,0.4,1.8,1.8,1.8H99c1.4,0,1.8-0.4,1.8-1.8V16.7h6.8c1.4,0,1.8-0.4,1.8-1.8V12
	C109.5,10.7,109,10.2,107.7,10.2 M126.4,21.7h-7.1v-5.1h13.2c1.3,0,1.8-0.5,1.8-1.8V12c0-1.4-0.5-1.8-1.8-1.8H114
	c-1.3,0-1.8,0.4-1.8,1.8v27.7c0,1.3,0.5,1.7,1.8,1.7h12.5c6.1,0,10-3.8,10-9.8C136.5,25.4,132.5,21.7,126.4,21.7 M125.4,35.1h-6.1
	v-7h6.1c2.3,0,3.6,1.4,3.6,3.5C129.1,33.6,127.8,35.1,125.4,35.1"/>
<path class="st0" d="M150.2,46.9h0.5V4.8h-0.5V46.9z M166.5,16.8c-0.4,0-1.1-0.2-1.5-0.5l-0.3,0.4c0.3,0.4,1.2,0.6,1.8,0.6
	c1.1,0,1.9-0.5,1.9-1.4c0-0.5-0.3-1-1-1.1v0c0.6-0.2,0.8-0.7,0.8-1.1c0-0.8-0.6-1.2-1.7-1.2c-0.7,0-1.4,0.2-1.8,0.6l0.2,0.4
	c0.3-0.3,0.8-0.5,1.5-0.5c0.7,0,1.2,0.3,1.2,0.8c0,0.5-0.4,0.9-1,0.9H166v0.4h0.8c0.7,0,1.1,0.3,1.1,0.8
	C167.9,16.5,167.3,16.8,166.5,16.8 M190,12.6h-0.5v4.7h0.5V12.6z M202.1,14.4h-2.4V15h2.4V14.4z M193.4,17.2l-2.5-2.4l2.3-2.2h-0.7
	l-2.3,2.3l2.4,2.4L193.4,17.2L193.4,17.2z M173.4,13.3v3.9h0.5v-4.7h-0.5l-3.1,3.9v-3.9h-0.5v4.7h0.5L173.4,13.3z M158.8,14.8h3.5
	l1.1,2.5h0.6l-3.2-7.3h-0.5l-3.2,7.3h0.6L158.8,14.8z M160.6,10.7l1.5,3.5h-3L160.6,10.7z M181.3,17.2h0.5v-4.1h1.9v-0.5h-4.3v0.5
	h1.9L181.3,17.2L181.3,17.2z M196.1,12.5c-1.5,0-2.5,1-2.5,2.4c0,1.4,1,2.4,2.5,2.4c1.5,0,2.5-1,2.5-2.4
	C198.6,13.5,197.6,12.5,196.1,12.5 M196.1,16.8c-1.1,0-1.9-0.8-1.9-1.9c0-1.1,0.8-1.9,1.9-1.9c1.1,0,1.9,0.8,1.9,1.9
	C198,16,197.3,16.8,196.1,16.8 M177,12.5c-0.6,0-1.1,0.2-1.5,0.4l0.1,0.4c0.4-0.2,0.8-0.4,1.3-0.4c1.2,0,1.2,0.7,1.2,1.8
	c-0.4-0.3-0.9-0.4-1.3-0.4c-1,0-1.8,0.5-1.8,1.5c0,0.9,0.6,1.4,1.4,1.4c0.9,0,1.3-0.4,1.6-0.8v0.7h0.5v-2.9
	C178.7,13.2,178.3,12.5,177,12.5 M178.2,16.1c-0.3,0.3-0.6,0.7-1.4,0.7c-0.6,0-1-0.3-1-0.9c0-0.7,0.6-1,1.3-1c0.5,0,0.9,0.1,1.2,0.4
	V16.1z M188.4,16.6l-0.3-0.4c-0.3,0.4-0.9,0.6-1.5,0.6c-1.1,0-1.9-0.7-1.9-1.9c0-1.1,0.9-1.9,1.8-1.9c0.5,0,1.1,0.1,1.5,0.5l0.3-0.4
	c-0.4-0.4-1.1-0.6-1.8-0.6c-1.3,0-2.3,1.1-2.3,2.4c0,1.5,1,2.4,2.5,2.4C187.3,17.3,188,17.1,188.4,16.6 M196.4,24.2
	c-0.6,0-1.1,0.2-1.5,0.4l0.1,0.4c0.4-0.2,0.8-0.4,1.3-0.4c1.2,0,1.2,0.7,1.2,1.8c-0.4-0.3-0.9-0.4-1.3-0.4c-1,0-1.8,0.5-1.8,1.5
	c0,0.9,0.6,1.4,1.4,1.4c0.9,0,1.3-0.4,1.6-0.8v0.7h0.5V26C198.1,24.9,197.7,24.2,196.4,24.2 M197.6,27.8c-0.3,0.3-0.6,0.7-1.4,0.7
	c-0.6,0-1-0.3-1-0.9c0-0.7,0.6-1,1.3-1c0.5,0,0.9,0.1,1.2,0.4V27.8z M188.8,24.3h-0.7l-2.3,2.3l2.4,2.4h0.7l-2.5-2.4L188.8,24.3z
	 M203.2,26.3h-3v-2h-0.5v4.7h0.5v-2.1h3v2.1h0.5v-4.7h-0.5V26.3z M191.6,24.2c-1.5,0-2.4,1.1-2.4,2.4c0,1.5,1,2.4,2.5,2.4
	c0.6,0,1.3-0.2,1.7-0.7l-0.2-0.4c-0.3,0.3-0.9,0.6-1.5,0.6c-1.1,0-1.9-0.7-1.9-1.8h3.9c0-0.1,0-0.3,0-0.4
	C193.7,25,192.8,24.2,191.6,24.2 M189.8,26.3c0.1-0.9,0.7-1.6,1.7-1.6c1,0,1.6,0.6,1.6,1.6H189.8z M215.7,28.2v-3.9h-0.5v4.7h0.5
	l3.1-3.9v3.9h0.5v-4.7h-0.5L215.7,28.2z M224.5,24.3l-3.1,3.9v-3.9h-0.5v4.7h0.5l3.1-3.9v3.9h0.5v-4.7
	C225.1,24.3,224.5,24.3,224.5,24.3z M223.1,23.2c0.8,0,1.4-0.6,1.4-1.3H224c0,0.5-0.4,0.9-0.9,0.9c-0.6,0-1-0.4-1-0.9h-0.5
	C221.6,22.6,222.1,23.2,223.1,23.2 M159.9,28.9h0.6v-6.7h2.7v-0.5h-6v0.5h2.7L159.9,28.9L159.9,28.9z M207.4,28.5
	c-1.1,0-1.9-0.7-1.9-1.9c0-1.1,0.9-1.9,1.8-1.9c0.5,0,1.1,0.1,1.5,0.5l0.3-0.4c-0.4-0.4-1.1-0.6-1.8-0.6c-1.3,0-2.3,1.1-2.3,2.4
	c0,1.5,1,2.4,2.5,2.4c0.7,0,1.4-0.3,1.8-0.8l-0.3-0.4C208.6,28.3,208,28.5,207.4,28.5 M214,24.3h-0.7l-2.3,2.3l2.4,2.4h0.7l-2.5-2.4
	L214,24.3z M210.2,28.9h0.5v-4.7h-0.5V28.9z M181.3,24.2c-1.5,0-2.5,1-2.5,2.4c0,1.4,1,2.4,2.5,2.4c1.5,0,2.5-1,2.5-2.4
	C183.8,25.2,182.8,24.2,181.3,24.2 M181.3,28.5c-1.1,0-1.9-0.8-1.9-1.9c0-1.1,0.8-1.9,1.9-1.9c1.1,0,1.9,0.8,1.9,1.9
	C183.2,27.7,182.4,28.5,181.3,28.5 M177.9,26.6c0-1.4-1-2.4-2.5-2.4c-1.5,0-2.5,1-2.5,2.4c0,1.4,1,2.4,2.5,2.4
	C176.9,29,177.9,28,177.9,26.6 M173.6,26.6c0-1.1,0.8-1.9,1.9-1.9c1.1,0,1.9,0.8,1.9,1.9c0,1.1-0.8,1.9-1.9,1.9
	C174.4,28.5,173.6,27.7,173.6,26.6 M185,28.9h0.5v-4.7H185V28.9z M171.9,28.9h0.7l-1.9-2.4l1.8-2.3h-0.6l-1.5,1.9l-1.5-1.9h-0.7
	l1.8,2.3l-1.9,2.4h0.6l1.6-2.1L171.9,28.9z M166.5,28.9h0.5v-4.7h-0.5l-3.1,3.9v-3.9h-0.5v4.7h0.5l3.1-3.9V28.9z M178.2,36h-0.7
	l-2.3,2.3l2.4,2.4h0.7l-2.5-2.4L178.2,36z M165.6,35.9c-0.6,0-1.1,0.2-1.5,0.4l0.1,0.4c0.4-0.2,0.8-0.4,1.3-0.4
	c1.2,0,1.2,0.7,1.2,1.8c-0.4-0.3-0.9-0.4-1.3-0.4c-1,0-1.8,0.5-1.8,1.5c0,0.9,0.6,1.4,1.4,1.4c0.9,0,1.3-0.4,1.6-0.8v0.7h0.5v-2.9
	C167.3,36.6,166.9,35.9,165.6,35.9 M166.8,39.5c-0.3,0.3-0.6,0.7-1.4,0.7c-0.6,0-1-0.3-1-0.9c0-0.7,0.6-1,1.3-1
	c0.5,0,0.9,0.1,1.2,0.4V39.5z M174.4,40.6h0.5V36h-0.5V40.6z M172.4,38h-3v-2h-0.5v4.7h0.5v-2.1h3v2.1h0.5V36h-0.5V38z M160.1,36.3
	c-0.3,0-0.8,0-1.2,0.1v-2.5h3.4v-0.5h-4v7.3c0.4,0,1,0,1.6,0c1.7,0,2.8-0.8,2.8-2.3C162.7,37.1,161.8,36.3,160.1,36.3 M160,40.1
	c-0.4,0-0.8,0-1.1,0v-3.2c0.4-0.1,0.9-0.1,1.2-0.1c1.4,0,2.1,0.6,2.1,1.6C162.1,39.5,161.4,40.1,160,40.1"/>
<path class="st1" d="M41.6,0.1H8.3C3.7,0.1,0,3.8,0,8.4v33.3C0,46.3,3.7,50,8.3,50h33.3c4.6,0,8.3-3.7,8.3-8.3V8.4
	C49.9,3.8,46.2,0.1,41.6,0.1 M47.3,40.8c-0.1,0.1-0.2,0.1-0.3,0.1c-6.4-3.9-14-6.1-22-6.1S9.4,37,2.9,40.9c-0.1,0.1-0.3,0-0.3-0.1
	c-0.1-0.1-0.1-0.3,0.1-0.3l0,0C8.5,36,13.6,30.3,17.4,23.5c3.9-6.7,6.3-13.9,7.3-21.2c0-0.1,0.1-0.2,0.3-0.2c0.1,0,0.2,0.1,0.3,0.2
	c1,7.3,3.4,14.5,7.3,21.2c3.9,6.7,8.9,12.4,14.8,16.9l0,0C47.4,40.5,47.4,40.7,47.3,40.8"/>
</svg>
