<svg width="238" height="46" viewBox="0 0 238 46" fill="none" xmlns="http://www.w3.org/2000/svg">
<g clip-path="url(#clip0)">
<path d="M73.9012 10.672C73.5208 9.66 72.9501 9.384 71.8088 9.384H68.575C67.4337 9.384 66.863 9.66 66.4826 10.764L56.591 36.524C56.2106 37.628 56.4959 38.18 57.7324 38.18H60.5857C62.6781 38.18 63.2488 37.812 63.6292 36.708L64.9608 32.936H75.2328L76.5644 36.708C76.9448 37.904 77.6106 38.18 79.703 38.18H82.7466C83.983 38.18 84.2684 37.628 83.8879 36.524L73.9012 10.672ZM66.7679 27.508L68.9555 21.16C70.0017 18.308 69.9066 16.192 69.9066 16.192H70.287C70.287 16.192 70.3821 18.216 71.3332 21.16L73.5208 27.416C73.5208 27.508 66.7679 27.508 66.7679 27.508ZM102.435 9.384H82.5564C81.2248 9.384 80.8444 9.752 80.8444 11.04V13.8C80.8444 14.996 81.2248 15.456 82.5564 15.456H89.119V36.524C89.119 37.812 89.4995 38.18 90.831 38.18H94.1599C95.4915 38.18 95.8719 37.812 95.8719 36.524V15.364H102.339C103.671 15.364 104.051 14.996 104.051 13.708V11.04C104.147 9.844 103.671 9.384 102.435 9.384ZM120.22 19.964H113.467V15.272H126.022C127.259 15.272 127.734 14.812 127.734 13.616V11.04C127.734 9.752 127.259 9.384 126.022 9.384H108.427C107.19 9.384 106.715 9.752 106.715 11.04V36.524C106.715 37.72 107.19 38.088 108.427 38.088H120.315C126.117 38.088 129.827 34.592 129.827 29.072C129.827 23.368 126.022 19.964 120.22 19.964ZM119.269 32.292H113.467V25.852H119.269C121.457 25.852 122.693 27.14 122.693 29.072C122.788 30.912 121.552 32.292 119.269 32.292Z" fill="#2A2C29"/>
<path d="M156.037 32V17.3H164.626V19.715H158.62V22.991C159.194 22.907 159.852 22.865 160.594 22.865C162.12 22.865 163.324 23.264 164.206 24.062C165.088 24.86 165.529 25.938 165.529 27.296C165.529 28.822 165.032 30.005 164.038 30.845C163.058 31.671 161.665 32.084 159.859 32.084C159.523 32.084 158.781 32.07 157.633 32.042C157.409 32.042 157.171 32.035 156.919 32.021C156.667 32.021 156.471 32.014 156.331 32C156.205 32 156.107 32 156.037 32ZM160.384 25.28C159.852 25.28 159.264 25.322 158.62 25.406V29.585C159.306 29.641 159.852 29.669 160.258 29.669C162.064 29.669 162.967 28.941 162.967 27.485C162.967 26.799 162.75 26.26 162.316 25.868C161.882 25.476 161.238 25.28 160.384 25.28ZM178.911 21.563L171.204 32H168.936V17.3H171.519V27.758L179.226 17.3H181.494V32H178.911V21.563ZM189.306 32.231C188.172 32.231 187.164 32 186.282 31.538C185.414 31.076 184.742 30.481 184.266 29.753L185.673 28.01C186.135 28.542 186.688 28.976 187.332 29.312C187.976 29.648 188.592 29.816 189.18 29.816C189.978 29.816 190.629 29.627 191.133 29.249C191.637 28.857 191.889 28.318 191.889 27.632C191.889 27.03 191.658 26.561 191.196 26.225C190.748 25.875 190.111 25.7 189.285 25.7H187.773V23.285H189.201C189.789 23.285 190.286 23.11 190.692 22.76C191.112 22.396 191.322 21.927 191.322 21.353C191.322 20.765 191.126 20.31 190.734 19.988C190.356 19.652 189.838 19.484 189.18 19.484C187.99 19.484 186.996 20.016 186.198 21.08L184.707 19.358C185.211 18.672 185.89 18.119 186.744 17.699C187.598 17.279 188.508 17.069 189.474 17.069C190.818 17.069 191.889 17.426 192.687 18.14C193.485 18.854 193.884 19.841 193.884 21.101C193.884 21.717 193.709 22.319 193.359 22.907C193.023 23.495 192.54 23.971 191.91 24.335V24.398C192.75 24.608 193.38 25.021 193.8 25.637C194.234 26.239 194.451 26.988 194.451 27.884C194.451 29.186 193.94 30.236 192.918 31.034C191.91 31.832 190.706 32.231 189.306 32.231ZM209.717 32H207.155V25.721H200.435V32H197.852V17.3H200.435V23.306H207.155V17.3H209.717V32ZM222.502 32H213.787V17.3H222.292V19.715H216.37V23.369H221.662V25.784H216.37V29.585H222.502V32ZM236.072 28.64L237.059 30.572C236.597 31.062 235.932 31.461 235.064 31.769C234.21 32.077 233.307 32.231 232.355 32.231C230.115 32.231 228.288 31.538 226.874 30.152C225.474 28.766 224.774 26.932 224.774 24.65C224.774 22.466 225.439 20.653 226.769 19.211C228.085 17.783 229.926 17.069 232.292 17.069C234.168 17.069 235.659 17.566 236.765 18.56L235.61 20.471C234.616 19.813 233.51 19.484 232.292 19.484C230.892 19.484 229.744 19.953 228.848 20.891C227.952 21.829 227.504 23.082 227.504 24.65C227.504 26.19 227.973 27.436 228.911 28.388C229.863 29.34 231.088 29.816 232.586 29.816C233.874 29.816 235.036 29.424 236.072 28.64Z" fill="#2A2C29"/>
<path d="M142.857 43.148H143.332V4.416H142.857V43.148Z" fill="#2A2C29"/>
<path d="M39.5662 0.0919952H7.89422C3.51911 0.0919952 0 3.49599 0 7.72799V38.364C0 42.596 3.51911 46 7.89422 46H39.5662C43.9413 46 47.4604 42.596 47.4604 38.364V7.72799C47.4604 3.49599 43.9413 0.0919952 39.5662 0.0919952ZM44.9876 37.536C44.8924 37.628 44.7973 37.628 44.7022 37.628C38.6151 34.04 31.3867 32.016 23.7778 32.016C16.1689 32.016 8.94044 34.04 2.75822 37.628C2.66311 37.72 2.47289 37.628 2.47289 37.536C2.37778 37.444 2.37778 37.26 2.568 37.26C8.08444 33.12 12.9351 27.876 16.5493 21.62C20.2587 15.456 22.5413 8.832 23.4924 2.116C23.4924 2.024 23.5876 1.932 23.7778 1.932C23.8729 1.932 23.968 2.024 24.0631 2.116C25.0142 8.832 27.2969 15.456 31.0062 21.62C34.7156 27.784 39.4711 33.028 45.0827 37.168C45.0827 37.26 45.0827 37.444 44.9876 37.536Z" fill="#FE5000"/>
</g>
<defs>
<clipPath id="clip0">
<rect width="238" height="46" fill="white"/>
</clipPath>
</defs>
</svg>
