<svg width="24" height="24" viewBox="0 0 24 24" fill="none" xmlns="http://www.w3.org/2000/svg">
<path d="M21 0H3C1.35 0 0 1.35 0 3V21C0 22.65 1.35 24 3 24H21C22.65 24 24 22.65 24 21V3C24 1.35 22.65 0 21 0ZM19.575 16.8H17.775C17.1 16.8 16.875 16.275 15.675 15.075C14.625 14.025 14.175 13.95 13.875 13.95C13.275 13.95 13.425 14.175 13.425 16.125C13.425 16.575 13.275 16.8 12.15 16.8C10.275 16.8 8.175 15.675 6.675 13.575C4.35 10.5 3.75 8.175 3.75 7.725C3.75 7.425 3.825 7.2 4.35 7.2H6.15C6.6 7.2 6.75 7.425 6.975 7.875C7.875 10.425 9.375 12.6 9.975 12.6C10.2 12.6 10.275 12.525 10.275 11.925V9.3C10.2 8.1 9.525 8.025 9.525 7.575C9.525 7.35 9.675 7.2 9.975 7.2H12.825C13.2 7.2 13.35 7.425 13.35 7.875V11.4C13.35 11.775 13.5 11.925 13.65 11.925C13.875 11.925 14.1 11.775 14.475 11.4C15.75 9.975 16.725 7.8 16.725 7.8C16.875 7.5 17.025 7.275 17.475 7.275H19.275C19.8 7.275 19.95 7.575 19.8 7.95C19.575 9 17.4 12 17.4 12C17.175 12.3 17.1 12.45 17.4 12.825C17.475 12.975 19.8 15.15 20.175 16.2C20.325 16.575 20.1 16.8 19.575 16.8Z" fill="#373A36"/>
</svg>
