<svg width="11" height="13" viewBox="0 0 11 13" fill="none" xmlns="http://www.w3.org/2000/svg">
<path d="M8.03711 5.8125C8.2207 5.86979 8.39551 5.94754 8.56152 6.04576C8.72754 6.14397 8.90137 6.29334 9.08301 6.49386C9.26465 6.69438 9.41992 6.93071 9.54883 7.20285C9.67773 7.47498 9.78516 7.82692 9.87109 8.25865C9.95703 8.69038 10 9.17429 10 9.71038C10 10.3406 9.80469 10.8797 9.41406 11.3278C9.02344 11.7759 8.55273 12 8.00195 12H2.99805C2.44727 12 1.97656 11.7759 1.58594 11.3278C1.19531 10.8797 1 10.3406 1 9.71038C1 9.17429 1.04297 8.69038 1.12891 8.25865C1.21484 7.82692 1.32227 7.47498 1.45117 7.20285C1.58008 6.93071 1.73535 6.69438 1.91699 6.49386C2.09863 6.29334 2.27246 6.14397 2.43848 6.04576C2.60449 5.94754 2.7793 5.86979 2.96289 5.8125C2.6543 5.30097 2.5 4.74442 2.5 4.14286C2.5 3.71726 2.5791 3.3111 2.7373 2.92439C2.89551 2.53767 3.10938 2.20312 3.37891 1.92076C3.64844 1.63839 3.96777 1.41434 4.33691 1.2486C4.70605 1.08287 5.09375 1 5.5 1C5.90625 1 6.29395 1.08287 6.66309 1.2486C7.03223 1.41434 7.35156 1.63839 7.62109 1.92076C7.89062 2.20312 8.10449 2.53767 8.2627 2.92439C8.4209 3.3111 8.5 3.71726 8.5 4.14286C8.5 4.74442 8.3457 5.30097 8.03711 5.8125ZM5.5 1.78571C4.87891 1.78571 4.34863 2.0159 3.90918 2.47628C3.46973 2.93666 3.25 3.49219 3.25 4.14286C3.25 4.79353 3.46973 5.34905 3.90918 5.80943C4.34863 6.26981 4.87891 6.5 5.5 6.5C6.12109 6.5 6.65137 6.26981 7.09082 5.80943C7.53027 5.34905 7.75 4.79353 7.75 4.14286C7.75 3.49219 7.53027 2.93666 7.09082 2.47628C6.65137 2.0159 6.12109 1.78571 5.5 1.78571ZM8.00195 11.2143C8.3457 11.2143 8.63965 11.068 8.88379 10.7754C9.12793 10.4828 9.25 10.1278 9.25 9.71038C9.25 8.73233 9.09668 7.96094 8.79004 7.39621C8.4834 6.83147 8.04297 6.53478 7.46875 6.50614C6.90234 7.02586 6.24609 7.28571 5.5 7.28571C4.75391 7.28571 4.09766 7.02586 3.53125 6.50614C2.95703 6.53478 2.5166 6.83147 2.20996 7.39621C1.90332 7.96094 1.75 8.73233 1.75 9.71038C1.75 10.1278 1.87207 10.4828 2.11621 10.7754C2.36035 11.068 2.6543 11.2143 2.99805 11.2143H8.00195Z" fill="#FE5000" stroke="#FE5000" stroke-width="0.5"/>
</svg>
