<svg width="43" height="12" viewBox="0 0 43 12" fill="none" xmlns="http://www.w3.org/2000/svg">
<g clip-path="url(#clip0)">
<path fill-rule="evenodd" clip-rule="evenodd" d="M0 0.00831962C1.32085 0.00831962 2.63317 0.00831962 3.95402 0.00831962C4.5761 -0.000119199 5.18965 0.320556 5.53052 0.835324C5.84582 1.27414 5.96512 1.81423 6.11851 2.32056C6.59572 3.90705 7.06441 5.50199 7.54162 7.09693C7.55014 7.24039 7.76318 7.29946 7.80579 7.13912C8.29152 5.53575 8.76873 3.92393 9.24594 2.31212C9.40785 1.74672 9.55271 1.14756 9.94471 0.674986C10.1918 0.371189 10.5412 0.160218 10.9247 0.0589525C11.2485 -0.0338745 11.5809 -0.000119199 11.9132 -0.000119199C13.0721 0.0167584 14.2311 -0.0001192 15.39 0.0167584C15.3815 4.00832 15.3985 8.00832 15.3815 11.9999C14.1288 11.9914 12.8761 12.0083 11.632 11.9914C11.632 9.64545 11.6405 7.3079 11.632 4.96191C11.6235 4.75094 11.2741 4.76781 11.2485 4.97035C10.5071 7.3079 9.75723 9.65389 9.01585 11.9914C8.12961 12.0083 7.25188 11.9999 6.36564 11.9999C5.62426 9.66233 4.88288 7.31634 4.13298 4.97878C4.09889 4.78469 3.86881 4.77625 3.7495 4.8944C3.7495 7.2657 3.7495 9.62857 3.7495 11.9999C2.49683 12.0168 1.25268 11.9999 0 12.0083C0 7.99988 0 4.00832 0 0.00831962ZM17.0943 0.0167584C18.3385 -0.0001192 19.5912 0.0251973 20.8438 -0.000119199C20.8609 2.37119 20.8438 4.7425 20.8524 7.11381C20.9631 7.20663 21.1591 7.24039 21.2188 7.08005C22.0539 5.35853 22.8805 3.62857 23.7071 1.89862C23.9713 1.36697 24.1843 0.784691 24.6104 0.345872C24.8064 0.168657 25.045 -0.00855802 25.3177 -0.000119199C26.5874 -0.000119199 27.8656 -0.00855802 29.1354 0.00831962C29.1354 3.99988 29.1354 7.99144 29.1354 11.9914C27.8827 11.9999 26.6385 11.9999 25.3858 11.9914C25.3858 9.62857 25.3944 7.25727 25.3858 4.8944C25.3858 4.69186 25.0365 4.70874 25.0024 4.88596C24.2184 6.59904 23.4429 8.31212 22.6589 10.0252C22.4203 10.5484 22.1903 11.0801 21.8323 11.5357C21.6363 11.7889 21.3381 12.0168 20.9972 11.9999C19.6934 11.9999 18.3981 11.9999 17.0943 11.9999C17.0943 8.00832 17.0943 4.00832 17.0943 0.0167584ZM30.9675 5.48511C34.8874 5.4598 38.8159 5.48511 42.7358 5.46824C42.5995 5.99988 42.2501 6.46402 41.8837 6.86908C41.1508 7.65389 40.1027 8.1349 39.0289 8.16022C37.5973 8.16866 36.1657 8.16022 34.7255 8.16866C34.717 9.44292 34.7255 10.7256 34.7255 11.9999C33.4728 11.9914 32.2202 11.9999 30.976 11.9914C30.9675 9.83111 30.9845 7.65389 30.9675 5.48511Z" fill="#327351"/>
<path fill-rule="evenodd" clip-rule="evenodd" d="M30.4902 0.01669C33.4217 0.01669 36.3531 0.00825122 39.2845 0.01669C40.0515 0.067323 40.7929 0.379559 41.4064 0.843694C42.2927 1.52724 42.8892 2.57365 42.9829 3.67914C43.0085 4.07576 42.9999 4.48082 42.9403 4.87745C41.1422 4.88589 39.3442 4.87745 37.5546 4.87745C36.9411 4.86901 36.319 4.90277 35.7055 4.80994C34.325 4.63272 32.97 4.06732 31.99 3.07154C31.1634 2.25298 30.6607 1.15593 30.4902 0.01669Z" fill="url(#paint0_linear)"/>
</g>
<defs>
<linearGradient id="paint0_linear" x1="30.494" y1="2.44445" x2="43.0009" y2="2.44445" gradientUnits="userSpaceOnUse">
<stop stop-color="#54A0D7"/>
<stop offset="1" stop-color="#3C58A8"/>
</linearGradient>
<clipPath id="clip0">
<rect width="43" height="12" fill="white"/>
</clipPath>
</defs>
</svg>
