<svg width="65" height="29" viewBox="0 0 65 29" fill="none" xmlns="http://www.w3.org/2000/svg">
<g clip-path="url(#clip0)">
<path d="M15.3704 28.9999V14.2747H17.743V15.3564C18.0693 14.828 18.7077 14.4521 19.2077 14.2854C19.7113 14.1187 20.2291 14.0336 20.7611 14.0336C22.0733 14.0336 23.4742 14.4769 24.6126 15.6579C25.6624 16.7502 26.2192 18.0802 26.2192 19.6548C26.2192 20.3783 26.0809 21.0876 25.8043 21.7721C25.5383 22.4566 25.1552 23.0595 24.6658 23.5631C24.148 24.1057 23.5593 24.5136 22.9103 24.7902C22.2648 25.0633 21.6584 25.2052 20.8675 25.2052C20.2894 25.2052 19.7326 25.1165 19.2077 24.9321C18.6899 24.7654 17.9664 24.3504 17.704 23.8929V28.9964H15.3704V28.9999ZM20.6831 16.126C19.8177 16.126 19.0623 16.3956 18.4452 17.0304C17.8139 17.69 17.5657 18.6334 17.5657 19.5733C17.5657 20.5734 17.8033 21.5487 18.4204 22.2083C19.041 22.8715 19.8071 23.1021 20.7008 23.1021C21.6052 23.1021 22.3393 22.7332 22.8961 22.1693C23.538 21.5168 23.8395 20.6337 23.8395 19.6797C23.8395 18.637 23.5309 17.7113 22.9103 17.0552C22.3819 16.4878 21.6087 16.126 20.6831 16.126Z" fill="#164193"/>
<path d="M42.4836 29L44.4874 24.3576L39.8946 14.2748H42.3949L45.6577 21.8431L48.6687 14.2748H51.1832L44.9413 29H42.4836Z" fill="#164193"/>
<path d="M36.1282 25.0136V23.9C35.8658 24.354 35.1423 24.7725 34.6245 24.9391C34.096 25.1236 33.5357 25.2122 32.9647 25.2122C32.1703 25.2122 31.5674 25.0739 30.9184 24.7973C30.2729 24.5207 29.6842 24.1093 29.1664 23.5666C28.6734 23.0666 28.2904 22.4601 28.0279 21.7792C27.7513 21.0912 27.6094 20.3854 27.6094 19.6619C27.6094 18.0872 28.1662 16.7573 29.2196 15.665C30.3615 14.4804 31.7624 14.0406 33.0746 14.0406C33.6031 14.0406 34.1209 14.1258 34.6245 14.2925C35.1281 14.4591 35.7665 14.8351 36.0927 15.3635V14.2818H38.4618V25.0207H36.1282V25.0136ZM30.9184 17.0552C30.2977 17.7149 29.9927 18.6405 29.9927 19.6796C29.9927 20.6301 30.2977 21.5167 30.9361 22.1693C31.4929 22.7332 32.227 23.102 33.1314 23.102C34.0251 23.102 34.7876 22.8715 35.4083 22.2083C36.0289 21.5487 36.263 20.5734 36.263 19.5732C36.263 18.6334 36.0183 17.6936 35.3905 17.0304C34.7663 16.392 34.0145 16.126 33.1527 16.126C32.2199 16.126 31.4539 16.4878 30.9184 17.0552Z" fill="#164193"/>
<path d="M53.6694 7.46186L53.5488 0.290771H55.8115V9.33798H52.5558L50.3037 1.91154H50.247L50.3747 9.33798H48.1297V0.290771H51.5166L53.6197 7.46186H53.6694Z" fill="#164193"/>
<path d="M12.5686 1.13485L11.3202 9.41955H8.85538L10.5435 0.290771H14.6114L16.2995 9.41955H13.8418L12.6218 1.13485H12.5686Z" fill="#164193"/>
<path d="M23.2189 7.27744L24.3502 0.290771H28.0705L28.2762 9.41955H25.9887L25.9249 1.21287H25.8788L24.3538 9.41955H22.0414L20.5093 1.21287H20.4561L20.3994 9.41955H18.1154L18.3247 0.290771H22.0485L23.1728 7.27744H23.2189Z" fill="#164193"/>
<path d="M42.3701 8.05059C43.0121 8.05059 43.2036 7.61436 43.2497 7.39448C43.2674 7.29517 43.2674 7.16395 43.2674 7.04337V0.290771H45.5868V6.83767C45.5868 7.00791 45.5691 7.34837 45.562 7.44058C45.406 9.14646 44.0512 9.69263 42.3701 9.69263C40.6926 9.69263 39.3449 9.14646 39.1889 7.44058C39.1783 7.34837 39.1605 7.00791 39.1676 6.83767V0.290771H41.48V7.04692C41.4729 7.16395 41.4835 7.29872 41.4977 7.39802C41.5402 7.61791 41.7389 8.05059 42.3701 8.05059Z" fill="#164193"/>
<path d="M5.00739 6.84481C5.09251 7.06824 5.06768 7.35196 5.02513 7.5222C4.95065 7.8272 4.74495 8.13929 4.1314 8.13929C3.56395 8.13929 3.21994 7.80947 3.21994 7.3094L3.21285 6.42277H0.769287V7.12853C0.769287 9.16779 2.36877 9.78134 4.08175 9.78134C5.74153 9.78134 7.09985 9.22099 7.31264 7.69952C7.42613 6.90865 7.34456 6.39085 7.30555 6.19934C6.92252 4.28067 3.45047 3.72031 3.19157 2.64926C3.14546 2.46129 3.1561 2.27333 3.18093 2.17048C3.25186 1.86548 3.45047 1.54983 4.01791 1.54983C4.55698 1.54983 4.87263 1.88676 4.87263 2.37263V2.94362H7.15305V2.3017C7.15305 0.308548 5.36205 0 4.06756 0C2.4468 0 1.11685 0.539073 0.875683 2.03216C0.811846 2.43647 0.804752 2.79821 0.893416 3.25926C1.29063 5.12829 4.53925 5.66381 5.00739 6.84481Z" fill="#164193"/>
<path d="M34.7061 6.83426C34.7983 7.0506 34.7593 7.33078 34.7238 7.50101C34.6529 7.79892 34.4436 8.10392 33.8443 8.10392C33.2768 8.10392 32.9364 7.77764 32.9364 7.28467V6.40513H30.507V7.10735C30.507 9.12887 32.0958 9.72823 33.7982 9.72823C35.426 9.72823 36.7737 9.17498 36.99 7.66415C37.1 6.88391 37.0184 6.37321 36.9794 6.17461C36.5999 4.28431 33.1669 3.72395 32.9151 2.65999C32.869 2.48267 32.8832 2.29115 32.9009 2.19185C32.9612 1.90103 33.1598 1.58539 33.7272 1.58539C34.2628 1.58539 34.5713 1.91167 34.5713 2.394V2.9579H36.8234V2.32662C36.8234 0.358292 35.0536 0.0497437 33.7804 0.0497437C32.1703 0.0497437 30.851 0.574631 30.6205 2.05708C30.546 2.45429 30.5389 2.81249 30.6382 3.27354C31.0283 5.12838 34.2415 5.66036 34.7061 6.83426Z" fill="#164193"/>
<path d="M61.4257 7.95834C62.0818 7.95834 62.3159 7.54695 62.3584 7.29869C62.3726 7.19584 62.3797 7.06462 62.3797 6.95113V5.62827H61.447V4.29123H64.6814V6.74543C64.6814 6.91566 64.6743 7.04334 64.6495 7.34834C64.497 9.00102 63.0535 9.60393 61.4328 9.60393C59.8191 9.60393 58.3792 9.00102 58.2338 7.34834C58.1983 7.04334 58.1983 6.91566 58.1983 6.74543V2.90099C58.1983 2.73785 58.2161 2.44703 58.2409 2.30162C58.4395 0.5851 59.8191 0.0424805 61.4363 0.0424805C63.0571 0.0424805 64.4828 0.578007 64.6459 2.30162C64.6814 2.5818 64.6637 2.90099 64.6637 2.90099L64.6672 3.1989H62.3655V2.68819C62.3655 2.68819 62.3655 2.46831 62.3336 2.33709C62.2946 2.14203 62.1173 1.67743 61.4186 1.67743C60.7625 1.67743 60.5639 2.1172 60.5142 2.33709C60.4859 2.45767 60.4788 2.62436 60.4788 2.77331V6.95113C60.4788 7.06816 60.4859 7.19584 60.4965 7.29869C60.532 7.54695 60.7589 7.95834 61.4257 7.95834Z" fill="#164193"/>
</g>
<defs>
<clipPath id="clip0">
<rect width="63.9085" height="29" fill="white" transform="translate(0.769287)"/>
</clipPath>
</defs>
</svg>
