<svg width="56" height="56" viewBox="0 0 56 56" fill="none" xmlns="http://www.w3.org/2000/svg">
<g clip-path="url(#clip0)">
<path d="M55.9977 38.6815C55.9978 38.6688 55.9991 38.6563 55.9991 38.6436C55.9991 38.6408 55.9988 38.6381 55.9986 38.6352C55.9985 38.6146 55.9971 38.594 55.9955 38.5734C55.9948 38.5633 55.9943 38.5533 55.9932 38.5434C55.9913 38.5256 55.9881 38.5079 55.9851 38.4901C55.9829 38.4774 55.9811 38.4646 55.9783 38.452C55.9753 38.4384 55.9714 38.4248 55.9678 38.4112C55.9634 38.3948 55.9593 38.3785 55.9541 38.3627C55.9507 38.3523 55.9465 38.3419 55.9428 38.3315C55.936 38.313 55.9291 38.2947 55.9211 38.2768C55.9199 38.274 55.919 38.2711 55.9177 38.2682L46.3231 17.1598V14.3931H46.3836C47.4173 14.3931 48.2583 13.5521 48.2583 12.5184V12.3747C48.2583 11.4496 47.5955 10.6713 46.6823 10.5239L30.8414 7.9676V6.34336C31.4427 5.66955 31.809 4.78189 31.809 3.80994C31.809 1.70915 30.0999 0 27.9991 0C25.8983 0 24.1892 1.70915 24.1892 3.80994C24.1892 4.78189 24.5555 5.66955 25.1568 6.34336V7.87943L9.30636 10.5212C8.39875 10.6725 7.73993 11.4502 7.73993 12.3704V12.5184C7.73993 13.5521 8.5809 14.3931 9.61467 14.3931H9.67514V17.1598L0.0803925 38.2682C0.079062 38.271 0.0782154 38.274 0.0770059 38.2768C0.0691441 38.2946 0.0622499 38.313 0.0554767 38.3313C0.0516063 38.3417 0.047494 38.3521 0.0439864 38.3627C0.0387856 38.3785 0.0345523 38.3948 0.030319 38.4112C0.0266905 38.4248 0.0228201 38.4384 0.0197964 38.452C0.0171355 38.4646 0.0152003 38.4774 0.0130232 38.4901C0.0099994 38.5079 0.00685469 38.5256 0.00491949 38.5434C0.00383093 38.5533 0.00346808 38.5634 0.00262143 38.5735C0.00104908 38.594 -0.000281378 38.6146 -0.000523279 38.635C-0.000523279 38.6379 -0.00100708 38.6407 -0.00100708 38.6435C-0.00100708 38.6563 0.000323373 38.6688 0.000444324 38.6816C0.000928125 38.6918 0.000807175 38.702 0.00165383 38.7122C0.0582586 42.4434 4.68412 45.3564 10.5823 45.3564C16.4804 45.3564 21.1063 42.4434 21.1628 38.7123C21.1636 38.7022 21.1635 38.6919 21.164 38.6816C21.1641 38.6689 21.1654 38.6565 21.1654 38.6437C21.1654 38.641 21.1651 38.6382 21.1649 38.6353C21.1648 38.6147 21.1634 38.5942 21.1618 38.5735C21.1611 38.5634 21.1606 38.5534 21.1595 38.5435C21.1576 38.5257 21.1544 38.508 21.1514 38.4903C21.1492 38.4776 21.1474 38.4647 21.1446 38.4522C21.1416 38.4385 21.1377 38.425 21.1341 38.4113C21.1297 38.395 21.1256 38.3786 21.1204 38.3628C21.117 38.3524 21.1128 38.342 21.1091 38.3316C21.1023 38.3131 21.0954 38.2948 21.0874 38.2769C21.0862 38.2741 21.0854 38.2712 21.084 38.2683L11.4894 17.1598V14.3931H25.1568V34.1013C24.5805 34.4215 24.1892 35.036 24.1892 35.7408V49.1041L18.4428 50.8999C17.2499 51.2728 16.4484 52.363 16.4484 53.6129V55.0929C16.4484 55.5938 16.8544 56 17.3555 56H38.6427C39.1438 56 39.5499 55.5938 39.5499 55.0929V53.6128C39.5499 52.3629 38.7483 51.2727 37.5554 50.8998L31.809 49.1041V35.7408C31.809 35.036 31.4178 34.4215 30.8414 34.1013V14.3931H44.5088V17.1598L34.9141 38.2683C34.9128 38.2711 34.9119 38.2741 34.9107 38.2769C34.9028 38.2947 34.8959 38.3131 34.8892 38.3315C34.8853 38.3419 34.8812 38.3523 34.8777 38.3628C34.8725 38.3786 34.8682 38.395 34.864 38.4113C34.8604 38.425 34.8565 38.4385 34.8535 38.4522C34.8508 38.4647 34.8489 38.4776 34.8467 38.4903C34.8437 38.508 34.8405 38.5257 34.8386 38.5435C34.8375 38.5534 34.8372 38.5636 34.8363 38.5736C34.8347 38.5942 34.8334 38.6147 34.8332 38.6352C34.8332 38.6381 34.8327 38.6408 34.8327 38.6436C34.8327 38.6564 34.834 38.6689 34.8341 38.6817C34.8346 38.6919 34.8345 38.7022 34.8354 38.7123C34.892 42.4434 39.5178 45.3564 45.416 45.3564C51.3141 45.3564 55.94 42.4434 55.9965 38.7123C55.9973 38.702 55.9972 38.6918 55.9977 38.6815ZM10.5823 19.5486L18.8495 37.7365H2.31507L10.5823 19.5486ZM10.5823 43.5421C6.3819 43.5421 2.75775 41.7905 1.97133 39.5508H19.1933C18.4068 41.7905 14.7826 43.5421 10.5823 43.5421ZM29.9948 35.7408V48.8639H26.0034V35.7408C26.0034 35.7074 26.0306 35.6803 26.0639 35.6803H29.9343C29.9676 35.6803 29.9948 35.7074 29.9948 35.7408ZM26.971 33.8661V7.47775C27.2983 7.56968 27.6429 7.61987 27.9991 7.61987C28.3553 7.61987 28.6999 7.56968 29.0272 7.47775V33.8661H26.971ZM27.9991 1.81425C29.0995 1.81425 29.9948 2.70953 29.9948 3.80994C29.9948 4.91034 29.0995 5.80562 27.9991 5.80562C26.8987 5.80562 26.0034 4.91034 26.0034 3.80994C26.0034 2.70953 26.8987 1.81425 27.9991 1.81425ZM9.61467 12.5788C9.5814 12.5788 9.55419 12.5517 9.55419 12.5184V12.3704C9.55419 12.3407 9.57548 12.3156 9.60475 12.3108L25.1568 9.71884V12.5788H9.61467ZM37.7356 53.6128V54.1857H18.2626V53.6128C18.2626 53.1607 18.5525 52.7663 18.9841 52.6315L25.2348 50.6782H30.7636L37.0143 52.6315C37.4457 52.7664 37.7356 53.1607 37.7356 53.6128ZM30.8414 9.80544L46.3931 12.315C46.4226 12.3198 46.444 12.3449 46.444 12.3748V12.5185C46.444 12.5519 46.4168 12.579 46.3836 12.579H30.8414V9.80544ZM45.416 19.5486L53.6832 37.7365H37.1488L45.416 19.5486ZM45.416 43.5421C41.2156 43.5421 37.5914 41.7905 36.805 39.5508H54.027C53.2405 41.7905 49.6163 43.5421 45.416 43.5421Z" fill="#7F94A8"/>
</g>
<defs>
<clipPath id="clip0">
<rect width="56" height="56" fill="white"/>
</clipPath>
</defs>
</svg>
