<svg width="56" height="56" viewBox="0 0 56 56" fill="none" xmlns="http://www.w3.org/2000/svg">
<path fill-rule="evenodd" clip-rule="evenodd" d="M3 28C3 26.3042 3.16885 24.6478 3.49065 23.0467L17.7843 23.913C17.2783 25.1765 17 26.5558 17 28C17 29.4442 17.2783 30.8235 17.7843 32.087L3.49065 32.9533C3.16885 31.3522 3 29.6958 3 28ZM3.97232 34.9278C6.34303 43.165 12.835 49.657 21.0722 52.0277L21.9708 37.2019C20.7084 36.3731 19.6268 35.2916 18.7981 34.0292L3.97232 34.9278ZM18.7981 21.9708L3.97232 21.0722C6.34303 12.835 12.835 6.34303 21.0722 3.97232L21.9708 18.7981C20.7084 19.6268 19.6268 20.7084 18.7981 21.9708ZM23.0467 52.5093L23.913 38.2157C25.1765 38.7217 26.5558 39 28 39C29.4442 39 30.8235 38.7217 32.087 38.2157L32.9533 52.5093C31.3522 52.8312 29.6958 53 28 53C26.3042 53 24.6478 52.8312 23.0467 52.5093ZM52.5093 32.9533C52.8312 31.3522 53 29.6958 53 28C53 26.3042 52.8312 24.6478 52.5093 23.0467L38.2157 23.913C38.7217 25.1765 39 26.5558 39 28C39 29.4442 38.7217 30.8235 38.2157 32.087L52.5093 32.9533ZM52.0277 34.9278L37.2019 34.0292C36.3731 35.2916 35.2916 36.3732 34.0292 37.202L34.9278 52.0277C43.165 49.657 49.657 43.165 52.0277 34.9278ZM34.9278 3.97232C43.165 6.34303 49.657 12.835 52.0277 21.0722L37.2019 21.9708C36.3731 20.7084 35.2916 19.6268 34.0292 18.7981L34.9278 3.97232ZM32.9533 3.49065C31.3522 3.16885 29.6958 3 28 3C26.3042 3 24.6478 3.16885 23.0467 3.49065L23.913 17.7843C25.1765 17.2783 26.5558 17 28 17C29.4442 17 30.8235 17.2783 32.087 17.7843L32.9533 3.49065ZM28 1C13.0883 1 1 13.0883 1 28C1 42.9117 13.0883 55 28 55C42.9117 55 55 42.9117 55 28C55 13.0883 42.9117 1 28 1ZM19 28C19 23.0294 23.0294 19 28 19C32.9706 19 37 23.0294 37 28C37 32.9706 32.9706 37 28 37C23.0294 37 19 32.9706 19 28Z" fill="url(#paint0_linear)"/>
<defs>
<linearGradient id="paint0_linear" x1="12.1375" y1="55" x2="59.4988" y2="40.1775" gradientUnits="userSpaceOnUse">
<stop stop-color="#FE5000"/>
<stop offset="1" stop-color="#FCA92A"/>
</linearGradient>
</defs>
</svg>
