<svg width="56" height="56" viewBox="0 0 56 56" fill="none" xmlns="http://www.w3.org/2000/svg">
<path d="M51.0718 24.752C50.3998 24.752 49.9518 25.2 49.9518 25.872V30.24V36.848V37.968C49.9518 39.2 48.9438 40.208 47.7118 40.208H45.4718C43.5678 40.208 42.2238 41.664 42.2238 43.456V45.696C42.2238 46.928 41.2158 47.936 39.9838 47.936H34.4958H7.0558C6.3838 47.936 5.9358 47.488 5.9358 46.816V25.76C5.9358 25.088 5.4878 24.64 4.8158 24.64C4.1438 24.64 3.6958 25.088 3.6958 25.76V46.704C3.6958 48.608 5.1518 49.952 6.9438 49.952H34.4958H39.9838H41.4398C42.8958 49.952 44.3518 49.392 45.2478 48.272L50.3998 43.12C51.4078 42.112 52.0798 40.656 52.0798 39.312V37.856V36.736V30.24V25.76C52.1918 25.088 51.7438 24.752 51.0718 24.752ZM44.3518 46.368C44.3518 46.144 44.4638 45.92 44.4638 45.584V43.344C44.4638 42.672 44.9118 42.224 45.5838 42.224H47.8238C48.0478 42.224 48.2718 42.224 48.6078 42.112L44.3518 46.368ZM48.9438 9.29597H41.2158V7.05597C41.2158 6.38397 40.7678 5.93597 40.0958 5.93597C39.4238 5.93597 38.9758 6.38397 38.9758 7.05597V9.29597H17.0238V7.05597C17.0238 6.38397 16.5758 5.93597 15.9038 5.93597C15.2318 5.93597 14.7838 6.38397 14.7838 7.05597V9.29597H7.0558C5.1518 9.29597 3.8078 10.752 3.8078 12.544V21.392C3.8078 22.064 4.2558 22.512 4.9278 22.512H51.1838C51.8558 22.512 52.3038 22.064 52.3038 21.392V12.544C52.1918 10.752 50.7358 9.29597 48.9438 9.29597ZM49.9518 20.272H6.0478V12.544C6.0478 11.872 6.4958 11.424 7.1678 11.424H14.8958V14C14.2238 14.336 13.7758 15.12 13.7758 15.904C13.7758 17.136 14.7838 18.144 16.0158 18.144C17.2478 18.144 18.2558 17.136 18.2558 15.904C18.2558 15.12 17.8078 14.336 17.1358 14V11.424H39.0878V14C38.4158 14.336 37.9678 15.12 37.9678 15.904C37.9678 17.136 38.9758 18.144 40.2078 18.144C41.4398 18.144 42.4478 17.136 42.4478 15.904C42.4478 15.12 41.9998 14.336 41.3278 14V11.424H49.0558C49.7278 11.424 50.1758 11.872 50.1758 12.544L49.9518 20.272ZM23.6318 31.248C24.8638 31.248 25.8718 30.24 25.8718 29.008C25.8718 27.776 24.8638 26.768 23.6318 26.768C22.3998 26.768 21.3918 27.776 21.3918 29.008C21.3918 30.352 22.3998 31.248 23.6318 31.248ZM32.3678 31.248C33.5998 31.248 34.6078 30.24 34.6078 29.008C34.6078 27.776 33.5998 26.768 32.3678 26.768C31.1358 26.768 30.1278 27.776 30.1278 29.008C30.2398 30.352 31.1358 31.248 32.3678 31.248ZM41.2158 31.248C42.4478 31.248 43.4558 30.24 43.4558 29.008C43.4558 27.776 42.4478 26.768 41.2158 26.768C39.9838 26.768 38.9758 27.776 38.9758 29.008C38.9758 30.352 39.9838 31.248 41.2158 31.248ZM14.7838 41.216C16.0158 41.216 17.0238 40.208 17.0238 38.976C17.0238 37.744 16.0158 36.736 14.7838 36.736C13.5518 36.736 12.5438 37.744 12.5438 38.976C12.5438 40.208 13.5518 41.216 14.7838 41.216ZM23.6318 41.216C24.8638 41.216 25.8718 40.208 25.8718 38.976C25.8718 37.744 24.8638 36.736 23.6318 36.736C22.3998 36.736 21.3918 37.744 21.3918 38.976C21.3918 40.208 22.3998 41.216 23.6318 41.216ZM32.3678 41.216C33.5998 41.216 34.6078 40.208 34.6078 38.976C34.6078 37.744 33.5998 36.736 32.3678 36.736C31.1358 36.736 30.1278 37.744 30.1278 38.976C30.1278 40.208 31.1358 41.216 32.3678 41.216Z" fill="url(#paint0_linear)"/>
<defs>
<linearGradient id="paint0_linear" x1="13.7212" y1="49.952" x2="55.5344" y2="35.5006" gradientUnits="userSpaceOnUse">
<stop stop-color="#FE5000"/>
<stop offset="1" stop-color="#FCA92A"/>
</linearGradient>
</defs>
</svg>
