<svg width="194" height="172" viewBox="0 0 194 172" fill="none" xmlns="http://www.w3.org/2000/svg">
<path d="M78.58 64.0071C90.3824 52.2237 90.3824 33.1191 78.58 21.3357C66.7776 9.55232 47.6422 9.55232 35.8398 21.3357C24.0374 33.1191 24.0374 52.2237 35.8398 64.0071C47.6422 75.7905 66.7776 75.7905 78.58 64.0071Z" fill="#FE5000" fill-opacity="0.18"/>
<path d="M154.466 132.529C176.3 110.73 176.3 75.3873 154.466 53.5883C132.632 31.7893 97.2317 31.7893 75.3975 53.5883C53.5634 75.3873 53.5634 110.73 75.3975 132.529C97.2317 154.328 132.632 154.328 154.466 132.529Z" fill="#FE5000" fill-opacity="0.18"/>
<path d="M158.597 28.7447C158.36 28.7427 158.129 28.6711 157.932 28.5389C157.735 28.4067 157.582 28.2196 157.49 28.001C157.399 27.7824 157.374 27.5419 157.419 27.3093C157.464 27.0768 157.576 26.8625 157.742 26.693L161.161 23.282C161.387 23.0559 161.694 22.9288 162.015 22.9288C162.335 22.9288 162.642 23.0559 162.869 23.282C163.095 23.5082 163.223 23.8149 163.223 24.1348C163.223 24.4546 163.095 24.7614 162.869 24.9875L159.45 28.4011C159.222 28.624 158.916 28.7476 158.597 28.7447Z" fill="#FFA378"/>
<path d="M162.014 28.7447C161.855 28.7448 161.698 28.7136 161.552 28.6528C161.405 28.5921 161.273 28.503 161.161 28.3908L157.742 24.9773C157.617 24.8685 157.516 24.7351 157.445 24.5856C157.374 24.4361 157.334 24.2735 157.329 24.1081C157.323 23.9427 157.352 23.778 157.413 23.6241C157.475 23.4703 157.567 23.3307 157.684 23.214C157.802 23.0974 157.942 23.0061 158.097 22.946C158.251 22.8858 158.416 22.8581 158.582 22.8645C158.748 22.8708 158.91 22.9112 159.06 22.983C159.209 23.0549 159.342 23.1567 159.45 23.282L162.869 26.6956C163.035 26.865 163.147 27.0793 163.192 27.3119C163.236 27.5445 163.211 27.785 163.12 28.0036C163.029 28.2222 162.876 28.4093 162.679 28.5415C162.482 28.6737 162.251 28.7453 162.014 28.7473V28.7447Z" fill="#FFA378"/>
<path d="M134.42 7.82258C134.183 7.82055 133.952 7.74898 133.755 7.61675C133.558 7.48453 133.405 7.29748 133.314 7.07887C133.222 6.86026 133.198 6.61972 133.242 6.38717C133.287 6.15461 133.399 5.94029 133.565 5.77085L136.984 2.34959C137.096 2.23677 137.228 2.147 137.375 2.08543C137.521 2.02385 137.678 1.99167 137.837 1.99071C137.996 1.98976 138.154 2.02006 138.301 2.07987C138.448 2.13969 138.582 2.22786 138.695 2.33934C138.808 2.45082 138.898 2.58343 138.959 2.7296C139.021 2.87577 139.053 3.03263 139.054 3.19124C139.055 3.34985 139.025 3.50709 138.965 3.65399C138.905 3.80089 138.817 3.93457 138.705 4.0474L135.273 7.46866C135.162 7.5811 135.029 7.67028 134.882 7.73104C134.736 7.7918 134.579 7.82291 134.42 7.82258Z" fill="#FFA378"/>
<path d="M137.839 7.82227C137.68 7.82252 137.522 7.79138 137.375 7.73064C137.229 7.66989 137.095 7.58075 136.983 7.46835L133.567 4.04709C133.34 3.82093 133.213 3.51419 133.213 3.19434C133.213 2.8745 133.34 2.56776 133.567 2.34159C133.793 2.11543 134.1 1.98837 134.421 1.98837C134.741 1.98837 135.048 2.11543 135.275 2.34159L138.704 5.76285C138.87 5.93213 138.982 6.14622 139.027 6.37854C139.071 6.61086 139.047 6.85119 138.956 7.06971C138.865 7.28822 138.712 7.47529 138.516 7.60771C138.319 7.74012 138.088 7.81206 137.851 7.81458L137.839 7.82227Z" fill="#FFA378"/>
<path d="M9.75131 104.582C9.51414 104.58 9.2828 104.508 9.08605 104.376C8.8893 104.244 8.73581 104.057 8.64466 103.838C8.55352 103.619 8.52874 103.379 8.57341 103.146C8.61808 102.914 8.73022 102.699 8.8959 102.53L12.3201 99.0985C12.55 98.8879 12.8526 98.7741 13.1645 98.781C13.4765 98.7878 13.7738 98.9147 13.9942 99.1351C14.2147 99.3556 14.3414 99.6525 14.3477 99.964C14.3541 100.275 14.2397 100.577 14.0284 100.807L10.6119 104.218C10.4999 104.332 10.3661 104.424 10.2183 104.486C10.0706 104.549 9.91179 104.581 9.75131 104.582Z" fill="#FFA378"/>
<path d="M13.1668 104.582C12.8479 104.577 12.544 104.446 12.3216 104.218L8.90258 100.807C8.68199 100.579 8.55987 100.274 8.56254 99.9568C8.56522 99.6399 8.69247 99.3368 8.91687 99.1128C9.14128 98.8888 9.44486 98.7617 9.76221 98.759C10.0796 98.7564 10.3852 98.8783 10.6134 99.0985L14.0299 102.512C14.1954 102.681 14.3075 102.895 14.3523 103.128C14.397 103.36 14.3725 103.6 14.2817 103.819C14.1908 104.037 14.0377 104.225 13.8414 104.357C13.645 104.489 13.414 104.561 13.1771 104.564L13.1668 104.582Z" fill="#FFA378"/>
<path d="M1.19955 73.3519C0.962387 73.3499 0.731046 73.2783 0.534292 73.1461C0.337538 73.0139 0.184049 72.8268 0.0929049 72.6082C0.0017612 72.3896 -0.0230165 72.149 0.021652 71.9165C0.0663206 71.6839 0.178465 71.4696 0.344144 71.3002L3.76321 67.8866C3.99314 67.676 4.29568 67.5622 4.60764 67.569C4.9196 67.5758 5.21687 67.7027 5.43735 67.9232C5.65783 68.1436 5.78447 68.4406 5.79083 68.7521C5.79718 69.0635 5.68276 69.3654 5.47146 69.5947L2.04469 72.998C1.82083 73.2227 1.51702 73.35 1.19955 73.3519Z" fill="#FFA378"/>
<path d="M4.61376 73.3519C4.45525 73.3519 4.2983 73.3207 4.15194 73.26C4.00557 73.1992 3.87268 73.1102 3.76092 72.998L0.344418 69.5844C0.146262 69.3538 0.0424047 69.0572 0.0535463 68.7536C0.0646879 68.45 0.19001 68.1617 0.404534 67.9462C0.619059 67.7307 0.907031 67.6039 1.21106 67.5909C1.51508 67.578 1.81283 67.6799 2.04496 67.8763L5.46403 71.2899C5.62971 71.4593 5.74185 71.6737 5.78652 71.9062C5.83119 72.1388 5.80641 72.3793 5.71527 72.5979C5.62412 72.8165 5.47063 73.0036 5.27388 73.1358C5.07713 73.268 4.84578 73.3396 4.60862 73.3416L4.61376 73.3519Z" fill="#FFA378"/>
<path d="M145.784 106L135.534 123.742L118.804 128.23L100.113 133.226L88.4403 136.34L88.3659 136.245C89.8241 136.091 91.2011 135.498 92.3147 134.546C93.4284 133.593 94.2263 132.326 94.6029 130.911L113.787 59.413L103.535 41.6732L87.6543 37.4236L117.709 29.3859C119.567 28.8941 121.544 29.1579 123.208 30.1194C124.871 31.081 126.084 32.6618 126.582 34.5153L145.784 106Z" fill="#FFA378"/>
<path d="M113.805 60.626C113.698 60.6263 113.592 60.6125 113.489 60.585L99.4788 56.838C99.3255 56.7973 99.1817 56.7267 99.0558 56.6303C98.9298 56.5339 98.8242 56.4136 98.745 56.2764C98.6657 56.1391 98.6144 55.9876 98.594 55.8304C98.5736 55.6733 98.5845 55.5137 98.626 55.3608L99.8565 50.7444C99.8974 50.5913 99.9682 50.4478 100.065 50.3221C100.161 50.1963 100.282 50.0908 100.419 50.0115C100.557 49.9322 100.708 49.8806 100.866 49.8599C101.023 49.8391 101.183 49.8495 101.336 49.8904C101.489 49.9313 101.633 50.002 101.759 50.0984C101.885 50.1947 101.991 50.315 102.07 50.4521C102.15 50.5893 102.201 50.7408 102.222 50.8978C102.243 51.0549 102.232 51.2146 102.191 51.3676L101.272 54.8274L114.116 58.264C114.401 58.3377 114.649 58.5128 114.814 58.7566C114.979 59.0003 115.049 59.2957 115.011 59.5873C114.972 59.8789 114.829 60.1464 114.607 60.3396C114.385 60.5328 114.1 60.6383 113.805 60.6363V60.626Z" fill="#FE5000"/>
<path d="M76.5087 58.146C76.4029 58.1461 76.2975 58.1323 76.1953 58.105C72.1716 57.0248 68.7415 54.3951 66.6576 50.7928C64.5738 47.1905 64.0065 42.91 65.0801 38.8906L69.4625 22.5691C69.5453 22.2599 69.7477 21.9963 70.0252 21.8361C70.3026 21.6759 70.6325 21.6324 70.9421 21.715C71.2518 21.7977 71.5159 21.9997 71.6763 22.2768C71.8367 22.5538 71.8803 22.8831 71.7975 23.1923L67.4152 39.5138C66.5077 42.9149 66.9881 46.5365 68.751 49.5845C70.5139 52.6325 73.4155 54.8583 76.8195 55.7737C77.1047 55.8474 77.353 56.0226 77.5178 56.2663C77.6825 56.51 77.7524 56.8055 77.7142 57.097C77.676 57.3886 77.5324 57.6561 77.3104 57.8493C77.0883 58.0426 76.8032 58.1481 76.5087 58.146Z" fill="#FE5000"/>
<path d="M80.2589 48.985C79.3315 48.9855 78.4165 48.7726 77.5848 48.3631C76.7531 47.9536 76.027 47.3583 75.4629 46.6234C74.8987 45.8886 74.5117 45.0339 74.3317 44.1256C74.1518 43.2174 74.1837 42.2799 74.4251 41.386C74.5172 41.0866 74.722 40.8346 74.9966 40.6832C75.2711 40.5317 75.5938 40.4926 75.8966 40.5741C76.1995 40.6556 76.4588 40.8513 76.6199 41.12C76.781 41.3887 76.8313 41.7093 76.7602 42.0143C76.6364 42.4737 76.6047 42.953 76.6669 43.4246C76.7292 43.8963 76.884 44.351 77.1227 44.7628C77.3614 45.1745 77.6791 45.5352 78.0577 45.824C78.4363 46.1129 78.8683 46.3243 79.329 46.446C80.2588 46.6922 81.2485 46.5605 82.0814 46.0798C82.9142 45.5992 83.5225 44.8087 83.773 43.8814L88.1451 27.565C88.7214 25.4011 88.4154 23.0974 87.2941 21.1583C86.1728 19.2192 84.3275 17.8028 82.1623 17.2192C81.086 16.9332 79.9631 16.8656 78.8601 17.0202C77.7571 17.1748 76.6963 17.5486 75.7404 18.1194C73.7857 19.2485 72.3586 21.1049 71.7716 23.282C71.6781 23.5794 71.4732 23.8292 71.1996 23.9792C70.926 24.1292 70.6049 24.1679 70.3035 24.0871C70.002 24.0063 69.7435 23.8123 69.5819 23.5457C69.4203 23.279 69.3683 22.9603 69.4365 22.6562C70.1855 19.8625 72.0125 17.4787 74.5176 16.0266C75.7498 15.2938 77.1165 14.8146 78.537 14.6172C79.9576 14.4199 81.4034 14.5084 82.7891 14.8776C85.5736 15.6271 87.9469 17.4483 89.3886 19.942C90.8303 22.4357 91.2228 25.3984 90.4801 28.1805L86.1132 44.502C85.7673 45.7882 85.0061 46.9246 83.9477 47.735C82.8893 48.5455 81.5927 48.9849 80.2589 48.985Z" fill="#FE5000"/>
<path d="M77.7368 34.9025C77.5514 34.9024 77.3686 34.8598 77.2023 34.778C77.0361 34.6962 76.8909 34.5774 76.7779 34.4307C76.665 34.2839 76.5873 34.1133 76.5509 33.9318C76.5145 33.7504 76.5203 33.563 76.5679 33.3842L78.8028 25.0773C78.8856 24.7681 79.088 24.5045 79.3655 24.3443C79.6429 24.1842 79.9728 24.1406 80.2824 24.2232C80.5921 24.3059 80.8562 24.508 81.0166 24.785C81.177 25.062 81.2206 25.3913 81.1378 25.7005L78.903 34.0177C78.833 34.2726 78.6808 34.4974 78.47 34.6574C78.2592 34.8173 78.0015 34.9034 77.7368 34.9025Z" fill="#FE5000"/>
<path d="M38.0774 70.7693C37.8919 70.7697 37.7087 70.7275 37.5422 70.6458C37.3757 70.5641 37.2303 70.4453 37.1173 70.2984C37.0042 70.1516 36.9266 69.9807 36.8904 69.799C36.8542 69.6174 36.8604 69.4298 36.9086 69.251L46.4003 33.892C46.9849 31.7309 48.4032 29.8891 50.3448 28.7696C52.2865 27.6502 54.5932 27.3443 56.7602 27.9189C57.0581 28.0122 57.3082 28.2168 57.4585 28.49C57.6088 28.7631 57.6475 29.0837 57.5666 29.3846C57.4857 29.6856 57.2914 29.9437 57.0243 30.105C56.7572 30.2663 56.438 30.3184 56.1334 30.2502C54.5854 29.8423 52.9387 30.062 51.5523 30.8615C50.1659 31.6609 49.1524 32.9752 48.7327 34.5178L39.2436 69.8742C39.1747 70.1306 39.0232 70.3572 38.8124 70.519C38.6016 70.6808 38.3433 70.7687 38.0774 70.7693Z" fill="#FE5000"/>
<path d="M87.6085 137.497C86.8685 137.497 86.1318 137.399 85.4173 137.207L31.3134 122.734C29.1482 122.151 27.3029 120.734 26.1816 118.795C25.0603 116.856 24.7543 114.552 25.3306 112.389L34.9765 76.4577C35.0699 76.1603 35.2748 75.9106 35.5484 75.7605C35.822 75.6105 36.1431 75.5718 36.4446 75.6526C36.746 75.7334 37.0045 75.9274 37.1661 76.1941C37.3277 76.4607 37.3798 76.7794 37.3115 77.0835L27.6657 113.012C27.2563 114.558 27.476 116.202 28.2768 117.587C29.0776 118.972 30.3945 119.984 31.9401 120.403L86.0441 134.875C87.5921 135.283 89.2389 135.064 90.6253 134.264C92.0117 133.465 93.0252 132.15 93.4448 130.608L98.7802 110.737C98.863 110.428 99.0654 110.164 99.3429 110.004C99.6203 109.844 99.9502 109.8 100.26 109.883C100.569 109.966 100.834 110.168 100.994 110.445C101.154 110.722 101.198 111.051 101.115 111.36L95.7799 131.234C95.2934 133.027 94.2303 134.612 92.7539 135.743C91.2776 136.875 89.4697 137.491 87.6085 137.497Z" fill="#FE5000"/>
<path d="M101.909 104.941C101.724 104.941 101.541 104.898 101.374 104.816C101.208 104.734 101.062 104.615 100.949 104.468C100.836 104.321 100.759 104.15 100.722 103.968C100.686 103.787 100.692 103.599 100.741 103.42L101.709 99.8294C101.792 99.5203 101.994 99.2566 102.272 99.0964C102.549 98.9363 102.879 98.8927 103.189 98.9754C103.498 99.058 103.762 99.2601 103.923 99.5371C104.083 99.8142 104.127 100.143 104.044 100.453L103.076 104.056C103.005 104.311 102.853 104.535 102.642 104.695C102.431 104.855 102.174 104.941 101.909 104.941Z" fill="#FE5000"/>
<path d="M107.232 85.116C107.046 85.1164 106.863 85.0742 106.697 84.9925C106.53 84.9108 106.385 84.792 106.272 84.6451C106.159 84.4983 106.081 84.3274 106.045 84.1457C106.009 83.9641 106.015 83.7766 106.063 83.5977L112.503 59.5899L102.742 42.717L86.4863 38.3699C86.3271 38.3343 86.1768 38.2669 86.0444 38.1718C85.9119 38.0767 85.8001 37.9558 85.7157 37.8164C85.6313 37.6771 85.5759 37.5221 85.553 37.3608C85.5301 37.1996 85.5401 37.0353 85.5824 36.878C85.6247 36.7207 85.6984 36.5736 85.7991 36.4455C85.8998 36.3173 86.0255 36.2109 86.1685 36.1324C86.3114 36.054 86.4688 36.0053 86.6312 35.9892C86.7935 35.9731 86.9574 35.9899 87.1131 36.0386L103.851 40.5165C104.005 40.5571 104.149 40.6276 104.275 40.724C104.401 40.8204 104.507 40.9408 104.586 41.0782L114.843 58.8154C115.003 59.0928 115.046 59.4218 114.964 59.731L108.393 84.2209C108.325 84.4767 108.174 84.7029 107.964 84.8647C107.754 85.0264 107.497 85.1148 107.232 85.116Z" fill="#FE5000"/>
<path d="M135.532 124.955C135.266 124.956 135.008 124.868 134.797 124.706C134.586 124.544 134.434 124.317 134.366 124.06L130.613 110.07C130.531 109.761 130.574 109.432 130.734 109.156C130.894 108.879 131.157 108.676 131.466 108.593L145.476 104.838C145.632 104.789 145.796 104.773 145.958 104.789C146.12 104.805 146.278 104.854 146.421 104.932C146.564 105.01 146.689 105.117 146.79 105.245C146.891 105.373 146.965 105.52 147.007 105.678C147.049 105.835 147.059 105.999 147.036 106.16C147.013 106.322 146.958 106.477 146.874 106.616C146.789 106.755 146.677 106.876 146.545 106.971C146.412 107.066 146.262 107.134 146.103 107.169L133.259 110.606L136.701 123.429C136.784 123.739 136.74 124.068 136.579 124.345C136.419 124.622 136.155 124.824 135.846 124.907C135.744 124.937 135.639 124.953 135.532 124.955Z" fill="#FE5000"/>
<path d="M88.4357 137.556C88.1437 137.553 87.8623 137.446 87.6434 137.253C87.4245 137.06 87.2829 136.795 87.2448 136.506C87.2066 136.217 87.2744 135.924 87.4357 135.68C87.5969 135.437 87.8408 135.261 88.1223 135.183L134.736 122.711L144.497 105.838L141.379 94.2128C141.338 94.0597 141.327 93.9001 141.348 93.743C141.369 93.5859 141.42 93.4345 141.5 93.2973C141.579 93.1601 141.685 93.0399 141.811 92.9436C141.937 92.8472 142.081 92.7765 142.234 92.7356C142.387 92.6947 142.547 92.6843 142.705 92.7051C142.862 92.7258 143.014 92.7773 143.151 92.8566C143.288 92.9359 143.409 93.0415 143.505 93.1673C143.602 93.293 143.673 93.4365 143.714 93.5896L146.963 105.697C147.045 106.007 147.002 106.336 146.842 106.613L136.585 124.353C136.506 124.49 136.4 124.611 136.274 124.707C136.148 124.803 136.004 124.874 135.851 124.914L88.7491 137.515C88.6468 137.542 88.5415 137.556 88.4357 137.556Z" fill="#FE5000"/>
<path d="M139.862 85.1314C139.597 85.1319 139.338 85.0446 139.127 84.8832C138.916 84.7218 138.765 84.4952 138.696 84.2389L131.48 57.3535C131.412 57.0495 131.464 56.7308 131.626 56.4641C131.787 56.1975 132.046 56.0035 132.347 55.9227C132.649 55.8419 132.97 55.8806 133.244 56.0306C133.517 56.1806 133.722 56.4304 133.815 56.7278L141.031 83.6131C141.079 83.7919 141.085 83.9793 141.048 84.1607C141.012 84.3422 140.934 84.5128 140.821 84.6595C140.708 84.8063 140.563 84.9251 140.397 85.0069C140.231 85.0887 140.048 85.1313 139.862 85.1314Z" fill="#FE5000"/>
<path d="M130.412 49.9263C130.147 49.9259 129.889 49.8383 129.678 49.677C129.467 49.5157 129.315 49.2897 129.246 49.0338L125.431 34.823C125.014 33.279 124.001 31.9632 122.614 31.1637C121.227 30.3642 119.579 30.1464 118.031 30.558L87.5392 38.7136C87.2295 38.7962 86.8997 38.7527 86.6222 38.5925C86.3447 38.4324 86.1423 38.1687 86.0596 37.8596C85.9768 37.5504 86.0204 37.2211 86.1808 36.9441C86.3412 36.667 86.6053 36.465 86.915 36.3823L117.404 28.2267C119.571 27.6513 121.879 27.9568 123.821 29.0763C125.763 30.1958 127.182 32.0381 127.767 34.1998L131.581 48.4157C131.629 48.5946 131.636 48.7821 131.599 48.9638C131.563 49.1454 131.486 49.3163 131.372 49.4631C131.259 49.61 131.114 49.7289 130.948 49.8105C130.781 49.8922 130.598 49.9344 130.412 49.934V49.9263Z" fill="#FE5000"/>
<path d="M83.5748 106.032C83.4689 106.033 83.3636 106.019 83.2614 105.991L45.5001 95.8918C45.2022 95.7985 44.952 95.5939 44.8018 95.3208C44.6515 95.0476 44.6128 94.7271 44.6937 94.4261C44.7746 94.1251 44.9689 93.867 45.236 93.7057C45.5031 93.5444 45.8223 93.4924 46.1269 93.5605L83.8882 103.66C84.1696 103.738 84.4135 103.914 84.5748 104.157C84.736 104.4 84.8038 104.693 84.7657 104.982C84.7275 105.272 84.5859 105.537 84.367 105.73C84.1481 105.923 83.8668 106.03 83.5748 106.032Z" fill="#FE5000"/>
<path d="M68.4887 109.462C68.3829 109.463 68.2775 109.449 68.1753 109.421L65.4473 108.69C65.2881 108.655 65.1377 108.587 65.0053 108.492C64.8729 108.397 64.7611 108.276 64.6766 108.137C64.5922 107.998 64.5369 107.843 64.5139 107.681C64.491 107.52 64.501 107.356 64.5433 107.199C64.5856 107.041 64.6593 106.894 64.7601 106.766C64.8608 106.638 64.9864 106.531 65.1294 106.453C65.2724 106.374 65.4298 106.326 65.5921 106.31C65.7545 106.294 65.9184 106.31 66.074 106.359L68.7995 107.09C69.0847 107.164 69.333 107.339 69.4978 107.583C69.6625 107.826 69.7324 108.122 69.6942 108.413C69.656 108.705 69.5124 108.972 69.2903 109.166C69.0683 109.359 68.7832 109.464 68.4887 109.462Z" fill="#FE5000"/>
<path d="M59.6886 107.022C59.5819 107.022 59.4756 107.008 59.3726 106.981L49.7858 104.416C49.4803 104.33 49.2211 104.127 49.0642 103.851C48.9073 103.575 48.8653 103.249 48.9472 102.943C49.0292 102.636 49.2285 102.374 49.5022 102.213C49.7759 102.052 50.102 102.005 50.4101 102.082L59.9994 104.647C60.2845 104.721 60.5328 104.896 60.6976 105.14C60.8624 105.383 60.9322 105.679 60.894 105.97C60.8558 106.262 60.7122 106.53 60.4902 106.723C60.2682 106.916 59.9831 107.021 59.6886 107.019V107.022Z" fill="#FE5000"/>
<path fill-rule="evenodd" clip-rule="evenodd" d="M69.3392 80.9472C66.8227 80.4536 64.214 80.7514 61.8732 81.7995L55.1699 69.6987C60.729 66.902 67.1025 66.1744 73.148 67.6464L69.3392 80.9472ZM71.3836 81.5337C73.7792 82.4493 75.8343 84.0851 77.2649 86.2151L89.3547 79.5057C86.1198 74.1862 81.0991 70.1898 75.1925 68.2329L71.3836 81.5337ZM75.7789 66.185C82.2273 68.2996 87.7057 72.6603 91.2162 78.4727C91.3993 78.7758 91.577 79.0829 91.7493 79.3939C91.9215 79.7048 92.0876 80.0184 92.2475 80.3344C94.9382 85.6523 95.8784 91.6649 94.9702 97.5147C94.6696 99.4509 92.6831 100.54 90.8012 100L80.2615 96.9763C78.3796 96.4364 77.3582 94.4438 77.2312 92.4885C77.1334 90.9823 76.7056 89.5014 75.9604 88.1561C74.6352 85.764 72.415 83.9967 69.7879 83.243C67.1609 82.4894 64.3424 82.8111 61.9524 84.1375C60.6084 84.8834 59.4618 85.9126 58.5817 87.1383C57.4392 88.7294 55.5182 89.8779 53.6363 89.338L43.0966 86.3144C41.2148 85.7745 40.1061 83.7976 40.8759 81.996C43.2016 76.5528 47.1811 71.9516 52.2778 68.8678C52.5807 68.6845 52.8875 68.5066 53.1982 68.3342C53.5088 68.1618 53.8221 67.9956 54.1378 67.8355C60.1914 64.767 67.146 63.9731 73.7344 65.5985C74.0781 65.6832 74.4207 65.7746 74.7621 65.8726C75.1036 65.9705 75.4426 66.0747 75.7789 66.185ZM53.3099 70.7309C48.6282 73.5831 44.9723 77.8225 42.8314 82.833C42.717 83.1008 42.7339 83.3721 42.8716 83.6324C43.0169 83.9072 43.2972 84.1575 43.6826 84.268L54.2223 87.2917C54.8784 87.4799 55.9754 87.1204 56.8547 85.8959C57.7123 84.7016 58.7798 83.6617 60.0132 82.8317L53.3099 70.7309ZM78.2963 88.0768C78.9032 89.4347 79.2582 90.8827 79.3535 92.3505C79.4513 93.8553 80.1915 94.7418 80.8475 94.93L91.3872 97.9536C91.7726 98.0642 92.1428 98.0006 92.4115 97.8445C92.666 97.6967 92.824 97.4756 92.8686 97.1879C93.7046 91.8029 92.8474 86.2688 90.3861 81.3674L78.2963 88.0768Z" fill="#FE5000"/>
</svg>
