<svg width="173" height="175" viewBox="0 0 173 175" fill="none" xmlns="http://www.w3.org/2000/svg">
<path d="M154.667 69.6254C161.406 62.8935 161.406 51.979 154.667 45.2472C147.928 38.5153 137.003 38.5153 130.264 45.2472C123.525 51.979 123.525 62.8935 130.264 69.6254C137.003 76.3573 147.928 76.3573 154.667 69.6254Z" fill="#FE1E00" fill-opacity="0.18"/>
<path d="M129.868 131.191C153.638 107.445 153.638 68.9459 129.868 45.2002C106.098 21.4546 67.5599 21.4546 43.7901 45.2002C20.0202 68.9459 20.0202 107.445 43.7901 131.191C67.5599 154.937 106.098 154.937 129.868 131.191Z" fill="#FE1E00" fill-opacity="0.18"/>
<path d="M127.302 42.3858C127.19 42.4169 127.074 42.4331 126.958 42.4341L111.171 42.55C110.998 42.5516 110.827 42.519 110.667 42.4542C110.507 42.3894 110.362 42.2936 110.239 42.1723C110.116 42.0511 110.018 41.9067 109.952 41.7476C109.885 41.5885 109.85 41.4177 109.85 41.2451L109.81 36.0408C109.809 35.8681 109.841 35.6969 109.906 35.5369C109.972 35.3769 110.067 35.2313 110.189 35.1082C110.31 34.9852 110.455 34.8872 110.614 34.8199C110.773 34.7526 110.944 34.7173 111.116 34.7159C111.289 34.7146 111.46 34.7472 111.62 34.812C111.78 34.8768 111.926 34.9725 112.049 35.0936C112.172 35.2147 112.27 35.3589 112.337 35.5178C112.404 35.6768 112.439 35.8475 112.44 36.0201L112.473 39.9197L126.946 39.8151C127.267 39.81 127.578 39.9222 127.821 40.1305C128.065 40.3388 128.223 40.6289 128.267 40.9462C128.311 41.2635 128.238 41.586 128.06 41.8532C127.883 42.1203 127.614 42.3135 127.305 42.3966L127.302 42.3858Z" fill="#FE1E00"/>
<path d="M87.4374 50.566C87.3264 50.5967 87.2118 50.6127 87.0966 50.6135C82.5615 50.6426 78.2023 48.8724 74.9758 45.6916C71.7493 42.5108 69.919 38.179 69.8865 33.647L69.7782 15.2375C69.7759 14.8888 69.9123 14.5534 70.1573 14.3049C70.4024 14.0565 70.7361 13.9154 71.0849 13.9126C71.4338 13.9099 71.7693 14.0457 72.0176 14.2903C72.2659 14.5349 72.4067 14.8682 72.409 15.2168L72.5173 33.6263C72.5459 37.4609 74.0949 41.1257 76.8246 43.8172C79.5544 46.5088 83.2421 48.0074 87.0793 47.9845C87.3998 47.9794 87.711 48.0916 87.9543 48.2999C88.1976 48.5082 88.3561 48.7984 88.4001 49.1156C88.4442 49.4329 88.3706 49.7554 88.1933 50.0226C88.0159 50.2897 87.7471 50.483 87.4374 50.566Z" fill="#FE1E00"/>
<path d="M88.7308 39.8599C87.7575 40.1285 86.7357 40.1695 85.7445 39.9799C84.7534 39.7903 83.8195 39.375 83.0154 38.7664C82.2113 38.1577 81.5584 37.3719 81.1075 36.47C80.6566 35.5681 80.4197 34.5743 80.4152 33.5656C80.4255 33.2246 80.5678 32.9007 80.8123 32.6622C81.0568 32.4237 81.3842 32.2893 81.7256 32.2873C82.067 32.2854 82.3957 32.4159 82.6423 32.6516C82.8889 32.8872 83.0342 33.2094 83.0475 33.5503C83.0501 34.0686 83.1551 34.5811 83.3565 35.0585C83.5579 35.5359 83.8516 35.9687 84.2209 36.3322C84.5902 36.6956 85.0278 36.9825 85.5085 37.1764C85.9892 37.3703 86.5037 37.4674 87.0223 37.4621C88.0694 37.4517 89.0702 37.0272 89.8058 36.2815C90.5414 35.5359 90.9518 34.5297 90.9472 33.4834L90.8296 15.0822C90.8103 12.6428 89.8246 10.3117 88.0882 8.59938C86.3518 6.88702 84.0063 5.93294 81.5652 5.94607C80.3529 5.95702 79.1547 6.21067 78.0415 6.69202C76.9283 7.17337 75.9227 7.87266 75.084 8.7486C73.3579 10.4998 72.3955 12.8621 72.4073 15.3186C72.395 15.6579 72.252 15.9795 72.0081 16.2162C71.7642 16.4528 71.4383 16.5863 71.0986 16.5886C70.7588 16.5909 70.4315 16.462 70.185 16.2286C69.9385 15.9953 69.7919 15.6757 69.7758 15.3365C69.7561 12.1857 70.9861 9.15376 73.1968 6.90418C74.2788 5.77817 75.575 4.87967 77.0093 4.26163C78.4435 3.64359 79.9866 3.31851 81.5477 3.30553C84.6867 3.28751 87.7032 4.51403 89.9358 6.71622C92.1685 8.9184 93.4352 11.9166 93.4582 15.0534L93.5826 33.4585C93.5906 34.9094 93.1195 36.323 92.2423 37.4803C91.3652 38.6376 90.1309 39.474 88.7308 39.8599Z" fill="#FE1E00"/>
<path d="M82.0212 25.7986C81.8266 25.8521 81.6224 25.8603 81.4243 25.8224C81.2262 25.7846 81.0395 25.7017 80.8786 25.5803C80.7177 25.4589 80.587 25.3021 80.4964 25.1221C80.4059 24.942 80.3579 24.7436 80.3563 24.542L80.3058 15.171C80.3035 14.8224 80.4399 14.4869 80.685 14.2385C80.9301 13.99 81.2637 13.8489 81.6126 13.8462C81.9614 13.8434 82.2969 13.9793 82.5452 14.2239C82.7935 14.4684 82.9343 14.8017 82.9366 15.1503L82.9901 24.5321C82.9901 24.8201 82.8953 25.1002 82.7201 25.3291C82.545 25.558 82.2993 25.723 82.0212 25.7986Z" fill="#FE1E00"/>
<path d="M50.7378 74.9376C50.5432 74.9917 50.3388 75.0003 50.1404 74.9627C49.9421 74.9251 49.7552 74.8423 49.5941 74.7207C49.4331 74.5992 49.3023 74.4422 49.2119 74.2618C49.1215 74.0815 49.074 73.8827 49.0729 73.681L48.8359 33.7991C48.8261 31.3602 49.7835 29.0156 51.4987 27.2784C53.2138 25.5412 55.5469 24.5529 57.9873 24.5298C58.3268 24.5416 58.6484 24.6842 58.885 24.9276C59.1215 25.171 59.2546 25.4965 59.2565 25.836C59.2584 26.1755 59.1289 26.5028 58.8951 26.7495C58.6613 26.9961 58.3412 27.143 58.0019 27.1595C56.2593 27.1787 54.5941 27.8857 53.3695 29.1263C52.1449 30.3668 51.4602 32.0403 51.4647 33.7818L51.7037 73.6603C51.7054 73.9495 51.6117 74.2313 51.4371 74.4622C51.2625 74.6931 51.0167 74.8602 50.7378 74.9376Z" fill="#FE1E00"/>
<path d="M121.979 130.697C121.202 130.912 120.401 131.022 119.596 131.027L58.6296 131.472C56.1885 131.485 53.843 130.531 52.1066 128.819C50.3702 127.106 49.3844 124.775 49.3652 122.336L49.125 81.8087C49.1373 81.4693 49.2803 81.1477 49.5242 80.911C49.7681 80.6744 50.094 80.5409 50.4337 80.5386C50.7735 80.5363 51.1008 80.6653 51.3473 80.8986C51.5938 81.1319 51.7404 81.4516 51.7565 81.7907L51.996 122.315C52.0122 124.057 52.7173 125.721 53.9574 126.944C55.1974 128.167 56.8717 128.849 58.615 128.842L119.581 128.397C121.324 128.378 122.989 127.671 124.213 126.43C125.438 125.19 126.123 123.516 126.118 121.775L125.986 99.3615C125.984 99.0129 126.12 98.6774 126.365 98.429C126.61 98.1805 126.944 98.0394 127.293 98.0367C127.642 98.0339 127.977 98.1698 128.226 98.4144C128.474 98.659 128.615 98.9922 128.617 99.3408L128.75 121.757C128.757 123.781 128.098 125.753 126.874 127.368C125.651 128.984 123.931 130.153 121.979 130.697Z" fill="#FE1E00"/>
<path d="M127.598 92.3691C127.403 92.4228 127.198 92.431 127 92.3931C126.801 92.3551 126.615 92.2721 126.453 92.1503C126.292 92.0286 126.162 91.8714 126.071 91.691C125.981 91.5105 125.933 91.3117 125.932 91.1098L125.913 87.0586C125.91 86.71 126.047 86.3746 126.292 86.1261C126.537 85.8776 126.871 85.7365 127.22 85.7338C127.568 85.731 127.904 85.8669 128.152 86.1115C128.4 86.3561 128.541 86.6893 128.544 87.0379L128.567 91.1026C128.566 91.3904 128.471 91.6703 128.296 91.8992C128.121 92.128 127.876 92.2931 127.598 92.3691Z" fill="#FE1E00"/>
<path d="M127.466 70.0082C127.272 70.0623 127.067 70.0709 126.869 70.0332C126.67 69.9956 126.484 69.9128 126.323 69.7913C126.161 69.6698 126.031 69.5127 125.94 69.3324C125.85 69.1521 125.802 68.9533 125.801 68.7515L125.635 41.6742L110.522 26.7755L92.2052 26.9103C92.0278 26.919 91.8505 26.8916 91.6841 26.83C91.5177 26.7684 91.3654 26.6738 91.2366 26.5519C91.1078 26.4299 91.005 26.2832 90.9344 26.1204C90.8638 25.9577 90.8269 25.7823 90.826 25.6048C90.825 25.4274 90.8599 25.2515 90.9287 25.0878C90.9974 24.9241 91.0986 24.776 91.2261 24.6523C91.3535 24.5286 91.5047 24.4319 91.6704 24.368C91.8362 24.3041 92.0131 24.2744 92.1906 24.2806L111.052 24.1434C111.225 24.1416 111.396 24.174 111.556 24.2388C111.717 24.3036 111.862 24.3994 111.985 24.5209L127.868 40.184C128.116 40.4293 128.256 40.7623 128.259 41.1107L128.427 68.7323C128.429 69.0207 128.336 69.3019 128.162 69.5325C127.989 69.7631 127.744 69.9302 127.466 70.0082Z" fill="#FE1E00"/>
<path opacity="0.3" d="M108.668 98.8175C108.557 98.8482 108.442 98.8641 108.327 98.865L65.7768 99.177C65.4373 99.1651 65.1157 99.0226 64.8791 98.7791C64.6426 98.5357 64.5095 98.2102 64.5076 97.8707C64.5057 97.5312 64.6352 97.2039 64.869 96.9573C65.1028 96.7106 65.4229 96.5637 65.7622 96.5472L108.312 96.2352C108.63 96.2353 108.937 96.3503 109.177 96.5589C109.416 96.7675 109.572 97.0557 109.615 97.3703C109.658 97.6849 109.586 98.0047 109.412 98.2707C109.238 98.5366 108.974 98.7309 108.668 98.8175Z" fill="#FE1E00"/>
<path d="M66.4519 104.902C66.5317 104.763 66.6293 104.635 66.7421 104.522L108.446 62.6983C108.793 62.3788 109.249 62.2057 109.719 62.2152C110.189 62.2248 110.638 62.4162 110.97 62.7496C111.302 63.0829 111.492 63.5324 111.501 64.004C111.511 64.4756 111.337 64.9329 111.018 65.2803L69.3147 107.104C69.0008 107.414 68.586 107.6 68.1467 107.628C67.7074 107.655 67.2734 107.523 66.9246 107.254C66.5758 106.986 66.3359 106.6 66.249 106.168C66.1621 105.735 66.2342 105.286 66.4519 104.902Z" fill="#FE1E00"/>
<path d="M108.954 107.229C108.815 107.15 108.687 107.053 108.573 106.941L66.5363 65.4529C66.215 65.1078 66.0391 64.6521 66.0455 64.181C66.0519 63.71 66.2401 63.26 66.5707 62.9252C66.9014 62.5903 67.3489 62.3965 67.8197 62.3843C68.2905 62.372 68.7483 62.5423 69.0973 62.8595L111.134 104.348C111.446 104.66 111.634 105.074 111.665 105.514C111.695 105.954 111.566 106.389 111.3 106.74C111.034 107.091 110.651 107.334 110.219 107.424C109.788 107.514 109.339 107.445 108.954 107.229Z" fill="#FE1E00"/>
<path opacity="0.3" d="M93.8225 106.782C93.7115 106.813 93.5969 106.829 93.4817 106.83L90.4073 106.851C90.2299 106.859 90.0527 106.832 89.8862 106.77C89.7198 106.709 89.5676 106.614 89.4387 106.492C89.3099 106.37 89.2071 106.224 89.1365 106.061C89.066 105.898 89.0291 105.723 89.0281 105.545C89.0271 105.368 89.0621 105.192 89.1308 105.028C89.1996 104.865 89.3007 104.716 89.4282 104.593C89.5557 104.469 89.7068 104.372 89.8726 104.308C90.0383 104.245 90.2153 104.215 90.3927 104.221L93.4644 104.201C93.785 104.195 94.0962 104.308 94.3394 104.516C94.5827 104.724 94.7413 105.014 94.7853 105.332C94.8293 105.649 94.7557 105.972 94.5784 106.239C94.4011 106.506 94.1323 106.699 93.8225 106.782Z" fill="#FE1E00"/>
<path opacity="0.3" d="M83.8811 106.764C83.7692 106.795 83.6537 106.811 83.5376 106.812L72.7349 106.891C72.3892 106.888 72.0585 106.75 71.8143 106.506C71.5701 106.262 71.4319 105.931 71.4295 105.586C71.4271 105.24 71.5608 104.907 71.8017 104.659C72.0425 104.411 72.3712 104.267 72.7169 104.259L83.5223 104.18C83.8428 104.175 84.154 104.287 84.3973 104.495C84.6406 104.704 84.7991 104.994 84.8431 105.311C84.8871 105.628 84.8136 105.951 84.6362 106.218C84.4589 106.485 84.1901 106.678 83.8804 106.761L83.8811 106.764Z" fill="#FE1E00"/>
</svg>
