<svg width="124" height="119" viewBox="0 0 124 119" fill="none" xmlns="http://www.w3.org/2000/svg">
<path d="M64.3266 109.381L72.4526 111.542C80.6134 113.713 89.0423 108.837 91.1638 100.719L100.15 66.9267L108.625 69.1804C113.298 70.4232 113.889 66.5186 109.958 60.5174L82.7765 19.0818C78.8459 13.0805 70.3712 10.8268 63.9439 14.0735L19.7797 36.4985C13.3431 39.7799 11.9158 43.462 16.5891 44.7048C21.2624 45.9476 25.0638 46.9585 25.0638 46.9585L16.0773 80.7507C13.9209 88.8594 18.8143 97.278 26.9403 99.4389L35.0662 101.6L64.3266 109.381ZM79.7789 61.8073L75.9566 76.1803L61.5531 72.3499L65.3754 57.9769L79.7789 61.8073ZM45.3221 52.644L59.7256 56.4744L55.9033 70.8474L41.4998 67.017L45.3221 52.644ZM36.2223 87.0023L40.0446 72.6293L54.4481 76.4597L50.6258 90.8327L36.2223 87.0023ZM56.2407 92.3259L60.063 77.9529L74.4665 81.7833L70.6442 96.1563L56.2407 92.3259Z" fill="url(#paint0_linear)"/>
<defs>
<linearGradient id="paint0_linear" x1="20.7535" y1="97.7936" x2="113.706" y2="92.0009" gradientUnits="userSpaceOnUse">
<stop stop-color="#FE5000"/>
<stop offset="1" stop-color="#FCA92A"/>
</linearGradient>
</defs>
</svg>
