<svg width="200" height="170" viewBox="0 0 200 170" fill="none" xmlns="http://www.w3.org/2000/svg">
<circle cx="89.5" cy="93.4999" r="62.5" fill="#FC7F70"/>
<g clip-path="url(#clip0)" filter="url(#filter0_d)">
<path d="M71.4585 106.613C74.3336 107.973 77.5626 108.089 80.5476 106.959L99.2041 99.897L99.4176 102.264C99.6114 104.354 100.098 106.39 100.833 108.332L103.066 114.233C104.489 117.993 107.27 120.982 110.9 122.682L112.281 123.326C115.936 125.017 120.177 125.177 123.958 123.746C128.311 122.098 130.505 117.226 128.856 112.868L127.508 109.308C127.075 108.163 126.84 106.942 126.774 105.715L126.677 102.905C126.589 100.718 127.158 98.5389 128.269 96.6665L135.476 84.6021C135.777 84.1184 136.033 83.5943 136.231 83.0641C137.658 83.3779 139.186 83.2833 140.629 82.7372L155.853 76.9749C159.883 75.4496 161.907 70.9546 160.38 66.9212L145.764 28.305C144.262 24.2622 139.744 22.2435 135.739 23.7594L120.515 29.5217C118.55 30.2655 117.076 31.7058 116.238 33.4746C114.165 32.8074 111.883 32.7888 109.719 33.608L71.0379 48.2491C65.0678 50.5088 61.8679 57.1568 63.9084 63.0736C64.2699 64.1039 64.7369 65.0372 65.3189 65.8986C63.7405 68.7162 63.3069 72.1538 64.4042 75.3534C64.7375 76.309 65.1951 77.2174 65.7333 78.0384C64.1087 80.959 63.7221 84.5211 64.9944 87.8822C65.3336 88.7785 65.763 89.6123 66.3072 90.3741C64.704 93.2011 64.2704 96.6387 65.3677 99.8384C66.424 102.854 68.5928 105.278 71.4585 106.613Z" fill="white"/>
<path d="M111.794 39.0848L73.1128 53.726C70.1278 54.8558 68.3923 58.1599 69.4485 61.1759C70.5176 64.3008 73.9664 65.8988 77.0261 64.7407L73.6181 66.0307C70.6331 67.1605 68.8976 70.4646 69.9539 73.4806C70.9852 76.506 74.2659 78.1107 77.2577 77.149L73.8962 78.336C70.8862 79.4753 69.372 82.838 70.5123 85.8506C71.6526 88.8632 75.0139 90.3804 78.0238 89.2411L74.6159 90.5311C71.6309 91.6609 69.8954 94.965 70.9516 97.981C72.0207 101.106 75.4695 102.704 78.5292 101.546L104.375 91.7631L105.317 101.767C105.457 103.337 105.804 104.857 106.36 106.326L108.594 112.226C109.461 114.517 111.195 116.394 113.434 117.425L114.815 118.069C117.063 119.125 119.626 119.209 121.964 118.323C123.308 117.815 123.972 116.34 123.463 114.995L122.115 111.435C121.456 109.692 121.07 107.846 121.01 105.961L120.914 103.151C120.797 99.8364 121.633 96.5597 123.335 93.695L130.543 81.6306C131.149 80.6039 131.276 79.3605 130.852 78.2401L116.886 41.3419C116.063 39.3191 113.809 38.3222 111.794 39.0848Z" fill="#EC3B44"/>
<path d="M137.814 29.2362L122.59 34.9985C121.595 35.3751 121.085 36.5075 121.462 37.5034L136.088 76.1444C136.465 77.1403 137.597 77.6512 138.592 77.2746L153.815 71.5123C154.81 71.1357 155.32 70.0033 154.943 69.0074L140.317 30.3664C139.94 29.3705 138.809 28.8596 137.814 29.2362ZM128.748 41.5768C127.231 42.1512 125.55 41.3926 124.976 39.8738C124.401 38.3551 125.158 36.6737 126.675 36.0994C128.193 35.525 129.873 36.2837 130.448 37.8024C131.023 39.3212 130.266 41.0025 128.748 41.5768Z" fill="#EC3B44"/>
</g>
<defs>
<filter id="filter0_d" x="24" y="0" width="175.665" height="169.172" filterUnits="userSpaceOnUse" color-interpolation-filters="sRGB">
<feFlood flood-opacity="0" result="BackgroundImageFix"/>
<feColorMatrix in="SourceAlpha" type="matrix" values="0 0 0 0 0 0 0 0 0 0 0 0 0 0 0 0 0 0 127 0"/>
<feOffset dy="4"/>
<feGaussianBlur stdDeviation="12.5"/>
<feColorMatrix type="matrix" values="0 0 0 0 0 0 0 0 0 0 0 0 0 0 0 0 0 0 0.25 0"/>
<feBlend mode="normal" in2="BackgroundImageFix" result="effect1_dropShadow"/>
<feBlend mode="normal" in="SourceGraphic" in2="effect1_dropShadow" result="shape"/>
</filter>
<clipPath id="clip0">
<rect width="100.539" height="89.3681" fill="white" transform="translate(49 56.5906) rotate(-20.7321)"/>
</clipPath>
</defs>
</svg>
