<svg width="126" height="120" viewBox="0 0 126 120" fill="none" xmlns="http://www.w3.org/2000/svg">
<g clip-path="url(#clip0)">
<path d="M22.4585 85.6132C25.3336 86.9729 28.5626 87.0885 31.5476 85.9586L50.2041 78.897L50.4176 81.2642C50.6114 83.3541 51.0977 85.3903 51.8328 87.3323L54.0663 93.233C55.4893 96.9926 58.2703 99.9819 61.9 101.682L63.2813 102.326C66.9359 104.017 71.1769 104.177 74.9579 102.746C79.3111 101.098 81.5052 96.2255 79.856 91.8685L78.5084 88.3081C78.0749 87.1628 77.8404 85.9422 77.774 84.7149L77.6774 81.905C77.5891 79.7182 78.1577 77.5389 79.2691 75.6665L86.4765 63.6021C86.7768 63.1184 87.0335 62.5943 87.2309 62.0641C88.6579 62.3779 90.1863 62.2833 91.6291 61.7372L106.853 55.9749C110.883 54.4496 112.907 49.9546 111.38 45.9212L96.7635 7.30502C95.2617 3.2622 90.7436 1.24347 86.7387 2.75936L71.515 8.52166C69.5498 9.26549 68.0758 10.7058 67.2381 12.4746C65.1654 11.8074 62.8833 11.7888 60.7191 12.608L22.0379 27.2491C16.0678 29.5088 12.8679 36.1568 14.9084 42.0736C15.2699 43.1039 15.7369 44.0372 16.3189 44.8986C14.7405 47.7162 14.3069 51.1538 15.4042 54.3534C15.7375 55.309 16.1951 56.2174 16.7333 57.0384C15.1087 59.959 14.7221 63.5211 15.9944 66.8822C16.3336 67.7785 16.763 68.6123 17.3072 69.3741C15.704 72.2011 15.2704 75.6387 16.3677 78.8384C17.424 81.8543 19.5928 84.2784 22.4585 85.6132Z" fill="white"/>
<path d="M62.794 18.0848L24.1128 32.726C21.1278 33.8558 19.3923 37.1599 20.4485 40.1759C21.5176 43.3008 24.9664 44.8988 28.0261 43.7407L24.6181 45.0307C21.6331 46.1605 19.8976 49.4646 20.9539 52.4806C21.9852 55.506 25.2659 57.1107 28.2577 56.149L24.8962 57.336C21.8862 58.4753 20.372 61.838 21.5123 64.8506C22.6526 67.8632 26.0139 69.3804 29.0238 68.2411L25.6159 69.5311C22.6309 70.6609 20.8954 73.965 21.9516 76.981C23.0207 80.1059 26.4695 81.7039 29.5292 80.5458L55.3746 70.7631L56.3174 80.7674C56.4566 82.3372 56.8042 83.8566 57.3602 85.3255L59.5936 91.2263C60.4606 93.5168 62.1949 95.3938 64.4338 96.425L65.8152 97.0692C68.0635 98.1253 70.626 98.2085 72.9643 97.3235C74.3076 96.815 74.972 95.3396 74.4631 93.9951L73.1155 90.4348C72.4558 88.6919 72.0698 86.8455 72.0105 84.9608L71.9139 82.151C71.7969 78.8364 72.6327 75.5597 74.3354 72.695L81.5427 60.6306C82.1495 59.6039 82.2761 58.3605 81.852 57.2401L67.8857 20.3419C67.0632 18.3191 64.8089 17.3222 62.794 18.0848Z" fill="#EC3B44"/>
<path d="M88.8136 8.23621L73.5899 13.9985C72.5949 14.3751 72.085 15.5075 72.4619 16.5034L87.0879 55.1444C87.4648 56.1403 88.5967 56.6512 89.5917 56.2746L104.815 50.5123C105.81 50.1357 106.32 49.0033 105.943 48.0074L91.3175 9.3664C90.9405 8.3705 89.8086 7.85959 88.8136 8.23621ZM79.7485 20.5768C78.2311 21.1512 76.5504 20.3926 75.9756 18.8738C75.4007 17.3551 76.1578 15.6737 77.6752 15.0994C79.1926 14.525 80.8733 15.2837 81.4482 16.8024C82.023 18.3212 81.2659 20.0025 79.7485 20.5768Z" fill="#EC3B44"/>
</g>
<defs>
<clipPath id="clip0">
<rect width="100.539" height="89.3681" fill="white" transform="translate(0 35.5906) rotate(-20.7321)"/>
</clipPath>
</defs>
</svg>
