<svg width="44" height="44" viewBox="0 0 44 44" fill="none" xmlns="http://www.w3.org/2000/svg">
<path d="M36.2275 5H7.77245C5.72455 5 4 6.71609 4 8.75394V34.0662C4 36.1041 5.72455 37.8202 7.77245 37.8202H25.7725C26.2036 37.8202 26.5269 37.4984 26.5269 37.0694C26.5269 36.6404 26.2036 36.3186 25.7725 36.3186H7.77245C6.58683 36.3186 5.50898 35.3533 5.50898 34.0662V12.4006H38.491V28.0599C38.491 28.489 38.8144 28.8107 39.2455 28.8107C39.6766 28.8107 40 28.489 40 28.0599V8.75394C40 6.71609 38.2754 5 36.2275 5ZM38.491 11.0063H5.50898V8.75394C5.50898 7.57413 6.47904 6.50158 7.77245 6.50158H36.2275C37.4132 6.50158 38.491 7.46688 38.491 8.75394V11.0063ZM7.77245 9.50473C8.20359 9.50473 8.52695 9.18297 8.52695 8.75394C8.52695 8.32492 8.20359 8.00315 7.77245 8.00315C7.34132 8.00315 7.01796 8.32492 7.01796 8.75394C7.01796 9.18297 7.34132 9.50473 7.77245 9.50473ZM10.7904 9.50473C11.2216 9.50473 11.5449 9.18297 11.5449 8.75394C11.5449 8.32492 11.2216 8.00315 10.7904 8.00315C10.3593 8.00315 10.0359 8.32492 10.0359 8.75394C10.0359 9.18297 10.3593 9.50473 10.7904 9.50473ZM13.8084 9.50473C14.2395 9.50473 14.5629 9.18297 14.5629 8.75394C14.5629 8.32492 14.2395 8.00315 13.8084 8.00315C13.3772 8.00315 13.0539 8.32492 13.0539 8.75394C13.0539 9.18297 13.3772 9.50473 13.8084 9.50473ZM39.7844 32.0284L29.3293 21.6246C29.1138 21.4101 28.7904 21.3028 28.4671 21.4101C28.1437 21.5173 28.0359 21.8391 28.0359 22.0536V36.9621C28.0359 37.2839 28.2515 37.4984 28.4671 37.6057C28.7904 37.7129 29.1138 37.6057 29.3293 37.3912L31.5928 35.1388L33.4251 38.6782C33.5329 38.8927 33.6407 39 33.8563 39C33.9641 39 33.9641 39 34.0719 39C34.1796 39 34.2874 39 34.3952 38.8927L37.3054 37.3912C37.6287 37.1767 37.8443 36.7476 37.6287 36.4259L35.9042 33.1009H39.1377C39.4611 33.1009 39.6766 32.8864 39.7844 32.6719C40 32.5647 40 32.2429 39.7844 32.0284ZM34.7186 31.8139C34.503 31.8139 34.1796 31.9211 34.0719 32.1356C33.9641 32.3502 33.9641 32.6719 34.0719 32.8864L36.012 36.6404L34.3952 37.4984L32.4551 33.7445C32.3473 33.53 32.1317 33.4227 31.9162 33.3155H31.8084C31.5928 33.3155 31.3772 33.4227 31.2695 33.53L29.5449 35.2461V23.877L37.521 31.8139H34.7186Z" fill="url(#paint0_linear)"/>
<defs>
<linearGradient id="paint0_linear" x1="11.425" y1="39" x2="42.6617" y2="28.6489" gradientUnits="userSpaceOnUse">
<stop stop-color="#FE5000"/>
<stop offset="1" stop-color="#FCA92A"/>
</linearGradient>
</defs>
</svg>
