<svg width="44" height="44" viewBox="0 0 44 44" fill="none" xmlns="http://www.w3.org/2000/svg">
<g clip-path="url(#clip0)">
<path d="M14.6695 18.3306C10.1234 18.3306 6.41953 14.6267 6.41953 10.0806C6.41953 5.53447 10.1234 1.83057 14.6695 1.83057C19.2156 1.83057 22.9195 5.53447 22.9195 10.0806C22.9195 14.6267 19.2156 18.3306 14.6695 18.3306ZM14.6695 3.66963C11.1289 3.66963 8.25 6.54854 8.25 10.0892C8.25 13.6298 11.1289 16.5087 14.6695 16.5087C18.2102 16.5087 21.0891 13.6298 21.0891 10.0892C21.0891 6.54854 18.2016 3.66963 14.6695 3.66963ZM20.9 10.2353C18.7172 10.2353 17.1445 8.75713 16.3367 7.76025C12.7703 10.5017 8.55938 10.2524 7.2875 10.0978C6.78906 10.0376 6.42813 9.58213 6.48828 9.0751C6.54844 8.57666 6.99531 8.21572 7.51094 8.27588C8.68828 8.41338 12.7617 8.654 15.8898 5.74932C16.0961 5.56025 16.3797 5.47432 16.6461 5.51728C16.9211 5.56025 17.1617 5.72354 17.3078 5.96416C17.3766 6.08447 19.1039 8.98057 21.7336 8.30166C22.232 8.18135 22.7219 8.47354 22.8508 8.96338C22.9797 9.45322 22.6789 9.95166 22.1891 10.0806C21.725 10.1837 21.3039 10.2353 20.9 10.2353ZM31.1695 40.3306C26.1164 40.3306 22 36.2142 22 31.161C22 26.1079 26.1164 22.0001 31.1695 22.0001C36.2227 22.0001 40.3391 26.1165 40.3391 31.1696C40.3391 36.2228 36.2227 40.3306 31.1695 40.3306ZM31.1695 23.8306C27.1219 23.8306 23.8391 27.122 23.8391 31.161C23.8391 35.2001 27.1305 38.4915 31.1695 38.4915C35.2086 38.4915 38.5 35.2001 38.5 31.161C38.5 27.122 35.2086 23.8306 31.1695 23.8306ZM43.0805 44.0001C42.8484 44.0001 42.6078 43.9142 42.4273 43.7337L36.7984 38.1048C36.4375 37.7438 36.4375 37.1681 36.7984 36.8071C37.1594 36.4462 37.7352 36.4462 38.0961 36.8071L43.725 42.436C44.0859 42.797 44.0859 43.3728 43.725 43.7337C43.5531 43.9142 43.3211 44.0001 43.0805 44.0001ZM19.25 36.6696H0.919531C0.4125 36.6696 0 36.2571 0 35.7501V28.4196C0 24.879 2.87891 22.0001 6.41953 22.0001H21.0891C21.5961 22.0001 22.0086 22.4126 22.0086 22.9196C22.0086 23.4267 21.5961 23.8392 21.0891 23.8392H6.41953C3.89297 23.8392 1.83906 25.8931 1.83906 28.4196V34.8392H19.25C19.757 34.8392 20.1695 35.2517 20.1695 35.7587C20.1695 36.2571 19.757 36.6696 19.25 36.6696Z" fill="url(#paint0_linear)"/>
</g>
<defs>
<linearGradient id="paint0_linear" x1="9.07411" y1="44.0001" x2="47.3588" y2="31.4994" gradientUnits="userSpaceOnUse">
<stop stop-color="#FE5000"/>
<stop offset="1" stop-color="#FCA92A"/>
</linearGradient>
<clipPath id="clip0">
<rect width="44" height="44" fill="white"/>
</clipPath>
</defs>
</svg>
