<svg width="44" height="44" viewBox="0 0 44 44" fill="none" xmlns="http://www.w3.org/2000/svg">
<path d="M37.825 15.1442L36.9211 5.16037C36.8929 4.84398 36.7446 4.54165 36.5116 4.33073C36.2785 4.1198 35.9678 3.99325 35.6501 4.00028C35.5583 4.00028 35.4735 4.00731 35.3817 4.0284L25.5308 6.04625C25.093 6.13765 24.8176 6.5595 24.9023 6.99542C24.9941 7.43133 25.4178 7.70553 25.8556 7.62116L34.2307 5.90564L8.63947 38.7045C8.36407 39.0561 8.42762 39.5623 8.7807 39.8295C9.13378 40.1037 9.63515 40.0404 9.91055 39.6888L35.4665 6.93214L36.222 15.2848C36.2644 15.7277 36.6528 16.0511 37.0977 16.009C37.5426 15.9808 37.8674 15.5871 37.825 15.1442ZM12.601 5.75799C7.84857 5.75799 4 9.5898 4 14.3216C4 19.0463 7.84857 22.8781 12.601 22.8781C17.3464 22.8781 21.195 19.0463 21.195 14.3216C21.195 9.5898 17.3464 5.75799 12.601 5.75799ZM12.601 21.2751C8.75245 21.2751 5.6171 18.1534 5.6171 14.3216C5.6171 10.4897 8.75245 7.36805 12.601 7.36805C16.4496 7.36805 19.5849 10.4897 19.5849 14.3216C19.5849 18.1534 16.4496 21.2751 12.601 21.2751ZM31.406 22.8781C26.6536 22.8781 22.805 26.7099 22.805 31.4346C22.805 36.1594 26.6536 39.9912 31.406 39.9912C36.1514 39.9912 40 36.1594 40 31.4346C40 26.7099 36.1514 22.8781 31.406 22.8781ZM31.406 38.3952C27.5575 38.3952 24.4221 35.2735 24.4221 31.4417C24.4221 27.6098 27.5575 24.4882 31.406 24.4882C35.2546 24.4882 38.39 27.6098 38.39 31.4417C38.39 35.2735 35.2546 38.3952 31.406 38.3952Z" fill="url(#paint0_linear)"/>
<defs>
<linearGradient id="paint0_linear" x1="11.425" y1="40" x2="42.9992" y2="30.1183" gradientUnits="userSpaceOnUse">
<stop stop-color="#FE5000"/>
<stop offset="1" stop-color="#FCA92A"/>
</linearGradient>
</defs>
</svg>
