<svg width="149" height="128" viewBox="0 0 149 128" fill="none" xmlns="http://www.w3.org/2000/svg">
<g clip-path="url(#clip0)">
<path d="M68.446 54.0395C78.725 43.771 78.725 27.1225 68.446 16.854C58.167 6.58544 41.5015 6.58544 31.2226 16.854C20.9436 27.1225 20.9436 43.771 31.2226 54.0395C41.5015 64.3081 58.167 64.3081 68.446 54.0395Z" fill="#C3C3C3" fill-opacity="0.18"/>
<path d="M134.537 113.753C153.552 94.7561 153.552 63.9567 134.537 44.9602C115.521 25.9636 84.6898 25.9636 65.674 44.9602C46.6581 63.9567 46.6581 94.7561 65.674 113.753C84.6898 132.749 115.521 132.749 134.537 113.753Z" fill="#C3C3C3" fill-opacity="0.18"/>
<path d="M138.135 23.3105C137.929 23.3088 137.727 23.2464 137.556 23.1312C137.384 23.0159 137.251 22.8529 137.171 22.6624C137.092 22.4719 137.07 22.2623 137.109 22.0597C137.148 21.857 137.246 21.6702 137.39 21.5226L140.368 18.5501C140.565 18.353 140.833 18.2423 141.112 18.2423C141.391 18.2423 141.658 18.353 141.856 18.5501C142.053 18.7472 142.164 19.0145 142.164 19.2932C142.164 19.5719 142.053 19.8392 141.856 20.0363L138.878 23.011C138.68 23.2053 138.413 23.313 138.135 23.3105Z" fill="#C3C3C3" fill-opacity="0.6"/>
<path d="M141.111 23.3105C140.972 23.3106 140.836 23.2834 140.708 23.2304C140.581 23.1775 140.465 23.0999 140.368 23.0021L137.39 20.0274C137.281 19.9326 137.193 19.8164 137.131 19.6861C137.069 19.5558 137.035 19.4141 137.03 19.27C137.026 19.1258 137.051 18.9823 137.104 18.8482C137.157 18.7142 137.238 18.5925 137.34 18.4909C137.442 18.3892 137.565 18.3097 137.699 18.2572C137.834 18.2048 137.978 18.1806 138.122 18.1862C138.266 18.1918 138.408 18.2269 138.538 18.2895C138.668 18.3521 138.784 18.4408 138.878 18.5501L141.856 21.5248C142 21.6725 142.097 21.8592 142.136 22.0619C142.175 22.2646 142.154 22.4742 142.074 22.6647C141.995 22.8552 141.861 23.0182 141.69 23.1334C141.519 23.2486 141.317 23.311 141.111 23.3128V23.3105Z" fill="#C3C3C3" fill-opacity="0.6"/>
<path d="M117.078 5.07781C116.871 5.07605 116.67 5.01367 116.499 4.89844C116.327 4.78322 116.194 4.62022 116.114 4.42971C116.035 4.23921 116.013 4.02959 116.052 3.82693C116.091 3.62428 116.189 3.43751 116.333 3.28985L119.311 0.308429C119.408 0.210107 119.524 0.131883 119.651 0.0782222C119.779 0.0245616 119.915 -0.00348437 120.054 -0.00431451C120.192 -0.00514465 120.329 0.0212574 120.457 0.0733841C120.586 0.125511 120.702 0.202341 120.801 0.299489C120.899 0.396637 120.977 0.512199 121.031 0.639578C121.085 0.766957 121.113 0.903658 121.114 1.04188C121.115 1.18009 121.088 1.31712 121.036 1.44514C120.984 1.57315 120.907 1.68964 120.81 1.78797L117.821 4.76939C117.724 4.86737 117.608 4.9451 117.48 4.99804C117.353 5.05099 117.216 5.0781 117.078 5.07781Z" fill="#C3C3C3" fill-opacity="0.6"/>
<path d="M120.056 5.07782C119.918 5.07804 119.78 5.0509 119.653 4.99797C119.525 4.94503 119.409 4.86735 119.311 4.7694L116.335 1.78798C116.138 1.59089 116.027 1.32358 116.027 1.04486C116.027 0.766134 116.138 0.498825 116.335 0.301738C116.533 0.10465 116.8 -0.006073 117.079 -0.006073C117.358 -0.006073 117.626 0.10465 117.823 0.301738L120.81 3.28316C120.954 3.43068 121.052 3.61724 121.091 3.8197C121.13 4.02215 121.108 4.23159 121.029 4.42201C120.95 4.61243 120.817 4.77545 120.646 4.89084C120.475 5.00624 120.274 5.06892 120.067 5.07112L120.056 5.07782Z" fill="#C3C3C3" fill-opacity="0.6"/>
<path d="M8.50126 89.398C8.29471 89.3962 8.09323 89.3338 7.92187 89.2186C7.75051 89.1034 7.61683 88.9404 7.53746 88.7499C7.45808 88.5594 7.4365 88.3498 7.4754 88.1471C7.5143 87.9444 7.61197 87.7577 7.75627 87.61L10.7385 84.6197C10.9387 84.4361 11.2022 84.337 11.4739 84.3429C11.7456 84.3488 12.0045 84.4594 12.1965 84.6515C12.3885 84.8436 12.4988 85.1024 12.5044 85.3739C12.5099 85.6453 12.4103 85.9084 12.2262 86.1081L9.25073 89.0806C9.15319 89.1806 9.03667 89.2602 8.90799 89.3147C8.7793 89.3692 8.64103 89.3975 8.50126 89.398Z" fill="#C3C3C3" fill-opacity="0.6"/>
<path d="M11.4743 89.398C11.1966 89.3937 10.9319 89.2795 10.7383 89.0806L7.76054 86.1081C7.56842 85.9096 7.46206 85.6436 7.46439 85.3675C7.46672 85.0914 7.57755 84.8273 7.77299 84.6321C7.96843 84.4368 8.23283 84.3261 8.50921 84.3238C8.78559 84.3215 9.05182 84.4277 9.25053 84.6196L12.226 87.5944C12.3702 87.7419 12.4678 87.9284 12.5068 88.1309C12.5458 88.3334 12.5244 88.5428 12.4453 88.7332C12.3662 88.9236 12.2329 89.0866 12.0618 89.202C11.8908 89.3174 11.6896 89.3801 11.4833 89.3823L11.4743 89.398Z" fill="#C3C3C3" fill-opacity="0.6"/>
<path d="M1.05351 62.183C0.846954 62.1812 0.645474 62.1189 0.474116 62.0036C0.302759 61.8884 0.169081 61.7254 0.089702 61.5349C0.0103229 61.3444 -0.0112566 61.1348 0.0276463 60.9321C0.0665492 60.7295 0.164219 60.5427 0.308512 60.395L3.28626 57.4203C3.4865 57.2368 3.74999 57.1376 4.02169 57.1436C4.29339 57.1495 4.55228 57.2601 4.7443 57.4522C4.93632 57.6443 5.04662 57.9031 5.05215 58.1745C5.05769 58.446 4.95804 58.709 4.77401 58.9088L1.78955 61.8746C1.5946 62.0704 1.33 62.1813 1.05351 62.183Z" fill="#C3C3C3" fill-opacity="0.6"/>
<path d="M4.02699 62.183C3.88894 62.183 3.75225 62.1558 3.62478 62.1029C3.4973 62.0499 3.38157 61.9724 3.28423 61.8746L0.308721 58.8999C0.136143 58.6989 0.0456912 58.4404 0.0553947 58.1758C0.0650981 57.9113 0.174244 57.66 0.361078 57.4723C0.547913 57.2845 0.798714 57.174 1.0635 57.1627C1.32828 57.1514 1.5876 57.2402 1.78976 57.4114L4.76751 60.3861C4.9118 60.5338 5.00947 60.7205 5.04837 60.9232C5.08728 61.1258 5.0657 61.3354 4.98632 61.526C4.90694 61.7165 4.77326 61.8795 4.6019 61.9947C4.43055 62.1099 4.22907 62.1723 4.02251 62.1741L4.02699 62.183Z" fill="#C3C3C3" fill-opacity="0.6"/>
<path d="M126.976 90.6339L118.049 106.095L103.478 110.006L87.2001 114.36L77.0342 117.073L76.9693 116.991C78.2393 116.856 79.4386 116.34 80.4085 115.51C81.3784 114.68 82.0733 113.575 82.4013 112.342L99.1089 50.0361L90.1801 34.5769L76.3496 30.8736L102.525 23.8693C104.143 23.4407 105.865 23.6705 107.314 24.5085C108.762 25.3464 109.819 26.724 110.252 28.3392L126.976 90.6339Z" fill="#C3C3C3" fill-opacity="0.6"/>
<path d="M99.1245 51.0932C99.0316 51.0934 98.9391 51.0814 98.8493 51.0574L86.6475 47.7921C86.514 47.7566 86.3887 47.6951 86.2791 47.6111C86.1694 47.5271 86.0774 47.4223 86.0084 47.3027C85.9393 47.183 85.8947 47.051 85.8769 46.9141C85.8591 46.7771 85.8686 46.6381 85.9048 46.5048L86.9764 42.4819C87.0121 42.3485 87.0737 42.2234 87.1578 42.1139C87.2419 42.0043 87.3468 41.9123 87.4664 41.8432C87.5861 41.7741 87.7182 41.7292 87.8552 41.7111C87.9922 41.693 88.1315 41.702 88.265 41.7377C88.3986 41.7733 88.5238 41.8349 88.6335 41.9189C88.7432 42.0029 88.8352 42.1077 88.9044 42.2272C88.9736 42.3467 89.0185 42.4787 89.0366 42.6156C89.0548 42.7525 89.0457 42.8916 89.01 43.025L88.2091 46.0399L99.3952 49.0348C99.6435 49.099 99.8598 49.2516 100.003 49.464C100.147 49.6764 100.208 49.9339 100.174 50.1879C100.141 50.442 100.016 50.6752 99.8227 50.8436C99.6293 51.0119 99.381 51.1039 99.1245 51.1021V51.0932Z" fill="#C3C3C3"/>
<path d="M66.6422 48.932C66.5501 48.9321 66.4583 48.9201 66.3693 48.8962C62.8649 47.9549 59.8776 45.6632 58.0627 42.5241C56.2478 39.3849 55.7537 35.6547 56.6888 32.152L60.5055 17.9288C60.5776 17.6594 60.7539 17.4296 60.9955 17.29C61.2372 17.1505 61.5245 17.1125 61.7941 17.1845C62.0638 17.2566 62.2938 17.4326 62.4335 17.6741C62.5732 17.9155 62.6112 18.2025 62.5391 18.4719L58.7224 32.6951C57.9321 35.6589 58.3505 38.8149 59.8858 41.4711C61.4212 44.1273 63.9482 46.0669 66.9129 46.8647C67.1612 46.9289 67.3775 47.0815 67.521 47.2939C67.6645 47.5063 67.7254 47.7638 67.6921 48.0178C67.6588 48.2719 67.5337 48.5051 67.3404 48.6735C67.147 48.8418 66.8987 48.9338 66.6422 48.932Z" fill="#C3C3C3"/>
<path d="M69.9085 40.9487C69.1008 40.9491 68.3039 40.7636 67.5796 40.4067C66.8552 40.0498 66.2228 39.5311 65.7315 38.8907C65.2402 38.2503 64.9031 37.5055 64.7464 36.714C64.5896 35.9225 64.6175 35.1056 64.8277 34.3266C64.9079 34.0657 65.0863 33.8461 65.3254 33.7141C65.5645 33.5821 65.8455 33.548 66.1093 33.6191C66.3731 33.6901 66.5989 33.8606 66.7392 34.0948C66.8795 34.3289 66.9233 34.6083 66.8614 34.8741C66.7536 35.2745 66.726 35.6921 66.7802 36.1032C66.8344 36.5142 66.9693 36.9105 67.1771 37.2693C67.385 37.6281 67.6617 37.9424 67.9914 38.1941C68.3212 38.4458 68.6974 38.63 69.0986 38.7361C69.9084 38.9506 70.7704 38.8358 71.4957 38.417C72.2211 37.9981 72.7508 37.3093 72.969 36.5012L76.7767 22.2824C77.2787 20.3968 77.0122 18.3892 76.0356 16.6994C75.059 15.0096 73.4519 13.7752 71.5662 13.2666C70.6288 13.0175 69.6509 12.9585 68.6902 13.0933C67.7296 13.228 66.8057 13.5537 65.9732 14.0511C64.2708 15.0351 63.028 16.6528 62.5167 18.5501C62.4353 18.8092 62.2568 19.0269 62.0185 19.1576C61.7803 19.2883 61.5006 19.322 61.2381 19.2516C60.9755 19.1812 60.7504 19.0122 60.6097 18.7798C60.4689 18.5474 60.4236 18.2697 60.483 18.0047C61.1354 15.5702 62.7265 13.4929 64.9083 12.2274C65.9814 11.5888 67.1717 11.1712 68.4089 10.9992C69.6461 10.8273 70.9052 10.9044 72.1121 11.2261C74.5372 11.8793 76.6041 13.4663 77.8598 15.6394C79.1154 17.8125 79.4572 20.3943 78.8104 22.8188L75.0071 37.042C74.7058 38.1629 74.043 39.1531 73.1212 39.8594C72.1994 40.5657 71.0702 40.9486 69.9085 40.9487Z" fill="#C3C3C3"/>
<path d="M67.7115 28.6766C67.5501 28.6766 67.3908 28.6394 67.2461 28.5682C67.1013 28.4969 66.9748 28.3933 66.8765 28.2654C66.7781 28.1376 66.7104 27.9889 66.6787 27.8308C66.647 27.6727 66.6521 27.5094 66.6936 27.3535L68.64 20.1145C68.712 19.8451 68.8883 19.6154 69.13 19.4758C69.3716 19.3362 69.6589 19.2983 69.9286 19.3703C70.1983 19.4423 70.4283 19.6184 70.568 19.8598C70.7077 20.1012 70.7457 20.3882 70.6736 20.6576L68.7272 27.9056C68.6662 28.1277 68.5337 28.3236 68.3501 28.463C68.1665 28.6024 67.9421 28.6775 67.7115 28.6766Z" fill="#C3C3C3"/>
<path d="M33.1712 59.9324C33.0096 59.9328 32.8501 59.896 32.7051 59.8248C32.5601 59.7537 32.4334 59.6501 32.335 59.5221C32.2365 59.3941 32.1689 59.2452 32.1374 59.0869C32.1059 58.9286 32.1113 58.7652 32.1532 58.6093L40.4198 27.7961C40.9289 25.9128 42.1642 24.3077 43.8552 23.3322C45.5462 22.3566 47.5552 22.0901 49.4425 22.5909C49.7019 22.6722 49.9198 22.8505 50.0507 23.0885C50.1815 23.3265 50.2153 23.6059 50.1448 23.8682C50.0743 24.1304 49.9051 24.3554 49.6725 24.4959C49.4399 24.6365 49.1619 24.6818 48.8966 24.6224C47.5484 24.2669 46.1142 24.4584 44.9068 25.1551C43.6993 25.8518 42.8166 26.9971 42.4512 28.3414L34.1869 59.1524C34.1269 59.3758 33.9949 59.5733 33.8113 59.7143C33.6277 59.8553 33.4027 59.9319 33.1712 59.9324Z" fill="#C3C3C3"/>
<path d="M76.309 118.081C75.6645 118.081 75.0229 117.996 74.4007 117.829L27.2803 105.217C25.3946 104.708 23.7875 103.474 22.8109 101.784C21.8343 100.094 21.5678 98.0868 22.0698 96.2011L30.4705 64.8895C30.5519 64.6304 30.7304 64.4127 30.9687 64.282C31.2069 64.1512 31.4866 64.1175 31.7491 64.1879C32.0117 64.2583 32.2368 64.4274 32.3775 64.6598C32.5183 64.8921 32.5636 65.1698 32.5042 65.4348L24.1034 96.7442C23.7469 98.0914 23.9382 99.5247 24.6357 100.731C25.3331 101.938 26.48 102.82 27.8261 103.185L74.9465 115.797C76.2947 116.153 77.7289 115.961 78.9364 115.264C80.1438 114.568 81.0265 113.422 81.392 112.078L86.0387 94.7618C86.1108 94.4924 86.2871 94.2627 86.5287 94.1231C86.7704 93.9835 87.0577 93.9456 87.3273 94.0176C87.597 94.0896 87.827 94.2657 87.9667 94.5071C88.1064 94.7485 88.1444 95.0355 88.0723 95.3049L83.4256 112.624C83.002 114.187 82.0761 115.567 80.7903 116.553C79.5045 117.54 77.93 118.076 76.309 118.081Z" fill="#C3C3C3"/>
<path d="M88.7639 89.7108C88.6022 89.7109 88.4427 89.6737 88.2977 89.6023C88.1527 89.5309 88.0261 89.4271 87.9277 89.299C87.8293 89.1709 87.7617 89.0218 87.7302 88.8634C87.6987 88.705 87.704 88.5415 87.7459 88.3855L88.5894 85.2566C88.6615 84.9872 88.8377 84.7574 89.0794 84.6179C89.3211 84.4783 89.6083 84.4403 89.878 84.5124C90.1477 84.5844 90.3777 84.7605 90.5174 85.0019C90.6571 85.2433 90.6951 85.5303 90.623 85.7997L89.7796 88.9398C89.7183 89.1618 89.5856 89.3575 89.4021 89.4968C89.2186 89.6361 88.9944 89.7113 88.7639 89.7108Z" fill="#C3C3C3"/>
<path d="M93.3994 72.4347C93.2379 72.4351 93.0784 72.3983 92.9334 72.3271C92.7883 72.2559 92.6617 72.1524 92.5632 72.0244C92.4648 71.8964 92.3972 71.7475 92.3656 71.5892C92.3341 71.4309 92.3395 71.2675 92.3815 71.1116L97.9902 50.1903L89.4888 35.4865L75.3316 31.6983C75.1929 31.6672 75.062 31.6085 74.9467 31.5256C74.8313 31.4427 74.734 31.3374 74.6604 31.2159C74.5869 31.0945 74.5387 30.9595 74.5187 30.8189C74.4988 30.6784 74.5075 30.5353 74.5443 30.3982C74.5812 30.2611 74.6454 30.1329 74.7331 30.0212C74.8208 29.9096 74.9302 29.8168 75.0548 29.7485C75.1793 29.6801 75.3164 29.6377 75.4578 29.6236C75.5991 29.6096 75.7419 29.6242 75.8775 29.6667L90.4552 33.5689C90.589 33.6042 90.7144 33.6657 90.8242 33.7497C90.934 33.8337 91.0261 33.9386 91.0951 34.0584L100.028 49.5153C100.167 49.7571 100.205 50.0437 100.133 50.3132L94.4106 71.6547C94.3512 71.8776 94.22 72.0747 94.0372 72.2157C93.8545 72.3567 93.6303 72.4336 93.3994 72.4347Z" fill="#C3C3C3"/>
<path d="M118.047 107.152C117.815 107.153 117.59 107.076 117.406 106.935C117.222 106.794 117.091 106.596 117.031 106.372L113.763 94.1808C113.691 93.9117 113.729 93.6251 113.868 93.3838C114.007 93.1425 114.236 92.9662 114.505 92.8934L126.707 89.6215C126.843 89.579 126.986 89.5643 127.127 89.5783C127.268 89.5924 127.405 89.6349 127.53 89.7032C127.654 89.7715 127.764 89.8643 127.852 89.976C127.939 90.0876 128.004 90.2159 128.04 90.3529C128.077 90.49 128.086 90.6331 128.066 90.7737C128.046 90.9142 127.998 91.0493 127.924 91.1707C127.851 91.2921 127.753 91.3975 127.638 91.4804C127.523 91.5633 127.392 91.622 127.253 91.653L116.067 94.6479L119.065 105.823C119.137 106.092 119.098 106.379 118.959 106.62C118.819 106.862 118.589 107.038 118.32 107.11C118.231 107.136 118.139 107.151 118.047 107.152Z" fill="#C3C3C3"/>
<path d="M77.0296 118.133C76.7753 118.131 76.5303 118.037 76.3396 117.869C76.149 117.701 76.0257 117.47 75.9924 117.218C75.9592 116.966 76.0182 116.71 76.1587 116.499C76.2992 116.287 76.5115 116.133 76.7567 116.065L117.353 105.197L125.855 90.4931L123.139 80.3621C123.103 80.2287 123.094 80.0896 123.112 79.9527C123.13 79.8158 123.175 79.6838 123.244 79.5643C123.314 79.4447 123.406 79.34 123.515 79.256C123.625 79.172 123.75 79.1104 123.884 79.0747C124.017 79.0391 124.157 79.03 124.294 79.0481C124.431 79.0662 124.563 79.1111 124.682 79.1802C124.802 79.2493 124.907 79.3413 124.991 79.4509C125.075 79.5605 125.137 79.6856 125.172 79.819L128.003 90.3702C128.074 90.6396 128.036 90.9263 127.897 91.168L118.964 106.627C118.895 106.747 118.803 106.852 118.693 106.936C118.583 107.02 118.458 107.081 118.324 107.117L77.3026 118.097C77.2135 118.121 77.1218 118.133 77.0296 118.133Z" fill="#C3C3C3"/>
<path d="M121.819 72.4481C121.587 72.4485 121.362 72.3725 121.178 72.2318C120.995 72.0912 120.863 71.8937 120.803 71.6703L114.519 48.2414C114.459 47.9764 114.505 47.6987 114.645 47.4663C114.786 47.2339 115.011 47.0649 115.274 46.9945C115.536 46.9241 115.816 46.9578 116.054 47.0885C116.292 47.2193 116.471 47.4369 116.552 47.696L122.837 71.125C122.878 71.2809 122.883 71.4441 122.852 71.6022C122.82 71.7604 122.752 71.9091 122.654 72.0369C122.555 72.1648 122.429 72.2684 122.284 72.3396C122.139 72.4109 121.98 72.448 121.819 72.4481Z" fill="#C3C3C3"/>
<path d="M113.588 41.769C113.357 41.7686 113.132 41.6923 112.948 41.5518C112.765 41.4112 112.633 41.2142 112.572 40.9912L109.25 28.6073C108.887 27.2619 108.004 26.1152 106.796 25.4185C105.588 24.7218 104.153 24.532 102.805 24.8906L76.2487 31.9978C75.979 32.0698 75.6917 32.0318 75.4501 31.8923C75.2084 31.7527 75.0321 31.5229 74.96 31.2535C74.8879 30.9841 74.9259 30.6972 75.0656 30.4557C75.2054 30.2143 75.4353 30.0382 75.705 29.9662L102.259 22.8591C104.146 22.3576 106.156 22.6238 107.847 23.5994C109.539 24.575 110.774 26.1805 111.284 28.0643L114.606 40.4526C114.648 40.6085 114.653 40.7719 114.622 40.9302C114.59 41.0885 114.523 41.2374 114.424 41.3654C114.326 41.4933 114.199 41.5969 114.054 41.6681C113.909 41.7392 113.749 41.7761 113.588 41.7757V41.769Z" fill="#C3C3C3"/>
<path d="M68.0205 69.1545C68.4975 67.4244 68.2439 65.7757 67.2597 64.2082C66.3131 62.6511 64.8433 61.5969 62.8505 61.0458C59.6167 60.1514 56.6009 60.815 53.803 63.0366L51.9201 59.2979C53.45 57.859 55.3326 56.9022 57.5679 56.4275C59.8135 55.9152 62.0832 55.9763 64.3769 56.6106C67.8739 57.5778 70.3971 59.2875 71.9467 61.74C73.5067 64.1548 73.9029 66.7538 73.1355 69.5369C72.6481 71.3046 71.9169 72.7822 70.942 73.9698C70.6879 74.3043 70.4202 74.6148 70.1388 74.9012C69.8575 75.1877 69.5385 75.4638 69.182 75.7295C68.8358 75.9576 68.5376 76.1585 68.2874 76.3321C68.0851 76.4786 67.7493 76.6691 67.28 76.9036C66.821 77.1004 66.4956 77.2533 66.3037 77.3621C66.1598 77.4438 65.8103 77.6102 65.2554 77.8615C64.7109 78.0752 64.3718 78.2041 64.2383 78.2481C63.9608 78.3738 63.5686 78.5487 63.0616 78.7727C62.6027 78.9696 62.2344 79.1309 61.957 79.2566C61.7171 79.3926 61.3865 79.5643 60.9651 79.7716C60.5437 79.9788 60.2079 80.1693 59.9577 80.343C59.7075 80.5166 59.4229 80.7415 59.104 81.0176C58.785 81.2937 58.5277 81.5666 58.3319 81.8363C58.1737 82.1163 57.9864 82.4288 57.7699 82.7737C57.591 83.129 57.4393 83.5323 57.3149 83.9837C57.2384 84.4078 57.1703 84.8747 57.1107 85.3844L53.0342 84.3177C53.3425 80.5576 54.9988 78 58.0029 76.6451C58.4618 76.4482 59.2119 76.1496 60.253 75.7495C61.3421 75.3221 62.1881 74.9691 62.791 74.6906C63.4043 74.3745 64.1051 73.9611 64.8934 73.4505C65.7193 72.9504 66.3727 72.3418 66.8537 71.6247C67.3723 70.9181 67.7612 70.0947 68.0205 69.1545ZM49.6039 92.3551C49.8321 91.5276 50.3247 90.9151 51.0819 90.5173C51.8495 90.0819 52.7221 89.9995 53.6997 90.2698C54.4894 90.4882 55.102 90.9815 55.5377 91.7496C55.9734 92.5178 56.0824 93.2967 55.8646 94.0866C55.6157 94.9892 55.1211 95.6822 54.3808 96.1656C53.6509 96.6113 52.8535 96.7146 51.9886 96.4754C51.011 96.2051 50.3043 95.6858 49.8686 94.9176C49.4433 94.1119 49.3551 93.2577 49.6039 92.3551Z" fill="#C3C3C3"/>
</g>
<defs>
<clipPath id="clip0">
<rect width="148.8" height="128" fill="white"/>
</clipPath>
</defs>
</svg>
