<svg width="44" height="44" viewBox="0 0 44 44" fill="none" xmlns="http://www.w3.org/2000/svg">
<g clip-path="url(#clip0)">
<path d="M21.995 10.3151H24.7445C25.1242 10.3151 25.432 10.0073 25.432 9.62758C25.432 9.2479 25.1242 8.94006 24.7445 8.94006H21.995C21.6153 8.94006 21.3075 9.2479 21.3075 9.62758C21.3075 10.0073 21.6153 10.3151 21.995 10.3151Z" fill="#7F94A8"/>
<path d="M24.7445 28.1862H21.995C21.6153 28.1862 21.3075 28.494 21.3075 28.8737C21.3075 29.2534 21.6153 29.5612 21.995 29.5612H24.7445C25.1242 29.5612 25.432 29.2534 25.432 28.8737C25.432 28.494 25.1243 28.1862 24.7445 28.1862Z" fill="#7F94A8"/>
<path d="M10.3213 28.1862H7.5718C7.19212 28.1862 6.88428 28.494 6.88428 28.8737C6.88428 29.2534 7.19212 29.5612 7.5718 29.5612H10.3213C10.701 29.5612 11.0088 29.2534 11.0088 28.8737C11.0088 28.494 10.701 28.1862 10.3213 28.1862Z" fill="#7F94A8"/>
<path d="M43.9431 34.9362L42.2464 27.9842C41.9919 26.9411 40.9515 26.1241 39.8778 26.1241H37.0937C37.1436 25.865 37.1368 25.5888 37.0695 25.3131L35.3729 18.361C35.1183 17.318 34.0779 16.5008 33.0043 16.5008H29.5215C29.5713 16.2417 29.5644 15.9657 29.4971 15.6898L27.8005 8.73777C27.5459 7.69472 26.5056 6.87769 25.4319 6.87769H18.5583C17.4852 6.87769 16.444 7.69412 16.1881 8.7364L14.4809 15.6892C14.4131 15.9652 14.4059 16.2415 14.4555 16.5007H11.0086C9.93542 16.5007 8.89426 17.3171 8.63841 18.3594L6.93121 25.3123C6.86341 25.5882 6.85627 25.8645 6.90586 26.1237H4.13498C3.06176 26.1237 2.02059 26.9402 1.76475 27.9824L0.057631 34.9357C-0.0790139 35.4922 0.0299582 36.0503 0.356617 36.4667C0.68319 36.8833 1.19926 37.1222 1.77222 37.1222H13.3571C13.93 37.1222 14.446 36.8834 14.773 36.467C14.7742 36.4654 14.7752 36.4638 14.7764 36.4622C14.7776 36.4637 14.7786 36.4653 14.7797 36.4667C15.1064 36.8833 15.6223 37.1222 16.1954 37.1222H27.7803C28.3532 37.1222 28.8692 36.8834 29.1963 36.467C29.2014 36.4604 29.206 36.4535 29.2111 36.4468C29.2161 36.4534 29.2207 36.4602 29.2258 36.4667C29.5525 36.8833 30.0685 37.1222 30.6414 37.1222H42.2263C42.7992 37.1222 43.3152 36.8834 43.6422 36.467C43.9692 36.0506 44.0789 35.4927 43.9431 34.9362ZM34.0369 18.6871L35.7335 25.6391C35.7691 25.785 35.7526 25.9112 35.6871 25.9947C35.6216 26.0782 35.5028 26.1242 35.3527 26.1242H33.0042H25.4318H23.7678C23.6178 26.1242 23.4993 26.0784 23.4341 25.9953C23.369 25.9121 23.3527 25.7862 23.3885 25.6405L25.0957 18.6877C25.2 18.263 25.6932 17.8761 26.1306 17.8761H27.7803H33.0042C33.4411 17.8761 33.9334 18.2626 34.0369 18.6871ZM29.2128 33.7711L27.8004 27.9843C27.7592 27.8156 27.6957 27.6536 27.6165 27.4992H30.818C30.739 27.6532 30.6753 27.8146 30.634 27.9829L29.2128 33.7711ZM22 25.6608C21.9928 25.5457 21.9758 25.4294 21.9475 25.3131L20.2508 18.3611C20.2097 18.1923 20.146 18.0304 20.0668 17.876H23.9444C23.8653 18.03 23.8016 18.1914 23.7604 18.3596L22.0532 25.3125C22.0245 25.4291 22.0074 25.5455 22 25.6608ZM21.9999 25.9C22.0047 25.9758 22.0138 26.0507 22.0278 26.1241H21.9717C21.9859 26.0507 21.995 25.9758 21.9999 25.9ZM15.8618 16.3721C15.7966 16.289 15.7804 16.163 15.8161 16.0174L17.5233 9.06452C17.6277 8.63989 18.1209 8.25307 18.5582 8.25307H25.4318C25.8687 8.25307 26.361 8.63963 26.4646 9.06409L28.1612 16.0161C28.1968 16.162 28.1803 16.2883 28.1148 16.3718C28.0492 16.4552 27.9304 16.5012 27.7803 16.5012H26.1306H17.8822H16.1954C16.0454 16.501 15.927 16.4553 15.8618 16.3721ZM8.31227 25.9953C8.24704 25.9121 8.23089 25.7862 8.26664 25.6405L9.97384 18.6876C10.0781 18.263 10.5714 17.8761 11.0087 17.8761H16.1956H17.8824C18.3193 17.8761 18.8116 18.2627 18.9151 18.6872L20.6118 25.6393C20.6474 25.7851 20.6308 25.9115 20.5654 25.9949C20.4998 26.0784 20.381 26.1243 20.2309 26.1243H18.5584H11.0088H8.64598C8.49584 26.1242 8.37741 26.0784 8.31227 25.9953ZM14.7782 33.7247L13.3772 27.9842C13.336 27.8155 13.2724 27.6536 13.1932 27.4991H16.372C16.2929 27.6531 16.2293 27.8145 16.188 27.9828L14.7782 33.7247ZM13.6915 35.6177C13.626 35.7012 13.5072 35.7471 13.357 35.7471H1.77214C1.62217 35.7471 1.50375 35.7014 1.43852 35.6182C1.37338 35.5351 1.35713 35.4091 1.39288 35.2636L3.10009 28.3107C3.20433 27.886 3.69754 27.4992 4.13489 27.4992H8.64572H11.0086C11.4455 27.4992 11.9377 27.8858 12.0413 28.3102L13.7379 35.2623C13.7735 35.408 13.7571 35.5344 13.6915 35.6177ZM28.1148 35.6177C28.0492 35.7012 27.9304 35.7471 27.7803 35.7471H16.1954C16.0454 35.7471 15.9269 35.7014 15.8618 35.6182C15.7966 35.5351 15.7804 35.4091 15.8161 35.2636L17.5233 28.3107C17.6277 27.886 18.1209 27.4992 18.5582 27.4992H20.2307H23.7678H25.4318C25.8687 27.4992 26.361 27.8858 26.4646 28.3102L28.1612 35.2623C28.1969 35.408 28.1804 35.5344 28.1148 35.6177ZM42.5608 35.6177C42.4952 35.7012 42.3765 35.7471 42.2263 35.7471H30.6414C30.4915 35.7471 30.3729 35.7014 30.3078 35.6182C30.2427 35.5351 30.2264 35.4091 30.2622 35.2636L31.9694 28.3107C32.0737 27.886 32.5669 27.4992 33.0043 27.4992H35.3527H39.8779C40.3148 27.4992 40.8071 27.8858 40.9107 28.3102L42.6073 35.2623C42.6428 35.408 42.6263 35.5344 42.5608 35.6177Z" fill="#7F94A8"/>
<path d="M39.1905 28.1862H36.4411C36.0614 28.1862 35.7535 28.494 35.7535 28.8737C35.7535 29.2534 36.0614 29.5612 36.4411 29.5612H39.1905C39.5702 29.5612 39.8781 29.2534 39.8781 28.8737C39.8781 28.494 39.5702 28.1862 39.1905 28.1862Z" fill="#7F94A8"/>
<path d="M14.4453 19.9382H17.1948C17.5745 19.9382 17.8823 19.6303 17.8823 19.2506C17.8823 18.8709 17.5745 18.5631 17.1948 18.5631H14.4453C14.0657 18.5631 13.7578 18.8709 13.7578 19.2506C13.7578 19.6303 14.0657 19.9382 14.4453 19.9382Z" fill="#7F94A8"/>
<path d="M29.5674 19.9382H32.3168C32.6965 19.9382 33.0043 19.6303 33.0043 19.2506C33.0043 18.8709 32.6965 18.5631 32.3168 18.5631H29.5674C29.1877 18.5631 28.8799 18.8709 28.8799 19.2506C28.8799 19.6303 29.1876 19.9382 29.5674 19.9382Z" fill="#7F94A8"/>
</g>
<defs>
<clipPath id="clip0">
<rect width="44" height="44" fill="white"/>
</clipPath>
</defs>
</svg>
