<svg width="44" height="44" viewBox="0 0 44 44" fill="none" xmlns="http://www.w3.org/2000/svg">
<g clip-path="url(#clip0)">
<path d="M43.3555 9.68164H37.7438L35.3375 4.46394C35.1914 4.14378 34.7961 3.99668 34.4781 4.14378L32.1234 5.2427L24.9906 0.111529C24.707 -0.0961409 24.2945 -0.0269177 24.0883 0.267281L17.4195 9.68164H0.644531C0.283594 9.68164 0 9.97584 0 10.3306V33.6675C0 34.0223 0.292188 34.3165 0.644531 34.3165H6.25625L8.6625 39.5342C8.80859 39.8543 9.19531 40.0014 9.52188 39.8543L11.8766 38.7554L19.0094 43.8866C19.293 44.0942 19.7055 44.025 19.9117 43.7308L26.5805 34.3165H43.3469C43.7078 34.3165 43.9914 34.0223 43.9914 33.6675V10.3306C44 9.97584 43.7078 9.68164 43.3555 9.68164ZM34.4352 5.59747L36.3172 9.68164H25.6867L34.4352 5.59747ZM24.7672 1.55656L30.7828 5.87436L22.6273 9.68164H19.0094L24.7672 1.55656ZM15.125 28.4671V32.9407C15.125 32.9666 15.125 32.9926 15.1336 33.0185H11.2578C11.2578 32.9926 11.2664 32.9666 11.2664 32.9407V28.4671V27.2557V10.9796H15.1336V27.2557V28.4671H15.125ZM1.28906 33.0185V10.9796H10.0547V27.2557H6.1875C5.85234 27.2557 5.58594 27.5239 5.58594 27.8614C5.58594 28.1989 5.85234 28.4671 6.1875 28.4671H10.0547V32.9407C10.0547 32.9666 10.0547 32.9926 10.0633 33.0185H1.28906ZM9.56485 38.4006L7.68281 34.3165H18.3133L9.56485 38.4006ZM19.2328 42.4502L13.2172 38.1324L21.3727 34.3251H24.9906L19.2328 42.4502ZM42.7109 33.0185H16.3281C16.3281 32.9926 16.3367 32.9666 16.3367 32.9407V28.4671H27.3367C27.6719 28.4671 27.9383 28.1989 27.9383 27.8614C27.9383 27.5239 27.6719 27.2557 27.3367 27.2557H16.3281V10.9796H17.7461H37.3227H42.7109V33.0185ZM31.7195 18.6461H32.8453V14.7176H36.0766C37.9156 14.7176 38.9469 15.6521 38.9469 17.2616C38.9469 18.8797 37.9156 19.8402 36.0766 19.8402H34.2203V20.6362H36.6953V21.389H34.2203V23.0677H32.8453V21.389H31.7195V20.6362H32.8453V19.8402H31.7195V18.6461ZM35.8789 18.6461C37.1078 18.6461 37.5719 18.1182 37.5719 17.2616C37.5719 16.4049 37.1078 15.9031 35.8789 15.9031H34.2203V18.6461H35.8789Z" fill="#7F94A8"/>
</g>
<defs>
<clipPath id="clip0">
<rect width="44" height="44" fill="white"/>
</clipPath>
</defs>
</svg>
