<svg width="44" height="44" viewBox="0 0 44 44" fill="none" xmlns="http://www.w3.org/2000/svg">
<path d="M18 12.4219C16.3458 12.4219 15 13.7677 15 15.4219C15 17.0761 16.3458 18.4219 18 18.4219C19.6542 18.4219 21 17.0761 21 15.4219C21 13.7677 19.6542 12.4219 18 12.4219ZM18 16.4219C17.4486 16.4219 17 15.9733 17 15.4219C17 14.8705 17.4486 14.4219 18 14.4219C18.5514 14.4219 19 14.8705 19 15.4219C19 15.9733 18.5514 16.4219 18 16.4219Z" fill="#7F94A8"/>
<path d="M26 20.4219C24.3458 20.4219 23 21.7677 23 23.4219C23 25.0761 24.3458 26.4219 26 26.4219C27.6542 26.4219 29 25.0761 29 23.4219C29 21.7677 27.6542 20.4219 26 20.4219ZM26 24.4219C25.4486 24.4219 25 23.9733 25 23.4219C25 22.8705 25.4486 22.4219 26 22.4219C26.5514 22.4219 27 22.8705 27 23.4219C27 23.9733 26.5514 24.4219 26 24.4219Z" fill="#7F94A8"/>
<path d="M26.5546 12.5898C26.0952 12.2835 25.4742 12.4076 25.1679 12.8671L17.1679 24.8672C16.8616 25.3267 16.9858 25.9476 17.4453 26.2539C17.9047 26.5602 18.5256 26.4362 18.832 25.9766L26.832 13.9765C27.1384 13.517 27.0142 12.8962 26.5546 12.5898Z" fill="#7F94A8"/>
<path d="M39.4884 23.894C39.3066 23.4568 38.8797 23.1719 38.4062 23.1719H34.8906V3.17188C34.8906 2.52469 34.3659 2 33.7187 2H10.2812C9.63403 2 9.10935 2.52469 9.10935 3.17188V23.1719H5.59372C5.12021 23.1719 4.69333 23.4568 4.51153 23.894C4.32981 24.3312 4.42903 24.8348 4.7631 25.1704L21.1693 41.6548C21.3893 41.8758 21.6882 42 22 42C22.3118 42 22.6107 41.8758 22.8306 41.6548L39.2368 25.1704C39.5708 24.8348 39.67 24.3312 39.4884 23.894ZM22 39.1669L8.41341 25.5156H10.2812C10.9284 25.5156 11.4531 24.9909 11.4531 24.3438V4.34375H32.5468V24.3438C32.5468 24.9909 33.0715 25.5156 33.7187 25.5156H35.5865L22 39.1669Z" fill="#7F94A8"/>
</svg>
