<svg width="56" height="56" viewBox="0 0 56 56" fill="none" xmlns="http://www.w3.org/2000/svg">
<path d="M32.397 13.0044V9.23929C32.397 2.01114 3.81818 2.01114 3.81818 9.23929V31.2614C3.81818 34.1029 8.26607 35.8742 13.617 36.5039C11.6598 37.3817 10.4133 38.5674 10.4133 40.0703V46.6769C10.4133 50.291 17.602 52.1824 24.7028 52.1824C31.8036 52.1824 38.9922 50.2909 38.9922 46.6769V43.3553C45.7166 43.1705 52.1825 41.2956 52.1825 37.8681V18.0482C52.1824 13.485 40.7959 11.806 32.397 13.0044ZM18.1076 6.01654C25.9308 6.01654 30.1987 8.19448 30.1987 9.3141C30.1987 10.4337 25.9307 12.6117 18.1076 12.6117C10.2846 12.6117 6.01662 10.4337 6.01662 9.3141C6.01652 8.19458 10.2845 6.01654 18.1076 6.01654ZM6.01652 12.3729C8.68373 13.9782 13.4082 14.8101 18.1075 14.8101C22.8069 14.8101 27.5315 13.9782 30.1987 12.3729V13.4652C26.3788 14.3124 23.6035 15.8595 23.6035 18.1077V18.758C21.8809 19.0344 20.0214 19.2068 18.1076 19.2068C10.2845 19.2068 6.01662 17.0289 6.01662 15.9092V12.3729H6.01652ZM25.8019 34.3566C26.0111 34.4824 26.2287 34.6048 26.4623 34.721C26.2423 34.7118 26.0227 34.7029 25.8019 34.6971V34.3566ZM6.01652 18.968C8.68373 20.5733 13.4082 21.4052 18.1075 21.4052C20.0102 21.4052 21.8596 21.2344 23.6034 20.9739V26.4524C21.8808 26.7287 20.0213 26.9011 18.1075 26.9011C10.2844 26.9011 6.01652 24.7232 6.01652 23.6036V18.968ZM6.01652 31.2979V26.6624C8.68373 28.2677 13.4082 29.0996 18.1075 29.0996C20.0102 29.0996 21.8596 28.9287 23.6034 28.6682V34.1467C21.8808 34.4231 20.0213 34.5955 18.1075 34.5955C10.2845 34.5955 6.01652 32.4174 6.01652 31.2979ZM36.7938 46.6865C36.7938 47.8061 32.5258 49.9841 24.7028 49.9841C16.8797 49.9841 12.6116 47.8061 12.6116 46.6865V43.1501C15.2789 44.7554 20.0033 45.5873 24.7027 45.5873C29.2009 45.5873 33.7284 44.827 36.4472 43.3543C36.5614 43.3586 36.679 43.3592 36.7937 43.3627V46.6865H36.7938ZM24.7028 43.3889C16.8796 43.3889 12.6117 41.211 12.6117 40.0914C12.6117 38.9718 16.8797 36.7938 24.7028 36.7938C32.5258 36.7938 36.7938 38.9718 36.7938 40.0914C36.7938 41.211 32.5258 43.3889 24.7028 43.3889ZM49.984 37.893C49.984 38.9569 46.0892 40.9544 38.9921 41.1525V40.0914C38.9921 38.718 37.9529 37.608 36.2765 36.7574C36.814 36.7792 37.3531 36.7938 37.8929 36.7938C42.5922 36.7938 47.3168 35.9619 49.9839 34.3566V37.893H49.984ZM49.984 31.2979C49.984 32.4175 45.7161 34.5955 37.893 34.5955C30.07 34.5955 25.802 32.4175 25.802 31.2979V27.7615C28.4691 29.3668 33.1937 30.1987 37.893 30.1987C42.5923 30.1987 47.3169 29.3668 49.984 27.7615V31.2979ZM49.984 24.7028C49.984 25.8224 45.7161 28.0004 37.893 28.0004C30.07 28.0004 25.802 25.8224 25.802 24.7028V21.1664C28.4691 22.7717 33.1937 23.6036 37.893 23.6036C42.5923 23.6036 47.3169 22.7717 49.984 21.1664V24.7028ZM37.893 21.4052C30.0699 21.4052 25.802 19.2273 25.802 18.1077C25.802 16.988 30.07 14.8101 37.893 14.8101C45.7161 14.8101 49.984 16.988 49.984 18.1077C49.984 19.2273 45.7161 21.4052 37.893 21.4052Z" fill="#7F94A8"/>
</svg>
