<svg width="56" height="56" viewBox="0 0 56 56" fill="none" xmlns="http://www.w3.org/2000/svg">
<path fill-rule="evenodd" clip-rule="evenodd" d="M45.8165 11.4747C45.8161 11.4631 45.8157 11.4515 45.8149 11.4399C45.8116 11.3939 45.807 11.3488 45.7979 11.3041C45.7979 11.3041 45.7979 11.3041 45.7979 11.3036C45.7888 11.2589 45.7759 11.2146 45.7614 11.1715C45.7577 11.1607 45.754 11.15 45.7498 11.1392C45.7345 11.0982 45.7171 11.058 45.6972 11.0191C45.696 11.017 45.6952 11.0149 45.6939 11.0129C45.6724 10.9723 45.6475 10.9338 45.6206 10.8961C45.614 10.8865 45.6069 10.8774 45.5999 10.8679C45.5713 10.8306 45.5415 10.7946 45.5079 10.761L35.9126 1.16569C35.8791 1.13214 35.843 1.10232 35.8057 1.07374C35.7962 1.0667 35.7867 1.05924 35.7772 1.05261C35.7395 1.02569 35.7014 1.00084 35.6612 0.979716C35.6583 0.978059 35.6554 0.97723 35.6529 0.975574C35.6148 0.955692 35.575 0.93871 35.5349 0.923384C35.5237 0.919242 35.5129 0.915515 35.5013 0.911787C35.4582 0.89729 35.4147 0.88445 35.3696 0.875337C35.3692 0.875337 35.3688 0.875337 35.3688 0.875337C35.3244 0.866639 35.2793 0.861669 35.2337 0.858355C35.2221 0.857941 35.2105 0.857112 35.1989 0.856698C35.1869 0.856284 35.1749 0.855042 35.1629 0.855042H11.1389C10.5533 0.855042 10.0786 1.32971 10.0786 1.91539V47.3009C10.0786 47.8866 10.5533 48.3612 11.1389 48.3612H27.103V54.0846C27.103 54.4703 27.3126 54.8256 27.6502 55.0124C27.9881 55.1992 28.4003 55.1881 28.7271 54.983L32.7655 52.4494L36.804 54.983C36.9759 55.0907 37.1718 55.145 37.3677 55.145C37.5441 55.145 37.721 55.1011 37.8809 55.0129C38.2185 54.8261 38.428 54.4707 38.428 54.0846V48.3612H44.7578C45.3435 48.3612 45.8182 47.8866 45.8182 47.3009V11.5107C45.8182 11.4987 45.8169 11.4867 45.8165 11.4747ZM36.2233 4.47556L42.1981 10.4504H36.2233V4.47556ZM26.5799 33.6062C26.5053 33.4037 26.384 33.0727 26.3811 32.9373C26.4639 32.8346 26.7513 32.6527 26.9274 32.5417C27.3051 32.3031 27.7334 32.0322 28.0441 31.6089C28.3576 31.1811 28.4852 30.6869 28.5978 30.2512C28.6471 30.0607 28.7267 29.7529 28.7946 29.6365C28.8319 29.6286 28.9102 29.6175 29.0572 29.6175C29.1752 29.6175 29.3074 29.6241 29.4474 29.6311C29.6081 29.639 29.7738 29.6473 29.9469 29.6473C30.3288 29.6473 30.637 29.6042 30.9165 29.511C31.4049 29.3486 31.7955 29.0343 32.1401 28.7568C32.3306 28.6035 32.6495 28.3467 32.7606 28.331C32.8819 28.3467 33.2004 28.6035 33.391 28.7568C33.7356 29.0343 34.1266 29.3486 34.6149 29.511C34.8945 29.6042 35.2023 29.6473 35.5846 29.6473C35.7573 29.6473 35.9234 29.639 36.0837 29.6311C36.2237 29.6241 36.3558 29.6175 36.4743 29.6175C36.6213 29.6175 36.6992 29.6282 36.7369 29.6365C36.8048 29.7529 36.8843 30.0607 36.9332 30.2512C37.0459 30.6869 37.1738 31.1811 37.4874 31.6089C37.7976 32.0322 38.2259 32.3027 38.6041 32.5417C38.7797 32.6531 39.0672 32.8346 39.15 32.9373C39.1471 33.0727 39.0257 33.4037 38.9516 33.6062C38.7938 34.0357 38.6153 34.5228 38.6153 35.0625C38.6153 35.6022 38.7938 36.0893 38.9512 36.5193C39.0257 36.7218 39.1471 37.0528 39.15 37.1882C39.0672 37.2909 38.7797 37.4723 38.6041 37.5838C38.2259 37.8223 37.7976 38.0932 37.4874 38.5165C37.1738 38.9444 37.0459 39.4385 36.9332 39.8743C36.8843 40.0644 36.8044 40.3726 36.7369 40.489C36.6992 40.4968 36.6213 40.508 36.4743 40.508C36.3558 40.508 36.2237 40.5014 36.0837 40.4943C35.9234 40.4865 35.7573 40.4782 35.5846 40.4782C35.2023 40.4782 34.8945 40.5213 34.6149 40.6145C34.1266 40.7768 33.7356 41.0916 33.391 41.3687C33.2033 41.5203 32.8902 41.7717 32.7655 41.7941C32.6408 41.7717 32.3281 41.5203 32.1405 41.3687C31.7955 41.0916 31.4049 40.7768 30.9165 40.6145C30.637 40.5213 30.3288 40.4782 29.9469 40.4782C29.7742 40.4782 29.6081 40.4865 29.4474 40.4943C29.3078 40.5014 29.1757 40.508 29.0572 40.508C28.9102 40.508 28.8323 40.4968 28.7946 40.489C28.7267 40.3726 28.6471 40.0648 28.5978 39.8743C28.4856 39.4385 28.3576 38.9444 28.0441 38.5165C27.7338 38.0932 27.3055 37.8223 26.9274 37.5838C26.7518 37.4728 26.4643 37.2909 26.3815 37.1882C26.3844 37.0532 26.5057 36.7218 26.5799 36.5193C26.7377 36.0897 26.9162 35.6026 26.9162 35.0629C26.9162 34.5228 26.7373 34.0357 26.5799 33.6062ZM36.3073 52.1677L33.3292 50.2993C32.9846 50.0835 32.5464 50.0835 32.2018 50.2993L29.2237 52.1677V42.6254C29.3364 42.6221 29.447 42.6179 29.5542 42.6126C29.6946 42.6051 29.8272 42.5985 29.9469 42.5985C30.1349 42.5985 30.2153 42.6159 30.2464 42.6262C30.3727 42.6685 30.6154 42.864 30.8105 43.021C31.3055 43.4194 31.9214 43.9152 32.7655 43.9152C33.6097 43.9152 34.2256 43.4194 34.7205 43.021C34.9156 42.864 35.1584 42.6685 35.2843 42.6266C35.3157 42.6163 35.3961 42.5989 35.5841 42.5989C35.7039 42.5989 35.8364 42.6055 35.9768 42.6126C36.0841 42.6179 36.1947 42.6225 36.3069 42.6254V52.1677H36.3073ZM38.428 46.2405V41.7709C38.7432 41.3426 38.875 40.8356 38.9864 40.4049C39.0448 40.1787 39.1247 39.8693 39.1976 39.7703C39.2701 39.6709 39.5398 39.5007 39.7365 39.3764C40.2584 39.0467 40.9079 38.6362 41.1659 37.86C41.421 37.0942 41.1555 36.3706 40.9422 35.789C40.8453 35.5252 40.7355 35.2257 40.7355 35.0625C40.7355 34.8993 40.8453 34.6003 40.9422 34.3364C41.1555 33.7549 41.421 33.0309 41.1659 32.265C40.9079 31.4892 40.2584 31.0788 39.7365 30.7491C39.5398 30.6248 39.2701 30.4541 39.1976 30.3556C39.1247 30.2562 39.0448 29.9468 38.9864 29.7206C38.834 29.1304 38.6443 28.3956 37.9948 27.9192C37.4779 27.5407 36.8793 27.4968 36.4738 27.4968C36.3024 27.4968 36.1367 27.505 35.9768 27.5133C35.8364 27.5204 35.7039 27.527 35.5846 27.527C35.3961 27.527 35.3157 27.5096 35.2847 27.4992C35.1588 27.4574 34.916 27.2619 34.721 27.1045C34.2256 26.7065 33.6097 26.2107 32.7655 26.2107C31.9218 26.2107 31.3055 26.7065 30.8105 27.1045C30.6154 27.2615 30.3727 27.4574 30.2468 27.4992C30.2157 27.5096 30.1349 27.527 29.9469 27.527C29.8276 27.527 29.6946 27.5204 29.5542 27.5129C29.3944 27.505 29.2291 27.4968 29.0572 27.4968C28.6521 27.4968 28.0536 27.5407 27.5371 27.9192C26.8872 28.3956 26.6971 29.1304 26.5447 29.7206C26.4863 29.9468 26.4063 30.2562 26.3338 30.3552C26.2609 30.4541 25.9913 30.6248 25.7945 30.7491C25.2727 31.0788 24.6236 31.4892 24.3651 32.265C24.11 33.0313 24.3755 33.7549 24.5888 34.3364C24.6857 34.6003 24.7955 34.8993 24.7955 35.0625C24.7955 35.2257 24.6857 35.5252 24.5888 35.789C24.3755 36.3706 24.11 37.0942 24.3651 37.8604C24.6236 38.6362 25.2731 39.0467 25.7945 39.3764C25.9917 39.5007 26.2609 39.6713 26.3338 39.7703C26.4063 39.8693 26.4863 40.1787 26.5447 40.4049C26.6561 40.8356 26.7882 41.343 27.1034 41.7709V46.2405H12.1993V2.97574H34.1026V11.5107C34.1026 12.0964 34.5772 12.5711 35.1629 12.5711H43.6975V46.2405H38.428Z" fill="#7F94A8"/>
<path fill-rule="evenodd" clip-rule="evenodd" d="M16.3201 12.571H29.9813C30.5665 12.571 31.0416 12.0963 31.0416 11.5107C31.0416 10.925 30.5665 10.4503 29.9813 10.4503H16.3201C15.7344 10.4503 15.2598 10.925 15.2598 11.5107C15.2598 12.0963 15.7349 12.571 16.3201 12.571Z" fill="#7F94A8"/>
<path fill-rule="evenodd" clip-rule="evenodd" d="M39.6951 15.8027H16.3201C15.7344 15.8027 15.2598 16.2774 15.2598 16.8631C15.2598 17.4488 15.7344 17.9234 16.3201 17.9234H39.6951C40.2808 17.9234 40.7554 17.4488 40.7554 16.8631C40.7554 16.2774 40.2808 15.8027 39.6951 15.8027Z" fill="#7F94A8"/>
<path fill-rule="evenodd" clip-rule="evenodd" d="M35.4537 21.155H16.3201C15.7344 21.155 15.2598 21.6301 15.2598 22.2153C15.2598 22.801 15.7344 23.2757 16.3201 23.2757H35.4537C36.0394 23.2757 36.514 22.801 36.514 22.2153C36.514 21.6301 36.0394 21.155 35.4537 21.155Z" fill="#7F94A8"/>
<path fill-rule="evenodd" clip-rule="evenodd" d="M39.6951 21.155C39.1111 21.155 38.6348 21.6313 38.6348 22.2153C38.6348 22.7993 39.1111 23.2757 39.6951 23.2757C40.2796 23.2757 40.7555 22.7993 40.7555 22.2153C40.7555 21.6313 40.2796 21.155 39.6951 21.155Z" fill="#7F94A8"/>
</svg>
