<svg width="56" height="56" viewBox="0 0 56 56" fill="none" xmlns="http://www.w3.org/2000/svg">
<path d="M20.4053 17.4073C15.555 17.4073 11.6234 21.3389 11.6234 26.1889C11.6234 31.0388 15.555 34.9708 20.4049 34.9708C25.2552 34.9708 29.1868 31.0388 29.1868 26.1889C29.1812 21.3411 25.2526 17.4129 20.4053 17.4073ZM20.4053 33.2069C16.5292 33.2074 13.3868 30.0649 13.3868 26.1889C13.3868 22.3128 16.5288 19.1708 20.4049 19.1708C24.2809 19.1708 27.4234 22.3128 27.4234 26.1889C27.4186 30.0628 24.2792 33.2022 20.4053 33.2065V33.2069Z" fill="#7F94A8"/>
<path d="M23.2687 23.1575C22.303 22.4221 21.2263 22.0678 20.1517 22.1345C18.1079 22.2624 16.4792 23.8915 16.3514 25.9353C16.2851 27.0086 16.639 28.0862 17.3743 29.0519C17.4221 29.1152 17.4785 29.1711 17.5414 29.2193C18.4308 29.8966 19.415 30.25 20.4035 30.25C20.4883 30.25 20.5736 30.2474 20.6584 30.2423C22.7021 30.1144 24.3308 28.4853 24.4591 26.442C24.525 25.3683 24.1715 24.2906 23.4357 23.325C23.3879 23.2617 23.3315 23.2057 23.2687 23.1575ZM22.0301 27.8132C21.3627 28.481 20.1 28.8883 18.7059 27.8873C17.705 26.4937 18.1127 25.2313 18.78 24.5636C19.4473 23.8958 20.7096 23.4886 22.1041 24.4895C23.1051 25.8827 22.6978 27.1459 22.0301 27.8132Z" fill="#7F94A8"/>
<path d="M53.6279 21.6506C54.1149 21.6506 54.4545 21.2748 54.4545 20.7878V16.1588C54.4545 15.6718 54.1149 15.2581 53.6279 15.2581H53.0217V10.7014C53.0217 8.11003 51.0478 6 48.5533 6H5.57868C3.08419 6 1 8.11003 1 10.7014V41.6754C1 44.2668 3.08419 46.3389 5.57868 46.3389H6.51078V48.7636C6.51078 49.2506 6.90557 49.6454 7.3925 49.6454H18.4141C18.901 49.6454 19.2958 49.2506 19.2958 48.7636V46.3389H35.1668V48.7636C35.1668 49.2506 35.5616 49.6454 36.0485 49.6454H47.0701C47.557 49.6454 47.9518 49.2506 47.9518 48.7636V46.3389H48.5533C51.0478 46.3389 53.0217 44.2668 53.0217 41.6754V37.0808H53.6279C54.1149 37.0808 54.4545 36.7049 54.4545 36.218V31.589C54.4545 31.102 54.1149 30.6883 53.6279 30.6883H53.0217V21.6506H53.6279ZM52.6911 32.4517V35.3173H46.8497V32.4517H52.6911ZM45.9679 30.6883C45.4771 30.6973 45.0849 31.0982 45.0862 31.589V36.218C45.0871 36.4501 45.1809 36.6718 45.3463 36.8341C45.512 36.996 45.7359 37.0851 45.9679 37.0808H46.4088V38.4934C46.4088 39.0599 46.036 39.5055 45.5185 39.5055H8.61348C8.09556 39.5055 7.72315 39.0599 7.72315 38.4934V13.8834C7.72315 13.3168 8.09599 12.8334 8.61348 12.8334H45.5185C46.0364 12.8334 46.4088 13.3168 46.4088 13.8834V15.2581H45.9679C45.4771 15.2671 45.0849 15.668 45.0862 16.1588V20.7878C45.0871 21.0199 45.1809 21.2416 45.3463 21.4039C45.512 21.5658 45.7359 21.6549 45.9679 21.6506H46.4088V30.6883H45.9679ZM46.8497 19.8872V17.0216H52.6911V19.8872H46.8497ZM17.5323 47.8819H8.27423V46.3389H17.5323V47.8819ZM46.1884 47.8819H36.9303V46.3389H46.1884V47.8819ZM51.2583 41.6754C51.2583 43.2946 50.0752 44.5754 48.5533 44.5754H5.57868C4.05676 44.5754 2.76345 43.2946 2.76345 41.6754V10.7014C2.76345 9.08216 4.05676 7.76345 5.57868 7.76345H48.5533C50.0752 7.76345 51.2583 9.08216 51.2583 10.7014V15.2581H48.1723V13.8834C48.1723 12.3443 47.0085 11.0699 45.5185 11.0699H8.61348C7.12342 11.0699 5.9597 12.3443 5.9597 13.8834V38.4934C5.9597 40.0325 7.12342 41.269 8.61348 41.269H45.5185C47.0085 41.269 48.1723 40.0325 48.1723 38.4934V37.0808H51.2583V41.6754ZM51.2583 30.6883H48.1723V21.6506H51.2583V30.6883Z" fill="#7F94A8"/>
</svg>
