<svg width="44" height="44" viewBox="0 0 44 44" fill="none" xmlns="http://www.w3.org/2000/svg">
<g clip-path="url(#clip0)">
<path d="M26 8.35704V4.93169C26 -1.64422 0 -1.64422 0 4.93169V24.9666C0 27.5517 4.04653 29.1632 8.9146 29.7361C7.134 30.5346 6 31.6133 6 32.9806V38.9911C6 42.2791 12.54 43.9998 19 43.9998C25.4601 43.9998 32.0001 42.279 32.0001 38.9911V35.9692C38.1177 35.8011 44.0001 34.0954 44.0001 30.9771V12.9457C44 8.79428 33.641 7.26682 26 8.35704ZM13 1.99975C20.1173 1.99975 24 3.98116 24 4.99975C24 6.01835 20.1172 7.99975 13 7.99975C5.88291 7.99975 2.00006 6.01835 2.00006 4.99975C1.99997 3.98125 5.88282 1.99975 13 1.99975ZM1.99997 7.78254C4.4265 9.24297 8.72466 9.99982 12.9999 9.99982C17.2752 9.99982 21.5735 9.24297 24 7.78254V8.77629C20.5248 9.547 18 10.9545 18 12.9998V13.5915C16.4328 13.8429 14.7411 13.9998 13 13.9998C5.88282 13.9998 2.00006 12.0184 2.00006 10.9998V7.78254H1.99997ZM20 27.7825C20.1903 27.897 20.3883 28.0083 20.6008 28.114C20.4007 28.1057 20.2009 28.0975 20 28.0923V27.7825ZM1.99997 13.7825C4.4265 15.243 8.72466 15.9998 12.9999 15.9998C14.7309 15.9998 16.4135 15.8444 17.9999 15.6074V20.5915C16.4327 20.843 14.741 20.9998 12.9999 20.9998C5.88272 20.9998 1.99997 19.0184 1.99997 17.9998V13.7825ZM1.99997 24.9998V20.7826C4.4265 22.243 8.72466 22.9999 12.9999 22.9999C14.7309 22.9999 16.4135 22.8444 17.9999 22.6074V27.5915C16.4327 27.843 14.741 27.9998 12.9999 27.9998C5.88282 27.9998 1.99997 26.0183 1.99997 24.9998ZM30 38.9998C30 40.0184 26.1172 41.9998 19 41.9998C11.8829 41.9998 7.99997 40.0184 7.99997 38.9998V35.7825C10.4265 37.2429 14.7247 37.9998 19 37.9998C23.0923 37.9998 27.2112 37.3081 29.6847 35.9683C29.7886 35.9722 29.8956 35.9727 29.9999 35.9759V38.9998H30ZM19 35.9998C11.8828 35.9998 8.00007 34.0184 8.00007 32.9998C8.00007 31.9812 11.8829 29.9998 19 29.9998C26.1172 29.9998 30 31.9812 30 32.9998C30 34.0184 26.1172 35.9998 19 35.9998ZM42 30.9998C42 31.9677 38.4567 33.785 32 33.9651V32.9998C32 31.7504 31.0545 30.7405 29.5294 29.9667C30.0184 29.9865 30.5089 29.9998 31 29.9998C35.2752 29.9998 39.5735 29.243 41.9999 27.7825V30.9998H42ZM42 24.9998C42 26.0184 38.1172 27.9998 31.0001 27.9998C23.8829 27.9998 20.0001 26.0184 20.0001 24.9998V21.7825C22.4265 23.243 26.7248 23.9998 31.0001 23.9998C35.2753 23.9998 39.5736 23.243 42 21.7825V24.9998ZM42 18.9998C42 20.0184 38.1172 21.9998 31.0001 21.9998C23.8829 21.9998 20.0001 20.0184 20.0001 18.9998V15.7825C22.4265 17.2429 26.7248 17.9998 31.0001 17.9998C35.2753 17.9998 39.5736 17.2429 42 15.7825V18.9998ZM31.0001 15.9998C23.8828 15.9998 20.0001 14.0184 20.0001 12.9998C20.0001 11.9812 23.8829 9.99982 31.0001 9.99982C38.1172 9.99982 42 11.9812 42 12.9998C42 14.0184 38.1172 15.9998 31.0001 15.9998Z" fill="#FE5000"/>
</g>
<defs>
<clipPath id="clip0">
<rect width="44" height="44" fill="white"/>
</clipPath>
</defs>
</svg>
