<svg width="66" height="66" viewBox="0 0 66 66" fill="none" xmlns="http://www.w3.org/2000/svg">
<path d="M50.3599 29.85L41.3999 18.65V9.69C41.3999 7.1 39.2999 5 36.7099 5H18.0899C15.4999 5 13.3999 7.1 13.3999 9.69V43.29C13.3999 45.88 15.4999 47.98 18.0899 47.98H26.4899V50.43C26.4899 56.31 31.2499 61.07 37.1299 61.07H51.6899C52.1799 61.07 52.5999 60.65 52.5999 60.16V36.36C52.5999 33.98 51.8299 31.67 50.3599 29.85ZM36.7099 6.89C38.2499 6.89 39.5099 8.15 39.5099 9.69V34.19L35.7999 30.2V6.89H36.7099ZM33.9099 28.17L32.2999 26.49C31.9499 26.14 31.5299 25.79 31.1099 25.58V6.89H33.9099V28.17ZM15.2899 43.29V9.69C15.2899 8.15 16.5499 6.89 18.0899 6.89H29.2899V25.16C28.1699 25.16 27.0499 25.58 26.2799 26.35L26.2099 26.42C24.5999 28.03 24.5299 30.55 25.9299 32.23L29.2899 36.22V46.09H18.0899C16.5499 46.09 15.2899 44.83 15.2899 43.29ZM34.0499 46.09H31.1799V38.46L33.9799 41.75V44.62C33.9099 45.11 33.9799 45.6 34.0499 46.09ZM50.7099 59.11H37.0599C32.2299 59.11 28.3099 55.19 28.3099 50.36V47.91H34.3999C35.4499 51.69 38.2499 54.84 42.0299 56.24L42.6599 54.49C38.5299 52.95 35.7999 48.96 35.7999 44.62V41.4C35.7999 41.19 35.7299 40.98 35.5899 40.77L27.3299 31.04C26.4899 30.06 26.5599 28.66 27.5399 27.68C28.0299 27.26 28.6599 26.98 29.2899 26.98C29.9199 26.98 30.5499 27.26 30.9699 27.75L43.4999 41.05L44.8299 39.79L41.3299 36.08V21.66L48.8199 31.04C50.0099 32.51 50.6399 34.4 50.6399 36.29V59.11H50.7099ZM19.9099 21.8H18.0199V9.69H19.9099V21.8ZM24.5999 17.11H22.7099V9.69H24.5999V17.11ZM24.5999 35.8H18.9999C18.5099 35.8 18.0899 36.22 18.0899 36.71V42.31C18.0899 42.8 18.5099 43.22 18.9999 43.22H24.5999C25.0899 43.22 25.5099 42.8 25.5099 42.31V36.71C25.5099 36.22 25.0899 35.8 24.5999 35.8ZM23.6899 41.4H19.9799V37.69H23.6899V41.4Z" fill="url(#paint0_linear)"/>
<defs>
<linearGradient id="paint0_linear" x1="13.3999" y1="61.07" x2="66.0606" y2="24.2535" gradientUnits="userSpaceOnUse">
<stop stop-color="#FE5000"/>
<stop offset="1" stop-color="#FE9800"/>
</linearGradient>
</defs>
</svg>
