<svg width="44" height="44" viewBox="0 0 44 44" fill="none" xmlns="http://www.w3.org/2000/svg">
<path d="M36.9285 9.42847H7.07136C4.90596 9.42847 3.14282 11.1916 3.14282 13.3571V30.6428C3.14282 32.8082 4.90596 34.5713 7.07136 34.5713H36.9284C39.0938 34.5713 40.857 32.8082 40.857 30.6428V13.3571C40.857 11.1916 39.0939 9.42847 36.9285 9.42847ZM39.2856 30.6427C39.2856 31.9423 38.2281 32.9998 36.9285 32.9998H7.07136C5.77177 32.9998 4.71422 31.9423 4.71422 30.6427V13.3571C4.71422 12.0575 5.77177 10.9999 7.07136 10.9999H36.9284C38.228 10.9999 39.2856 12.0575 39.2856 13.3571V30.6427H39.2856Z" fill="#FE5000"/>
<path d="M40.0713 14.1427H3.92856C3.49485 14.1427 3.14282 14.4947 3.14282 14.9284V19.6427C3.14282 20.0764 3.49485 20.4285 3.92856 20.4285H40.0714C40.5051 20.4285 40.8571 20.0764 40.8571 19.6427V14.9284C40.857 14.4947 40.505 14.1427 40.0713 14.1427ZM39.2856 18.857H4.71422V15.7141H39.2856V18.857H39.2856Z" fill="#FE5000"/>
<path d="M18.0715 25.1428H8.64292C8.2092 25.1428 7.85718 25.4948 7.85718 25.9286C7.85718 26.3623 8.2092 26.7142 8.64292 26.7142H18.0715C18.5052 26.7142 18.8572 26.3622 18.8572 25.9285C18.8572 25.4948 18.5052 25.1428 18.0715 25.1428Z" fill="#FE5000"/>
<path d="M18.0715 28.2856H8.64292C8.2092 28.2856 7.85718 28.6377 7.85718 29.0714C7.85718 29.5051 8.2092 29.8571 8.64292 29.8571H18.0715C18.5052 29.8571 18.8572 29.5051 18.8572 29.0714C18.8571 28.6377 18.5052 28.2856 18.0715 28.2856Z" fill="#FE5000"/>
<path d="M33.7857 23.5713H32.2143C30.9147 23.5713 29.8572 24.6288 29.8572 25.9284V27.4998C29.8572 28.7994 30.9147 29.857 32.2143 29.857H33.7857C35.0853 29.857 36.1429 28.7994 36.1429 27.4998V25.9284C36.1429 24.6289 35.0853 23.5713 33.7857 23.5713ZM34.5715 27.4999C34.5715 27.9336 34.2194 28.2856 33.7857 28.2856H32.2143C31.7806 28.2856 31.4286 27.9336 31.4286 27.4999V25.9285C31.4286 25.4948 31.7806 25.1428 32.2143 25.1428H33.7857C34.2194 25.1428 34.5715 25.4948 34.5715 25.9285V27.4999Z" fill="#FE5000"/>
</svg>
