<svg width="64" height="64" viewBox="0 0 64 64" fill="none" xmlns="http://www.w3.org/2000/svg">
<g clip-path="url(#clip0)">
<path d="M19.5041 41.7682C20.7517 41.7682 21.763 40.7568 21.763 39.5092C21.763 38.2616 20.7517 37.2502 19.5041 37.2502C18.2565 37.2502 17.2451 38.2616 17.2451 39.5092C17.2451 40.7568 18.2565 41.7682 19.5041 41.7682Z" fill="url(#paint0_linear)"/>
<path d="M44.496 41.7682C45.7436 41.7682 46.755 40.7568 46.755 39.5092C46.755 38.2616 45.7436 37.2502 44.496 37.2502C43.2484 37.2502 42.2371 38.2616 42.2371 39.5092C42.2371 40.7568 43.2484 41.7682 44.496 41.7682Z" fill="url(#paint1_linear)"/>
<path d="M19.5041 32.2649C18.2703 32.2649 17.1102 32.7454 16.2376 33.6179C15.7662 34.0892 15.7662 34.8533 16.2376 35.3248C16.709 35.7962 17.4731 35.796 17.9443 35.3248C18.3609 34.9081 18.9149 34.6786 19.5041 34.6786C20.0934 34.6786 20.6473 34.9081 21.064 35.3248C21.2997 35.5604 21.6085 35.6784 21.9174 35.6782C22.2262 35.6782 22.5352 35.5604 22.7708 35.3248C23.2423 34.8535 23.2423 34.0894 22.7708 33.6179C21.8981 32.7455 20.738 32.2649 19.5041 32.2649Z" fill="url(#paint2_linear)"/>
<path d="M41.2293 33.6179C40.7579 34.0891 40.7579 34.8532 41.2293 35.3247C41.7006 35.7961 42.4647 35.7959 42.936 35.3247C43.796 34.4645 45.1957 34.4646 46.0557 35.3247C46.2913 35.5603 46.6002 35.6781 46.9091 35.6781C47.2181 35.6781 47.5269 35.5603 47.7625 35.3247C48.234 34.8534 48.234 34.0893 47.7625 33.6179C45.9616 31.8169 43.0307 31.8168 41.2293 33.6179Z" fill="url(#paint3_linear)"/>
<path d="M34.3244 49.1005C33.7035 49.7213 32.8782 50.0633 32 50.0633C31.122 50.0633 30.2965 49.7215 29.6757 49.1005C29.2044 48.6293 28.4403 48.6293 27.9691 49.1005C27.4976 49.5718 27.4976 50.3359 27.9691 50.8073C29.0457 51.8842 30.4774 52.477 32.0002 52.477C33.5229 52.477 34.9546 51.884 36.0313 50.8073C36.5027 50.3361 36.5027 49.572 36.0313 49.1005C35.5598 48.6293 34.7957 48.6293 34.3244 49.1005Z" fill="url(#paint4_linear)"/>
<path d="M60.4763 38.3449C60.4763 35.0666 58.1063 32.3331 54.9902 31.763V11.5731C54.9902 8.95393 53.6873 6.52571 51.5048 5.07762C49.4549 3.71763 46.9099 3.40898 44.6089 4.21984L37.0319 1.64801C31.2097 -0.328388 25.081 -0.531142 19.3087 1.06147C11.7519 3.14648 7.4196 7.55547 6.75084 13.8227C6.15903 14.6033 5.6888 15.4799 5.36928 16.4258L4.78154 18.1653C4.46609 19.0993 4.81382 20.0808 5.64716 20.6076C6.4802 21.1344 7.51615 21.0279 8.22473 20.3422C8.46671 20.1079 8.73131 19.9106 9.0098 19.7456V31.7631C5.89367 32.3332 3.52368 35.0666 3.52368 38.3451C3.52368 41.7546 6.08692 44.5749 9.38724 44.9849C10.2161 49.5614 12.394 53.7829 15.7242 57.161C20.0721 61.5715 25.8521 64.0003 32 64.0003C32.0008 64.0003 32.0015 64.0003 32.0023 64.0003C38.1424 63.9997 43.9148 61.6083 48.2565 57.2668C51.6479 53.8753 53.8493 49.6109 54.6508 44.9801C57.9327 44.5529 60.4763 41.7412 60.4763 38.3449ZM50.1703 7.08902C51.6995 8.10354 52.5765 9.73794 52.5765 11.5731V27.3663C48.8305 26.7842 45.9543 23.5371 45.9543 19.6305L45.8544 6.36097C47.3281 5.97251 48.8649 6.22294 50.1703 7.08902ZM7.42156 17.8924L7.65614 17.1983C8.27059 15.3797 9.6351 13.9033 11.3997 13.1478C13.1641 12.3923 15.1743 12.4237 16.9145 13.2342C20.5692 14.9364 24.9874 14.0161 27.6585 10.9965L27.9575 10.6585C28.3992 10.1593 28.3524 9.39655 27.8532 8.95498C27.3537 8.51342 26.5911 8.56004 26.1496 9.05923L25.8506 9.3973C23.8822 11.6225 20.6265 12.3004 17.9335 11.0462C15.5721 9.94627 12.8442 9.90358 10.4496 10.929C10.2316 11.0223 10.0196 11.1266 9.811 11.2357C11.2138 7.49573 14.6091 4.86204 19.9509 3.38816C25.2553 1.92453 30.8935 2.11325 36.2563 3.93351L43.4407 6.37214L43.5348 12.6082C40.3358 16.9576 35.6704 19.9019 30.3538 20.9143C24.91 21.9508 19.3561 20.8539 14.7154 17.8256C12.4477 16.3461 9.58894 16.4093 7.42156 17.8924ZM5.93742 38.3449C5.93742 36.4044 7.23615 34.7625 9.0098 34.2401V40.7816C9.0098 41.3467 9.03016 41.9086 9.06984 42.467C7.26572 41.9642 5.93742 40.3073 5.93742 38.3449ZM46.5498 55.5597C42.664 59.4455 37.4976 61.5857 32.0021 61.5863C32.0012 61.5863 32.0011 61.5863 32 61.5863C26.5038 61.5863 21.3336 59.4126 17.4431 55.4663C13.5613 51.5286 11.4235 46.3134 11.4235 40.7814V19.1765C12.1071 19.2275 12.7853 19.4487 13.396 19.8471C18.5623 23.2183 24.7448 24.4395 30.8051 23.2855C35.7244 22.3486 40.1436 19.9269 43.5404 16.3553V19.6303C43.5404 24.8698 47.4954 29.2003 52.5763 29.7997V41.0097C52.5765 46.5061 50.4363 51.6734 46.5498 55.5597ZM54.9436 42.463C54.9735 41.9812 54.9902 41.4968 54.9902 41.0098V34.2401C56.7639 34.7625 58.0626 36.4044 58.0626 38.3449C58.0626 40.3023 56.7411 41.9559 54.9436 42.463Z" fill="url(#paint5_linear)"/>
</g>
<defs>
<linearGradient id="paint0_linear" x1="18.1769" y1="41.7682" x2="22.1394" y2="40.5281" gradientUnits="userSpaceOnUse">
<stop stop-color="#FE5000"/>
<stop offset="1" stop-color="#FCA92A"/>
</linearGradient>
<linearGradient id="paint1_linear" x1="43.1689" y1="41.7682" x2="47.1314" y2="40.5281" gradientUnits="userSpaceOnUse">
<stop stop-color="#FE5000"/>
<stop offset="1" stop-color="#FCA92A"/>
</linearGradient>
<linearGradient id="paint2_linear" x1="17.3774" y1="35.6783" x2="22.2168" y2="32.4656" gradientUnits="userSpaceOnUse">
<stop stop-color="#FE5000"/>
<stop offset="1" stop-color="#FCA92A"/>
</linearGradient>
<linearGradient id="paint3_linear" x1="42.3691" y1="35.6782" x2="47.2065" y2="32.4646" gradientUnits="userSpaceOnUse">
<stop stop-color="#FE5000"/>
<stop offset="1" stop-color="#FCA92A"/>
</linearGradient>
<linearGradient id="paint4_linear" x1="29.4242" y1="52.477" x2="34.9026" y2="48.4459" gradientUnits="userSpaceOnUse">
<stop stop-color="#FE5000"/>
<stop offset="1" stop-color="#FCA92A"/>
</linearGradient>
<linearGradient id="paint5_linear" x1="15.2702" y1="64.0003" x2="66.166" y2="49.8257" gradientUnits="userSpaceOnUse">
<stop stop-color="#FE5000"/>
<stop offset="1" stop-color="#FCA92A"/>
</linearGradient>
<clipPath id="clip0">
<rect width="64" height="64" fill="white"/>
</clipPath>
</defs>
</svg>
