<svg width="44" height="44" viewBox="0 0 44 44" fill="none" xmlns="http://www.w3.org/2000/svg">
<g clip-path="url(#clip0)">
<path d="M13.409 28.7156C14.2667 28.7156 14.962 28.0203 14.962 27.1625C14.962 26.3048 14.2667 25.6095 13.409 25.6095C12.5513 25.6095 11.856 26.3048 11.856 27.1625C11.856 28.0203 12.5513 28.7156 13.409 28.7156Z" fill="#FE5000"/>
<path d="M30.5909 28.7156C31.4486 28.7156 32.1439 28.0203 32.1439 27.1625C32.1439 26.3048 31.4486 25.6095 30.5909 25.6095C29.7332 25.6095 29.0378 26.3048 29.0378 27.1625C29.0378 28.0203 29.7332 28.7156 30.5909 28.7156Z" fill="#FE5000"/>
<path d="M13.409 22.1821C12.5607 22.1821 11.7631 22.5124 11.1632 23.1123C10.8391 23.4363 10.8391 23.9616 11.1632 24.2857C11.4874 24.6098 12.0127 24.6097 12.3366 24.2857C12.623 23.9993 13.0039 23.8415 13.409 23.8415C13.8141 23.8415 14.1949 23.9993 14.4814 24.2857C14.6434 24.4477 14.8557 24.5288 15.0681 24.5287C15.2804 24.5287 15.4928 24.4477 15.6548 24.2857C15.9789 23.9617 15.9789 23.4364 15.6548 23.1123C15.0548 22.5125 14.2573 22.1821 13.409 22.1821Z" fill="#FE5000"/>
<path d="M28.3451 23.1122C28.021 23.4362 28.021 23.9616 28.3451 24.2857C28.6691 24.6098 29.1945 24.6097 29.5185 24.2857C30.1097 23.6943 31.072 23.6944 31.6633 24.2857C31.8253 24.4477 32.0376 24.5287 32.25 24.5287C32.4624 24.5287 32.6747 24.4477 32.8367 24.2857C33.1608 23.9617 33.1608 23.4364 32.8367 23.1122C31.5986 21.8741 29.5836 21.874 28.3451 23.1122Z" fill="#FE5000"/>
<path d="M23.598 33.7566C23.1711 34.1834 22.6037 34.4185 22 34.4185C21.3963 34.4185 20.8288 34.1835 20.402 33.7566C20.078 33.4326 19.5527 33.4326 19.2287 33.7566C18.9046 34.0806 18.9046 34.6059 19.2287 34.93C19.9689 35.6704 20.9532 36.0779 22.0001 36.0779C23.047 36.0779 24.0312 35.6702 24.7714 34.93C25.0955 34.606 25.0955 34.0807 24.7714 33.7566C24.4473 33.4326 23.922 33.4326 23.598 33.7566Z" fill="#FE5000"/>
<path d="M41.5773 26.3621C41.5773 24.1082 39.948 22.2289 37.8056 21.837V7.95646C37.8056 6.15576 36.9098 4.48636 35.4094 3.4908C34.0001 2.55581 32.2504 2.34361 30.6685 2.90108L25.4593 1.13294C21.4565 -0.225828 17.243 -0.365221 13.2746 0.729699C8.0793 2.16315 5.10081 5.19432 4.64104 9.50307C4.23416 10.0397 3.91088 10.6424 3.69121 11.2927L3.28714 12.4886C3.07027 13.1307 3.30933 13.8055 3.88226 14.1677C4.45497 14.5298 5.16718 14.4566 5.65433 13.9852C5.82069 13.8241 6.00261 13.6885 6.19407 13.575V21.8371C4.05173 22.229 2.42236 24.1082 2.42236 26.3622C2.42236 28.7062 4.18459 30.6452 6.45356 30.9271C7.02337 34.0734 8.52071 36.9756 10.8102 39.2981C13.7994 42.3304 17.7731 44.0002 21.9998 44.0002C22.0004 44.0002 22.0009 44.0002 22.0014 44.0002C26.2227 43.9998 30.1913 42.3557 33.1762 39.3708C35.5078 37.0392 37.0212 34.1074 37.5723 30.9238C39.8286 30.63 41.5773 28.697 41.5773 26.3621ZM34.4919 4.87364C35.5433 5.57112 36.1462 6.69477 36.1462 7.95646V18.8143C33.5708 18.4141 31.5934 16.1817 31.5934 13.4959L31.5247 4.37311C32.5379 4.10604 33.5945 4.27821 34.4919 4.87364ZM5.10215 12.301L5.26343 11.8238C5.68586 10.5735 6.62397 9.55845 7.83712 9.03904C9.05017 8.51964 10.4322 8.54121 11.6285 9.09847C14.1411 10.2687 17.1786 9.63603 19.015 7.56007L19.2206 7.32764C19.5243 6.98445 19.4921 6.46006 19.1489 6.15649C18.8055 5.85292 18.2812 5.88496 17.9777 6.22816L17.7721 6.46058C16.4188 7.99038 14.1805 8.45648 12.3291 7.59419C10.7057 6.838 8.83019 6.80865 7.18392 7.5136C7.03406 7.5778 6.88834 7.64947 6.7449 7.72445C7.70934 5.15325 10.0436 3.34259 13.7161 2.3293C17.3628 1.32305 21.2391 1.4528 24.9261 2.70423L29.8653 4.38078L29.93 8.66805C27.7307 11.6583 24.5232 13.6825 20.8681 14.3785C17.1254 15.0911 13.3072 14.337 10.1167 12.255C8.55763 11.2379 6.59223 11.2814 5.10215 12.301ZM4.08181 26.3621C4.08181 25.028 4.97469 23.8991 6.19407 23.54V28.0373C6.19407 28.4258 6.20807 28.8121 6.23535 29.196C4.99502 28.8503 4.08181 27.7112 4.08181 26.3621ZM32.0029 38.1972C29.3314 40.8687 25.7794 42.3401 22.0013 42.3405C22.0007 42.3405 22.0006 42.3405 21.9998 42.3405C18.2212 42.3405 14.6667 40.8461 11.992 38.133C9.32326 35.4258 7.85351 31.8404 7.85351 28.0372V13.1838C8.32344 13.2189 8.78975 13.3709 9.20958 13.6448C12.7614 15.9625 17.0119 16.8021 21.1783 16.0087C24.5604 15.3646 27.5986 13.6997 29.9338 11.2442V13.4958C29.9338 17.0979 32.6529 20.0752 36.1461 20.4872V28.1941C36.1462 31.9728 34.6748 35.5254 32.0029 38.1972ZM37.7736 29.1933C37.7941 28.862 37.8056 28.529 37.8056 28.1942V23.54C39.025 23.8991 39.9179 25.028 39.9179 26.3621C39.9179 27.7078 39.0093 28.8446 37.7736 29.1933Z" fill="#FE5000"/>
</g>
<defs>
<clipPath id="clip0">
<rect width="44" height="44" fill="white"/>
</clipPath>
</defs>
</svg>
