<svg width="44" height="44" viewBox="0 0 44 44" fill="none" xmlns="http://www.w3.org/2000/svg">
<path d="M39.1367 24.2281C38.8458 23.8508 38.3042 23.7807 37.9267 24.0716C37.5492 24.3625 37.4792 24.9042 37.7701 25.2816C38.657 26.4321 39.1258 27.8103 39.1258 29.267C39.1258 29.7435 39.5121 30.1297 39.9886 30.1297C40.465 30.1297 40.8513 29.7434 40.8513 29.267C40.8513 27.4256 40.2584 25.6832 39.1367 24.2281Z" fill="#FE5000"/>
<path d="M36.2378 18.4397C37.9894 17.2574 39.1436 15.2545 39.1436 12.987C39.1436 9.36158 36.194 6.41204 32.5686 6.41204C28.9431 6.41204 25.9936 9.36158 25.9936 12.987C25.9936 15.2535 27.1466 17.2556 28.897 18.4381C27.6219 18.8698 26.428 19.5271 25.3681 20.389C24.4712 19.5264 23.2676 19.0296 22.0001 19.0296C20.7327 19.0296 19.529 19.5266 18.6327 20.389C17.5724 19.5271 16.3784 18.8698 15.1031 18.438C16.8535 17.2555 18.0065 15.2534 18.0065 12.9869C18.0065 9.36141 15.0569 6.41187 11.4315 6.41187C7.80648 6.41187 4.85736 9.36141 4.85736 12.9869C4.85736 15.2543 6.01124 17.2572 7.76265 18.4395C3.26055 19.9693 0.0109141 24.2338 0.00120312 29.2446C0.000945313 29.2522 0 29.2595 0 29.267C0 30.5916 0.752641 32.5464 4.33847 34.3373C6.89356 35.6135 10.4048 36.5728 14.4927 37.1114C16.8905 37.4277 19.4164 37.5881 22.0001 37.5881C24.5844 37.5881 27.1105 37.4277 29.5083 37.1114C33.5958 36.5728 37.1068 35.6135 39.6618 34.3373C43.2474 32.5463 44 30.5916 44 29.267C44 24.2466 40.7468 19.9718 36.2378 18.4397ZM27.7191 12.987C27.7191 10.313 29.8946 8.13758 32.5686 8.13758C35.2425 8.13758 37.418 10.3131 37.418 12.987C37.418 15.6606 35.2425 17.8356 32.5686 17.8356C29.8946 17.8356 27.7191 15.6606 27.7191 12.987ZM19.4258 22.103C20.012 21.2591 20.9742 20.7552 22 20.7552C23.0264 20.7552 23.9889 21.2591 24.5749 22.103C24.575 22.1033 24.5752 22.1035 24.5753 22.1036C24.941 22.6295 25.1342 23.2469 25.1342 23.8895C25.1342 25.6178 23.7282 27.0238 21.9999 27.0238C20.2721 27.0238 18.8665 25.6177 18.8665 23.8894C18.8665 23.2459 19.0596 22.6286 19.4258 22.103ZM6.58273 12.987C6.58273 10.313 8.7578 8.13758 11.4313 8.13758C14.1054 8.13758 16.2808 10.3131 16.2808 12.987C16.2808 15.6606 14.1053 17.8356 11.4313 17.8356C8.7578 17.8356 6.58273 15.6606 6.58273 12.987ZM13.743 35.2621C10.2639 34.7323 7.29386 33.8847 5.10959 32.7937C2.93365 31.7071 1.73293 30.4586 1.72597 29.2773C1.72597 29.2739 1.72648 29.2706 1.72648 29.2671C1.7264 23.9153 6.08008 19.5612 11.4314 19.5612C13.7081 19.5612 15.8801 20.3477 17.6183 21.7882C17.3049 22.4396 17.1411 23.1536 17.1411 23.8896C17.1411 25.3915 17.8261 26.7363 18.8998 27.6285C15.8842 28.8546 13.7509 31.8133 13.743 35.2621ZM28.5327 35.493C26.4342 35.7379 24.2409 35.8627 22 35.8627C19.7596 35.8627 17.5667 35.7379 15.4681 35.493V35.2812C15.4681 31.6795 18.3983 28.7493 22 28.7493C25.6022 28.7493 28.5327 31.6795 28.5327 35.2812V35.493ZM38.8907 32.7936C36.7066 33.8847 33.7369 34.7322 30.2581 35.262C30.2503 31.8132 28.1168 28.8547 25.1009 27.6285C26.1748 26.7363 26.86 25.3914 26.86 23.8894C26.86 23.1543 26.6962 22.4401 26.3825 21.7881C28.1199 20.3475 30.2917 19.561 32.5688 19.561C37.9205 19.5611 42.2745 23.9152 42.2745 29.2669C42.2745 30.4513 41.0728 31.7038 38.8907 32.7936Z" fill="#FE5000"/>
<path d="M36.5517 22.2014C35.4414 22.2014 35.4395 23.9269 36.5517 23.9269C37.662 23.9269 37.6638 22.2014 36.5517 22.2014Z" fill="#FE5000"/>
</svg>
