<svg width="100" height="100" viewBox="0 0 100 100" fill="none" xmlns="http://www.w3.org/2000/svg">
<circle cx="50" cy="50" r="49.5" stroke="url(#paint0_linear)"/>
<g clip-path="url(#clip0)">
<path d="M53.4592 49.9999C53.4592 56.5999 52.3792 61.8399 50.2192 65.7199C48.0992 69.5599 44.7992 71.4799 40.3192 71.4799C35.7992 71.4799 32.4392 69.5399 30.2392 65.6599C28.0392 61.7799 26.9392 56.5599 26.9392 49.9999C26.9392 43.4399 28.0192 38.2199 30.1792 34.3399C32.3792 30.4599 35.7192 28.5199 40.1992 28.5199C44.6792 28.5199 47.9992 30.4599 50.1592 34.3399C52.3592 38.2199 53.4592 43.4399 53.4592 49.9999ZM40.3192 68.5399C46.8792 68.5399 50.1592 62.3599 50.1592 49.9999C50.1592 37.6399 46.8392 31.4599 40.1992 31.4599C33.5592 31.4599 30.2392 37.6399 30.2392 49.9999C30.2392 62.3599 33.5992 68.5399 40.3192 68.5399ZM62.2711 59.5879H58.2391V58.0399H62.2711V45.7999C63.2551 45.7999 64.2751 45.7879 65.3311 45.7639C66.3871 45.7399 67.4191 45.7279 68.4271 45.7279C74.4031 45.7279 77.3911 48.0439 77.3911 52.6759C77.3911 54.8119 76.6231 56.5039 75.0871 57.7519C73.5751 58.9759 71.3551 59.5879 68.4271 59.5879H64.2511V64.0159H70.7671V65.5639H64.2511V70.9999H62.2711V65.5639H58.2391V64.0159H62.2711V59.5879ZM68.6071 47.5999C67.8151 47.5999 66.3631 47.6239 64.2511 47.6719V58.0399H68.3551C70.6351 58.0399 72.3631 57.5959 73.5391 56.7079C74.7151 55.7959 75.3031 54.4999 75.3031 52.8199C75.3031 49.3399 73.0711 47.5999 68.6071 47.5999Z" fill="url(#paint1_linear)"/>
</g>
<defs>
<linearGradient id="paint0_linear" x1="20.625" y1="100" x2="108.331" y2="72.5509" gradientUnits="userSpaceOnUse">
<stop stop-color="#FE5000"/>
<stop offset="1" stop-color="#FCA92A"/>
</linearGradient>
<linearGradient id="paint1_linear" x1="37.3449" y1="71.4799" x2="80.1464" y2="55.7484" gradientUnits="userSpaceOnUse">
<stop stop-color="#FE5000"/>
<stop offset="1" stop-color="#FCA92A"/>
</linearGradient>
<clipPath id="clip0">
<rect width="52" height="44" fill="white" transform="translate(26 27.9999)"/>
</clipPath>
</defs>
</svg>
