<svg width="100" height="100" viewBox="0 0 100 100" fill="none" xmlns="http://www.w3.org/2000/svg">
<circle cx="50" cy="50" r="49.5" stroke="url(#paint0_linear)"/>
<path d="M70.6001 47.0999C70.0001 47.0999 69.6001 47.4999 69.6001 48.0999V51.9999V57.8999V58.8999C69.6001 59.9999 68.7001 60.8999 67.6001 60.8999H65.6001C63.9001 60.8999 62.7001 62.1999 62.7001 63.7999V65.7999C62.7001 66.8999 61.8001 67.7999 60.7001 67.7999H55.8001H31.3C30.7 67.7999 30.3 67.3999 30.3 66.7999V47.9999C30.3 47.3999 29.9 46.9999 29.3 46.9999C28.7 46.9999 28.3 47.3999 28.3 47.9999V66.6999C28.3 68.3999 29.6 69.5999 31.2 69.5999H55.8001H60.7001H62.0001C63.3001 69.5999 64.6001 69.0999 65.4001 68.0999L70.0001 63.4999C70.9001 62.5999 71.5001 61.2999 71.5001 60.0999V58.7999V57.7999V51.9999V47.9999C71.6001 47.3999 71.2001 47.0999 70.6001 47.0999ZM64.6001 66.3999C64.6001 66.1999 64.7001 65.9999 64.7001 65.6999V63.6999C64.7001 63.0999 65.1001 62.6999 65.7001 62.6999H67.7001C67.9001 62.6999 68.1001 62.6999 68.4001 62.5999L64.6001 66.3999ZM68.7001 33.2999H61.8001V31.2999C61.8001 30.6999 61.4001 30.2999 60.8001 30.2999C60.2001 30.2999 59.8001 30.6999 59.8001 31.2999V33.2999H40.2V31.2999C40.2 30.6999 39.8 30.2999 39.2 30.2999C38.6 30.2999 38.2 30.6999 38.2 31.2999V33.2999H31.3C29.6 33.2999 28.4 34.5999 28.4 36.1999V44.0999C28.4 44.6999 28.8 45.0999 29.4 45.0999H70.7001C71.3001 45.0999 71.7001 44.6999 71.7001 44.0999V36.1999C71.6001 34.5999 70.3001 33.2999 68.7001 33.2999ZM69.6001 43.0999H30.4V36.1999C30.4 35.5999 30.8 35.1999 31.4 35.1999H38.3V37.4999C37.7001 37.7999 37.3 38.4999 37.3 39.1999C37.3 40.2999 38.2001 41.1999 39.3 41.1999C40.4001 41.1999 41.3 40.2999 41.3 39.1999C41.3 38.4999 40.9001 37.7999 40.3001 37.4999V35.1999H59.9001V37.4999C59.3001 37.7999 58.9001 38.4999 58.9001 39.1999C58.9001 40.2999 59.8001 41.1999 60.9001 41.1999C62.0001 41.1999 62.9001 40.2999 62.9001 39.1999C62.9001 38.4999 62.5001 37.7999 61.9001 37.4999V35.1999H68.8001C69.4001 35.1999 69.8001 35.5999 69.8001 36.1999L69.6001 43.0999ZM46.1001 52.8999C47.2001 52.8999 48.1001 51.9999 48.1001 50.8999C48.1001 49.7999 47.2001 48.8999 46.1001 48.8999C45.0001 48.8999 44.1001 49.7999 44.1001 50.8999C44.1001 52.0999 45.0001 52.8999 46.1001 52.8999ZM53.9001 52.8999C55.0001 52.8999 55.9001 51.9999 55.9001 50.8999C55.9001 49.7999 55.0001 48.8999 53.9001 48.8999C52.8001 48.8999 51.9001 49.7999 51.9001 50.8999C52.0001 52.0999 52.8001 52.8999 53.9001 52.8999ZM61.8001 52.8999C62.9001 52.8999 63.8001 51.9999 63.8001 50.8999C63.8001 49.7999 62.9001 48.8999 61.8001 48.8999C60.7001 48.8999 59.8001 49.7999 59.8001 50.8999C59.8001 52.0999 60.7001 52.8999 61.8001 52.8999ZM38.2 61.7999C39.3 61.7999 40.2 60.8999 40.2 59.7999C40.2 58.6999 39.3 57.7999 38.2 57.7999C37.1 57.7999 36.2 58.6999 36.2 59.7999C36.2 60.8999 37.1 61.7999 38.2 61.7999ZM46.1001 61.7999C47.2001 61.7999 48.1001 60.8999 48.1001 59.7999C48.1001 58.6999 47.2001 57.7999 46.1001 57.7999C45.0001 57.7999 44.1001 58.6999 44.1001 59.7999C44.1001 60.8999 45.0001 61.7999 46.1001 61.7999ZM53.9001 61.7999C55.0001 61.7999 55.9001 60.8999 55.9001 59.7999C55.9001 58.6999 55.0001 57.7999 53.9001 57.7999C52.8001 57.7999 51.9001 58.6999 51.9001 59.7999C51.9001 60.8999 52.8001 61.7999 53.9001 61.7999Z" fill="url(#paint1_linear)"/>
<defs>
<linearGradient id="paint0_linear" x1="20.625" y1="100" x2="108.331" y2="72.5509" gradientUnits="userSpaceOnUse">
<stop stop-color="#FE5000"/>
<stop offset="1" stop-color="#FCA92A"/>
</linearGradient>
<linearGradient id="paint1_linear" x1="37.2513" y1="69.5999" x2="74.5846" y2="56.6969" gradientUnits="userSpaceOnUse">
<stop stop-color="#FE5000"/>
<stop offset="1" stop-color="#FCA92A"/>
</linearGradient>
</defs>
</svg>
