<svg width="100" height="100" viewBox="0 0 100 100" fill="none" xmlns="http://www.w3.org/2000/svg">
<circle cx="50" cy="50" r="49.5" stroke="url(#paint0_linear)"/>
<g clip-path="url(#clip0)">
<path d="M36.7 45.3406C35.8375 44.4781 34.45 44.4781 33.5875 45.3406C32.725 46.2031 32.725 47.5906 33.5875 48.4531C33.8313 48.6969 34.2344 49.2219 34.2344 50C34.2344 50.7875 33.8313 51.3031 33.5875 51.5469C32.725 52.4094 32.725 53.7969 33.5875 54.6594C34.45 55.5219 35.8375 55.5219 36.7 54.6594C37.4219 53.9375 38.6407 52.3719 38.6407 50C38.6407 47.6281 37.4219 46.0625 36.7 45.3406ZM52.2625 29.7594C57.6719 35.1687 60.6532 42.3594 60.6532 50C60.6532 57.6406 57.6719 64.8312 52.2625 70.2406C51.4 71.1031 51.4 72.4906 52.2625 73.3531C53.125 74.2156 54.5125 74.2156 55.375 73.3531C61.6188 67.1094 65.0594 58.8219 65.0594 50C65.0594 41.1781 61.6188 32.8812 55.375 26.6469C54.5125 25.7844 53.125 25.7844 52.2625 26.6469C51.4 27.5094 51.4 28.8969 52.2625 29.7594ZM46.0375 67.1188C46.9 67.9813 48.2875 67.9813 49.15 67.1188C53.7344 62.5438 56.2563 56.4594 56.2563 49.9906C56.2563 43.5219 53.7344 37.4375 49.15 32.8625C48.2875 32 46.9 32 46.0375 32.8625C45.175 33.725 45.175 35.1125 46.0375 35.975C49.7875 39.7156 51.85 44.6938 51.85 49.9813C51.85 55.2688 49.7875 60.2469 46.0375 63.9875C45.175 64.8688 45.175 66.2656 46.0375 67.1188ZM39.8125 60.8938C40.675 61.7563 42.0625 61.7563 42.925 60.8938C45.8407 57.9781 47.4438 54.1156 47.4438 50C47.4438 45.8844 45.8407 42.0219 42.925 39.1063C42.0625 38.2438 40.675 38.2438 39.8125 39.1063C38.95 39.9688 38.95 41.3562 39.8125 42.2188C41.8938 44.3 43.0375 47.0656 43.0375 50C43.0375 52.9344 41.8938 55.7 39.8125 57.7812C38.95 58.6437 38.95 60.0312 39.8125 60.8938Z" fill="url(#paint1_linear)"/>
</g>
<defs>
<linearGradient id="paint0_linear" x1="20.625" y1="100" x2="108.331" y2="72.5509" gradientUnits="userSpaceOnUse">
<stop stop-color="#FE5000"/>
<stop offset="1" stop-color="#FCA92A"/>
</linearGradient>
<linearGradient id="paint1_linear" x1="39.5652" y1="74" x2="69.195" y2="67.795" gradientUnits="userSpaceOnUse">
<stop stop-color="#FE5000"/>
<stop offset="1" stop-color="#FCA92A"/>
</linearGradient>
<clipPath id="clip0">
<rect width="48" height="48" fill="white" transform="translate(25 26)"/>
</clipPath>
</defs>
</svg>
