<svg width="28" height="28" viewBox="0 0 28 28" fill="none" xmlns="http://www.w3.org/2000/svg">
<path d="M26.0579 6.4978C26.0563 6.4978 26.0546 6.4978 26.0531 6.4978H24.4045V5.93368C24.4134 5.71041 24.2689 5.50975 24.0544 5.44738C22.9098 5.14745 21.7313 4.99706 20.5481 4.99998C18.6029 4.99998 15.9525 5.43765 13.9927 7.4315C12.0475 5.4182 9.3777 4.99998 7.43735 4.99998C6.25417 4.99706 5.07561 5.14745 3.9311 5.44738C3.71652 5.50975 3.57208 5.71041 3.58096 5.93368V6.49293H1.94211C1.67355 6.49293 1.45581 6.71068 1.45581 6.97924V22.5118C1.45581 22.7803 1.67355 22.9981 1.94211 22.9981C2.02564 22.9978 2.1077 22.9761 2.1804 22.9349C2.22903 22.9106 7.09207 20.2505 13.8809 21.9623H13.9538H13.9976C14.0364 21.9669 14.0755 21.9669 14.1143 21.9623C20.9226 20.2359 25.7856 22.8911 25.8148 22.9349C25.9652 23.0217 26.1506 23.0217 26.3011 22.9349C26.4506 22.8485 26.5432 22.6893 26.5442 22.5166V6.9841C26.5442 6.71554 26.3265 6.4978 26.0579 6.4978ZM2.42842 21.7386V7.4704H3.59068V19.6669C3.58765 19.9355 3.8029 20.1556 4.07146 20.1587C4.09772 20.159 4.12398 20.1572 4.14993 20.1532C5.15598 19.9996 6.17168 19.9183 7.18933 19.9101C8.59901 19.8856 10.0028 20.0976 11.3424 20.5374C8.31726 20.1716 5.2488 20.585 2.42842 21.7386ZM7.18933 18.9423C6.30481 18.9443 5.42132 19.0012 4.54384 19.1125V6.31786C5.49067 6.10693 6.45757 5.99927 7.42762 5.9969C9.2464 5.9969 11.7557 6.41512 13.4967 8.37979L13.5113 20.4936C12.4998 19.8322 10.5254 18.9423 7.18933 18.9423ZM14.4839 8.37979C16.2249 6.43458 18.7342 5.9969 20.553 5.9969C21.523 5.99976 22.4899 6.10736 23.4367 6.31786V19.1125C22.5642 19.0001 21.6856 18.9416 20.8058 18.9374C17.4893 18.9374 15.51 19.8274 14.4839 20.4888V8.37979ZM25.5668 21.7386C22.7404 20.5819 19.6649 20.1683 16.6334 20.5374C17.9793 20.0961 19.3897 19.884 20.8058 19.9101C21.8299 19.9158 22.8521 19.9954 23.8647 20.1483C24.1302 20.1886 24.3782 20.006 24.4185 19.7405C24.4224 19.7146 24.4242 19.6883 24.4239 19.662V7.4704H25.5862L25.5668 21.7386Z" fill="url(#paint0_linear)"/>
<defs>
<linearGradient id="paint0_linear" x1="6.6303" y1="23" x2="26.9275" y2="14.1462" gradientUnits="userSpaceOnUse">
<stop stop-color="#FE5000"/>
<stop offset="1" stop-color="#FCA92A"/>
</linearGradient>
</defs>
</svg>
