<svg width="62" height="26" viewBox="0 0 62 26" fill="none" xmlns="http://www.w3.org/2000/svg">
<path d="M11.6982 3.35285C12.4143 2.45028 12.9002 1.2384 12.772 0C11.7238 0.0525249 10.4447 0.696892 9.70419 1.60017C9.03926 2.37368 8.45075 3.63631 8.60418 4.82279C9.78082 4.92565 10.9564 4.23009 11.6982 3.35285Z" fill="black"/>
<path d="M12.7586 5.05448C11.0498 4.9519 9.59692 6.03181 8.7809 6.03181C7.96443 6.03181 6.71483 5.10617 5.36329 5.13112C3.60417 5.15716 1.97192 6.15949 1.07924 7.75369C-0.756846 10.9429 0.594697 15.6735 2.38019 18.2709C3.24727 19.5559 4.29224 20.9708 5.66916 20.92C6.97011 20.8685 7.48003 20.0711 9.0614 20.0711C10.6416 20.0711 11.1009 20.92 12.4781 20.8943C13.9062 20.8685 14.799 19.6086 15.6661 18.3224C16.6608 16.8575 17.068 15.4431 17.0936 15.3654C17.068 15.3397 14.3398 14.285 14.3145 11.1223C14.2887 8.47416 16.4564 7.21456 16.5584 7.13644C15.3343 5.3119 13.4216 5.10617 12.7586 5.05448Z" fill="black"/>
<path d="M27.6371 1.47071C31.3511 1.47071 33.9373 4.05066 33.9373 7.80687C33.9373 11.5765 31.2979 14.1699 27.544 14.1699H23.4319V20.76H20.4609V1.4707H27.6371V1.47071ZM23.4319 11.6567H26.8409C29.4276 11.6567 30.8998 10.2533 30.8998 7.82028C30.8998 5.38756 29.4276 3.99728 26.8542 3.99728H23.4319V11.6567Z" fill="black"/>
<path d="M34.7136 16.7632C34.7136 14.3034 36.5839 12.7929 39.9003 12.6057L43.7202 12.3786V11.2959C43.7202 9.73185 42.6722 8.79615 40.9217 8.79615C39.2632 8.79615 38.2285 9.59804 37.9768 10.8547H35.2709C35.43 8.31476 37.5787 6.44336 41.0276 6.44336C44.41 6.44336 46.5719 8.24798 46.5719 11.0685V20.7599H43.8261V18.4474H43.7601C42.9511 20.0114 41.1867 21.0005 39.3564 21.0005C36.6238 21.0005 34.7136 19.2895 34.7136 16.7632ZM43.7202 15.4933V14.3838L40.2846 14.5976C38.5734 14.718 37.6053 15.4799 37.6053 16.683C37.6053 17.9126 38.6134 18.7147 40.1521 18.7147C42.1549 18.7147 43.7202 17.3245 43.7202 15.4933Z" fill="black"/>
<path d="M49.1642 25.9332V23.5938C49.3761 23.6472 49.8535 23.6472 50.0925 23.6472C51.4188 23.6472 52.1352 23.0859 52.5727 21.6422C52.5727 21.6154 52.825 20.7867 52.825 20.7733L47.7847 6.69727H50.8882L54.4169 18.14H54.4696L57.9984 6.69727H61.0226L55.796 21.495C54.6027 24.9039 53.2231 26 50.3314 26C50.0925 26 49.3761 25.9731 49.1642 25.9332Z" fill="black"/>
</svg>
