<svg width="44" height="44" viewBox="0 0 44 44" fill="none" xmlns="http://www.w3.org/2000/svg">
<path d="M28.0881 10.8004C23.3213 6.04164 15.5673 6.04164 10.8085 10.8004C6.04982 15.5591 6.04982 23.3131 10.8085 28.0799C15.5834 32.8386 23.3133 32.8386 28.0881 28.0799C32.8468 23.3212 32.8468 15.5671 28.0881 10.8004ZM26.9447 26.9446C22.806 31.0752 16.0745 31.0833 11.9439 26.9446C7.80515 22.8059 7.80515 16.0744 11.9439 11.9437C16.0906 7.81308 22.7979 7.81308 26.9447 11.9437C31.0834 16.0744 31.0834 22.8059 26.9447 26.9446Z" fill="#FE5000"/>
<path d="M39.1352 34.9322C39.1271 34.9242 39.119 34.9161 39.111 34.908L32.2668 28.0478C37.0175 20.9701 35.1333 11.3721 28.0556 6.62144C20.9779 1.87077 11.38 3.75494 6.62931 10.8326C1.87865 17.9103 3.76281 27.5083 10.8405 32.2589C13.0789 33.7647 15.6717 34.6504 18.361 34.8436C18.7234 34.8678 19.0857 34.8839 19.44 34.8839C22.5078 34.8839 25.5032 33.974 28.0476 32.267L34.8918 39.1112C36.0512 40.2868 37.9354 40.2948 39.1029 39.1434C40.2785 37.9839 40.2866 36.0997 39.1352 34.9322ZM27.6611 30.568C21.5094 35.1174 12.8454 33.813 8.30413 27.6693C3.76281 21.5257 5.05918 12.8537 11.2109 8.31236C17.3626 3.77104 26.0265 5.06741 30.5678 11.2191C34.1832 16.1147 34.1832 22.7979 30.5517 27.6935C29.7385 28.7805 28.7642 29.7548 27.6611 30.568ZM37.9757 37.9758C37.718 38.2335 37.3718 38.3784 37.0014 38.3784C36.639 38.3784 36.2928 38.2335 36.0351 37.9758L29.352 31.2927C29.6982 31.0028 30.0364 30.6969 30.3665 30.3667C30.6967 30.0366 31.0027 29.6984 31.2925 29.3522L37.9757 36.0353C38.5071 36.5668 38.5071 37.4364 37.9757 37.9758Z" fill="#FE5000"/>
</svg>
