<svg width="44" height="44" viewBox="0 0 44 44" fill="none" xmlns="http://www.w3.org/2000/svg">
<path d="M33.3093 5.66157C33.3093 3.26359 31.3657 1.32001 28.9678 1.32001H13.9325C11.5345 1.32001 9.59058 3.26359 9.59058 5.66157V38.2285C9.59058 40.6265 11.5345 42.57 13.9325 42.57H28.9678C31.3657 42.57 33.3093 40.6265 33.3093 38.2285V5.66157ZM11.6531 8.84814H31.2468V32.8763H11.6531V8.84814ZM13.9115 3.38251H28.9887C30.2452 3.38251 31.2468 4.42987 31.2468 5.68671V6.78564H11.6531V5.68671C11.6531 4.42987 12.655 3.38251 13.9115 3.38251ZM28.9887 40.5075H13.9115C12.6727 40.5166 11.6618 39.5188 11.6531 38.28V34.9388H31.2468V38.2536C31.253 39.4924 30.2539 40.5014 29.0151 40.5075H28.9887Z" fill="#FE5000"/>
<path d="M23.4683 36.6919H19.4319C18.8621 36.6919 18.4006 37.1534 18.4006 37.7231C18.4006 38.2929 18.8621 38.7544 19.4319 38.7544H23.4683C24.0377 38.7544 24.4995 38.2929 24.4995 37.7231C24.4995 37.1534 24.0377 36.6919 23.4683 36.6919Z" fill="#FE5000"/>
</svg>
