<svg width="56" height="56" viewBox="0 0 56 56" fill="none" xmlns="http://www.w3.org/2000/svg">
<path d="M46.9999 12H8.99996C6.244 12 4 14.244 4 17.0001V39C4 41.756 6.244 44 8.99996 44H46.9999C49.7558 44 51.9998 41.756 51.9998 39V17.0001C51.9999 14.244 49.7559 12 46.9999 12ZM49.9999 38.9999C49.9999 40.654 48.654 41.9999 46.9999 41.9999H8.99996C7.34593 41.9999 5.99996 40.654 5.99996 38.9999V17.0001C5.99996 15.346 7.34593 14.0001 8.99996 14.0001H46.9999C48.6539 14.0001 49.9998 15.346 49.9998 17.0001V38.9999H49.9999Z" fill="#7F94A8"/>
<path d="M50.9999 18H5.00003C4.44803 18 4 18.448 4 19V25C4 25.552 4.44803 26 5.00003 26H51C51.552 26 52 25.552 52 25V19C51.9999 18.448 51.5519 18 50.9999 18ZM49.9999 24H5.99996V20H49.9998V24H49.9999Z" fill="#7F94A8"/>
<path d="M23 32.0002H11C10.448 32.0002 10 32.4483 10 33.0003C10 33.5523 10.448 34.0002 11 34.0002H23C23.552 34.0002 24 33.5522 24 33.0002C24 32.4482 23.552 32.0002 23 32.0002Z" fill="#7F94A8"/>
<path d="M23 36H11C10.448 36 10 36.448 10 37C10 37.552 10.448 38.0001 11 38.0001H23C23.552 38.0001 24 37.552 24 37C23.9999 36.448 23.552 36 23 36Z" fill="#7F94A8"/>
<path d="M43 30H41C39.346 30 38 31.346 38 33V35C38 36.654 39.346 38 41 38H43C44.654 38 46 36.654 46 35V33C46 31.3461 44.654 30 43 30ZM44 35.0001C44 35.5521 43.552 36.0001 43 36.0001H41C40.448 36.0001 40 35.5521 40 35.0001V33.0001C40 32.4481 40.448 32.0001 41 32.0001H43C43.552 32.0001 44 32.4481 44 33.0001V35.0001Z" fill="#7F94A8"/>
</svg>
