<svg width="24" height="24" viewBox="0 0 24 24" fill="none" xmlns="http://www.w3.org/2000/svg">
<path d="M22.407 10.5689C22.4064 10.5684 22.4059 10.5678 22.4054 10.5673L13.4311 1.59334C13.0486 1.21065 12.54 1 11.999 1C11.4581 1 10.9495 1.21065 10.5668 1.59334L1.59722 10.5627C1.5942 10.5658 1.59101 10.5689 1.58816 10.572C0.802635 11.362 0.803978 12.6439 1.59202 13.4319C1.95205 13.7921 2.42739 14.0006 2.9358 14.0226C2.95661 14.0246 2.97743 14.0256 2.99841 14.0256H3.35592V20.6297C3.35592 21.9367 4.4194 23 5.72642 23H9.23744C9.59344 23 9.88197 22.7113 9.88197 22.3555V17.1777C9.88197 16.5814 10.3672 16.0963 10.9636 16.0963H13.0345C13.6308 16.0963 14.1159 16.5814 14.1159 17.1777V22.3555C14.1159 22.7113 14.4044 23 14.7604 23H18.2715C19.5786 23 20.642 21.9367 20.642 20.6297V14.0256H20.9736C21.5144 14.0256 22.023 13.8149 22.4059 13.4321C23.1947 12.6429 23.1951 11.3587 22.407 10.5689ZM21.4943 12.5207C21.3551 12.6598 21.1702 12.7365 20.9736 12.7365H19.9974C19.6414 12.7365 19.3529 13.025 19.3529 13.381V20.6297C19.3529 21.2259 18.8678 21.7109 18.2715 21.7109H15.405V17.1777C15.405 15.8707 14.3417 14.8072 13.0345 14.8072H10.9636C9.65638 14.8072 8.59291 15.8707 8.59291 17.1777V21.7109H5.72642C5.13023 21.7109 4.64498 21.2259 4.64498 20.6297V13.381C4.64498 13.025 4.35645 12.7365 4.00045 12.7365H3.04104C3.03097 12.7358 3.02107 12.7353 3.01083 12.7352C2.81881 12.7318 2.63871 12.6556 2.50376 12.5205C2.21674 12.2335 2.21674 11.7664 2.50376 11.4792C2.50393 11.4792 2.50393 11.479 2.5041 11.4788L2.5046 11.4783L11.4785 2.50475C11.6175 2.3656 11.8023 2.28906 11.999 2.28906C12.1956 2.28906 12.3804 2.3656 12.5195 2.50475L21.4914 11.4765C21.4928 11.4778 21.4943 11.4792 21.4956 11.4805C21.7811 11.768 21.7806 12.2341 21.4943 12.5207Z" fill="#FE5000"/>
</svg>
