<svg width="150" height="115" viewBox="0 0 150 115" fill="none" xmlns="http://www.w3.org/2000/svg">
<g clip-path="url(#clip0)">
<g filter="url(#filter0_d)">
<path d="M91.8001 51.9C99.0001 51.9 105 45.9 105 38.7C105 31.5 99.0001 25.5 91.8001 25.5C84.6001 25.5 78.6001 31.5 78.6001 38.7C78.6001 45.9 84.6001 51.9 91.8001 51.9ZM91.8001 30.6C96.3001 30.6 99.9001 34.2 99.9001 38.7C99.9001 43.2 96.3001 46.8 91.8001 46.8C87.3001 46.8 83.7001 43.2 83.7001 38.7C84.0001 34.2 87.6001 30.6 91.8001 30.6Z" fill="#BAE1E6"/>
<path d="M41.7001 152.7C31.5001 145.2 23.1001 135.3 17.4001 124.2C11.4001 112.5 8.40006 99.6 8.40006 86.4C8.70006 64.8 17.1001 44.4 32.4001 29.1C48.0001 13.8 68.4001 5.4 90.0001 5.4C102.9 5.4 115.2 8.4 126.6 14.1L137.4 20.7C159 36.3 171.9 61.2 171.9 87.3C171.9 106.2 165.3 124.5 153 138.9C149.7 142.8 147.6 147.3 146.7 152.4C145.8 156 144.9 162 147 167.7C147.6 169.5 147 171.6 145.8 173.1C144.3 174.6 142.5 174.9 140.7 174.6C135.3 173.1 129.9 170.7 124.8 167.7C120.6 165.3 115.8 164.7 111 165.9C104.1 167.7 96.9001 168.6 89.4001 168.6C76.5001 168.6 63.9001 165.3 52.5001 159.3L41.7001 152.7ZM49.8001 163.8C62.1001 170.1 75.3001 173.7 89.1001 173.7C96.9001 173.7 104.4 172.8 111.9 171C115.2 170.1 118.8 170.7 121.8 172.2C127.2 175.2 133.2 177.9 138.9 179.7C139.8 180 141 180 141.9 180C144.6 180 147.3 178.8 149.4 176.7C152.1 174 153 169.8 151.8 165.9C150.6 162.3 150.6 158.4 151.5 153C152.1 149.1 154.2 145.2 156.6 141.9C169.5 126.6 176.4 106.8 176.7 86.7C176.7 58.8 163.2 32.1 140.1 15.9L129 9.3C116.7 3 103.5 0 90.0001 0C66.9001 0 45.3001 9 28.8001 25.2C12.3001 41.4 3.30006 63.3 3.00006 86.1C3.00006 99.9 6.30006 114 12.6001 126.3C18.6001 138.3 27.6001 148.8 38.7001 156.9L49.8001 163.8Z" fill="#BAE1E6"/>
<path d="M64.5001 127.2V129.9C64.5001 135 68.7001 138.9 73.5001 138.9H109.8C114.9 138.9 118.8 134.7 118.8 129.9V127.2C118.8 122.1 114.6 118.2 109.8 118.2H105V67.4999C105 64.4999 103.5 61.7999 101.1 59.9999C98.7001 58.1999 95.4001 57.8999 92.7001 59.0999C88.2001 60.8999 83.7001 62.0999 78.9001 62.3999L70.5001 62.6999C67.2001 62.9999 64.5001 65.6999 64.5001 68.9999V74.0999C64.5001 77.6999 67.2001 80.3999 70.8001 80.3999H78.0001C78.3001 80.3999 78.3001 80.6999 78.3001 80.6999V117.9H73.5001C68.7001 117.9 64.5001 122.1 64.5001 127.2ZM81.3001 123.3C82.8001 123.3 84.0001 122.1 84.0001 120.6V80.9999C84.0001 77.9999 81.6001 75.2999 78.3001 75.2999H71.1001C70.5001 75.2999 70.2001 74.6999 70.2001 74.3999V68.9999C70.2001 68.3999 70.5001 68.0999 71.1001 68.0999L79.5001 67.7999C84.9001 67.4999 90.0001 66.2999 95.1001 64.1999C96.3001 63.5999 97.5001 63.8999 98.7001 64.4999C99.9001 65.0999 100.5 66.2999 100.5 67.4999V120.9C100.5 122.4 101.7 123.6 103.2 123.6H110.7C112.8 123.6 114.6 125.4 114.6 127.5V130.2C114.6 132.3 112.8 134.1 110.7 134.1H73.8001C71.7001 134.1 69.9001 132.3 69.9001 130.2V127.5C69.9001 125.4 71.7001 123.6 73.8001 123.6H81.3001V123.3Z" fill="#BAE1E6"/>
</g>
</g>
<defs>
<filter id="filter0_d" x="6.10352e-05" y="-4" width="189.7" height="196" filterUnits="userSpaceOnUse" color-interpolation-filters="sRGB">
<feFlood flood-opacity="0" result="BackgroundImageFix"/>
<feColorMatrix in="SourceAlpha" type="matrix" values="0 0 0 0 0 0 0 0 0 0 0 0 0 0 0 0 0 0 127 0"/>
<feOffset dx="5" dy="4"/>
<feGaussianBlur stdDeviation="4"/>
<feColorMatrix type="matrix" values="0 0 0 0 0.0975174 0 0 0 0 0.520633 0 0 0 0 0.570833 0 0 0 1 0"/>
<feBlend mode="normal" in2="BackgroundImageFix" result="effect1_dropShadow"/>
<feBlend mode="normal" in="SourceGraphic" in2="effect1_dropShadow" result="shape"/>
</filter>
<clipPath id="clip0">
<rect width="150" height="115" fill="white"/>
</clipPath>
</defs>
</svg>
