<svg width="24" height="24" viewBox="0 0 24 24" fill="none" xmlns="http://www.w3.org/2000/svg">
<path d="M22.4288 5.50914L17.2511 3.09299L17.2192 3.07906C17.2036 3.07268 17.1876 3.06697 17.1715 3.06194C17.1106 3.03961 17.048 3.0235 16.9842 3.0136L16.9466 3H16.8326C16.7954 3 16.7628 3.00319 16.7385 3.00655C16.6948 3.01057 16.6519 3.01746 16.6102 3.02736C16.5852 3.03307 16.5604 3.03978 16.535 3.04767C16.5102 3.05455 16.4785 3.06445 16.4429 3.07973L12 4.98395L7.56129 3.08174C7.53696 3.071 7.51195 3.06194 7.4866 3.05438C7.41325 3.02937 7.33672 3.01343 7.25816 3.00621C7.19035 2.99681 7.1165 3.00034 7.07118 3.00688C7.03107 3.01091 6.99078 3.01729 6.94933 3.02669C6.93103 3.03072 6.90887 3.03592 6.88286 3.04364C6.86104 3.04935 6.83133 3.05807 6.79843 3.0715L1.62154 5.14223C1.24388 5.29362 1 5.65416 1 6.06085V20.9035C1 21.232 1.16231 21.5382 1.4364 21.7243C1.60089 21.8349 1.79224 21.8933 1.98979 21.8933C2.11568 21.8933 2.23888 21.8698 2.35754 21.8228L7.15477 19.904L11.6116 21.8138C11.6418 21.8267 11.6724 21.8371 11.7036 21.8453C11.9008 21.9091 12.0979 21.9093 12.2961 21.8453C12.3278 21.8371 12.3589 21.8265 12.3899 21.8133L16.8456 19.904L21.6426 21.8227C21.7598 21.8695 21.8835 21.8933 22.0102 21.8933C22.2078 21.8933 22.3989 21.8349 22.5659 21.7226C22.8377 21.5382 23 21.2318 23 20.9035V6.40594C23 6.02292 22.7759 5.67094 22.4288 5.50914ZM7.81172 4.59169L11.3555 6.1102V20.3015L7.80803 18.7813L7.81172 4.59169ZM12.6445 6.1102L16.1688 4.59975L16.1918 18.7816L12.6445 20.3016V6.1102ZM2.28923 20.4616V6.26361L6.52266 4.57021L6.5188 18.7699L2.28923 20.4616ZM21.7108 20.4616L17.4809 18.7697L17.4579 4.612L21.7108 6.59679V20.4616Z" fill="#373A36"/>
</svg>
