<svg width="24" height="24" viewBox="0 0 24 24" fill="none" xmlns="http://www.w3.org/2000/svg">
<path d="M21.1543 4H3.8457C2.82925 4 2 4.82835 2 5.8457V18.1504C2 19.1643 2.82556 19.9961 3.8457 19.9961H21.1543C22.1682 19.9961 23 19.1705 23 18.1504V5.8457C23 4.8318 22.1744 4 21.1543 4ZM20.8994 5.23047L12.5391 13.5908L4.10652 5.23047H20.8994ZM3.23047 17.8956V6.09463L9.15637 11.9697L3.23047 17.8956ZM4.10053 18.7656L10.0302 12.836L12.1079 14.8959C12.3484 15.1343 12.7365 15.1336 12.9761 14.894L15.002 12.8681L20.8995 18.7656H4.10053ZM21.7695 17.8956L15.872 11.998L21.7695 6.10049V17.8956Z" fill="#373A36"/>
</svg>
