<svg width="24" height="24" viewBox="0 0 24 24" fill="none" xmlns="http://www.w3.org/2000/svg">
<path d="M19.7782 4.2218C17.7005 2.14421 14.9382 1 12 1C9.0618 1 6.29947 2.14421 4.2218 4.2218C2.14421 6.29947 1 9.0618 1 12C1 13.9381 1.50858 15.8341 2.47323 17.5018L1 23L6.49824 21.5268C8.16586 22.4914 10.0619 23 12 23C14.9382 23 17.7005 21.8558 19.7782 19.7782C21.8558 17.7005 23 14.9382 23 12C23 9.0618 21.8558 6.29947 19.7782 4.2218ZM12 21.7109C10.2058 21.7109 8.45306 21.2177 6.93119 20.2843L6.69503 20.1395L2.82299 21.1771L3.86052 17.305L3.71571 17.0689C2.78234 15.5469 2.28906 13.7942 2.28906 12C2.28906 6.64536 6.64536 2.28906 12 2.28906C17.3546 2.28906 21.7109 6.64536 21.7109 12C21.7109 17.3546 17.3546 21.7109 12 21.7109Z" fill="#373A36"/>
<path d="M12.6445 16.1895H11.3555V17.4785H12.6445V16.1895Z" fill="#373A36"/>
<path d="M12 6.52148C10.223 6.52148 8.77734 7.96717 8.77734 9.74414H10.0664C10.0664 8.67796 10.9338 7.81055 12 7.81055C13.0662 7.81055 13.9336 8.67796 13.9336 9.74414C13.9336 10.2203 13.7587 10.6779 13.4409 11.033L11.3555 13.3652V14.9004H12.6445V13.8575L14.4016 11.8925C14.9311 11.3009 15.2227 10.538 15.2227 9.74414C15.2227 7.96717 13.777 6.52148 12 6.52148Z" fill="#373A36"/>
</svg>
