<svg width="14" height="14" viewBox="0 0 14 14" fill="none" xmlns="http://www.w3.org/2000/svg">
<path d="M13.1246 10.0465V11.8906C13.1253 12.0618 13.0902 12.2312 13.0215 12.3881C12.9527 12.545 12.8519 12.6858 12.7255 12.8015C12.5991 12.9172 12.4499 13.0054 12.2874 13.0602C12.1249 13.115 11.9527 13.1354 11.7819 13.12C9.88659 12.9145 8.06601 12.2681 6.46645 11.2329C4.97827 10.2891 3.71655 9.02986 2.77089 7.54462C1.72996 5.94098 1.08217 4.11517 0.879999 2.21512C0.864608 2.04513 0.88485 1.87381 0.939436 1.71206C0.994023 1.55031 1.08176 1.40167 1.19706 1.27562C1.31236 1.14956 1.45269 1.04884 1.60913 0.979881C1.76556 0.910918 1.93468 0.87522 2.10569 0.87506H3.95347C4.25239 0.872123 4.54217 0.977764 4.76881 1.17229C4.99546 1.36682 5.14349 1.63696 5.18533 1.93235C5.26332 2.52251 5.40795 3.10197 5.61648 3.65968C5.69934 3.8797 5.71728 4.11881 5.66816 4.34869C5.61903 4.57857 5.50491 4.78958 5.33931 4.95671L4.55708 5.73739C5.43389 7.27633 6.71064 8.55056 8.25264 9.42562L9.03487 8.64495C9.20233 8.47968 9.41376 8.36578 9.64409 8.31675C9.87443 8.26773 10.114 8.28563 10.3345 8.36833C10.8933 8.57644 11.4739 8.72079 12.0652 8.79862C12.3644 8.84075 12.6377 8.99115 12.833 9.22123C13.0283 9.45131 13.1321 9.74501 13.1246 10.0465Z" stroke="#373A36" stroke-linecap="round" stroke-linejoin="round"/>
</svg>
