<svg width="32" height="20" viewBox="0 0 32 20" fill="none" xmlns="http://www.w3.org/2000/svg">
<g clip-path="url(#clip0)">
<path d="M20.7656 2.13892H11.2343V17.8611H20.7656V2.13892Z" fill="#FF5F00"/>
<path d="M12.2227 9.99963C12.2227 6.94407 13.6236 4.0274 16.0133 2.13852C11.7008 -1.27815 5.4931 -0.528151 2.11456 3.83296C-1.26398 8.19407 -0.522348 14.4441 3.7901 17.8607C7.38838 20.7219 12.415 20.7219 16.0133 17.8607C13.6236 15.9719 12.2227 13.083 12.2227 9.99963Z" fill="#EB001B"/>
<path d="M31.0661 16.1946V15.8612H31.2035V15.8057H30.8738V15.8612H31.0112V16.1946H31.0661ZM31.6979 16.1946V15.8057H31.588L31.4781 16.0834L31.3683 15.8057H31.2584V16.1946H31.3408V15.889L31.4507 16.139H31.5331L31.6429 15.889V16.1946H31.6979Z" fill="#F79E1B"/>
<path d="M32 9.99987C32 15.5277 27.5777 19.9999 22.1116 19.9999C19.8867 19.9999 17.7442 19.2499 16.0137 17.861C20.2987 14.4443 21.0403 8.16654 17.6618 3.8332C17.1674 3.19432 16.618 2.63876 15.9863 2.13876C20.2712 -1.27791 26.5064 -0.527907 29.885 3.8332C31.2584 5.58321 32 7.74987 32 9.99987Z" fill="#F79E1B"/>
</g>
<defs>
<clipPath id="clip0">
<rect width="32" height="20" fill="white"/>
</clipPath>
</defs>
</svg>
