<?xml version="1.0" encoding="utf-8"?>
<!-- Generator: Adobe Illustrator 23.0.1, SVG Export Plug-In . SVG Version: 6.00 Build 0)  -->
<svg version="1.1" id="Слой_1" xmlns="http://www.w3.org/2000/svg" xmlns:xlink="http://www.w3.org/1999/xlink" x="0px" y="0px"
	 viewBox="0 0 260.8 57.8" style="enable-background:new 0 0 260.8 57.8;" xml:space="preserve">
<style type="text/css">
	.st0{fill:#373A36;}
	.st1{fill:#FE5000;}
</style>
<g>
	<path class="st0" d="M90.1,13.4c-0.5-1.3-1.1-1.6-2.6-1.6h-3.9c-1.4,0-2,0.3-2.5,1.7L68.9,45.9c-0.5,1.4-0.2,2,1.4,2h3.5
		c2.5,0,3.2-0.4,3.7-1.9l1.6-4.8h12.6l1.6,4.8c0.5,1.5,1.2,1.9,3.8,1.9h3.8c1.5,0,1.9-0.7,1.4-2L90.1,13.4z M81.3,34.5l2.7-7.9
		c1.2-3.6,1.2-6.2,1.2-6.2h0.5c0,0,0.1,2.6,1.3,6.3l2.6,7.9H81.3z M124.8,11.7h-24.2c-1.6,0-2.1,0.5-2.1,2.1v3.4c0,1.5,0.5,2,2.1,2
		h8v26.5c0,1.6,0.5,2.1,2,2.1h4.1c1.6,0,2.1-0.5,2.1-2.1V19.3h7.9c1.6,0,2.1-0.5,2.1-2v-3.4C126.8,12.3,126.3,11.7,124.8,11.7
		 M146.5,25h-8.2v-5.9h15.3c1.5,0,2.1-0.6,2.1-2.1v-3.2c0-1.6-0.6-2.1-2.1-2.1H132c-1.5,0-2.1,0.5-2.1,2.1v32.1c0,1.5,0.6,2,2,2
		h14.5c7,0,11.6-4.4,11.6-11.4C158.1,29.4,153.5,25,146.5,25 M145.3,40.5h-7.1v-8.1h7.1c2.7,0,4.2,1.6,4.2,4.1
		C149.6,38.9,148,40.5,145.3,40.5"/>
	<path class="st0" d="M174.1,54.2h0.6V5.4h-0.6V54.2z M192.9,19.4c-0.5,0-1.3-0.2-1.7-0.6l-0.3,0.5c0.4,0.4,1.4,0.7,2.1,0.7
		c1.3,0,2.2-0.6,2.2-1.6c0-0.6-0.4-1.2-1.2-1.3v0c0.7-0.3,1-0.8,1-1.3c0-0.9-0.7-1.4-2-1.4c-0.8,0-1.6,0.3-2,0.7l0.3,0.5
		c0.4-0.3,0.9-0.6,1.7-0.6c0.8,0,1.4,0.3,1.4,0.9c0,0.6-0.5,1-1.1,1h-0.9v0.5h0.9c0.8,0,1.3,0.3,1.3,0.9
		C194.5,19,193.9,19.4,192.9,19.4 M220.1,14.5h-0.6v5.4h0.6V14.5z M234.2,16.6h-2.8v0.6h2.8V16.6z M224.1,19.9l-2.9-2.8l2.7-2.6
		h-0.8l-2.6,2.6l2.8,2.8H224.1z M200.9,15.4v4.5h0.6v-5.4h-0.6l-3.6,4.5v-4.5h-0.6v5.4h0.6L200.9,15.4z M184,17h4l1.2,2.9h0.7
		l-3.7-8.5h-0.5l-3.7,8.5h0.7L184,17z M186,12.3l1.7,4.1h-3.5L186,12.3z M210.1,19.9h0.6v-4.8h2.2v-0.6h-4.9v0.6h2.2V19.9z
		 M227.3,14.3c-1.7,0-2.8,1.2-2.8,2.8c0,1.6,1.2,2.8,2.8,2.8c1.7,0,2.8-1.2,2.8-2.8C230.1,15.5,229,14.3,227.3,14.3 M227.3,19.4
		c-1.3,0-2.2-0.9-2.2-2.2c0-1.3,0.9-2.2,2.2-2.2c1.3,0,2.2,0.9,2.2,2.2C229.4,18.5,228.5,19.4,227.3,19.4 M205,14.3
		c-0.6,0-1.2,0.2-1.7,0.5l0.2,0.5c0.5-0.3,0.9-0.4,1.5-0.4c1.4,0,1.4,0.8,1.4,2.1c-0.4-0.3-1-0.4-1.5-0.4c-1.2,0-2.1,0.6-2.1,1.7
		c0,1,0.7,1.6,1.7,1.6c1,0,1.5-0.4,1.9-0.9v0.8h0.6v-3.4C207,15.1,206.5,14.3,205,14.3 M206.4,18.5c-0.3,0.4-0.7,0.9-1.7,0.9
		c-0.7,0-1.2-0.4-1.2-1.1c0-0.8,0.7-1.1,1.5-1.1c0.6,0,1,0.1,1.4,0.4V18.5z M218.3,19.1l-0.3-0.5c-0.4,0.4-1,0.7-1.7,0.7
		c-1.3,0-2.3-0.9-2.3-2.2c0-1.3,1-2.2,2.1-2.2c0.6,0,1.2,0.2,1.7,0.6l0.3-0.5c-0.5-0.5-1.3-0.7-2.1-0.7c-1.5,0-2.7,1.2-2.7,2.8
		c0,1.7,1.2,2.8,2.9,2.8C217,20,217.8,19.7,218.3,19.1 M227.5,27.9c-0.6,0-1.2,0.2-1.7,0.5l0.2,0.5c0.5-0.3,0.9-0.4,1.5-0.4
		c1.4,0,1.4,0.8,1.4,2.1c-0.4-0.3-1-0.4-1.5-0.4c-1.2,0-2.1,0.6-2.1,1.7c0,1,0.7,1.6,1.7,1.6c1,0,1.5-0.4,1.9-0.9v0.8h0.6v-3.4
		C229.6,28.7,229.1,27.9,227.5,27.9 M228.9,32.1c-0.3,0.4-0.7,0.9-1.7,0.9c-0.7,0-1.2-0.4-1.2-1.1c0-0.8,0.7-1.1,1.5-1.1
		c0.6,0,1,0.1,1.4,0.4V32.1z M218.8,28h-0.8l-2.6,2.6l2.8,2.8h0.8l-2.9-2.8L218.8,28z M235.4,30.4h-3.5V28h-0.6v5.4h0.6V31h3.5v2.5
		h0.6V28h-0.6V30.4z M222,27.9c-1.8,0-2.7,1.2-2.7,2.8c0,1.7,1.2,2.8,2.9,2.8c0.7,0,1.5-0.3,2-0.8l-0.2-0.5c-0.4,0.4-1,0.7-1.8,0.7
		c-1.3,0-2.2-0.8-2.2-2.1h4.5c0-0.1,0-0.3,0-0.5C224.5,28.9,223.4,27.9,222,27.9 M219.9,30.3c0.1-1.1,0.8-1.8,2-1.8
		c1.1,0,1.9,0.7,1.9,1.8H219.9z M249.9,32.5V28h-0.6v5.4h0.6l3.6-4.5v4.5h0.6V28h-0.6L249.9,32.5z M260.2,28l-3.6,4.5V28h-0.6v5.4
		h0.6l3.6-4.5v4.5h0.6V28H260.2z M258.4,26.7c1,0,1.6-0.7,1.6-1.5h-0.6c0,0.6-0.4,1.1-1.1,1.1c-0.7,0-1.1-0.5-1.1-1.1h-0.6
		C256.8,26.1,257.4,26.7,258.4,26.7 M185.2,33.4h0.7v-7.8h3.1V25h-6.9v0.6h3.1V33.4z M240.3,33c-1.3,0-2.3-0.9-2.3-2.2
		c0-1.3,1-2.2,2.1-2.2c0.6,0,1.2,0.2,1.7,0.6l0.3-0.5c-0.5-0.5-1.3-0.7-2.1-0.7c-1.5,0-2.7,1.2-2.7,2.8c0,1.7,1.2,2.8,2.9,2.8
		c0.8,0,1.6-0.3,2-0.9l-0.3-0.5C241.7,32.6,241,33,240.3,33 M248,28h-0.8l-2.6,2.6l2.8,2.8h0.8l-2.9-2.8L248,28z M243.5,33.4h0.6V28
		h-0.6V33.4z M210.1,27.9c-1.7,0-2.8,1.2-2.8,2.8c0,1.6,1.2,2.8,2.8,2.8c1.7,0,2.8-1.2,2.8-2.8C212.9,29.1,211.8,27.9,210.1,27.9
		 M210.1,33c-1.3,0-2.2-0.9-2.2-2.2c0-1.3,0.9-2.2,2.2-2.2c1.3,0,2.2,0.9,2.2,2.2C212.3,32,211.3,33,210.1,33 M206.1,30.7
		c0-1.6-1.2-2.8-2.8-2.8c-1.7,0-2.8,1.2-2.8,2.8c0,1.6,1.2,2.8,2.8,2.8C205,33.5,206.1,32.4,206.1,30.7 M201.1,30.7
		c0-1.3,0.9-2.2,2.2-2.2c1.3,0,2.2,0.9,2.2,2.2c0,1.3-0.9,2.2-2.2,2.2C202,33,201.1,32,201.1,30.7 M214.3,33.4h0.6V28h-0.6V33.4z
		 M199.2,33.4h0.8l-2.2-2.8l2-2.6h-0.7l-1.7,2.2l-1.7-2.2h-0.8l2,2.6l-2.2,2.8h0.7l1.9-2.4L199.2,33.4z M192.9,33.4h0.6V28h-0.6
		l-3.6,4.5V28h-0.6v5.4h0.6l3.6-4.5V33.4z M206.5,41.6h-0.8l-2.6,2.6l2.8,2.8h0.8l-2.9-2.8L206.5,41.6z M191.9,41.4
		c-0.6,0-1.2,0.2-1.7,0.5l0.2,0.5c0.5-0.3,0.9-0.4,1.5-0.4c1.3,0,1.4,0.8,1.4,2.1c-0.4-0.3-1-0.4-1.5-0.4c-1.2,0-2.1,0.6-2.1,1.7
		c0,1,0.7,1.6,1.7,1.6c1,0,1.5-0.4,1.9-0.9V47h0.6v-3.4C193.9,42.2,193.4,41.4,191.9,41.4 M193.2,45.6c-0.3,0.4-0.7,0.9-1.7,0.9
		c-0.7,0-1.2-0.4-1.2-1.1c0-0.8,0.7-1.1,1.5-1.1c0.6,0,1,0.1,1.4,0.4V45.6z M202.1,47h0.6v-5.4h-0.6V47z M199.7,43.9h-3.5v-2.4h-0.6
		V47h0.6v-2.5h3.5V47h0.6v-5.4h-0.6V43.9z M185.5,42c-0.3,0-0.9,0-1.4,0.1v-2.9h4v-0.6h-4.6V47c0.5,0,1.1,0,1.9,0
		c2,0,3.2-0.9,3.2-2.6C188.5,42.9,187.5,42,185.5,42 M185.4,46.4c-0.5,0-0.9,0-1.3,0v-3.7c0.5-0.1,1-0.1,1.4-0.1
		c1.6,0,2.4,0.7,2.4,1.8C187.9,45.7,187,46.4,185.4,46.4"/>
	<path class="st1" d="M48.2,0H9.6C4.3,0,0,4.3,0,9.6v38.6c0,5.3,4.3,9.6,9.6,9.6h38.5c5.3,0,9.6-4.3,9.6-9.6V9.6
		C57.8,4.3,53.5,0,48.2,0 M54.8,47.2c-0.1,0.1-0.3,0.2-0.4,0.1c-7.4-4.5-16.2-7.1-25.5-7.1s-18.1,2.6-25.5,7.1
		c-0.1,0.1-0.3,0-0.4-0.1C2.9,47,3,46.9,3.1,46.8l0,0C9.9,41.6,15.7,35,20.2,27.2c4.5-7.8,7.3-16.2,8.4-24.6c0-0.1,0.1-0.3,0.3-0.3
		c0.2,0,0.3,0.1,0.3,0.3c1.1,8.4,3.9,16.8,8.4,24.6C42.1,35,48,41.6,54.7,46.7l0,0C54.9,46.9,54.9,47,54.8,47.2"/>
</g>
</svg>
