<svg width="69" height="27" viewBox="0 0 69 27" fill="none" xmlns="http://www.w3.org/2000/svg">
<g clip-path="url(#clip0)">
<path d="M33.0333 13.1276V21.0104H30.535V1.55174H37.1609C38.7592 1.5207 40.2954 2.12587 41.4592 3.24311C42.623 4.28277 43.2747 5.78794 43.2437 7.33967C43.2747 8.90691 42.623 10.4121 41.4592 11.4673C40.2954 12.569 38.8678 13.1276 37.1764 13.1276H33.0333ZM33.0333 3.94139V10.7379H37.223C38.154 10.769 39.054 10.3966 39.6902 9.72932C41.0092 8.45691 41.0247 6.36208 39.7523 5.04311L39.6902 4.98105C39.054 4.29829 38.154 3.92587 37.223 3.95691L33.0333 3.94139ZM49.0006 7.26208C50.8471 7.26208 52.3057 7.75863 53.3764 8.73622C54.4471 9.72932 54.9747 11.0793 54.9747 12.8017V20.9948H52.585V19.1483H52.4764C51.4368 20.669 50.0712 21.4293 48.3488 21.4293C46.8902 21.4293 45.6488 20.9948 44.6712 20.1259C43.7092 19.319 43.1661 18.1241 43.1971 16.8673C43.1971 15.4862 43.7247 14.4 44.7643 13.5776C45.804 12.7552 47.2006 12.3517 48.9385 12.3517C50.4281 12.3517 51.6385 12.631 52.6006 13.1586V12.5845C52.6006 11.731 52.2281 10.9241 51.5764 10.381C50.9092 9.79139 50.0557 9.46553 49.1712 9.46553C47.7747 9.46553 46.673 10.0552 45.8506 11.2345L43.6471 9.85346C44.8419 8.13105 46.6264 7.26208 49.0006 7.26208ZM45.773 16.9293C45.773 17.581 46.0833 18.1862 46.5954 18.5586C47.154 18.9931 47.8368 19.2259 48.535 19.2104C49.5902 19.2104 50.5988 18.7914 51.3437 18.0466C52.1661 17.2707 52.585 16.3552 52.585 15.3C51.8092 14.6793 50.723 14.369 49.3264 14.369C48.3178 14.369 47.4643 14.6173 46.7816 15.0983C46.1143 15.5948 45.773 16.2 45.773 16.9293ZM68.6919 7.69656L60.3437 26.8759H57.7678L60.8713 20.1724L55.3781 7.71208H58.0937L62.0506 17.2707H62.1126L65.9764 7.71208L68.6919 7.69656Z" fill="#5F6368"/>
<path d="M22.9316 11.4207C22.9316 10.6604 22.8695 9.90004 22.7454 9.15521H12.2092V13.4535H18.2454C17.9971 14.8345 17.1902 16.0759 16.0109 16.8518V19.6449H19.6109C21.7212 17.7052 22.9316 14.8345 22.9316 11.4207Z" fill="#4285F4"/>
<path d="M12.2092 22.3448C15.2195 22.3448 17.7643 21.3517 19.6109 19.6448L16.0109 16.8517C15.0023 17.5345 13.7143 17.9224 12.2092 17.9224C9.29192 17.9224 6.82467 15.9517 5.94019 13.3138H2.23157V16.2C4.12467 19.9552 7.98847 22.3448 12.2092 22.3448Z" fill="#34A853"/>
<path d="M5.94022 13.3138C5.4747 11.9328 5.4747 10.4276 5.94022 9.03103V6.16034H2.23159C1.44357 7.71357 1.0329 9.43072 1.0329 11.1724C1.0329 12.9141 1.44357 14.6313 2.23159 16.1845L5.94022 13.3138Z" fill="#FBBC04"/>
<path d="M12.2092 4.42242C13.8074 4.39138 15.3436 4.99656 16.4919 6.09828L19.673 2.91725C17.6557 1.00862 14.9867 -0.0310306 12.2092 3.89136e-06C7.98847 3.89136e-06 4.12467 2.38966 2.23157 6.16035L5.94019 9.04656C6.82467 6.39311 9.29192 4.42242 12.2092 4.42242Z" fill="#EA4335"/>
</g>
<defs>
<clipPath id="clip0">
<rect width="67.8104" height="27" fill="white" transform="translate(0.881592)"/>
</clipPath>
</defs>
</svg>
