<svg width="24" height="24" viewBox="0 0 24 24" fill="none" xmlns="http://www.w3.org/2000/svg">
<path d="M18.8278 23C18.7374 23 18.6464 22.9814 18.5612 22.9435L12.4999 20.2449L6.43852 22.9435C6.21422 23.043 5.95274 23.0083 5.76176 22.8556C5.57014 22.7022 5.48042 22.4544 5.52849 22.2137L6.86533 15.5166L2.19211 10.8352C2.021 10.6638 1.95819 10.4122 2.02805 10.1798C2.0979 9.9481 2.29016 9.7735 2.52729 9.726L9.22566 8.38377L11.9 2.35626C12.1115 1.88125 12.8882 1.88125 13.0997 2.35626L15.7741 8.38377L22.4724 9.726C22.7096 9.7735 22.9018 9.9481 22.9717 10.1798C23.0415 10.4122 22.9787 10.6638 22.8076 10.8352L18.1344 15.5166L19.4712 22.2137C19.5193 22.4544 19.4296 22.7022 19.238 22.8556C19.1194 22.9506 18.9739 23 18.8278 23H18.8278ZM12.4998 18.868C12.5909 18.868 12.6819 18.8867 12.7664 18.9245L17.9357 21.2264L16.7783 15.4293C16.7354 15.2137 16.8026 14.9909 16.9577 14.8356L21.0125 10.7742L15.1838 9.60595C14.9749 9.56423 14.7993 9.42365 14.7128 9.22851L12.4998 4.24154L10.2869 9.22851C10.2004 9.42365 10.0248 9.56423 9.81588 9.60595L3.98718 10.7742L8.04196 14.8356C8.19705 14.9909 8.26434 15.2137 8.22141 15.4293L7.06399 21.2264L12.2332 18.9245C12.3178 18.8867 12.4088 18.868 12.4999 18.868H12.4998Z" fill="#FE5000"/>
</svg>
