<svg width="24" height="24" viewBox="0 0 24 24" fill="none" xmlns="http://www.w3.org/2000/svg">
<path d="M18.7501 8.69982C18.5251 4.87482 15.6751 5.24982 12.0001 5.24982C9.75006 5.24982 9.52506 5.24982 8.62506 5.24982C4.80006 5.47482 5.17506 8.17482 5.17506 11.9998C5.17506 14.7748 4.95006 16.6498 6.15006 17.7748C7.20006 18.8248 8.55006 18.7498 12.0001 18.7498C15.3751 18.7498 16.8001 18.8248 17.8501 17.7748C18.9001 16.7248 18.8251 15.3748 18.8251 11.9998C18.7501 9.82482 18.7501 9.52482 18.7501 8.69982ZM12.0001 16.1998C9.67506 16.1998 7.80006 14.3248 7.80006 11.9998C7.80006 9.67482 9.67506 7.79982 12.0001 7.79982C14.3251 7.79982 16.2001 9.67482 16.2001 11.9998C16.2001 14.3248 14.3251 16.1998 12.0001 16.1998ZM16.4251 8.54982C15.9001 8.54982 15.4501 8.09982 15.4501 7.57482C15.4501 7.04982 15.9001 6.59982 16.4251 6.59982C16.9501 6.59982 17.4001 7.04982 17.4001 7.57482C17.4001 8.09982 16.9501 8.54982 16.4251 8.54982Z" fill="#373A36"/>
<path d="M21 0H3C1.35 0 0 1.35 0 3V21C0 22.65 1.35 24 3 24H21C22.65 24 24 22.65 24 21V3C24 1.35 22.65 0 21 0ZM20.175 15.375C20.025 17.85 18.9 19.2 17.4 19.8C16.275 20.25 15.15 20.25 12 20.25C8.925 20.25 6.75 20.475 5.175 18.9C3.6 17.325 3.75 15.225 3.75 12C3.75 8.85 3.525 6.75 5.1 5.175C6.075 4.2 7.2 3.9 8.55 3.825C10.05 3.75 13.8 3.75 15.375 3.825C18.45 3.975 20.025 5.7 20.175 8.625C20.25 10.125 20.25 13.875 20.175 15.375Z" fill="#373A36"/>
<path d="M12 9.2251C10.5 9.2251 9.22498 10.4251 9.22498 12.0001C9.22498 13.5001 10.425 14.7751 12 14.7751C13.5 14.7751 14.775 13.5751 14.775 12.0001C14.775 10.5001 13.5 9.2251 12 9.2251Z" fill="#373A36"/>
</svg>
