<svg width="22" height="22" viewBox="0 0 22 22" fill="none" xmlns="http://www.w3.org/2000/svg">
<g clip-path="url(#clip0)">
<path d="M18.8614 1H3.13857C1.40791 1 0 2.40796 0 4.13857V14.7502C0 16.4808 1.40791 17.8887 3.13857 17.8887H4.37018L4.39429 20.6595C4.39643 20.9149 4.54309 21.1469 4.7728 21.2586C4.86617 21.3039 4.96667 21.3262 5.0667 21.3262C5.21275 21.3262 5.35773 21.2787 5.4777 21.1861L9.74987 17.8887H18.8614C20.5921 17.8887 22 16.4808 22 14.7502V4.13857C22 2.40796 20.5921 1 18.8614 1ZM20.6549 14.7502C20.6549 15.7391 19.8504 16.5437 18.8614 16.5437H9.52054C9.37187 16.5437 9.22737 16.593 9.10963 16.6838L5.72752 19.2942L5.70939 17.2104C5.70621 16.8412 5.40603 16.5437 5.03688 16.5437H3.13857C2.14964 16.5437 1.34509 15.7391 1.34509 14.7502V4.13857C1.34509 3.14964 2.14964 2.34509 3.13857 2.34509H18.8615C19.8504 2.34509 20.6549 3.14964 20.6549 4.13857V14.7502H20.6549Z" fill="#449099"/>
<rect x="6" y="7" width="9" height="1.5" fill="#449099"/>
<rect x="6" y="11" width="4" height="1.5" fill="#449099"/>
</g>
<defs>
<clipPath id="clip0">
<rect width="22" height="22" fill="white"/>
</clipPath>
</defs>
</svg>
