<svg width="24" height="24" viewBox="0 0 24 24" fill="none" xmlns="http://www.w3.org/2000/svg">
<path d="M19.8614 3H4.13857C2.40791 3 1 4.40796 1 6.13857V16.7502C1 18.4808 2.40791 19.8887 4.13857 19.8887H5.37018L5.39429 22.6595C5.39643 22.9149 5.54309 23.1469 5.7728 23.2586C5.86617 23.3039 5.96667 23.3262 6.0667 23.3262C6.21275 23.3262 6.35773 23.2787 6.4777 23.1861L10.7499 19.8887H19.8614C21.5921 19.8887 23 18.4808 23 16.7502V6.13857C23 4.40796 21.5921 3 19.8614 3ZM21.6549 16.7502C21.6549 17.7391 20.8504 18.5437 19.8614 18.5437H10.5205C10.3719 18.5437 10.2274 18.593 10.1096 18.6838L6.72752 21.2942L6.70939 19.2104C6.70621 18.8412 6.40603 18.5437 6.03688 18.5437H4.13857C3.14964 18.5437 2.34509 17.7391 2.34509 16.7502V6.13857C2.34509 5.14964 3.14964 4.34509 4.13857 4.34509H19.8615C20.8504 4.34509 21.6549 5.14964 21.6549 6.13857V16.7502H21.6549Z" fill="#FE5000"/>
<rect x="7" y="9" width="9" height="1.5" fill="#FE5000"/>
<rect x="7" y="13" width="4" height="1.5" fill="#FE5000"/>
</svg>
