<svg width="24" height="24" viewBox="0 0 24 24" fill="none" xmlns="http://www.w3.org/2000/svg">
<path d="M12 9.9748C13.2 9.9748 14.1 9.0748 14.1 7.9498C14.1 6.8248 13.125 5.9248 12 5.9248C10.8 5.9248 9.90002 6.8248 9.90002 7.9498C9.90002 9.0748 10.8 9.9748 12 9.9748Z" fill="#373A36"/>
<path d="M21 0H3C1.35 0 0 1.35 0 3V21C0 22.65 1.35 24 3 24H21C22.65 24 24 22.65 24 21V3C24 1.35 22.65 0 21 0ZM12 3.75C14.4 3.75 16.35 5.625 16.35 7.95C16.35 10.275 14.4 12.15 12 12.15C9.6 12.15 7.65 10.275 7.65 7.95C7.65 5.625 9.6 3.75 12 3.75ZM15.825 14.475C14.925 15 13.65 15.225 12.825 15.375C12.6 15.15 15.975 18.45 16.05 18.525C16.95 19.425 15.45 20.85 14.55 20.025C13.875 19.425 12.975 18.525 12 17.55L9.45 20.025C8.475 20.925 6.975 19.425 7.95 18.525C10.35 16.2 11.025 15.6 11.175 15.45C11.175 15.45 11.175 15.45 11.25 15.45C10.425 15.375 9.15 15.15 8.25 14.55C7.125 13.875 6.675 13.5 7.125 12.675C7.35 12.225 8.025 11.775 8.925 12.525C8.925 12.525 10.125 13.425 12.075 13.425C14.025 13.425 15.225 12.525 15.225 12.525C16.125 11.85 16.8 12.225 17.025 12.675C17.4 13.425 16.95 13.8 15.825 14.475Z" fill="#373A36"/>
</svg>
