<svg width="24" height="24" viewBox="0 0 24 24" fill="none" xmlns="http://www.w3.org/2000/svg">
<path d="M21 0H3C1.35 0 0 1.35 0 3V21C0 22.65 1.35 24 3 24H21C22.65 24 24 22.65 24 21V3C24 1.35 22.65 0 21 0ZM18.525 8.625C18.525 8.775 18.525 8.925 18.525 9.075C18.525 13.575 15.15 18.675 8.925 18.675C6.975 18.675 5.25 18.15 3.75 17.175C4.05 17.25 4.275 17.25 4.575 17.25C6.15 17.25 7.65 16.725 8.775 15.825C7.275 15.825 6.075 14.775 5.625 13.5C5.775 13.5 6 13.5 6.225 13.5C6.525 13.5 6.825 13.5 7.125 13.425C5.55 13.125 4.425 11.775 4.425 10.125C4.875 10.35 5.4 10.5 5.925 10.575C5.025 9.975 4.425 8.925 4.425 7.8C4.425 7.2 4.575 6.6 4.875 6.075C6.525 8.1 9 9.45 11.85 9.6C11.775 9.375 11.775 9.075 11.775 8.85C11.775 6.975 13.275 5.475 15.15 5.475C16.125 5.475 17.025 5.85 17.625 6.525C18.375 6.375 19.125 6.075 19.8 5.7C19.575 6.525 19.05 7.125 18.3 7.575C18.975 7.5 19.65 7.275 20.25 7.05C19.8 7.575 19.2 8.175 18.525 8.625Z" fill="#373A36"/>
<rect width="24" height="24" rx="3" fill="#373A36"/>
<path d="M8 17V7L17 12L8 17Z" fill="white"/>
</svg>
