<?xml version="1.0" encoding="utf-8"?>
<!-- Generator: Adobe Illustrator 16.0.0, SVG Export Plug-In . SVG Version: 6.00 Build 0)  -->
<!DOCTYPE svg PUBLIC "-//W3C//DTD SVG 1.1//EN" "http://www.w3.org/Graphics/SVG/1.1/DTD/svg11.dtd">
<svg version="1.1" id="Слой_1" xmlns="http://www.w3.org/2000/svg" xmlns:xlink="http://www.w3.org/1999/xlink" x="0px" y="0px"
	 width="19.417px" height="19.417px" viewBox="0 0 19.417 19.417" enable-background="new 0 0 19.417 19.417" xml:space="preserve">
<g>
	<path fill-rule="evenodd" clip-rule="evenodd" fill="#393939" d="M14.866,13.768c0.178,0.168,0.365,0.338,0.542,0.516
		c0.872,0.869,1.746,1.738,2.612,2.613c0.509,0.515,0.423,1.205-0.178,1.541c-0.358,0.198-0.792,0.123-1.12-0.204
		c-0.99-0.987-1.978-1.975-2.963-2.965c-0.066-0.067-0.108-0.16-0.156-0.232c-3.533,2.716-8.119,1.999-10.707-0.842
		C0.166,11.195,0.168,6.547,2.959,3.526c2.626-2.843,7.125-3.298,10.329-1.018C16.466,4.769,17.963,9.755,14.866,13.768z
		 M14.674,8.942c0.001-3.316-2.644-5.988-5.962-5.986C5.391,2.959,2.751,5.593,2.73,8.898c-0.022,3.32,2.666,6.002,5.978,5.997
		C12.014,14.891,14.671,12.239,14.674,8.942z"/>
	<path fill="#393939" d="M17.425,18.667c-0.283,0-0.562-0.124-0.788-0.349c-0.99-0.987-1.978-1.976-2.963-2.965
		c-0.043-0.044-0.076-0.094-0.105-0.142c-1.447,1.079-3.13,1.647-4.876,1.647c-2.244,0-4.388-0.942-5.884-2.585
		C0.04,11.235,0.067,6.479,2.871,3.444c1.473-1.594,3.6-2.508,5.835-2.508c1.688,0,3.297,0.51,4.652,1.475
		c1.713,1.218,2.925,3.221,3.243,5.358c0.221,1.49,0.125,3.73-1.574,5.985l0.069,0.063c0.133,0.124,0.268,0.25,0.397,0.38
		l0.261,0.26c0.786,0.782,1.571,1.566,2.352,2.354c0.279,0.282,0.406,0.623,0.358,0.96c-0.045,0.32-0.246,0.594-0.562,0.771
		C17.752,18.625,17.592,18.667,17.425,18.667z M13.634,14.861l0.071,0.108c0.016,0.023,0.031,0.05,0.046,0.077
		c0.029,0.05,0.059,0.102,0.094,0.138c0.985,0.989,1.973,1.977,2.962,2.964c0.283,0.282,0.668,0.356,0.977,0.184
		c0.25-0.139,0.407-0.351,0.442-0.595c0.037-0.261-0.066-0.528-0.292-0.757c-0.78-0.787-1.565-1.57-2.35-2.352l-0.261-0.261
		c-0.128-0.127-0.261-0.251-0.392-0.373l-0.228-0.214l0.066-0.087c1.71-2.216,1.81-4.426,1.593-5.89
		c-0.308-2.073-1.484-4.017-3.145-5.198c-1.314-0.936-2.875-1.43-4.513-1.43c-2.169,0-4.231,0.886-5.658,2.431
		c-2.72,2.943-2.747,7.558-0.062,10.506c1.451,1.593,3.531,2.506,5.707,2.506c1.736,0,3.409-0.58,4.837-1.678L13.634,14.861z
		 M8.708,15.016c-1.648,0-3.184-0.639-4.335-1.799c-1.147-1.154-1.773-2.688-1.763-4.318c0.021-3.396,2.702-6.06,6.102-6.062h0.003
		c1.635,0,3.165,0.635,4.309,1.785c1.143,1.149,1.771,2.685,1.77,4.321C14.791,12.286,12.061,15.011,8.708,15.016z M8.715,2.956
		l-0.003,0.12C5.446,3.079,2.871,5.637,2.85,8.899c-0.01,1.565,0.591,3.039,1.693,4.148c1.106,1.113,2.581,1.728,4.155,1.728
		c3.23-0.005,5.853-2.622,5.856-5.833c0-1.573-0.603-3.048-1.7-4.151c-1.099-1.105-2.568-1.715-4.139-1.715V2.956z"/>
</g>
</svg>
