<svg width="43" height="14" viewBox="0 0 43 14" fill="none" xmlns="http://www.w3.org/2000/svg">
<g clip-path="url(#clip0)">
<path d="M18.6408 13.7662H15.1318L17.3247 0.242016H20.8337L18.6408 13.7662ZM12.1806 0.242016L8.83503 9.54322L8.43855 7.53941L7.25932 1.4603C7.25932 1.4603 7.11625 0.242016 5.59572 0.242016H0.0653992L0 0.469675C0 0.469675 1.69016 0.822444 3.67053 2.01611L6.71977 13.7662H10.376L15.9574 0.242016H12.1806ZM39.777 13.7662H43L40.1899 0.242016H37.3695C36.0677 0.242016 35.7489 1.24905 35.7489 1.24905L30.5169 13.7662H34.1752L34.9068 11.7583H39.3663L39.777 13.7662ZM35.9164 8.98125L37.7599 3.91943L38.7961 8.98125H35.9164ZM30.7908 3.49487L31.2915 0.590683C31.2915 0.590683 29.7464 0 28.136 0C26.3947 0 22.2603 0.762965 22.2603 4.47729C22.2603 7.97217 27.1141 8.01524 27.1141 9.85086C27.1141 11.6865 22.761 11.3563 21.3242 10.1995L20.8031 13.237C20.8031 13.237 22.3706 14 24.7638 14C27.1591 14 30.7703 12.7551 30.7703 9.36888C30.7703 5.85145 25.8736 5.52534 25.8736 3.99531C25.8736 2.46733 29.2907 2.66423 30.7908 3.49487Z" fill="#1A1F71"/>
</g>
<defs>
<clipPath id="clip0">
<rect width="43" height="14" fill="white"/>
</clipPath>
</defs>
</svg>
