<svg width="80" height="80" viewBox="0 0 80 80" fill="none" xmlns="http://www.w3.org/2000/svg">
<path fill-rule="evenodd" clip-rule="evenodd" d="M72.783 34.5592V31.2949V19.6906C72.783 15.8913 69.6921 12.8004 65.893 12.8004H36.0149L15.8577 7.04113C15.8519 7.03953 15.846 7.03866 15.8402 7.03707C15.8342 7.03547 15.8286 7.03315 15.8226 7.0317C15.8104 7.02866 15.7984 7.0272 15.7863 7.02459L15.7793 7.02312C15.763 7.01968 15.7466 7.01624 15.7302 7.01357C15.7132 7.01081 15.6966 7.00907 15.6796 7.00704C15.6599 7.00472 15.6403 7.00269 15.6207 7.00153C15.6047 7.00066 15.5889 7.00051 15.573 7.00022C15.5527 6.99993 15.5325 6.99979 15.5123 7.00066C15.4974 7.00124 15.4825 7.00269 15.4677 7.00385C15.4469 7.00559 15.4262 7.00748 15.4057 7.01052C15.3918 7.01255 15.378 7.01517 15.3642 7.01763C15.3431 7.0214 15.3222 7.02546 15.3014 7.03054C15.2895 7.0335 15.2778 7.03682 15.266 7.04018L15.2631 7.04098C15.242 7.04708 15.2211 7.05331 15.2002 7.06057C15.1884 7.06477 15.1768 7.06927 15.1651 7.07391C15.144 7.08204 15.1232 7.09059 15.1027 7.10002C15.0918 7.1051 15.0812 7.11061 15.0705 7.11598C15.0501 7.12628 15.0299 7.13672 15.0102 7.14847C14.9999 7.15442 14.99 7.1608 14.9798 7.16718C14.9604 7.17937 14.9413 7.19184 14.9227 7.20533C14.913 7.21229 14.9035 7.21984 14.894 7.22723C14.8761 7.24101 14.8584 7.25508 14.8415 7.27003C14.8319 7.27844 14.8228 7.28729 14.8135 7.29599C14.7975 7.31108 14.7817 7.32616 14.7666 7.34212C14.7572 7.35213 14.7483 7.36257 14.7392 7.37301C14.7254 7.38882 14.7118 7.40478 14.6989 7.42146C14.6896 7.4335 14.6809 7.44583 14.672 7.45816C14.6606 7.47426 14.6493 7.49051 14.6388 7.50719C14.6305 7.52038 14.6228 7.53407 14.6151 7.54768L14.6133 7.55085C14.6042 7.56695 14.595 7.5832 14.5868 7.59988C14.5786 7.61612 14.5714 7.63281 14.564 7.64949C14.5567 7.66588 14.5496 7.68227 14.5432 7.6991C14.5372 7.71523 14.5318 7.73172 14.5264 7.74836L14.5248 7.7532C14.521 7.76495 14.5164 7.77597 14.5129 7.78787C14.5112 7.79382 14.5105 7.79962 14.5089 7.80542C14.5073 7.81137 14.5049 7.81702 14.5035 7.82297L13.2595 12.8001H9.75688C5.96532 12.8001 2.87972 15.8786 2.86725 19.6674C2.8671 19.6752 2.86609 19.6826 2.86609 19.6903V57.4043L2.86652 61.7565V66.1096C2.86652 66.1209 2.86783 66.132 2.86826 66.1431C2.8864 69.927 5.96952 73 9.75746 73H65.8934C69.6922 73 72.7829 69.9096 72.7835 66.1108V58.4931H70.6077V66.1096C70.6077 68.7093 68.4928 70.8242 65.8934 70.8242H9.75746C7.15809 70.8242 5.04321 68.7093 5.04321 66.1096C5.04321 66.104 5.04248 66.0985 5.04234 66.0928V61.7565L5.0419 57.4043V24.7081C6.27544 25.868 7.93399 26.5808 9.75688 26.5808H65.893L65.8967 26.5806C68.4944 26.5827 70.6072 28.6967 70.6072 31.295V38.911L72.783 38.9108V36.735V34.5592ZM35.5379 14.9271L16.3416 9.44221L14.0518 18.6038H48.4064L35.5407 14.9279L35.5379 14.9271ZM65.893 24.4047C67.7154 24.4047 69.3737 25.1173 70.6071 26.2769V19.6906C70.6071 17.0911 68.4922 14.9762 65.8928 14.9762H43.6299L56.3264 18.6038H64.4411C65.0419 18.6038 65.529 19.0909 65.529 19.6917C65.529 20.2925 65.0419 20.7796 64.4411 20.7796H56.178L56.1745 20.7799L56.1704 20.7796H12.6628L12.6594 20.7799L12.6548 20.7796H9.75717C9.15636 20.7796 8.66927 20.2925 8.66927 19.6917C8.66927 19.0909 9.15636 18.6038 9.75717 18.6038H11.8091L12.7157 14.9762H9.75688C7.15737 14.9762 5.04248 17.0911 5.04248 19.6906C5.04248 22.2901 7.15737 24.405 9.75688 24.405H65.8873L65.8903 24.4048L65.893 24.4047Z" fill="#449099"/>
<path fill-rule="evenodd" clip-rule="evenodd" d="M73.8479 38.9108C73.8514 38.9108 73.8548 38.9105 73.8583 38.9103L73.8479 38.9108Z" fill="#FE5000"/>
<path fill-rule="evenodd" clip-rule="evenodd" d="M73.8704 34.5592H72.783V36.735H73.8704C74.4699 36.735 74.9577 37.2228 74.9577 37.8223C74.9577 38.4219 74.4699 38.9097 73.8704 38.9097L73.8628 38.9099L73.8583 38.9103C73.8548 38.9105 73.8514 38.9108 73.8479 38.9108H72.783L70.6072 38.911H58.6385L58.6365 38.9111C58.605 38.9111 58.5737 38.913 58.5425 38.9158C58.5078 38.9188 58.4736 38.9237 58.4399 38.93C58.4349 38.9308 58.4299 38.9313 58.4249 38.9323C58.3964 38.938 58.3686 38.9455 58.3409 38.9533C58.3348 38.9551 58.3285 38.9562 58.3226 38.9581C58.2979 38.9657 58.274 38.9746 58.2501 38.9838C58.2409 38.9873 58.2316 38.9902 58.2225 38.9939C58.2025 39.0022 58.1832 39.0119 58.1639 39.0214C58.1511 39.0274 58.1382 39.0331 58.1258 39.0396C58.1107 39.0476 58.0965 39.0568 58.082 39.0655C58.0659 39.075 58.0495 39.0843 58.0338 39.0948C58.0232 39.1017 58.0135 39.1097 58.0033 39.1171L57.9977 39.1212C57.981 39.1331 57.9643 39.1451 57.9484 39.1583C57.9407 39.1647 57.9336 39.1718 57.9262 39.1783L57.9231 39.181C57.9051 39.1966 57.8872 39.2122 57.8702 39.2292C57.8596 39.2398 57.85 39.2514 57.84 39.2624C57.8259 39.2777 57.8114 39.2926 57.7981 39.3089C57.7756 39.3363 57.7546 39.3647 57.7348 39.3941L57.7337 39.3957L51.9318 48.0991C51.8913 48.1598 51.8571 48.224 51.83 48.2909C51.8199 48.3153 51.8118 48.3401 51.8037 48.3648L51.8031 48.3665C51.8007 48.3742 51.7975 48.3816 51.7952 48.3892C51.787 48.4161 51.7808 48.4432 51.7749 48.4702C51.7733 48.4773 51.7712 48.4843 51.7698 48.4914C51.765 48.5157 51.7618 48.5402 51.7588 48.5648C51.7574 48.5752 51.7554 48.5856 51.7544 48.5962C51.7524 48.6164 51.7519 48.6364 51.7512 48.6566C51.7505 48.6719 51.7492 48.6873 51.7492 48.7028C51.7492 48.7178 51.7505 48.7327 51.7511 48.7477L51.7513 48.7535C51.7519 48.7722 51.7526 48.7909 51.7544 48.8096C51.7554 48.8196 51.7573 48.8296 51.7586 48.8396C51.7618 48.8646 51.765 48.8895 51.7699 48.9143C51.7712 48.9212 51.7733 48.9278 51.7749 48.9346C51.7808 48.9619 51.7872 48.9892 51.7953 49.0163C51.7976 49.024 51.8008 49.0314 51.8033 49.0392L51.8038 49.0409C51.8119 49.0656 51.8201 49.0904 51.8301 49.1148C51.8574 49.1815 51.8916 49.2459 51.9322 49.3067L57.734 58.0088L57.7348 58.01C57.7582 58.0446 57.7837 58.0777 57.8107 58.1095C57.8195 58.1199 57.829 58.1296 57.8381 58.1395C57.8565 58.1596 57.8757 58.1791 57.8956 58.1978C57.9073 58.2088 57.9189 58.2196 57.9308 58.2299C57.952 58.248 57.9739 58.265 57.9964 58.2815C58.0065 58.2889 58.0162 58.297 58.0265 58.304C58.0592 58.3262 58.093 58.3466 58.1279 58.3652C58.1368 58.3698 58.1459 58.3738 58.1548 58.3781C58.1826 58.392 58.211 58.4049 58.2402 58.4164C58.2515 58.4209 58.2628 58.425 58.2743 58.429C58.302 58.4389 58.3301 58.4476 58.3589 58.4553C58.3706 58.4583 58.3822 58.4615 58.3941 58.4644C58.4236 58.4712 58.4534 58.4764 58.4838 58.4808C58.4948 58.4824 58.5057 58.4846 58.5167 58.4859C58.5541 58.4901 58.5921 58.4924 58.6307 58.4927C58.6337 58.4927 58.6368 58.4933 58.64 58.4933L58.642 58.4931H70.6077H72.7835H73.8708C75.67 58.4931 77.1339 57.0292 77.1339 55.23V37.8223C77.1335 36.0231 75.6696 34.5592 73.8704 34.5592ZM74.9577 55.2294C74.9577 55.8289 74.4699 56.3167 73.8704 56.3167H59.2208L54.144 48.7023L59.2208 41.0866H73.8704L73.8783 41.0865L73.8892 41.0859L73.8975 41.0854C73.9035 41.085 73.9094 41.0846 73.9155 41.0843C74.2804 41.0792 74.6309 41.0143 74.9577 40.8985V55.2294Z" fill="#FE5000"/>
<path fill-rule="evenodd" clip-rule="evenodd" d="M73.8704 41.0866L73.8783 41.0865L73.8704 41.0866ZM73.8783 41.0865L73.8892 41.0859C73.8856 41.0862 73.882 41.0864 73.8783 41.0865Z" fill="#FE5000"/>
<path d="M62.9908 44.7131C60.7912 44.7131 59.0018 46.5027 59.0018 48.7023C59.0018 50.9019 60.7912 52.6913 62.9908 52.6913C65.1904 52.6913 66.9798 50.9019 66.9798 48.7023C66.9798 46.5027 65.1904 44.7131 62.9908 44.7131ZM62.9908 50.5154C61.991 50.5154 61.1776 49.7021 61.1776 48.7023C61.1776 47.7024 61.991 46.8889 62.9908 46.8889C63.9907 46.8889 64.804 47.7024 64.804 48.7023C64.804 49.7021 63.9907 50.5154 62.9908 50.5154Z" fill="#FE5000"/>
</svg>
