<svg width="56" height="56" viewBox="0 0 56 56" fill="none" xmlns="http://www.w3.org/2000/svg">
<g clip-path="url(#clip0)">
<path d="M42.4665 25.3753L34.9998 16.042V8.57532C34.9998 6.41699 33.2498 4.66699 31.0915 4.66699H15.5748C13.4165 4.66699 11.6665 6.41699 11.6665 8.57532V36.5753C11.6665 38.7337 13.4165 40.4837 15.5748 40.4837H22.5748V42.5253C22.5748 47.4253 26.5415 51.392 31.4415 51.392H43.5748C43.9832 51.392 44.3332 51.042 44.3332 50.6337V30.8003C44.3332 28.817 43.6915 26.892 42.4665 25.3753ZM31.0915 6.24199C32.3748 6.24199 33.4248 7.29199 33.4248 8.57532V28.992L30.3332 25.667V6.24199H31.0915ZM28.7582 23.9753L27.4165 22.5753C27.1248 22.2837 26.7748 21.992 26.4248 21.817V6.24199H28.7582V23.9753ZM13.2415 36.5753V8.57532C13.2415 7.29199 14.2915 6.24199 15.5748 6.24199H24.9082V21.467C23.9748 21.467 23.0415 21.817 22.3998 22.4587L22.3415 22.517C20.9998 23.8587 20.9415 25.9587 22.1082 27.3587L24.9082 30.6837V38.9087H15.5748C14.2915 38.9087 13.2415 37.8587 13.2415 36.5753ZM28.8748 38.9087H26.4832V32.5503L28.8165 35.292V37.6837C28.7582 38.092 28.8165 38.5003 28.8748 38.9087ZM42.7582 49.7587H31.3832C27.3582 49.7587 24.0915 46.492 24.0915 42.467V40.4253H29.1665C30.0415 43.5753 32.3748 46.2003 35.5248 47.367L36.0498 45.9087C32.6082 44.6253 30.3332 41.3003 30.3332 37.6837V35.0003C30.3332 34.8253 30.2748 34.6503 30.1582 34.4753L23.2748 26.367C22.5748 25.5503 22.6332 24.3837 23.4498 23.567C23.8582 23.217 24.3832 22.9837 24.9082 22.9837C25.4332 22.9837 25.9582 23.217 26.3082 23.6253L36.7498 34.7087L37.8582 33.6587L34.9415 30.567V18.5503L41.1832 26.367C42.1748 27.592 42.6998 29.167 42.6998 30.742V49.7587H42.7582ZM17.0915 18.667H15.5165V8.57532H17.0915V18.667ZM20.9998 14.7587H19.4248V8.57532H20.9998V14.7587ZM20.9998 30.3337H16.3332C15.9248 30.3337 15.5748 30.6837 15.5748 31.092V35.7587C15.5748 36.167 15.9248 36.517 16.3332 36.517H20.9998C21.4082 36.517 21.7582 36.167 21.7582 35.7587V31.092C21.7582 30.6837 21.4082 30.3337 20.9998 30.3337ZM20.2415 35.0003H17.1498V31.9087H20.2415V35.0003Z" fill="#7F94A8"/>
</g>
<defs>
<clipPath id="clip0">
<rect width="46.6667" height="46.6667" fill="white" transform="translate(4.6665 4.66699)"/>
</clipPath>
</defs>
</svg>
