<svg width="100" height="100" viewBox="0 0 100 100" fill="none" xmlns="http://www.w3.org/2000/svg">
<circle cx="50" cy="50" r="49.5" fill="white" stroke="url(#paint0_linear)"/>
<g clip-path="url(#clip0)">
<path d="M74.2676 37.0033H67.8906L65.1562 31.0741C64.9902 30.7103 64.541 30.5432 64.1797 30.7103L61.5039 31.9591L53.3984 26.1282C53.0762 25.8922 52.6074 25.9709 52.373 26.3052L44.7949 37.0033H25.7324C25.3223 37.0033 25 37.3377 25 37.7408V64.26C25 64.6631 25.332 64.9975 25.7324 64.9975H32.1094L34.8438 70.9267C35.0098 71.2905 35.4492 71.4576 35.8203 71.2905L38.4961 70.0417L46.6016 75.8726C46.9238 76.1086 47.3926 76.0299 47.627 75.6956L55.2051 64.9975H74.2578C74.668 64.9975 74.9902 64.6631 74.9902 64.26V37.7408C75 37.3377 74.668 37.0033 74.2676 37.0033ZM64.1309 32.3622L66.2695 37.0033H54.1895L64.1309 32.3622ZM53.1445 27.7703L59.9805 32.6769L50.7129 37.0033H46.6016L53.1445 27.7703ZM42.1875 58.3505V63.434C42.1875 63.4635 42.1875 63.493 42.1973 63.5225H37.793C37.793 63.493 37.8027 63.4635 37.8027 63.434V58.3505V56.9739V38.4783H42.1973V56.9739V58.3505H42.1875ZM26.4648 63.5225V38.4783H36.4258V56.9739H32.0312C31.6504 56.9739 31.3477 57.2787 31.3477 57.6622C31.3477 58.0456 31.6504 58.3505 32.0312 58.3505H36.4258V63.434C36.4258 63.4635 36.4258 63.493 36.4355 63.5225H26.4648ZM35.8691 69.6386L33.7305 64.9975H45.8105L35.8691 69.6386ZM46.8555 74.2403L40.0195 69.3337L49.2871 65.0073H53.3984L46.8555 74.2403ZM73.5352 63.5225H43.5547C43.5547 63.493 43.5645 63.4635 43.5645 63.434V58.3505H56.0645C56.4453 58.3505 56.748 58.0456 56.748 57.6622C56.748 57.2787 56.4453 56.9739 56.0645 56.9739H43.5547V38.4783H45.166H67.4121H73.5352V63.5225ZM61.0449 47.1902H62.3242V42.7261H65.9961C68.0859 42.7261 69.2578 43.788 69.2578 45.6169C69.2578 47.4557 68.0859 48.5471 65.9961 48.5471H63.8867V49.4517H66.6992V50.3072H63.8867V52.2148H62.3242V50.3072H61.0449V49.4517H62.3242V48.5471H61.0449V47.1902ZM65.7715 47.1902C67.168 47.1902 67.6953 46.5904 67.6953 45.6169C67.6953 44.6435 67.168 44.0732 65.7715 44.0732H63.8867V47.1902H65.7715Z" fill="url(#paint1_linear)"/>
</g>
<defs>
<linearGradient id="paint0_linear" x1="0" y1="100" x2="100" y2="0" gradientUnits="userSpaceOnUse">
<stop stop-color="#FE5000"/>
<stop offset="1" stop-color="#FE9800"/>
</linearGradient>
<linearGradient id="paint1_linear" x1="25" y1="76.0086" x2="75.0164" y2="26.0182" gradientUnits="userSpaceOnUse">
<stop stop-color="#FE5000"/>
<stop offset="1" stop-color="#FE9800"/>
</linearGradient>
<clipPath id="clip0">
<rect width="50" height="50" fill="white" transform="translate(25 26)"/>
</clipPath>
</defs>
</svg>
