<svg width="56" height="56" viewBox="0 0 56 56" fill="none" xmlns="http://www.w3.org/2000/svg">
<path d="M46.9635 11.9639H9.03622C6.23622 11.9639 4.07259 14.2548 4.07259 16.9275V38.9457C4.07259 41.7457 6.36349 43.9093 9.03622 43.9093H47.0908C49.8908 43.9093 52.0544 41.6184 52.0544 38.9457V17.0548C52.0544 14.2548 49.7635 11.9639 46.9635 11.9639ZM50.018 38.9457C50.018 40.6002 48.618 42.0002 46.9635 42.0002H9.03622C7.38168 42.0002 5.98168 40.6002 5.98168 38.9457V17.0548C5.98168 15.4002 7.38168 14.0002 9.03622 14.0002H47.0908C48.7453 14.0002 50.1453 15.4002 50.1453 17.0548L50.018 38.9457ZM51.0362 17.9457H4.96349C4.4544 17.9457 3.94531 18.4548 3.94531 18.9639V24.9457C3.94531 25.4548 4.4544 25.9639 4.96349 25.9639H50.909C51.418 25.9639 51.9271 25.4548 51.9271 24.9457V18.9639C52.0544 18.4548 51.5453 17.9457 51.0362 17.9457ZM50.018 24.0548H5.98168V20.1093H50.018V24.0548ZM23.0362 31.9457H10.9453C10.4362 31.9457 9.92713 32.4548 9.92713 32.9639C9.92713 33.473 10.4362 33.982 10.9453 33.982H22.9089C23.418 33.982 23.9271 33.473 23.9271 32.9639C23.9271 32.4548 23.5453 31.9457 23.0362 31.9457ZM23.0362 36.0184H10.9453C10.4362 36.0184 9.92713 36.5275 9.92713 37.0366C9.92713 37.5457 10.4362 38.0548 10.9453 38.0548H22.9089C23.418 38.0548 23.9271 37.5457 23.9271 37.0366C24.0544 36.4002 23.5453 36.0184 23.0362 36.0184ZM43.018 30.0366H40.9817C39.3271 30.0366 37.9271 31.4366 37.9271 33.0911V35.1275C37.9271 36.782 39.3271 38.182 40.9817 38.182H43.018C44.6726 38.182 46.0726 36.782 46.0726 35.1275V33.0911C45.9453 31.3093 44.6726 30.0366 43.018 30.0366ZM44.0362 35.0002C44.0362 35.5093 43.5271 36.0184 43.018 36.0184H40.9817C40.4726 36.0184 39.9635 35.5093 39.9635 35.0002V32.9639C39.9635 32.4548 40.4726 31.9457 40.9817 31.9457H43.018C43.5271 31.9457 44.0362 32.4548 44.0362 32.9639V35.0002Z" fill="#7F94A8"/>
</svg>
