<svg width="100" height="100" viewBox="0 0 100 100" fill="none" xmlns="http://www.w3.org/2000/svg">
<circle cx="50" cy="50" r="49.5" fill="white" stroke="url(#paint0_linear)"/>
<path d="M54.7754 32.7158H36.2336C35.6574 32.7158 35.186 33.1872 35.186 33.7634V46.0198C35.186 46.596 35.6574 47.0674 36.2336 47.0674H54.7754C55.3516 47.0674 55.823 46.596 55.823 46.0198V33.7634C55.823 33.1872 55.3516 32.7158 54.7754 32.7158ZM53.7278 44.9723H37.2812V34.8109H53.7278V44.9723Z" fill="url(#paint1_linear)"/>
<path d="M76.942 70.3224H59.3849V53.5615H61.0924C62.6428 53.5615 63.8999 54.829 63.8894 56.3794C63.8894 56.3899 63.8894 56.3899 63.8894 56.4004V59.3021C63.8894 62.3715 66.3721 64.8542 69.4414 64.8542C72.5108 64.8542 74.9935 62.3715 74.9935 59.3021V42.7297C74.9935 41.0117 74.3545 39.3566 73.1812 38.089L64.9893 28.7553L63.418 30.1381L69.7662 37.3767C67.472 37.7643 65.9216 39.9328 66.3092 42.2269C66.6445 44.2592 68.4044 45.7467 70.4681 45.7467C71.3375 45.7362 72.1861 45.4743 72.8984 44.9715V59.3021C72.8984 61.2087 71.348 62.7591 69.4414 62.7591C67.5349 62.7591 65.9845 61.2087 65.9845 59.3021V56.4004C65.995 53.6872 63.8056 51.4769 61.1029 51.4664H61.0924H59.3849V31.9504C59.3849 29.5619 57.4574 27.582 55.0689 27.582H35.6053C33.2168 27.582 31.3103 29.5724 31.3103 31.9504V70.3224H29.0476C28.4714 70.3224 28 70.7938 28 71.37C28 71.9462 28.4714 72.4176 29.0476 72.4176H76.9524C77.5286 72.4176 78 71.9462 78 71.37C78 70.7938 77.5286 70.3224 76.942 70.3224ZM70.4681 43.6411C69.2948 43.6411 68.352 42.6878 68.352 41.525C68.352 40.3623 69.3053 39.409 70.4681 39.409C71.6413 39.409 72.5841 40.3623 72.5841 41.525C72.5841 42.6878 71.6308 43.6411 70.4681 43.6411ZM57.2898 70.3224H33.4054V31.9504C33.4054 30.7142 34.3692 29.6771 35.6053 29.6771H55.0689C56.305 29.6771 57.2898 30.7247 57.2898 31.9504V70.3224Z" fill="url(#paint2_linear)"/>
<defs>
<linearGradient id="paint0_linear" x1="0" y1="100" x2="100" y2="0" gradientUnits="userSpaceOnUse">
<stop stop-color="#FE5000"/>
<stop offset="1" stop-color="#FE9800"/>
</linearGradient>
<linearGradient id="paint1_linear" x1="39.4424" y1="47.0674" x2="55.9681" y2="39.6303" gradientUnits="userSpaceOnUse">
<stop stop-color="#FE5000"/>
<stop offset="1" stop-color="#FCA92A"/>
</linearGradient>
<linearGradient id="paint2_linear" x1="38.3125" y1="72.4176" x2="81.2326" y2="57.4377" gradientUnits="userSpaceOnUse">
<stop stop-color="#FE5000"/>
<stop offset="1" stop-color="#FCA92A"/>
</linearGradient>
</defs>
</svg>
