<svg width="56" height="56" viewBox="0 0 56 56" fill="none" xmlns="http://www.w3.org/2000/svg">
<g clip-path="url(#clip0)">
<path d="M29.3619 28.0001C29.3619 34.1601 28.3539 39.0508 26.3379 42.6721C24.3592 46.2561 21.2792 48.0481 17.0979 48.0481C12.8792 48.0481 9.74319 46.2375 7.68986 42.6161C5.63653 38.9948 4.60986 34.1228 4.60986 28.0001C4.60986 21.8775 5.61786 17.0055 7.63386 13.3841C9.68719 9.76281 12.8045 7.95215 16.9859 7.95215C21.1672 7.95215 24.2659 9.76281 26.2819 13.3841C28.3352 17.0055 29.3619 21.8775 29.3619 28.0001ZM17.0979 45.3041C23.2206 45.3041 26.2819 39.5361 26.2819 28.0001C26.2819 16.4641 23.1832 10.6961 16.9859 10.6961C10.7885 10.6961 7.68986 16.4641 7.68986 28.0001C7.68986 39.5361 10.8259 45.3041 17.0979 45.3041ZM37.5863 36.9489H33.8231V35.5041H37.5863V24.0801C38.5047 24.0801 39.4567 24.0689 40.4423 24.0465C41.4279 24.0241 42.3911 24.0129 43.3319 24.0129C48.9095 24.0129 51.6983 26.1745 51.6983 30.4977C51.6983 32.4913 50.9815 34.0705 49.5479 35.2353C48.1367 36.3777 46.0647 36.9489 43.3319 36.9489H39.4343V41.0817H45.5159V42.5265H39.4343V47.6001H37.5863V42.5265H33.8231V41.0817H37.5863V36.9489ZM43.4999 25.7601C42.7607 25.7601 41.4055 25.7825 39.4343 25.8273V35.5041H43.2647C45.3927 35.5041 47.0055 35.0897 48.1031 34.2609C49.2007 33.4097 49.7495 32.2001 49.7495 30.6321C49.7495 27.3841 47.6663 25.7601 43.4999 25.7601Z" fill="#7F94A8"/>
</g>
<defs>
<clipPath id="clip0">
<rect width="48.5333" height="41.0667" fill="white" transform="translate(3.7334 7.4668)"/>
</clipPath>
</defs>
</svg>
