<svg width="56" height="56" viewBox="0 0 56 56" fill="none" xmlns="http://www.w3.org/2000/svg">
<path d="M47.6747 27.9185H45.4381V21.3822C45.4367 20.9136 45.0567 20.5346 44.5876 20.5333H41.1265V14.9732C41.1245 13.3328 39.7931 12.0038 38.15 12.0022H26.967L24.8323 9.86274C24.3101 9.33651 23.5839 9.06361 22.8438 9.11567C22.1033 9.16806 21.4227 9.5401 20.9798 10.1346L19.5939 12.0022H12.5693C9.7523 12.0041 7.46912 14.2832 7.4668 17.0954V41.7975C7.46912 44.6094 9.7523 46.8884 12.5693 46.8907H44.6388C45.1079 46.8891 45.4879 46.51 45.4892 46.0418V39.2509H47.683C48.1524 39.2492 48.5321 38.8702 48.5335 38.402V28.7673C48.5281 28.2971 48.1455 27.9191 47.6747 27.9185ZM38.15 13.6999C38.4885 13.6992 38.8131 13.8332 39.0526 14.0723C39.2918 14.311 39.426 14.6353 39.4257 14.9732V20.5333H35.4795L28.6678 13.6999H38.15ZM22.3405 11.1533C22.4883 10.9553 22.7149 10.8316 22.9614 10.8137C23.2079 10.7958 23.45 10.8854 23.6248 11.0598L33.0731 20.5333H15.3671L22.3405 11.1533ZM9.16764 17.0954C9.16697 15.2196 10.6904 13.6992 12.5693 13.6999H18.3352L13.2497 20.5333H12.5693C10.6904 20.5336 9.16697 19.0133 9.16764 17.1378V17.0954ZM43.7797 45.193H12.5693C10.6904 45.1933 9.16697 43.673 9.16764 41.7975V20.9322C10.1018 21.7701 11.3136 22.2327 12.5693 22.231H34.944C35.0835 22.2649 35.2294 22.2649 35.3692 22.231H43.7459V27.9185H38.9324C36.5844 27.9191 34.6812 29.8188 34.6802 32.1628V35.0148C34.6812 37.3585 36.5844 39.2585 38.9324 39.2592H43.7884V45.193H43.7797ZM46.8243 37.5614H38.9237C37.5165 37.5575 36.3768 36.4198 36.3725 35.0148V32.1628C36.3768 30.7579 37.5165 29.6202 38.9237 29.6162H44.3239C44.4953 29.6726 44.68 29.6726 44.8514 29.6162H46.8243V37.5614Z" fill="#7F94A8"/>
<path d="M39.4986 31.2852C39.0456 31.2866 38.6785 31.6971 38.6772 32.2046V35.2937C38.6772 35.8016 39.0452 36.2132 39.4986 36.2132C39.9522 36.2132 40.3199 35.8016 40.3199 35.2937V32.2046C40.3209 31.9604 40.2346 31.7259 40.0802 31.5535C39.9262 31.3807 39.7167 31.2841 39.4986 31.2852Z" fill="#7F94A8"/>
</svg>
