<svg width="100" height="100" viewBox="0 0 100 100" fill="none" xmlns="http://www.w3.org/2000/svg">
<circle cx="50" cy="50" r="49.5" fill="white" stroke="url(#paint0_linear)"/>
<path fill-rule="evenodd" clip-rule="evenodd" d="M68.6225 37.1624H67.1594V36.1923C67.1594 34.9198 66.124 33.8843 64.8513 33.8843H49.504H46.086H42.5708V32.8553C42.5708 31.3472 41.3438 30.1201 39.8355 30.1201C38.3272 30.1201 37.1003 31.3472 37.1003 32.8553V33.8843H30.3081C29.0355 33.8843 28 34.9198 28 36.1923V51.7866C28 56.8529 30.8865 61.2572 35.1011 63.4427H29.9489C28.9712 63.4427 28.3236 64.4608 28.7406 65.3408C29.2836 66.4866 29.9901 67.5477 30.8404 68.4943C31.6319 69.375 32.7608 69.88 33.9377 69.88H61.2217C62.3986 69.88 63.5275 69.3749 64.319 68.4942C65.1694 67.5477 65.8758 66.4866 66.4188 65.3408C66.8366 64.4594 66.1866 63.4427 65.2105 63.4427H60.0583C61.4147 62.7393 62.6333 61.8058 63.6626 60.6945H68.6225C73.7932 60.6945 78 56.4878 78 51.3171V46.5399C78 41.3692 73.7932 37.1624 68.6225 37.1624ZM64.8512 35.3492H49.504H46.086H38.5652V39.0637H65.6945V36.1923C65.6945 35.7274 65.3161 35.3492 64.8512 35.3492ZM39.8356 31.585C39.1351 31.585 38.5652 32.1548 38.5652 32.8553V33.8843H41.106V32.8553C41.106 32.1548 40.5361 31.585 39.8356 31.585ZM30.3081 35.3492C29.8431 35.3492 29.4649 35.7274 29.4649 36.1923V39.0637H37.1003V35.3492H30.3081ZM63.2292 67.5152C63.9367 66.7277 64.532 65.8513 65.0008 64.9075H30.1585C30.6274 65.8513 31.2227 66.7278 31.9301 67.5153C32.4441 68.0871 33.1758 68.4152 33.9377 68.4152H61.2216C61.9835 68.4152 62.7152 68.087 63.2292 67.5152ZM41.121 63.4427H54.0383C60.4655 63.4427 65.6945 58.2137 65.6946 51.7864V40.5285H38.5652V41.7735C39.0803 41.9246 39.5382 42.2348 39.8767 42.6737L41.9909 45.4143C42.3633 45.8974 42.5684 46.499 42.5684 47.1087V49.4523V52.8703V54.4957C42.5684 55.4289 41.8094 56.1879 40.8762 56.1879H34.7893C33.8562 56.1879 33.0971 55.4289 33.0971 54.4957V47.1088C33.0971 46.4989 33.3023 45.8972 33.6746 45.4144L35.7887 42.6738C36.1274 42.2349 36.5852 41.9247 37.1003 41.7736V40.5286H29.4649V51.7866C29.4649 58.2137 34.6938 63.4427 41.121 63.4427ZM41.1036 54.4957V52.8703V49.4523V47.1087C41.1036 46.821 41.0068 46.537 40.831 46.3091L38.7169 43.5685C38.6713 43.5096 38.6199 43.4571 38.5652 43.4093V44.97C39.4483 45.2747 40.0846 46.1136 40.0846 47.0988C40.0846 48.3405 39.0745 49.3507 37.8328 49.3507C36.5911 49.3507 35.5809 48.3405 35.5809 47.0988C35.5809 46.1136 36.2172 45.2747 37.1003 44.97V43.4092C37.0456 43.457 36.9942 43.5095 36.9486 43.5685L34.8345 46.3092C34.6587 46.5371 34.562 46.821 34.562 47.1088V54.4957C34.562 54.6211 34.6639 54.7231 34.7893 54.7231H40.8762C41.0016 54.7231 41.1036 54.6211 41.1036 54.4957ZM38.6198 47.0988C38.6198 46.6648 38.2667 46.3119 37.8328 46.3119C37.3988 46.3119 37.0458 46.6648 37.0458 47.0988C37.0458 47.5328 37.3988 47.8858 37.8328 47.8858C38.2668 47.8858 38.6198 47.5328 38.6198 47.0988ZM67.1593 42.323V51.7866C67.1593 53.0883 66.9679 54.3459 66.6131 55.5341H68.6224C70.9477 55.5341 72.8394 53.6424 72.8394 51.3172V46.54C72.8394 44.2147 70.9477 42.323 68.6224 42.323H67.1593ZM68.6225 59.2297C72.9855 59.2297 76.5351 55.6801 76.5351 51.3171V46.5397C76.5351 42.1767 72.9856 38.6271 68.6225 38.6271H67.1594V39.7961V40.858H68.6225C71.7554 40.858 74.3044 43.4069 74.3044 46.5398V51.317C74.3044 54.4499 71.7554 56.9988 68.6225 56.9988H66.0825C65.7431 57.7825 65.3293 58.5281 64.8449 59.2297H68.6225Z" fill="url(#paint1_linear)"/>
<defs>
<linearGradient id="paint0_linear" x1="0" y1="100" x2="100" y2="0" gradientUnits="userSpaceOnUse">
<stop stop-color="#FE5000"/>
<stop offset="1" stop-color="#FE9800"/>
</linearGradient>
<linearGradient id="paint1_linear" x1="38.3125" y1="69.88" x2="80.0031" y2="53.4718" gradientUnits="userSpaceOnUse">
<stop stop-color="#FE5000"/>
<stop offset="1" stop-color="#FCA92A"/>
</linearGradient>
</defs>
</svg>
