<svg xmlns="http://www.w3.org/2000/svg" width="66" height="66" viewBox="0 0 66 66" fill="none">
    <g clip-path="url(#clip0)">
        <path
            d="M62.1211 16.2028H54.4688L51.1875 9.08778C50.9883 8.65121 50.4492 8.45062 50.0156 8.65121L46.8047 10.1497L37.0781 3.15268C36.6914 2.86949 36.1289 2.96389 35.8477 3.36507L26.7539 16.2028H3.87891C3.38672 16.2028 3 16.604 3 17.0878V48.9108C3 49.3946 3.39844 49.7958 3.87891 49.7958H11.5313L14.8125 56.9108C15.0117 57.3474 15.5391 57.548 15.9844 57.3474L19.1953 55.8489L28.9219 62.8459C29.3086 63.1291 29.8711 63.0347 30.1523 62.6335L39.2461 49.7958H62.1094C62.6016 49.7958 62.9883 49.3946 62.9883 48.9108V17.0878C63 16.604 62.6016 16.2028 62.1211 16.2028ZM49.957 10.6335L52.5234 16.2028H38.0273L49.957 10.6335ZM36.7734 5.12318L44.9766 11.0111L33.8555 16.2028H28.9219L36.7734 5.12318ZM23.625 41.8194V47.9197C23.625 47.9551 23.625 47.9904 23.6367 48.0258H18.3516C18.3516 47.9904 18.3633 47.9551 18.3633 47.9197V41.8194V40.1674V17.9727H23.6367V40.1674V41.8194H23.625ZM4.75781 48.0258V17.9727H16.7109V40.1674H11.4375C10.9805 40.1674 10.6172 40.5332 10.6172 40.9934C10.6172 41.4536 10.9805 41.8194 11.4375 41.8194H16.7109V47.9197C16.7109 47.9551 16.7109 47.9904 16.7227 48.0258H4.75781ZM16.043 55.3651L13.4766 49.7958H27.9727L16.043 55.3651ZM29.2266 60.8872L21.0234 54.9993L32.1445 49.8076H37.0781L29.2266 60.8872ZM61.2422 48.0258H25.2656C25.2656 47.9904 25.2773 47.9551 25.2773 47.9197V41.8194H40.2773C40.7344 41.8194 41.0977 41.4536 41.0977 40.9934C41.0977 40.5332 40.7344 40.1674 40.2773 40.1674H25.2656V17.9727H27.1992H53.8945H61.2422V48.0258ZM46.2539 28.427H47.7891V23.0701H52.1953C54.7031 23.0701 56.1094 24.3444 56.1094 26.5391C56.1094 28.7456 54.7031 30.0553 52.1953 30.0553H49.6641V31.1409H53.0391V32.1674H49.6641V34.4565H47.7891V32.1674H46.2539V31.1409H47.7891V30.0553H46.2539V28.427ZM51.9258 28.427C53.6016 28.427 54.2344 27.7073 54.2344 26.5391C54.2344 25.371 53.6016 24.6866 51.9258 24.6866H49.6641V28.427H51.9258Z"
            fill="url(#paint0_linear)" />
    </g>
    <defs>
        <linearGradient id="paint0_linear" x1="15.3726" y1="63.0091" x2="67.9911" y2="46.5499"
            gradientUnits="userSpaceOnUse">
            <stop stop-color="#FE5000" />
            <stop offset="1" stop-color="#FCA92A" />
        </linearGradient>
        <clipPath id="clip0">
            <rect width="60" height="60" fill="white" transform="translate(3 3)" />
        </clipPath>
    </defs>
</svg>