<svg xmlns="http://www.w3.org/2000/svg" width="70" height="70" viewBox="0 0 70 70" fill="none">
    <g clip-path="url(#clip0)">
        <path d="M47.8777 25.4788L49.5125 23.8451L51.1462 25.4799L49.5114 27.1136L47.8777 25.4788Z"
            fill="url(#paint0_linear)" />
        <path d="M44.6074 22.2091L46.2422 20.5748L47.8765 22.2091L46.2422 23.8434L44.6074 22.2091Z"
            fill="url(#paint1_linear)" />
        <path d="M41.3388 18.9417L42.9736 17.3074L44.6079 18.9417L42.9736 20.5759L41.3388 18.9417Z"
            fill="url(#paint2_linear)" />
        <path d="M54.4153 32.0164L56.0501 30.3821L57.6844 32.0164L56.0501 33.6507L54.4153 32.0164Z"
            fill="url(#paint3_linear)" />
        <path d="M51.1462 28.7473L52.7805 27.1125L54.4154 28.7468L52.7811 30.3816L51.1462 28.7473Z"
            fill="url(#paint4_linear)" />
        <path
            d="M37.4653 47.239C37.0308 47.2384 36.6335 46.9946 36.4366 46.6081L34.3492 42.5145L29.812 43.2317C29.3148 43.3141 28.8211 43.0647 28.5931 42.6155C28.3645 42.1657 28.4537 41.6206 28.8132 41.2673L32.062 38.0185L29.9819 33.9249C29.7544 33.4786 29.8402 32.9368 30.1946 32.583C30.5485 32.2286 31.0902 32.1428 31.536 32.3702L35.6313 34.4509L38.8795 31.201C39.2328 30.8409 39.7785 30.7518 40.2277 30.9803C40.6775 31.2089 40.9269 31.7021 40.8445 32.1992L40.1098 36.7482L44.2045 38.8357C44.6497 39.0637 44.898 39.5524 44.819 40.0467C44.74 40.5411 44.3518 40.9282 43.8574 41.0061L39.3191 41.725L38.607 46.2633C38.5285 46.7576 38.1408 47.1453 37.6465 47.2237C37.5867 47.2339 37.5257 47.239 37.4653 47.239ZM34.9987 40.0811C35.4332 40.0811 35.8311 40.3255 36.0286 40.7126L36.8801 42.3847L37.1742 40.5354C37.2526 40.0411 37.6408 39.6534 38.1358 39.5749L39.9845 39.2804L38.3124 38.4288C37.866 38.2014 37.6171 37.7132 37.695 37.2189L37.9885 35.364L36.6657 36.6907C36.3113 37.044 35.7696 37.1297 35.3237 36.9017L33.65 36.0502L34.5032 37.7228C34.7301 38.1686 34.6443 38.7104 34.2905 39.0642L32.9626 40.3932L34.8175 40.0998C34.8774 40.0885 34.9377 40.0823 34.9987 40.0811Z"
            fill="url(#paint5_linear)" />
        <path
            d="M68.9844 22.3502L63.2633 16.6291L62.4462 17.4462C61.5726 18.3339 60.2905 18.6849 59.0862 18.366C57.8825 18.0466 56.9423 17.1065 56.6235 15.9022C56.3046 14.6985 56.6557 13.4158 57.5439 12.5428L58.361 11.7257L52.6399 6.00571C51.2861 4.65134 49.0904 4.65134 47.736 6.00571L43.6509 10.0914L41.1994 7.63998C39.8451 6.28561 37.6499 6.28561 36.2955 7.63998L1.01578 42.9197C-0.338593 44.2741 -0.338593 46.4698 1.01578 47.8236L6.73687 53.5447L7.55345 52.7276C8.92588 51.4172 11.0855 51.4172 12.4574 52.7276C13.8118 54.0814 13.8118 56.2772 12.4574 57.631L11.6403 58.4481L17.3614 64.1704C18.7152 65.5236 20.9098 65.5236 22.2636 64.1704L26.3493 60.0835L28.8019 62.535C30.1557 63.8888 32.3503 63.8888 33.7047 62.535L68.9844 27.253C70.3388 25.8986 70.3388 23.7028 68.9844 22.349V22.3502ZM20.6282 62.5338C20.4115 62.7511 20.1175 62.873 19.8111 62.873C19.5041 62.873 19.2101 62.7511 18.9934 62.5338L14.827 58.3652C16.3461 56.0735 16.0408 53.029 14.0968 51.0849C12.1521 49.1408 9.10759 48.836 6.81644 50.3558L2.64893 46.1894C2.19747 45.7379 2.19747 45.0066 2.64893 44.5551L37.9298 9.27426C38.1465 9.057 38.4405 8.9351 38.7475 8.9351C39.0545 8.9351 39.3485 9.057 39.5652 9.27426L42.0166 11.7257L12.4563 41.2871C11.103 42.6409 11.103 44.8356 12.4563 46.1894L18.1762 51.9105L18.9934 51.0933C20.3472 49.739 22.543 49.739 23.8968 51.0933C25.2511 52.4471 25.2511 54.6429 23.8968 55.9967L23.0785 56.8139L24.7139 58.4481L20.6282 62.5338ZM67.3501 25.6198L32.0693 60.8995C31.6178 61.351 30.8859 61.351 30.435 60.8995L26.2675 56.732C27.7821 54.4403 27.474 51.3992 25.531 49.4579C23.5875 47.5206 20.5509 47.2142 18.2592 48.7237L14.0906 44.5551C13.6391 44.1042 13.6391 43.3723 14.0906 42.9208L49.3703 7.63998C49.587 7.42328 49.8815 7.30083 50.188 7.30083C50.495 7.30083 50.789 7.42328 51.0057 7.63998L55.1732 11.8007C53.6557 14.0919 53.9616 17.1341 55.9045 19.0777C57.8475 21.0206 60.8903 21.327 63.1815 19.8101L67.3512 23.9799C67.8021 24.4308 67.8021 25.1627 67.3512 25.6142L67.3501 25.6198Z"
            fill="url(#paint6_linear)" />
    </g>
    <defs>
        <linearGradient id="paint0_linear" x1="48.5518" y1="27.1136" x2="51.4185" y2="26.2165"
            gradientUnits="userSpaceOnUse">
            <stop stop-color="#FE5000" />
            <stop offset="1" stop-color="#FCA92A" />
        </linearGradient>
        <linearGradient id="paint1_linear" x1="45.2816" y1="23.8434" x2="48.1487" y2="22.9459"
            gradientUnits="userSpaceOnUse">
            <stop stop-color="#FE5000" />
            <stop offset="1" stop-color="#FCA92A" />
        </linearGradient>
        <linearGradient id="paint2_linear" x1="42.0131" y1="20.5759" x2="44.8802" y2="19.6785"
            gradientUnits="userSpaceOnUse">
            <stop stop-color="#FE5000" />
            <stop offset="1" stop-color="#FCA92A" />
        </linearGradient>
        <linearGradient id="paint3_linear" x1="55.0895" y1="33.6507" x2="57.9567" y2="32.7532"
            gradientUnits="userSpaceOnUse">
            <stop stop-color="#FE5000" />
            <stop offset="1" stop-color="#FCA92A" />
        </linearGradient>
        <linearGradient id="paint4_linear" x1="51.8205" y1="30.3816" x2="54.6877" y2="29.4843"
            gradientUnits="userSpaceOnUse">
            <stop stop-color="#FE5000" />
            <stop offset="1" stop-color="#FCA92A" />
        </linearGradient>
        <linearGradient id="paint5_linear" x1="31.843" y1="47.239" x2="46.1999" y2="42.7507"
            gradientUnits="userSpaceOnUse">
            <stop stop-color="#FE5000" />
            <stop offset="1" stop-color="#FCA92A" />
        </linearGradient>
        <linearGradient id="paint6_linear" x1="14.4375" y1="65.1853" x2="73.9612" y2="43.522"
            gradientUnits="userSpaceOnUse">
            <stop stop-color="#FE5000" />
            <stop offset="1" stop-color="#FCA92A" />
        </linearGradient>
        <clipPath id="clip0">
            <rect width="70" height="70" fill="white" />
        </clipPath>
    </defs>
</svg>