<svg width="44" height="44" viewBox="0 0 44 44" fill="none" xmlns="http://www.w3.org/2000/svg">
<g clip-path="url(#clip0)">
<path d="M39.3318 9.76714C39.2839 9.76714 39.2839 9.71926 39.236 9.67138C39.1881 9.6235 39.1881 9.57563 39.1403 9.52775L30.9052 0.287269C30.8573 0.239391 30.7616 0.191513 30.7137 0.143634C30.6658 0.143634 30.6658 0.0957563 30.6179 0.0957563C30.5222 0.0478781 30.3786 0 30.2349 0H10.0303C7.0619 0 4.62012 2.44178 4.62012 5.41023V38.5898C4.62012 41.5582 7.0619 44 10.0303 44H33.9694C36.9379 44 39.3796 41.5582 39.3796 38.5898V10.1023C39.3796 10.0065 39.3318 9.86289 39.3318 9.76714ZM31.1446 3.25571L36.4591 9.24048H31.1446V3.25571ZM37.5603 38.5419C37.5603 40.5528 35.9803 42.1806 33.9694 42.1806H10.0303C8.01947 42.1806 6.43949 40.5528 6.43949 38.5898V5.36235C6.43949 3.35147 8.06734 1.77149 10.0303 1.77149H29.3252V10.1023C29.3252 10.5811 29.7083 11.012 30.2349 11.012H37.5603V38.5419Z" fill="#449099"/>
<path d="M11.0838 21.0119H19.0794C19.5582 21.0119 19.9891 20.6288 19.9891 20.1022C19.9891 19.5755 19.6061 19.1925 19.0794 19.1925H11.0838C10.605 19.1925 10.1741 19.5755 10.1741 20.1022C10.1741 20.6288 10.605 21.0119 11.0838 21.0119Z" fill="#449099"/>
<path d="M19.0794 33.6505H11.0838C10.605 33.6505 10.1741 34.0335 10.1741 34.5602C10.1741 35.039 10.5571 35.4699 11.0838 35.4699H19.0794C19.5582 35.4699 19.9891 35.0869 19.9891 34.5602C19.9891 34.0814 19.5582 33.6505 19.0794 33.6505Z" fill="#449099"/>
<path d="M10.1741 24.9215C10.1741 25.4003 10.5571 25.8312 11.0838 25.8312H32.4374C32.9162 25.8312 33.3471 25.4482 33.3471 24.9215C33.3471 24.4427 32.9641 24.0118 32.4374 24.0118H11.0838C10.605 24.0118 10.1741 24.3949 10.1741 24.9215Z" fill="#449099"/>
<path d="M32.4374 28.8312H11.0838C10.605 28.8312 10.1741 29.2142 10.1741 29.7409C10.1741 30.2196 10.5571 30.6505 11.0838 30.6505H32.4374C32.9162 30.6505 33.3471 30.2675 33.3471 29.7409C33.3471 29.2142 32.9641 28.8312 32.4374 28.8312Z" fill="#449099"/>
</g>
<defs>
<clipPath id="clip0">
<rect width="44" height="44" fill="white"/>
</clipPath>
</defs>
</svg>
