<svg width="56" height="56" viewBox="0 0 56 56" fill="none" xmlns="http://www.w3.org/2000/svg">
<path d="M28.0237 7.32692C28.8075 7.32692 29.4487 7.97596 29.4487 8.76923C29.4487 9.5625 28.8075 10.2115 28.0237 10.2115C27.24 10.2115 26.5987 9.5625 26.5987 8.76923C26.5987 7.97596 27.24 7.32692 28.0237 7.32692ZM47 14.5385C47 12.4111 45.3019 10.6923 43.2 10.6923H37.9275C37.2269 9.89904 36.3244 9.29808 35.2794 8.9976C34.4006 8.74519 33.7356 8.0601 33.4744 7.17067C32.7975 4.76683 30.6006 3 28 3C25.3994 3 23.2025 4.76683 22.5256 7.17067C22.2762 8.0601 21.5994 8.73317 20.7206 8.9976C19.6875 9.29808 18.785 9.89904 18.0725 10.6923H12.8C10.6981 10.6923 9 12.4111 9 14.5385V49.1538C9 51.2812 10.6981 53 12.8 53C21.5281 53 32.2513 53 43.2 53C45.3019 53 47 51.2812 47 49.1538C47 38.2284 47 27.7716 47 14.5385ZM18.5 14.5024C18.5119 12.8077 19.64 11.3053 21.2431 10.8365C22.7513 10.3918 23.915 9.22596 24.3425 7.69952C24.8175 6.0649 26.3137 4.92308 28 4.92308C29.6862 4.92308 31.1825 6.0649 31.6575 7.69952C32.0969 9.22596 33.2487 10.4038 34.7569 10.8365C36.3719 11.3173 37.5 12.8317 37.5 14.5385V16.4615H18.5V14.5024ZM43.2 51.0769C33.0469 51.0769 22.9175 51.0769 12.8 51.0769C11.755 51.0769 10.9 50.2115 10.9 49.1538V14.5385C10.9 13.4808 11.755 12.6154 12.8 12.6154H16.9206C16.7187 13.2043 16.6 13.8293 16.6 14.4904V18.3846H39.4V14.5385C39.4 13.8654 39.2813 13.2163 39.0675 12.6154H43.2C44.245 12.6154 45.1 13.4808 45.1 14.5385C45.1 20.0312 45.1 45.8245 45.1 49.1538C45.1 50.2115 44.245 51.0769 43.2 51.0769ZM35.8969 26.3774L24.4731 37.9399L19.45 32.8437L18.1081 34.2019L24.485 40.6562L37.2506 27.7356L35.8969 26.3774Z" fill="url(#paint0_linear)"/>
<defs>
<linearGradient id="paint0_linear" x1="16.8375" y1="53" x2="51.4709" y2="44.7623" gradientUnits="userSpaceOnUse">
<stop stop-color="#FE5000"/>
<stop offset="1" stop-color="#FCA92A"/>
</linearGradient>
</defs>
</svg>
