<svg width="100" height="100" viewBox="0 0 100 100" fill="none" xmlns="http://www.w3.org/2000/svg">
<circle cx="50" cy="50" r="49.5" fill="white" stroke="url(#paint0_linear)"/>
<path d="M70.6252 47.0535C70.0359 47.0535 69.643 47.4464 69.643 48.0356V51.9642V57.8571V58.8392C69.643 59.9195 68.7591 60.8035 67.6787 60.8035H65.7144C64.0447 60.8035 62.768 62.0803 62.768 63.7499V65.7142C62.768 66.7946 61.884 67.6786 60.8037 67.6786H55.8929H31.3393C30.75 67.6786 30.3571 67.2857 30.3571 66.6964V48.0356C30.3571 47.4463 29.9642 47.0535 29.375 47.0535C28.7858 47.0535 28.3928 47.4463 28.3928 48.0356V66.6964C28.3928 68.3661 29.6696 69.6429 31.3393 69.6429H55.8929H60.8037H62.0804C63.3572 69.6429 64.634 69.1518 65.5179 68.1696L70.134 63.5535C71.018 62.6696 71.6073 61.3928 71.6073 60.116V58.8393V57.8571V51.9643V48.0357C71.6073 47.4463 71.2144 47.0535 70.6252 47.0535ZM64.634 66.4018C64.634 66.2054 64.7323 66.0089 64.7323 65.7143V63.75C64.7323 63.1607 65.1252 62.7679 65.7144 62.7679H67.6787C67.8751 62.7679 68.0716 62.7679 68.3662 62.6696L64.634 66.4018Z" fill="url(#paint1_linear)"/>
<path d="M68.6608 33.3035H61.7858V31.3392C61.7858 30.7499 61.3929 30.3571 60.8037 30.3571C60.2144 30.3571 59.8215 30.75 59.8215 31.3392V33.3035H40.1786V31.3392C40.1786 30.7499 39.7857 30.3571 39.1964 30.3571C38.6072 30.3571 38.2143 30.75 38.2143 31.3392V33.3035H31.3393C29.6696 33.3035 28.3928 34.5803 28.3928 36.25V44.1072C28.3928 44.6965 28.7857 45.0893 29.3749 45.0893H70.6251C71.2144 45.0893 71.6072 44.6964 71.6072 44.1072V36.25C71.6073 34.5803 70.3305 33.3035 68.6608 33.3035ZM69.643 43.125H30.3571V36.25C30.3571 35.6607 30.75 35.2679 31.3393 35.2679H38.2143V37.5268C37.625 37.8215 37.2322 38.5089 37.2322 39.1965C37.2322 40.2769 38.1162 41.1608 39.1965 41.1608C40.2769 41.1608 41.1608 40.2768 41.1608 39.1964C41.1608 38.5089 40.7679 37.8214 40.1786 37.5267V35.2679H59.8215V37.5268C59.2322 37.8215 58.8394 38.5089 58.8394 39.1965C58.8394 40.2769 59.7234 41.1608 60.8037 41.1608C61.8841 41.1608 62.768 40.2768 62.768 39.1964C62.768 38.5089 62.3751 37.8214 61.7859 37.5267V35.2679H68.6609C69.2502 35.2679 69.643 35.6608 69.643 36.25V43.125H69.643Z" fill="url(#paint2_linear)"/>
<path d="M46.0715 52.9464C47.1564 52.9464 48.0358 52.0669 48.0358 50.9821C48.0358 49.8972 47.1564 49.0178 46.0715 49.0178C44.9866 49.0178 44.1072 49.8972 44.1072 50.9821C44.1072 52.0669 44.9866 52.9464 46.0715 52.9464Z" fill="url(#paint3_linear)"/>
<path d="M53.9286 52.9464C55.0134 52.9464 55.8929 52.0669 55.8929 50.9821C55.8929 49.8972 55.0134 49.0178 53.9286 49.0178C52.8437 49.0178 51.9642 49.8972 51.9642 50.9821C51.9642 52.0669 52.8437 52.9464 53.9286 52.9464Z" fill="url(#paint4_linear)"/>
<path d="M61.7857 52.9464C62.8706 52.9464 63.75 52.0669 63.75 50.9821C63.75 49.8972 62.8706 49.0178 61.7857 49.0178C60.7009 49.0178 59.8214 49.8972 59.8214 50.9821C59.8214 52.0669 60.7009 52.9464 61.7857 52.9464Z" fill="url(#paint5_linear)"/>
<path d="M38.2142 61.7857C39.2991 61.7857 40.1785 60.9063 40.1785 59.8214C40.1785 58.7366 39.2991 57.8571 38.2142 57.8571C37.1293 57.8571 36.2499 58.7366 36.2499 59.8214C36.2499 60.9063 37.1293 61.7857 38.2142 61.7857Z" fill="url(#paint6_linear)"/>
<path d="M46.0715 61.7857C47.1564 61.7857 48.0358 60.9063 48.0358 59.8214C48.0358 58.7366 47.1564 57.8571 46.0715 57.8571C44.9866 57.8571 44.1072 58.7366 44.1072 59.8214C44.1072 60.9063 44.9866 61.7857 46.0715 61.7857Z" fill="url(#paint7_linear)"/>
<path d="M53.9286 61.7857C55.0134 61.7857 55.8929 60.9063 55.8929 59.8214C55.8929 58.7366 55.0134 57.8571 53.9286 57.8571C52.8437 57.8571 51.9642 58.7366 51.9642 59.8214C51.9642 60.9063 52.8437 61.7857 53.9286 61.7857Z" fill="url(#paint8_linear)"/>
<defs>
<linearGradient id="paint0_linear" x1="0" y1="100" x2="100" y2="0" gradientUnits="userSpaceOnUse">
<stop stop-color="#FE5000"/>
<stop offset="1" stop-color="#FE9800"/>
</linearGradient>
<linearGradient id="paint1_linear" x1="37.3058" y1="69.6429" x2="67.939" y2="51.3022" gradientUnits="userSpaceOnUse">
<stop stop-color="#FE5000"/>
<stop offset="1" stop-color="#FCA92A"/>
</linearGradient>
<linearGradient id="paint2_linear" x1="37.3058" y1="45.0893" x2="59.8878" y2="24.3581" gradientUnits="userSpaceOnUse">
<stop stop-color="#FE5000"/>
<stop offset="1" stop-color="#FCA92A"/>
</linearGradient>
<linearGradient id="paint3_linear" x1="44.9175" y1="52.9464" x2="48.3631" y2="51.868" gradientUnits="userSpaceOnUse">
<stop stop-color="#FE5000"/>
<stop offset="1" stop-color="#FCA92A"/>
</linearGradient>
<linearGradient id="paint4_linear" x1="52.7745" y1="52.9464" x2="56.2202" y2="51.868" gradientUnits="userSpaceOnUse">
<stop stop-color="#FE5000"/>
<stop offset="1" stop-color="#FCA92A"/>
</linearGradient>
<linearGradient id="paint5_linear" x1="60.6317" y1="52.9464" x2="64.0773" y2="51.868" gradientUnits="userSpaceOnUse">
<stop stop-color="#FE5000"/>
<stop offset="1" stop-color="#FCA92A"/>
</linearGradient>
<linearGradient id="paint6_linear" x1="37.0602" y1="61.7857" x2="40.5058" y2="60.7074" gradientUnits="userSpaceOnUse">
<stop stop-color="#FE5000"/>
<stop offset="1" stop-color="#FCA92A"/>
</linearGradient>
<linearGradient id="paint7_linear" x1="44.9175" y1="61.7857" x2="48.3631" y2="60.7074" gradientUnits="userSpaceOnUse">
<stop stop-color="#FE5000"/>
<stop offset="1" stop-color="#FCA92A"/>
</linearGradient>
<linearGradient id="paint8_linear" x1="52.7745" y1="61.7857" x2="56.2202" y2="60.7074" gradientUnits="userSpaceOnUse">
<stop stop-color="#FE5000"/>
<stop offset="1" stop-color="#FCA92A"/>
</linearGradient>
</defs>
</svg>
