<svg width="100" height="100" viewBox="0 0 100 100" fill="none" xmlns="http://www.w3.org/2000/svg">
<circle cx="50" cy="50" r="49.5" fill="white" stroke="url(#paint0_linear)"/>
<path d="M50.024 29.3269C50.8172 29.3269 51.4663 29.976 51.4663 30.7692C51.4663 31.5625 50.8172 32.2115 50.024 32.2115C49.2307 32.2115 48.5817 31.5625 48.5817 30.7692C48.5817 29.976 49.2307 29.3269 50.024 29.3269ZM69.2307 36.5385C69.2307 34.4111 67.512 32.6923 65.3845 32.6923H60.048C59.3389 31.899 58.4254 31.2981 57.3677 30.9976C56.4783 30.7452 55.8052 30.0601 55.5408 29.1707C54.8557 26.7668 52.6321 25 49.9999 25C47.3677 25 45.1442 26.7668 44.4591 29.1707C44.2067 30.0601 43.5216 30.7332 42.6321 30.9976C41.5865 31.2981 40.673 31.899 39.9519 32.6923H34.6153C32.4879 32.6923 30.7692 34.4111 30.7692 36.5385V71.1538C30.7692 73.2812 32.4879 75 34.6153 75C43.4495 75 54.3028 75 65.3845 75C67.512 75 69.2307 73.2812 69.2307 71.1538C69.2307 60.2284 69.2307 49.7716 69.2307 36.5385ZM40.3845 36.5024C40.3966 34.8077 41.5384 33.3053 43.161 32.8365C44.6874 32.3918 45.8653 31.226 46.298 29.6995C46.7788 28.0649 48.2932 26.9231 49.9999 26.9231C51.7067 26.9231 53.2211 28.0649 53.7019 29.6995C54.1466 31.226 55.3124 32.4038 56.8389 32.8365C58.4735 33.3173 59.6153 34.8317 59.6153 36.5385V38.4615H40.3845V36.5024ZM65.3845 73.0769C55.1081 73.0769 44.8557 73.0769 34.6153 73.0769C33.5576 73.0769 32.6922 72.2115 32.6922 71.1538V36.5385C32.6922 35.4808 33.5576 34.6154 34.6153 34.6154H38.786C38.5817 35.2043 38.4615 35.8293 38.4615 36.4904V40.3846H61.5384V36.5385C61.5384 35.8654 61.4182 35.2163 61.2019 34.6154H65.3845C66.4422 34.6154 67.3076 35.4808 67.3076 36.5385C67.3076 42.0312 67.3076 67.8245 67.3076 71.1538C67.3076 72.2115 66.4422 73.0769 65.3845 73.0769ZM57.9927 48.3774L46.4302 59.9399L41.3461 54.8438L39.9879 56.2019L46.4422 62.6562L59.3629 49.7356L57.9927 48.3774Z" fill="url(#paint1_linear)"/>
<defs>
<linearGradient id="paint0_linear" x1="0" y1="100" x2="100" y2="0" gradientUnits="userSpaceOnUse">
<stop stop-color="#FE5000"/>
<stop offset="1" stop-color="#FE9800"/>
</linearGradient>
<linearGradient id="paint1_linear" x1="38.7019" y1="75" x2="73.71" y2="66.572" gradientUnits="userSpaceOnUse">
<stop stop-color="#FE5000"/>
<stop offset="1" stop-color="#FCA92A"/>
</linearGradient>
</defs>
</svg>
