<svg width="44" height="44" viewBox="0 0 44 44" fill="none" xmlns="http://www.w3.org/2000/svg">
<path fill-rule="evenodd" clip-rule="evenodd" d="M35.9989 9.01581C35.9986 9.00669 35.9982 8.99758 35.9976 8.98847C35.995 8.95234 35.9914 8.91687 35.9842 8.88172C35.9842 8.88172 35.9842 8.88172 35.9842 8.8814C35.9771 8.84625 35.967 8.81143 35.9556 8.77758C35.9527 8.76912 35.9497 8.76066 35.9465 8.7522C35.9344 8.71998 35.9208 8.68841 35.9052 8.65782C35.9042 8.65619 35.9035 8.65456 35.9025 8.65294C35.8856 8.62104 35.8661 8.59078 35.8449 8.56116C35.8397 8.55368 35.8342 8.54652 35.8287 8.53903C35.8062 8.50974 35.7828 8.48143 35.7564 8.45507L28.2172 0.915836C28.1908 0.889475 28.1625 0.866043 28.1332 0.843587C28.1257 0.838055 28.1183 0.832197 28.1108 0.82699C28.0812 0.805836 28.0512 0.786309 28.0197 0.769711C28.0174 0.76841 28.0151 0.767759 28.0131 0.766457C27.9832 0.750836 27.952 0.737493 27.9204 0.725451C27.9116 0.722197 27.9031 0.719268 27.894 0.716339C27.8602 0.704948 27.826 0.694859 27.7905 0.6877C27.7902 0.6877 27.7899 0.6877 27.7899 0.6877C27.7551 0.680865 27.7196 0.67696 27.6838 0.674356C27.6747 0.674031 27.6656 0.67338 27.6565 0.673055C27.647 0.672729 27.6376 0.671753 27.6281 0.671753H8.75208C8.2919 0.671753 7.91895 1.04471 7.91895 1.50489V37.1651C7.91895 37.6252 8.2919 37.9982 8.75208 37.9982H21.2953V42.4952C21.2953 42.7982 21.46 43.0774 21.7252 43.2242C21.9908 43.371 22.3146 43.3622 22.5714 43.2011L25.7445 41.2103L28.9176 43.2011C29.0526 43.2857 29.2065 43.3283 29.3605 43.3283C29.4991 43.3283 29.6381 43.2938 29.7637 43.2245C30.0289 43.0777 30.1936 42.7985 30.1936 42.4952V37.9982H35.167C35.6272 37.9982 36.0002 37.6252 36.0002 37.1651V9.04412C36.0002 9.03468 35.9992 9.02524 35.9989 9.01581ZM28.4613 3.51646L33.1558 8.21098H28.4613V3.51646ZM20.8843 26.4049C20.8257 26.2458 20.7304 25.9857 20.7281 25.8793C20.7932 25.7986 21.019 25.6557 21.1573 25.5685C21.4541 25.3811 21.7907 25.1682 22.0347 24.8356C22.2811 24.4994 22.3813 24.1112 22.4699 23.7688C22.5086 23.6191 22.5711 23.3773 22.6244 23.2859C22.6537 23.2797 22.7152 23.2709 22.8308 23.2709C22.9235 23.2709 23.0273 23.2761 23.1373 23.2816C23.2636 23.2878 23.3938 23.2943 23.5298 23.2943C23.8299 23.2943 24.072 23.2605 24.2917 23.1873C24.6754 23.0597 24.9823 22.8127 25.2531 22.5946C25.4028 22.4742 25.6533 22.2724 25.7406 22.2601C25.8359 22.2724 26.0862 22.4742 26.2359 22.5946C26.5067 22.8127 26.8139 23.0597 27.1976 23.1873C27.4173 23.2605 27.6591 23.2943 27.9594 23.2943C28.0952 23.2943 28.2257 23.2878 28.3516 23.2816C28.4616 23.2761 28.5654 23.2709 28.6585 23.2709C28.774 23.2709 28.8352 23.2794 28.8648 23.2859C28.9182 23.3773 28.9807 23.6191 29.0191 23.7688C29.1076 24.1112 29.2082 24.4994 29.4545 24.8356C29.6983 25.1682 30.0348 25.3807 30.3319 25.5685C30.4699 25.6561 30.6958 25.7986 30.7609 25.8793C30.7586 25.9857 30.6632 26.2458 30.605 26.4049C30.481 26.7424 30.3407 27.1251 30.3407 27.5492C30.3407 27.9732 30.481 28.356 30.6047 28.6938C30.6632 28.8529 30.7586 29.1129 30.7609 29.2194C30.6958 29.3001 30.4699 29.4426 30.3319 29.5302C30.0348 29.7176 29.6983 29.9305 29.4545 30.2631C29.2082 30.5992 29.1076 30.9875 29.0191 31.3299C28.9807 31.4792 28.9179 31.7214 28.8648 31.8128C28.8352 31.819 28.774 31.8278 28.6585 31.8278C28.5654 31.8278 28.4616 31.8226 28.3516 31.817C28.2257 31.8109 28.0952 31.8044 27.9594 31.8044C27.6591 31.8044 27.4173 31.8382 27.1976 31.9114C26.8139 32.039 26.5067 32.2863 26.2359 32.5041C26.0885 32.6232 25.8424 32.8207 25.7445 32.8383C25.6465 32.8207 25.4008 32.6232 25.2534 32.5041C24.9823 32.2863 24.6754 32.039 24.2917 31.9114C24.072 31.8382 23.8299 31.8044 23.5298 31.8044C23.3941 31.8044 23.2636 31.8109 23.1373 31.817C23.0277 31.8226 22.9239 31.8278 22.8308 31.8278C22.7152 31.8278 22.6541 31.819 22.6244 31.8128C22.5711 31.7214 22.5086 31.4796 22.4699 31.3299C22.3817 30.9875 22.2811 30.5992 22.0347 30.2631C21.791 29.9305 21.4545 29.7176 21.1573 29.5302C21.0194 29.4429 20.7935 29.3001 20.7284 29.2194C20.7307 29.1133 20.826 28.8529 20.8843 28.6938C21.0083 28.3563 21.1486 27.9736 21.1486 27.5495C21.1486 27.1251 21.008 26.7424 20.8843 26.4049ZM28.5273 40.989L26.1874 39.521C25.9166 39.3514 25.5723 39.3514 25.3015 39.521L22.9616 40.989V33.4915C23.0501 33.4889 23.137 33.4856 23.2213 33.4814C23.3316 33.4755 23.4358 33.4703 23.5298 33.4703C23.6776 33.4703 23.7407 33.484 23.7651 33.4921C23.8644 33.5253 24.0551 33.6789 24.2084 33.8023C24.5973 34.1153 25.0812 34.5049 25.7445 34.5049C26.4077 34.5049 26.8917 34.1153 27.2806 33.8023C27.4339 33.6789 27.6246 33.5253 27.7235 33.4924C27.7482 33.4843 27.8114 33.4706 27.9591 33.4706C28.0532 33.4706 28.1573 33.4758 28.2676 33.4814C28.3519 33.4856 28.4388 33.4892 28.527 33.4915V40.989H28.5273ZM30.1936 36.3319V32.8201C30.4413 32.4836 30.5448 32.0852 30.6323 31.7468C30.6782 31.5691 30.741 31.326 30.7983 31.2482C30.8552 31.1701 31.0671 31.0363 31.2217 30.9387C31.6318 30.6796 32.142 30.3571 32.3448 29.7472C32.5453 29.1455 32.3367 28.5769 32.1691 28.12C32.0929 27.9127 32.0067 27.6774 32.0067 27.5492C32.0067 27.421 32.0929 27.186 32.1691 26.9787C32.3367 26.5218 32.5453 25.9529 32.3448 25.3511C32.142 24.7416 31.6318 24.4191 31.2217 24.16C31.0671 24.0624 30.8552 23.9283 30.7983 23.8508C30.741 23.7727 30.6782 23.5296 30.6323 23.3519C30.5126 22.8882 30.3635 22.3108 29.8532 21.9366C29.447 21.6391 28.9768 21.6046 28.6582 21.6046C28.5234 21.6046 28.3933 21.6111 28.2676 21.6176C28.1573 21.6232 28.0532 21.6284 27.9594 21.6284C27.8114 21.6284 27.7482 21.6147 27.7238 21.6066C27.6249 21.5737 27.4342 21.4201 27.2809 21.2964C26.8917 20.9837 26.4077 20.5941 25.7445 20.5941C25.0815 20.5941 24.5973 20.9837 24.2084 21.2964C24.0551 21.4198 23.8644 21.5737 23.7655 21.6066C23.741 21.6147 23.6776 21.6284 23.5298 21.6284C23.4361 21.6284 23.3316 21.6232 23.2213 21.6173C23.0957 21.6111 22.9658 21.6046 22.8308 21.6046C22.5125 21.6046 22.0422 21.6391 21.6364 21.9366C21.1258 22.3108 20.9764 22.8882 20.8566 23.3519C20.8107 23.5296 20.7479 23.7727 20.691 23.8505C20.6337 23.9283 20.4218 24.0624 20.2673 24.16C19.8572 24.4191 19.3472 24.7416 19.1441 25.3511C18.9437 25.9532 19.1523 26.5218 19.3199 26.9787C19.396 27.186 19.4823 27.421 19.4823 27.5492C19.4823 27.6774 19.396 27.9127 19.3199 28.12C19.1523 28.5769 18.9437 29.1455 19.1441 29.7476C19.3472 30.3571 19.8575 30.6796 20.2673 30.9387C20.4222 31.0363 20.6337 31.1704 20.691 31.2482C20.7479 31.326 20.8107 31.5691 20.8566 31.7468C20.9442 32.0852 21.048 32.4839 21.2957 32.8201V36.3319H9.58522V2.33803H26.795V9.04412C26.795 9.5043 27.168 9.87726 27.6281 9.87726H34.3339V36.3319H30.1936Z" fill="#7F94A8"/>
<path fill-rule="evenodd" clip-rule="evenodd" d="M12.8229 9.87721H23.5567C24.0165 9.87721 24.3898 9.50425 24.3898 9.04408C24.3898 8.5839 24.0165 8.21094 23.5567 8.21094H12.8229C12.3627 8.21094 11.9897 8.5839 11.9897 9.04408C11.9897 9.50425 12.363 9.87721 12.8229 9.87721Z" fill="#7F94A8"/>
<path fill-rule="evenodd" clip-rule="evenodd" d="M31.189 12.4164H12.8229C12.3627 12.4164 11.9897 12.7893 11.9897 13.2495C11.9897 13.7097 12.3627 14.0827 12.8229 14.0827H31.189C31.6492 14.0827 32.0222 13.7097 32.0222 13.2495C32.0222 12.7893 31.6492 12.4164 31.189 12.4164Z" fill="#7F94A8"/>
<path fill-rule="evenodd" clip-rule="evenodd" d="M27.8565 16.6218H12.8229C12.3627 16.6218 11.9897 16.9951 11.9897 17.455C11.9897 17.9151 12.3627 18.2881 12.8229 18.2881H27.8565C28.3166 18.2881 28.6896 17.9151 28.6896 17.455C28.6896 16.9951 28.3166 16.6218 27.8565 16.6218Z" fill="#7F94A8"/>
<path fill-rule="evenodd" clip-rule="evenodd" d="M31.1891 16.6218C30.7302 16.6218 30.356 16.9961 30.356 17.455C30.356 17.9138 30.7302 18.2881 31.1891 18.2881C31.6483 18.2881 32.0222 17.9138 32.0222 17.455C32.0222 16.9961 31.6483 16.6218 31.1891 16.6218Z" fill="#7F94A8"/>
</svg>
