<svg width="60" height="60" viewBox="0 0 60 60" fill="none" xmlns="http://www.w3.org/2000/svg">
<path d="M48.9669 57.2728H22.1901C19.0661 57.2728 16.6116 54.7727 16.6116 51.5909V17.5C16.6116 14.3182 19.0661 11.8182 22.1901 11.8182H48.9669C52.0909 11.8182 54.5454 14.3182 54.5454 17.5V51.5909C54.5454 54.7727 52.0909 57.2728 48.9669 57.2728ZM22.1901 14.0909C20.2934 14.0909 18.843 15.5682 18.843 17.5V51.5909C18.843 53.5228 20.2934 55 22.1901 55H48.9669C50.8636 55 52.314 53.5228 52.314 51.5909V17.5C52.314 15.5682 50.8636 14.0909 48.9669 14.0909H22.1901ZM13.2644 50.4546H11.033C7.90907 50.4546 5.45453 47.9546 5.45453 44.7728V8.40911C5.45453 5.22729 7.90907 2.72729 11.033 2.72729H37.8099C40.9339 2.72729 43.3884 5.22729 43.3884 8.40911C43.3884 9.09093 42.9421 9.54548 42.2727 9.54548C41.6033 9.54548 41.157 9.09093 41.157 8.40911C41.157 6.47729 39.7066 5.00002 37.8099 5.00002H11.033C9.13635 5.00002 7.68593 6.47729 7.68593 8.40911V44.7728C7.68593 46.7046 9.13635 48.1818 11.033 48.1818H13.2644C13.9339 48.1818 14.3801 48.6364 14.3801 49.3182C14.3801 50 13.9339 50.4546 13.2644 50.4546ZM44.5041 41.3637H26.6529C25.9835 41.3637 25.5372 40.9091 25.5372 40.2273C25.5372 39.5455 25.9835 39.0909 26.6529 39.0909H44.5041C45.1735 39.0909 45.6198 39.5455 45.6198 40.2273C45.6198 40.9091 45.1735 41.3637 44.5041 41.3637ZM44.5041 50.4546H26.6529C25.9835 50.4546 25.5372 50 25.5372 49.3182C25.5372 48.6364 25.9835 48.1818 26.6529 48.1818H44.5041C45.1735 48.1818 45.6198 48.6364 45.6198 49.3182C45.6198 50 45.1735 50.4546 44.5041 50.4546ZM44.5041 32.2727H26.6529C25.9835 32.2727 25.5372 31.8182 25.5372 31.1364C25.5372 30.4546 25.9835 30 26.6529 30H44.5041C45.1735 30 45.6198 30.4546 45.6198 31.1364C45.6198 31.8182 45.1735 32.2727 44.5041 32.2727ZM44.5041 23.1818H26.6529C25.9835 23.1818 25.5372 22.7273 25.5372 22.0455C25.5372 21.3637 25.9835 20.9091 26.6529 20.9091H44.5041C45.1735 20.9091 45.6198 21.3637 45.6198 22.0455C45.6198 22.7273 45.1735 23.1818 44.5041 23.1818Z" fill="#7F94A8"/>
</svg>
