<svg width="66" height="66" viewBox="0 0 66 66" fill="none" xmlns="http://www.w3.org/2000/svg">
<g clip-path="url(#clip0)">
<path d="M62.1211 16.2018H54.4688L51.1875 9.08675C50.9883 8.65017 50.4492 8.44958 50.0156 8.65017L46.8047 10.1487L37.0781 3.15164C36.6914 2.86845 36.1289 2.96285 35.8477 3.36403L26.7539 16.2018H3.87891C3.38672 16.2018 3 16.603 3 17.0867V48.9098C3 49.3935 3.39844 49.7947 3.87891 49.7947H11.5313L14.8125 56.9098C15.0117 57.3463 15.5391 57.5469 15.9844 57.3463L19.1953 55.8478L28.9219 62.8449C29.3086 63.1281 29.8711 63.0337 30.1523 62.6325L39.2461 49.7947H62.1094C62.6016 49.7947 62.9883 49.3935 62.9883 48.9098V17.0867C63 16.603 62.6016 16.2018 62.1211 16.2018ZM49.957 10.6325L52.5234 16.2018H38.0273L49.957 10.6325ZM36.7734 5.12214L44.9766 11.01L33.8555 16.2018H28.9219L36.7734 5.12214ZM23.625 41.8183V47.9186C23.625 47.954 23.625 47.9894 23.6367 48.0248H18.3516C18.3516 47.9894 18.3633 47.954 18.3633 47.9186V41.8183V40.1664V17.9717H23.6367V40.1664V41.8183H23.625ZM4.75781 48.0248V17.9717H16.7109V40.1664H11.4375C10.9805 40.1664 10.6172 40.5322 10.6172 40.9924C10.6172 41.4525 10.9805 41.8183 11.4375 41.8183H16.7109V47.9186C16.7109 47.954 16.7109 47.9894 16.7227 48.0248H4.75781ZM16.043 55.364L13.4766 49.7947H27.9727L16.043 55.364ZM29.2266 60.8862L21.0234 54.9983L32.1445 49.8065H37.0781L29.2266 60.8862ZM61.2422 48.0248H25.2656C25.2656 47.9894 25.2773 47.954 25.2773 47.9186V41.8183H40.2773C40.7344 41.8183 41.0977 41.4525 41.0977 40.9924C41.0977 40.5322 40.7344 40.1664 40.2773 40.1664H25.2656V17.9717H27.1992H53.8945H61.2422V48.0248ZM46.2539 28.426H47.7891V23.0691H52.1953C54.7031 23.0691 56.1094 24.3434 56.1094 26.5381C56.1094 28.7446 54.7031 30.0543 52.1953 30.0543H49.6641V31.1399H53.0391V32.1664H49.6641V34.4555H47.7891V32.1664H46.2539V31.1399H47.7891V30.0543H46.2539V28.426ZM51.9258 28.426C53.6016 28.426 54.2344 27.7062 54.2344 26.5381C54.2344 25.3699 53.6016 24.6856 51.9258 24.6856H49.6641V28.426H51.9258Z" fill="#7F94A8"/>
</g>
<defs>
<clipPath id="clip0">
<rect width="60" height="60" fill="white" transform="translate(3 3)"/>
</clipPath>
</defs>
</svg>
