<svg width="66" height="66" viewBox="0 0 66 66" fill="none" xmlns="http://www.w3.org/2000/svg">
<path d="M52.7909 9H13.2082C10.3375 9 8 11.3375 8 14.2083V49.6244C8 52.4951 10.3375 54.8326 13.2082 54.8326H38.2078C38.7828 54.8326 39.2495 54.3659 39.2495 53.7909C39.2495 53.2159 38.7828 52.7492 38.2078 52.7492H13.2082C11.4853 52.7492 10.0833 51.3472 10.0833 49.6243V19.4165H55.9158V41.2911C55.9158 41.8661 56.3825 42.3328 56.9574 42.3328C57.5324 42.3328 57.9991 41.8661 57.9991 41.2911V14.2083C57.9991 11.3375 55.6617 9 52.7909 9ZM55.9159 17.3333H10.0833V14.2083C10.0833 12.4854 11.4853 11.0834 13.2082 11.0834H52.7908C54.5137 11.0834 55.9158 12.4854 55.9158 14.2083V17.3333H55.9159Z" fill="#7F94A8"/>
<path d="M13.2082 15.2501C13.7836 15.2501 14.2499 14.7837 14.2499 14.2084C14.2499 13.6331 13.7836 13.1667 13.2082 13.1667C12.6329 13.1667 12.1666 13.6331 12.1666 14.2084C12.1666 14.7837 12.6329 15.2501 13.2082 15.2501Z" fill="#7F94A8"/>
<path d="M17.3748 15.2501C17.9501 15.2501 18.4165 14.7837 18.4165 14.2084C18.4165 13.6331 17.9501 13.1667 17.3748 13.1667C16.7995 13.1667 16.3331 13.6331 16.3331 14.2084C16.3331 14.7837 16.7995 15.2501 17.3748 15.2501Z" fill="#7F94A8"/>
<path d="M21.5414 15.2501C22.1167 15.2501 22.5831 14.7837 22.5831 14.2084C22.5831 13.6331 22.1167 13.1667 21.5414 13.1667C20.9661 13.1667 20.4998 13.6331 20.4998 14.2084C20.4998 14.7837 20.9661 15.2501 21.5414 15.2501Z" fill="#7F94A8"/>
<path d="M57.6949 46.8035L43.1118 32.2205C42.8139 31.9247 42.3681 31.835 41.9764 31.9955C41.5868 32.1559 41.3326 32.5372 41.3326 32.9579V53.7909C41.3326 54.2117 41.5868 54.5929 41.9764 54.7513C42.3681 54.9159 42.8118 54.8263 43.1118 54.5263L46.268 51.3701L48.8242 56.3492C48.9513 56.5992 49.1742 56.7847 49.4388 56.868C49.5408 56.8992 49.6471 56.9159 49.7512 56.9159C49.92 56.9159 50.0867 56.8742 50.2408 56.793L54.322 54.6243C54.822 54.3597 55.0199 53.741 54.7615 53.2347L52.4033 48.5828H56.9574C57.3782 48.5828 57.7594 48.3286 57.9199 47.939C58.0824 47.5493 57.9928 47.1015 57.6949 46.8035ZM50.7075 46.4993C50.345 46.4993 50.0095 46.6868 49.82 46.9951C49.6305 47.3034 49.6138 47.6888 49.7783 48.0118L52.4408 53.2659L50.195 54.4596L47.468 49.1493C47.3159 48.8535 47.0325 48.6472 46.7034 48.5951C46.6493 48.5868 46.5951 48.5826 46.541 48.5826C46.268 48.5826 46.0014 48.6909 45.8035 48.8888L43.416 51.2763V35.4725L54.4429 46.4993H50.7075Z" fill="#7F94A8"/>
</svg>
