<svg width="44" height="44" viewBox="0 0 44 44" fill="none" xmlns="http://www.w3.org/2000/svg">
<path d="M37.018 4H6.98204C4.82036 4 3 5.81703 3 7.97476V34.776C3 36.9338 4.82036 38.7508 6.98204 38.7508H25.982C26.4371 38.7508 26.7784 38.4101 26.7784 37.9558C26.7784 37.5016 26.4371 37.1609 25.982 37.1609H6.98204C5.73054 37.1609 4.59281 36.1388 4.59281 34.776V11.836H39.4072V28.4164C39.4072 28.8707 39.7485 29.2114 40.2036 29.2114C40.6587 29.2114 41 28.8707 41 28.4164V7.97476C41 5.81703 39.1796 4 37.018 4ZM39.4072 10.3596H4.59281V7.97476C4.59281 6.72555 5.61677 5.58991 6.98204 5.58991H37.018C38.2695 5.58991 39.4072 6.61199 39.4072 7.97476V10.3596ZM6.98204 8.76972C7.43713 8.76972 7.77844 8.42902 7.77844 7.97476C7.77844 7.5205 7.43713 7.17981 6.98204 7.17981C6.52695 7.17981 6.18563 7.5205 6.18563 7.97476C6.18563 8.42902 6.52695 8.76972 6.98204 8.76972ZM10.1677 8.76972C10.6228 8.76972 10.9641 8.42902 10.9641 7.97476C10.9641 7.5205 10.6228 7.17981 10.1677 7.17981C9.71257 7.17981 9.37126 7.5205 9.37126 7.97476C9.37126 8.42902 9.71257 8.76972 10.1677 8.76972ZM13.3533 8.76972C13.8084 8.76972 14.1497 8.42902 14.1497 7.97476C14.1497 7.5205 13.8084 7.17981 13.3533 7.17981C12.8982 7.17981 12.5569 7.5205 12.5569 7.97476C12.5569 8.42902 12.8982 8.76972 13.3533 8.76972ZM40.7725 32.6183L29.7365 21.6025C29.509 21.3754 29.1677 21.2618 28.8263 21.3754C28.485 21.489 28.3713 21.8297 28.3713 22.0568V37.8423C28.3713 38.183 28.5988 38.4101 28.8263 38.5237C29.1677 38.6372 29.509 38.5237 29.7365 38.2965L32.1257 35.9117L34.0599 39.6593C34.1737 39.8864 34.2874 40 34.515 40C34.6287 40 34.6287 40 34.7425 40C34.8563 40 34.9701 40 35.0838 39.8864L38.1557 38.2965C38.497 38.0694 38.7246 37.6151 38.497 37.2744L36.6766 33.7539H40.0898C40.4311 33.7539 40.6587 33.5268 40.7725 33.2997C41 33.1861 41 32.8454 40.7725 32.6183ZM35.4251 32.3912C35.1976 32.3912 34.8563 32.5047 34.7425 32.7319C34.6287 32.959 34.6287 33.2997 34.7425 33.5268L36.7904 37.5016L35.0838 38.4101L33.0359 34.4353C32.9222 34.2082 32.6946 34.0946 32.4671 33.9811H32.3533C32.1257 33.9811 31.8982 34.0946 31.7844 34.2082L29.9641 36.0252V23.9874L38.3832 32.3912H35.4251Z" fill="#7F94A8"/>
</svg>
