<svg width="56" height="56" viewBox="0 0 56 56" fill="none" xmlns="http://www.w3.org/2000/svg">
<path d="M46.9999 11.9999H8.99996C6.244 11.9999 4 14.2439 4 17V39C4 41.7559 6.244 43.9999 8.99996 43.9999H46.9999C49.7558 43.9999 51.9998 41.7559 51.9998 39V17C51.9999 14.2439 49.7559 11.9999 46.9999 11.9999ZM49.9999 38.9999C49.9999 40.6539 48.654 41.9999 46.9999 41.9999H8.99996C7.34593 41.9999 5.99996 40.6539 5.99996 38.9999V17C5.99996 15.346 7.34593 14 8.99996 14H46.9999C48.6539 14 49.9998 15.346 49.9998 17V38.9999H49.9999Z" fill="url(#paint0_linear)"/>
<path d="M50.9999 17.9999H5.00003C4.44803 17.9999 4 18.448 4 19V25C4 25.552 4.44803 26 5.00003 26H51C51.552 26 52 25.552 52 25V19C51.9999 18.448 51.5519 17.9999 50.9999 17.9999ZM49.9999 23.9999H5.99996V19.9999H49.9998V23.9999H49.9999Z" fill="url(#paint1_linear)"/>
<path d="M23 32.0001H11C10.448 32.0001 10 32.4482 10 33.0002C10 33.5522 10.448 34.0001 11 34.0001H23C23.552 34.0001 24 33.5521 24 33.0001C24 32.4481 23.552 32.0001 23 32.0001Z" fill="url(#paint2_linear)"/>
<path d="M23 35.9999H11C10.448 35.9999 10 36.448 10 37C10 37.552 10.448 38 11 38H23C23.552 38 24 37.552 24 37C23.9999 36.448 23.552 35.9999 23 35.9999Z" fill="url(#paint3_linear)"/>
<path d="M42.9999 29.9999H41C39.3459 29.9999 38 31.3459 38 32.9999V34.9999C38 36.6539 39.3459 37.9999 41 37.9999H42.9999C44.654 37.9999 45.9999 36.6539 45.9999 34.9999V32.9999C45.9999 31.346 44.654 29.9999 42.9999 29.9999ZM44 35C44 35.552 43.5519 36 42.9999 36H41C40.448 36 39.9999 35.552 39.9999 35V33C39.9999 32.448 40.448 32 41 32H42.9999C43.5519 32 44 32.448 44 33V35Z" fill="url(#paint4_linear)"/>
<defs>
<linearGradient id="paint0_linear" x1="13.9" y1="43.9999" x2="51.7752" y2="26.2195" gradientUnits="userSpaceOnUse">
<stop stop-color="#FE5000"/>
<stop offset="1" stop-color="#FCA92A"/>
</linearGradient>
<linearGradient id="paint1_linear" x1="13.9" y1="26" x2="24.1124" y2="6.82319" gradientUnits="userSpaceOnUse">
<stop stop-color="#FE5000"/>
<stop offset="1" stop-color="#FCA92A"/>
</linearGradient>
<linearGradient id="paint2_linear" x1="12.8875" y1="34.0001" x2="15.2121" y2="28.9074" gradientUnits="userSpaceOnUse">
<stop stop-color="#FE5000"/>
<stop offset="1" stop-color="#FCA92A"/>
</linearGradient>
<linearGradient id="paint3_linear" x1="12.8875" y1="38" x2="15.2122" y2="32.9072" gradientUnits="userSpaceOnUse">
<stop stop-color="#FE5000"/>
<stop offset="1" stop-color="#FCA92A"/>
</linearGradient>
<linearGradient id="paint4_linear" x1="39.65" y1="37.9999" x2="46.6664" y2="35.804" gradientUnits="userSpaceOnUse">
<stop stop-color="#FE5000"/>
<stop offset="1" stop-color="#FCA92A"/>
</linearGradient>
</defs>
</svg>
