<?xml version="1.0" encoding="utf-8"?>
<!-- Generator: Adobe Illustrator 24.0.1, SVG Export Plug-In . SVG Version: 6.00 Build 0)  -->
<svg version="1.1" id="Слой_1" xmlns="http://www.w3.org/2000/svg" xmlns:xlink="http://www.w3.org/1999/xlink" x="0px" y="0px"
	 viewBox="0 0 28 28" style="enable-background:new 0 0 28 28;" xml:space="preserve">
<style type="text/css">
	.st0{fill:url(#SVGID_1_);}
</style>
<linearGradient id="SVGID_1_" gradientUnits="userSpaceOnUse" x1="1.4019" y1="14" x2="26.5981" y2="14">
	<stop  offset="0" style="stop-color:#FE5000"/>
	<stop  offset="1" style="stop-color:#FCA92A"/>
</linearGradient>
<path class="st0" d="M25.6,10.3c-0.6-1.5-1.5-2.3-2.4-2.5V7.6c0-1.6-0.9-2.5-2.5-2.5h-1.9c0-1-0.5-1.9-1.3-2.7
	c-0.9-0.8-2.1-1.2-3.3-1.3c-1.3,0-2.5,0.3-3.4,1.1C9.7,3,9.2,4,9.2,5.1c0,0,0,0,0,0H7.4C5.8,5.1,4.9,6,4.9,7.6v0.2
	c-1,0.1-1.8,0.9-2.4,2.4c-0.7,1.5-1,3.3-1,5.3c0,2,0.3,3.8,0.9,5.3c0.6,1.4,1.3,2.2,2.2,2.5v1.5c0,1.1,0.9,2,2,2h15.3
	c1.2,0,1.7-0.5,1.8-1.8v-1.8c0.8-0.3,1.5-1.1,2-2.3c0.6-1.5,1-3.3,1-5.4C26.6,13.5,26.3,11.7,25.6,10.3z M14.1,2.2
	c1,0,1.8,0.3,2.6,1c0.6,0.6,0.9,1.2,1,1.9h-7.3c0-0.8,0.4-1.5,1.1-2.1C12.2,2.5,13.1,2.2,14.1,2.2z M20.7,6.3c1,0,1.4,0.4,1.4,1.3
	v4.7c0,1-0.4,1.4-1.4,1.4H7.4c-1,0-1.3-0.4-1.3-1.4V7.6c0-1,0.4-1.3,1.3-1.3H20.7z M5.7,16.7C6.2,16.9,6.7,17,7.3,17h4.2v0.9
	c0,1.3,0.8,2.1,2.1,2.1h0.9c1.1,0,2-0.9,2-2V17h4.1c0.6,0,1.2-0.1,1.8-0.3v8.4c0,0.4-0.1,0.5-0.1,0.5c0,0-0.2,0.1-0.5,0.1H6.5
	c-0.5,0-0.8-0.4-0.8-0.8V16.7z M23.2,14.7c-0.1,0-0.2,0.1-0.3,0.1c-0.5,0.6-1.3,1-2.3,1h-4.9c-0.2,0-0.4,0.2-0.4,0.4v1.7
	c0,0.5-0.4,0.8-0.8,0.8h-0.9c-0.6,0-0.9-0.3-0.9-0.9v-1.7c0-0.2-0.2-0.4-0.4-0.4h-5c-1.1,0-2-0.4-2.4-1.2c0-0.1-0.1-0.1-0.2-0.1
	c-0.1,0-0.2,0.1-0.2,0.2v7.4c-0.4-0.3-0.8-0.8-1.1-1.7c-0.6-1.3-0.8-3-0.8-4.8c0-1.9,0.4-3.5,1-4.9C3.9,9.7,4.4,9.2,4.9,9v3.3
	c0,1.6,0.9,2.5,2.5,2.5h13.3c1.6,0,2.5-0.9,2.5-2.5V9c0.6,0.3,1.1,1.2,1.3,1.7c0.6,1.3,0.9,2.9,0.9,4.8c0,1.9-0.3,3.5-0.9,4.9
	c-0.3,0.7-0.6,1.2-1,1.5V15C23.6,14.8,23.4,14.7,23.2,14.7z"/>
</svg>
