<svg width="56" height="56" viewBox="0 0 56 56" fill="none" xmlns="http://www.w3.org/2000/svg">
<g clip-path="url(#clip0)">
<path d="M18.6703 23.3297C12.8844 23.3297 8.17031 18.6157 8.17031 12.8297C8.17031 7.04377 12.8844 2.32971 18.6703 2.32971C24.4562 2.32971 29.1703 7.04377 29.1703 12.8297C29.1703 18.6157 24.4562 23.3297 18.6703 23.3297ZM18.6703 4.67034C14.1641 4.67034 10.5 8.3344 10.5 12.8407C10.5 17.3469 14.1641 21.011 18.6703 21.011C23.1766 21.011 26.8406 17.3469 26.8406 12.8407C26.8406 8.3344 23.1656 4.67034 18.6703 4.67034ZM26.6 13.0266C23.8219 13.0266 21.8203 11.1453 20.7922 9.87659C16.2531 13.3656 10.8938 13.0485 9.275 12.8516C8.64062 12.775 8.18125 12.1953 8.25781 11.55C8.33438 10.9156 8.90312 10.4563 9.55937 10.5328C11.0578 10.7078 16.2422 11.0141 20.2234 7.31721C20.4859 7.07659 20.8469 6.96721 21.1859 7.0219C21.5359 7.07659 21.8422 7.2844 22.0281 7.59065C22.1156 7.74377 24.3141 11.4297 27.6609 10.5656C28.2953 10.4125 28.9187 10.7844 29.0828 11.4078C29.2469 12.0313 28.8641 12.6656 28.2406 12.8297C27.65 12.961 27.1141 13.0266 26.6 13.0266ZM39.6703 51.3297C33.2391 51.3297 28 46.0907 28 39.6594C28 33.2282 33.2391 28 39.6703 28C46.1016 28 51.3406 33.2391 51.3406 39.6703C51.3406 46.1016 46.1016 51.3297 39.6703 51.3297ZM39.6703 30.3297C34.5188 30.3297 30.3406 34.5188 30.3406 39.6594C30.3406 44.8 34.5297 48.9891 39.6703 48.9891C44.8109 48.9891 49 44.8 49 39.6594C49 34.5188 44.8109 30.3297 39.6703 30.3297ZM54.8297 56C54.5344 56 54.2281 55.8907 53.9984 55.661L46.8344 48.4969C46.375 48.0375 46.375 47.3047 46.8344 46.8453C47.2938 46.386 48.0266 46.386 48.4859 46.8453L55.65 54.0094C56.1094 54.4688 56.1094 55.2016 55.65 55.661C55.4312 55.8907 55.1359 56 54.8297 56ZM24.5 46.6703H1.17031C0.525 46.6703 0 46.1453 0 45.5V36.1703C0 31.6641 3.66406 28 8.17031 28H26.8406C27.4859 28 28.0109 28.525 28.0109 29.1703C28.0109 29.8157 27.4859 30.3407 26.8406 30.3407H8.17031C4.95469 30.3407 2.34063 32.9547 2.34063 36.1703V44.3406H24.5C25.1453 44.3406 25.6703 44.8657 25.6703 45.511C25.6703 46.1453 25.1453 46.6703 24.5 46.6703Z" fill="url(#paint0_linear)"/>
</g>
<defs>
<linearGradient id="paint0_linear" x1="11.5489" y1="56" x2="60.2748" y2="40.09" gradientUnits="userSpaceOnUse">
<stop stop-color="#FE5000"/>
<stop offset="1" stop-color="#FCA92A"/>
</linearGradient>
<clipPath id="clip0">
<rect width="56" height="56" fill="white"/>
</clipPath>
</defs>
</svg>
