<svg width="150" height="50" viewBox="0 0 150 50" fill="none" xmlns="http://www.w3.org/2000/svg">
<path d="M9.65892 49.9974C9.27026 49.9974 8.89099 49.9923 8.50537 49.9834C7.70654 49.9727 6.90958 49.9015 6.12102 49.7702C5.38573 49.6404 4.67343 49.3991 4.00762 49.054C3.34791 48.7119 2.7462 48.2632 2.22555 47.7252C1.69736 47.1936 1.25761 46.577 0.923742 45.8998C0.586194 45.2183 0.352591 44.4877 0.23107 43.7337C0.0998372 42.9234 0.0288351 42.1041 0.0186754 41.2828C0.0105879 41.0071 0 40.0893 0 40.0893V9.89404C0 9.89404 0.0112767 8.99029 0.0187392 8.72477C0.028467 7.90479 0.0990563 7.08676 0.229896 6.27775C0.351642 5.52161 0.585426 4.78896 0.923156 4.10518C1.2558 3.42851 1.6931 2.81144 2.21811 2.27789C2.74253 1.73928 3.34616 1.2883 4.00699 0.941402C4.67128 0.597477 5.38223 0.357802 6.11603 0.230406C6.90718 0.0978199 7.70691 0.0261373 8.50851 0.01596L9.65955 0H140.755L141.92 0.0166005C142.714 0.0262721 143.507 0.0973152 144.291 0.229125C145.032 0.358119 145.75 0.599466 146.422 0.945232C147.746 1.64434 148.823 2.7504 149.503 4.10837C149.835 4.78743 150.065 5.5141 150.186 6.26371C150.318 7.07936 150.392 7.90382 150.407 8.73053C150.411 9.1007 150.411 9.49833 150.411 9.89404C150.421 10.3842 150.421 10.8508 150.421 11.3211V38.6775C150.421 39.1523 150.421 39.6157 150.411 40.0829C150.411 40.5079 150.411 40.8973 150.406 41.2981C150.391 42.1101 150.318 42.9198 150.188 43.7209C150.069 44.4804 149.837 45.2166 149.499 45.9037C149.163 46.5735 148.726 47.1848 148.204 47.715C147.683 48.2559 147.08 48.7072 146.419 49.0516C145.749 49.3992 145.031 49.6415 144.291 49.7702C143.502 49.9022 142.705 49.9734 141.906 49.9834C141.533 49.9923 141.141 49.9974 140.762 49.9974L139.379 50L9.65892 49.9974Z" fill="white"/>
<path d="M31.0837 24.6628C31.0971 23.6194 31.3751 22.5965 31.8915 21.689C32.408 20.7816 33.1463 20.0192 34.0376 19.4727C33.4714 18.6662 32.7244 18.0026 31.8559 17.5344C30.9874 17.0662 30.0214 16.8064 29.0347 16.7756C26.9297 16.5553 24.8891 18.0316 23.8164 18.0316C22.723 18.0316 21.0715 16.7975 19.2932 16.834C18.1428 16.871 17.0218 17.2046 16.0392 17.8022C15.0566 18.3997 14.246 19.2409 13.6863 20.2438C11.262 24.4293 13.0703 30.5806 15.3926 33.9639C16.5545 35.6206 17.9124 37.4711 19.6892 37.4055C21.4278 37.3336 22.0772 36.2999 24.176 36.2999C26.2552 36.2999 26.8645 37.4055 28.6773 37.3638C30.543 37.3336 31.7185 35.6997 32.8396 34.0274C33.6744 32.8469 34.3168 31.5423 34.743 30.1617C33.659 29.7046 32.7341 28.9393 32.0833 27.9615C31.4326 26.9836 31.0849 25.8364 31.0837 24.6628Z" fill="#333333"/>
<path d="M27.6596 14.5505C28.6768 13.3328 29.178 11.7675 29.0566 10.1873C27.5025 10.35 26.0669 11.0907 25.0359 12.2618C24.5318 12.8339 24.1457 13.4994 23.8997 14.2204C23.6537 14.9413 23.5526 15.7036 23.6022 16.4635C24.3796 16.4715 25.1486 16.3035 25.8514 15.9721C26.5542 15.6408 27.1724 15.1547 27.6596 14.5505Z" fill="#333333"/>
<path d="M53.0619 33.2115H47.1286L45.7037 37.407H43.1906L48.8105 21.8845H51.4216L57.0416 37.407H54.4856L53.0619 33.2115ZM47.7431 31.2754H52.4463L50.1277 24.4663H50.0629L47.7431 31.2754Z" fill="#333333"/>
<path d="M69.1789 31.7492C69.1789 35.266 67.2913 37.5255 64.4427 37.5255C63.7211 37.5632 63.0035 37.3974 62.372 37.0472C61.7405 36.6971 61.2206 36.1766 60.8719 35.5455H60.818V41.151H58.4885V26.09H60.7434V27.9723H60.7862C61.1509 27.3442 61.6796 26.8265 62.3159 26.4742C62.9522 26.1219 63.6724 25.9482 64.3999 25.9716C67.2802 25.9716 69.1789 28.2421 69.1789 31.7492ZM66.7845 31.7492C66.7845 29.4579 65.597 27.9516 63.7853 27.9516C62.0055 27.9516 60.8082 29.4896 60.8082 31.7492C60.8082 34.0294 62.0055 35.5565 63.7853 35.5565C65.5971 35.5565 66.7845 34.0612 66.7845 31.7492Z" fill="#333333"/>
<path d="M81.6699 31.7492C81.6699 35.266 79.7822 37.5255 76.9337 37.5255C76.2121 37.5632 75.4945 37.3974 74.863 37.0472C74.2315 36.6971 73.7116 36.1766 73.3629 35.5455H73.309V41.151H70.9795V26.09H73.2343V27.9723H73.2772C73.6419 27.3442 74.1705 26.8265 74.8069 26.4742C75.4432 26.1219 76.1634 25.9482 76.8908 25.9716C79.7712 25.9716 81.6699 28.2421 81.6699 31.7492ZM79.2755 31.7492C79.2755 29.4579 78.088 27.9515 76.2763 27.9515C74.4964 27.9515 73.2992 29.4896 73.2992 31.7492C73.2992 34.0294 74.4964 35.5565 76.2763 35.5565C78.0881 35.5565 79.2755 34.0612 79.2755 31.7492H79.2755Z" fill="#333333"/>
<path d="M89.9254 33.0821C90.098 34.6214 91.5976 35.6321 93.6468 35.6321C95.6103 35.6321 97.0229 34.6214 97.0229 33.2334C97.0229 32.0286 96.1709 31.3072 94.1536 30.8128L92.1362 30.3281C89.2779 29.6397 87.9509 28.3066 87.9509 26.1436C87.9509 23.4653 90.2914 21.6257 93.6149 21.6257C96.9041 21.6257 99.159 23.4653 99.2349 26.1436H96.8833C96.7426 24.5945 95.4585 23.6594 93.5819 23.6594C91.7053 23.6594 90.4212 24.6055 90.4212 25.9824C90.4212 27.0798 91.2413 27.7256 93.2477 28.2199L94.9627 28.6399C98.1564 29.393 99.4834 30.6724 99.4834 32.9428C99.4834 35.8469 97.1637 37.6657 93.4741 37.6657C90.0221 37.6657 87.6913 35.8896 87.5408 33.082L89.9254 33.0821Z" fill="#333333"/>
<path d="M104.511 23.4116V26.0898H106.669V27.9294H104.511V34.1685C104.511 35.1377 104.943 35.5894 105.892 35.5894C106.148 35.5849 106.404 35.567 106.658 35.5356V37.3642C106.231 37.4437 105.798 37.4797 105.364 37.4717C103.066 37.4717 102.17 36.6111 102.17 34.4162V27.9294H100.52V26.0898H102.17V23.4116H104.511Z" fill="#333333"/>
<path d="M107.919 31.749C107.919 28.1882 110.022 25.9507 113.301 25.9507C116.592 25.9507 118.685 28.1882 118.685 31.749C118.685 35.3196 116.603 37.5474 113.301 37.5474C110.001 37.5474 107.919 35.3196 107.919 31.749ZM116.312 31.749C116.312 29.3064 115.189 27.8647 113.301 27.8647C111.414 27.8647 110.293 29.3174 110.293 31.749C110.293 34.2014 111.414 35.6321 113.301 35.6321C115.189 35.6321 116.312 34.2014 116.312 31.749H116.312Z" fill="#333333"/>
<path d="M120.606 26.0899H122.828V28.0161H122.881C123.032 27.4145 123.385 26.8829 123.882 26.5105C124.379 26.1381 124.99 25.9478 125.611 25.9714C125.88 25.9705 126.147 25.9996 126.409 26.0581V28.231C126.07 28.1277 125.717 28.0803 125.363 28.0906C125.024 28.0769 124.687 28.1364 124.374 28.265C124.061 28.3936 123.779 28.5883 123.548 28.8357C123.318 29.083 123.144 29.3772 123.038 29.6981C122.932 30.0189 122.897 30.3588 122.935 30.6943V37.407H120.606L120.606 26.0899Z" fill="#333333"/>
<path d="M137.15 34.083C136.837 36.1374 134.83 37.5474 132.263 37.5474C128.962 37.5474 126.912 35.3415 126.912 31.8027C126.912 28.2529 128.973 25.9507 132.165 25.9507C135.305 25.9507 137.28 28.1016 137.28 31.533V32.3289H129.264V32.4692C129.227 32.8857 129.279 33.3053 129.417 33.7001C129.556 34.0949 129.776 34.4559 130.065 34.7591C130.354 35.0623 130.704 35.3007 131.092 35.4586C131.48 35.6165 131.898 35.6902 132.317 35.6748C132.868 35.7262 133.42 35.5991 133.892 35.3123C134.364 35.0255 134.731 34.5944 134.938 34.083L137.15 34.083ZM129.275 30.7053H134.949C134.97 30.3308 134.913 29.9561 134.782 29.6046C134.65 29.253 134.448 28.9324 134.186 28.6627C133.925 28.393 133.611 28.18 133.263 28.0373C132.915 27.8945 132.541 27.825 132.165 27.833C131.786 27.8308 131.41 27.9034 131.059 28.0469C130.708 28.1903 130.389 28.4016 130.12 28.6687C129.851 28.9357 129.638 29.2532 129.493 29.6027C129.348 29.9523 129.274 30.327 129.275 30.7053V30.7053Z" fill="#333333"/>
<path d="M46.0875 13.3538H47.0876C47.2598 13.3752 47.4345 13.3608 47.6008 13.3115C47.7671 13.2622 47.9214 13.1791 48.0538 13.0674C48.1863 12.9557 48.2942 12.8178 48.3706 12.6625C48.447 12.5072 48.4903 12.3377 48.4978 12.1649C48.4978 11.477 47.9788 11.0327 47.0986 11.0327C46.9222 11.0081 46.7427 11.019 46.5706 11.0648C46.3985 11.1105 46.2374 11.1902 46.0967 11.2991C45.956 11.408 45.8386 11.5439 45.7514 11.6988C45.6643 11.8537 45.6091 12.0244 45.5893 12.2009H44.4912C44.5101 11.8805 44.5949 11.5675 44.7404 11.2812C44.8859 10.9949 45.0889 10.7416 45.3368 10.537C45.5848 10.3323 45.8723 10.1808 46.1815 10.0918C46.4907 10.0027 46.8149 9.97814 47.1341 10.0195C48.6067 10.0195 49.6436 10.8416 49.6436 12.0251C49.6471 12.4216 49.514 12.8072 49.2668 13.1177C49.0195 13.4282 48.6729 13.6447 48.2848 13.731V13.8189C48.7448 13.8393 49.1781 14.0404 49.4898 14.3784C49.8016 14.7164 49.9664 15.1637 49.9484 15.6225C49.9144 15.9524 49.8146 16.2722 49.655 16.5631C49.4955 16.854 49.2793 17.1102 49.0191 17.3168C48.7589 17.5233 48.46 17.6759 48.1399 17.7658C47.8198 17.8556 47.4849 17.8808 47.1549 17.8399C46.8242 17.8849 46.4879 17.863 46.1658 17.7755C45.8438 17.6881 45.5427 17.5369 45.2806 17.3309C45.0184 17.125 44.8005 16.8685 44.6399 16.5768C44.4792 16.285 44.3791 15.964 44.3456 15.6329H45.4607C45.5281 16.3464 46.1854 16.8067 47.1549 16.8067C48.1244 16.8067 48.7573 16.2897 48.7573 15.5609C48.7573 14.8218 48.1612 14.3665 47.1194 14.3665H46.0875V13.3538Z" fill="#333333"/>
<path d="M51.2154 16.0674C51.2154 15.0542 51.9731 14.4701 53.3147 14.3871L54.8437 14.2992V13.8134C54.8437 13.2189 54.4507 12.8832 53.6881 12.8832C53.0663 12.8832 52.6366 13.1108 52.5117 13.5088H51.4333C51.5471 12.542 52.4603 11.9219 53.7407 11.9219C55.1558 11.9219 55.954 12.6244 55.954 13.8134V17.6592H54.8804V16.8682H54.7923C54.6134 17.1519 54.3622 17.3832 54.0643 17.5385C53.7664 17.6937 53.4326 17.7674 53.0969 17.7519C52.8599 17.7765 52.6204 17.7513 52.3938 17.6779C52.1672 17.6045 51.9586 17.4846 51.7813 17.3259C51.604 17.1672 51.4621 16.9732 51.3646 16.7564C51.2671 16.5397 51.2163 16.3049 51.2154 16.0674ZM54.8437 15.5864V15.1158L53.4653 15.2037C52.6879 15.2556 52.3354 15.5193 52.3354 16.0155C52.3354 16.5221 52.7761 16.8169 53.3821 16.8169C53.5596 16.8348 53.739 16.8169 53.9095 16.7643C54.08 16.7117 54.2381 16.6254 54.3745 16.5106C54.5108 16.3958 54.6227 16.2549 54.7033 16.0961C54.7839 15.9373 54.8316 15.764 54.8437 15.5864Z" fill="#333333"/>
<path d="M58.9102 12.9656V17.6592H57.7963V12.0305H61.5128V12.9655L58.9102 12.9656Z" fill="#333333"/>
<path d="M68.2638 14.8424C68.2638 16.6307 67.3568 17.7519 65.9319 17.7519C65.5821 17.7757 65.2328 17.6994 64.925 17.5319C64.6173 17.3644 64.364 17.1127 64.1948 16.8065H64.1067V19.5305H62.9927V12.0305H64.0651V12.9607H64.1483C64.3205 12.6437 64.5771 12.3804 64.8899 12.1998C65.2027 12.0191 65.5595 11.9282 65.9209 11.9371C67.3568 11.9371 68.2638 13.0534 68.2638 14.8424ZM67.1181 14.8424C67.1181 13.6534 66.5537 12.935 65.6099 12.935C64.6723 12.935 64.0859 13.6686 64.0859 14.8472C64.0859 16.0203 64.6723 16.7546 65.605 16.7546C66.5537 16.7546 67.1181 16.0362 67.1181 14.8424Z" fill="#333333"/>
<path d="M69.7474 19.6752V18.7188C69.868 18.734 69.9895 18.741 70.111 18.7395C70.3483 18.757 70.5838 18.6866 70.7722 18.5416C70.9606 18.3966 71.0887 18.1874 71.1319 17.954L71.2151 17.6799L69.1721 12.0305H70.3852L71.8003 16.5013H71.8885L73.2987 12.0305H74.4799L72.3757 17.8917C71.8934 19.2614 71.3596 19.7008 70.209 19.7008C70.1159 19.7008 69.8515 19.6904 69.7474 19.6752Z" fill="#333333"/>
<path d="M75.3478 16.062H76.4569C76.5658 16.5583 77.0323 16.817 77.6847 16.817C78.4265 16.817 78.8819 16.4911 78.8819 15.9845C78.8819 15.4419 78.4731 15.1831 77.6847 15.1831H76.8401V14.3201H77.67C78.3433 14.3201 78.686 14.0619 78.686 13.5913C78.686 13.1781 78.3543 12.8626 77.67 12.8626C77.0469 12.8626 76.5916 13.1263 76.5193 13.5706H75.4458C75.526 13.06 75.804 12.6013 76.22 12.293C76.6359 11.9847 77.1566 11.8515 77.67 11.922C79.0117 11.922 79.7792 12.5269 79.7792 13.4778C79.7855 13.7426 79.7004 14.0016 79.5382 14.2113C79.3759 14.4211 79.1464 14.5689 78.888 14.6302V14.7181C79.1957 14.7576 79.4781 14.9085 79.6816 15.1419C79.8852 15.3754 79.9957 15.6752 79.9922 15.9845C79.9922 17.0545 79.079 17.7625 77.6847 17.7625C76.452 17.7625 75.4507 17.1991 75.3478 16.062Z" fill="#333333"/>
<path d="M81.5964 17.6592V12.0305H82.7006V15.902H82.7887L85.39 12.0305H86.4942V17.6592H85.39V13.767H85.3068L82.7006 17.6592L81.5964 17.6592Z" fill="#333333"/>
<path d="M92.5769 12.9658H90.7994V17.6594H89.6842V12.9658H87.9067V12.0308H92.5769V12.9658Z" fill="#333333"/>
<path d="M98.5775 16.1395C98.4257 16.6539 98.0975 17.0988 97.6503 17.3964C97.203 17.6941 96.6651 17.8256 96.1305 17.7679C95.7586 17.7777 95.3891 17.7067 95.0475 17.5598C94.7059 17.4129 94.4005 17.1936 94.1524 16.9172C93.9043 16.6407 93.7195 16.3138 93.6109 15.959C93.5022 15.6042 93.4722 15.2301 93.5231 14.8626C93.4736 14.494 93.5041 14.1191 93.6125 13.7633C93.7209 13.4074 93.9047 13.079 94.1515 12.8001C94.3982 12.5213 94.7022 12.2986 95.0428 12.1471C95.3834 11.9956 95.7527 11.9188 96.1256 11.922C97.6962 11.922 98.6449 12.992 98.6449 14.7595V15.1471H94.6591V15.2093C94.6414 15.4159 94.6673 15.6239 94.7351 15.82C94.8029 16.016 94.911 16.1957 95.0526 16.3476C95.1942 16.4994 95.366 16.6201 95.5571 16.7018C95.7483 16.7835 95.9544 16.8243 96.1623 16.8218C96.4286 16.8536 96.6983 16.8057 96.9372 16.6842C97.1761 16.5627 97.3734 16.3731 97.504 16.1395L98.5775 16.1395ZM94.6591 14.3255H97.5088C97.5229 14.1367 97.4972 13.9471 97.4334 13.7687C97.3697 13.5904 97.2692 13.4274 97.1385 13.29C97.0077 13.1527 96.8497 13.0442 96.6744 12.9714C96.4991 12.8986 96.3105 12.8632 96.1207 12.8674C95.928 12.8648 95.7367 12.9007 95.5581 12.9731C95.3796 13.0455 95.2174 13.1528 95.0811 13.2887C94.9449 13.4246 94.8373 13.5864 94.7648 13.7645C94.6923 13.9426 94.6564 14.1334 94.6591 14.3255H94.6591Z" fill="#333333"/>
<path d="M103.3 12.0305H105.845C106.949 12.0305 107.597 12.5884 107.597 13.4618C107.599 13.7389 107.505 14.0082 107.331 14.2246C107.158 14.4411 106.915 14.5915 106.643 14.6507V14.7386C106.973 14.7594 107.282 14.9056 107.507 15.1471C107.731 15.3886 107.854 15.7069 107.85 16.0362C107.85 17.0183 107.11 17.6592 105.871 17.6592H103.3V12.0305ZM104.404 12.8832V14.3407H105.509C106.182 14.3407 106.504 14.0825 106.504 13.6064C106.504 13.1676 106.224 12.8832 105.632 12.8832L104.404 12.8832ZM104.404 15.1574V16.8065H105.725C106.384 16.8065 106.736 16.5166 106.736 15.9844C106.736 15.421 106.337 15.1574 105.586 15.1574L104.404 15.1574Z" fill="#333333"/>
</svg>
