<svg width="170" height="50" viewBox="0 0 170 50" fill="none" xmlns="http://www.w3.org/2000/svg">
<path d="M163.074 50H6.59257C3.08739 50 0.333313 47.25 0.333313 43.75V6.25C0.333313 2.75 3.08739 0 6.59257 0H163.074C166.579 0 169.333 2.75 169.333 6.25V43.75C169.333 47.25 166.579 50 163.074 50Z" fill="white"/>
<path d="M85.5844 27.25C82.58 27.25 80.2015 29.5 80.2015 32.625C80.2015 35.625 82.58 38 85.5844 38C88.5889 38 90.9674 35.75 90.9674 32.625C90.9674 29.375 88.5889 27.25 85.5844 27.25ZM85.5844 35.75C83.957 35.75 82.58 34.375 82.58 32.5C82.58 30.625 83.957 29.25 85.5844 29.25C87.2118 29.25 88.5889 30.5 88.5889 32.5C88.5889 34.375 87.2118 35.75 85.5844 35.75ZM73.9422 27.25C70.9378 27.25 68.5592 29.5 68.5592 32.625C68.5592 35.625 70.9378 38 73.9422 38C76.9466 38 79.3252 35.75 79.3252 32.625C79.3252 29.375 76.9466 27.25 73.9422 27.25ZM73.9422 35.75C72.3148 35.75 70.9378 34.375 70.9378 32.5C70.9378 30.625 72.3148 29.25 73.9422 29.25C75.5696 29.25 76.9466 30.5 76.9466 32.5C76.9466 34.375 75.5696 35.75 73.9422 35.75ZM60.0466 28.875V31.125H65.4296C65.3044 32.375 64.8037 33.375 64.1778 34C63.4266 34.75 62.1748 35.625 60.0466 35.625C56.6666 35.625 54.1629 33 54.1629 29.625C54.1629 26.25 56.7918 23.625 60.0466 23.625C61.7992 23.625 63.1763 24.375 64.1778 25.25L65.8052 23.625C64.4281 22.375 62.6755 21.375 60.1718 21.375C55.6652 21.375 51.7844 25.125 51.7844 29.625C51.7844 34.125 55.6652 37.875 60.1718 37.875C62.6755 37.875 64.4281 37.125 65.9304 35.5C67.4326 34 67.9333 31.875 67.9333 30.25C67.9333 29.75 67.9333 29.25 67.8081 28.875H60.0466ZM116.881 30.625C116.38 29.375 115.128 27.25 112.374 27.25C109.62 27.25 107.367 29.375 107.367 32.625C107.367 35.625 109.62 38 112.624 38C115.003 38 116.505 36.5 117.006 35.625L115.253 34.375C114.627 35.25 113.876 35.875 112.624 35.875C111.373 35.875 110.621 35.375 109.996 34.25L117.131 31.25L116.881 30.625ZM109.62 32.375C109.62 30.375 111.247 29.25 112.374 29.25C113.25 29.25 114.127 29.75 114.377 30.375L109.62 32.375ZM103.736 37.5H106.115V21.875H103.736V37.5ZM99.9807 28.375C99.3548 27.75 98.3533 27.125 97.1015 27.125C94.4726 27.125 91.9689 29.5 91.9689 32.5C91.9689 35.5 94.3474 37.75 97.1015 37.75C98.3533 37.75 99.3548 37.125 99.8555 36.5H99.9807V37.25C99.9807 39.25 98.8541 40.375 97.1015 40.375C95.7244 40.375 94.7229 39.375 94.4726 38.5L92.4696 39.375C93.0955 40.75 94.5978 42.5 97.2266 42.5C99.9807 42.5 102.234 40.875 102.234 37V27.5H99.9807V28.375ZM97.2266 35.75C95.5992 35.75 94.2222 34.375 94.2222 32.5C94.2222 30.625 95.5992 29.25 97.2266 29.25C98.854 29.25 100.106 30.625 100.106 32.5C100.106 34.375 98.854 35.75 97.2266 35.75ZM127.772 21.875H122.138V37.5H124.517V31.625H127.772C130.401 31.625 132.904 29.75 132.904 26.75C132.904 23.75 130.401 21.875 127.772 21.875ZM127.897 29.375H124.517V24H127.897C129.65 24 130.651 25.5 130.651 26.625C130.526 28 129.524 29.375 127.897 29.375ZM142.293 27.125C140.541 27.125 138.788 27.875 138.162 29.5L140.29 30.375C140.791 29.5 141.542 29.25 142.418 29.25C143.67 29.25 144.797 30 144.922 31.25V31.375C144.547 31.125 143.545 30.75 142.544 30.75C140.29 30.75 138.037 32 138.037 34.25C138.037 36.375 139.915 37.75 141.918 37.75C143.545 37.75 144.296 37 144.922 36.25H145.047V37.5H147.301V31.5C147.05 28.75 144.922 27.125 142.293 27.125ZM142.043 35.75C141.292 35.75 140.165 35.375 140.165 34.375C140.165 33.125 141.542 32.75 142.669 32.75C143.67 32.75 144.171 33 144.797 33.25C144.547 34.75 143.295 35.75 142.043 35.75ZM155.187 27.5L152.558 34.25H152.433L149.679 27.5H147.176L151.307 37L148.928 42.25H151.307L157.691 27.5H155.187ZM134.156 37.5H136.535V21.875H134.156V37.5Z" fill="#373A36"/>
<g clip-path="url(#clip0)">
<path d="M18.1576 10.4795C16.9822 9.83082 15.6021 9.84582 14.4342 10.4889L28.1224 23.0976L32.7208 18.506L18.1576 10.4795Z" fill="#373A36"/>
<path d="M13.064 11.7788C12.7297 12.3244 12.5382 12.9487 12.5382 13.6106V36.383C12.5382 37.0243 12.7128 37.6355 13.0283 38.1698L26.7935 24.425L13.064 11.7788Z" fill="#373A36"/>
<path d="M38.8176 21.8662L34.4313 19.4495L29.5024 24.3692L35.5429 29.932L38.8195 28.1265C39.9986 27.474 40.7046 26.3041 40.7046 24.9954C40.7028 23.6867 39.9986 22.5168 38.8176 21.8662Z" fill="#373A36"/>
<path d="M28.175 25.6965L14.3723 39.4789C14.9712 39.8201 15.6284 40.0001 16.2894 40.0001C16.9278 40.0001 17.5699 39.8389 18.1576 39.5145L33.8118 30.8881L28.175 25.6965Z" fill="#373A36"/>
</g>
<path d="M53.0363 17.875H52.16V15.375H52.9111C53.537 14.875 53.9126 13.875 53.9126 12.5V8.75H58.92V15.375H59.7963V17.875H58.92V16.25H53.1615V17.875H53.0363ZM54.7889 12.5C54.7889 13.625 54.5385 14.625 54.0378 15.375H57.7933V9.625H54.6637V12.5H54.7889Z" fill="#373A36" stroke="#373A36" stroke-width="0.2" stroke-miterlimit="10"/>
<path d="M67.1822 15.25C66.4311 16 65.5548 16.375 64.4281 16.375C63.3014 16.375 62.4251 16 61.674 15.25C60.9229 14.5 60.5474 13.625 60.5474 12.5C60.5474 11.375 60.9229 10.5 61.674 9.75C62.4251 9 63.3014 8.625 64.4281 8.625C65.5548 8.625 66.4311 9 67.1822 9.75C67.9333 10.5 68.3088 11.375 68.3088 12.5C68.3088 13.625 67.9333 14.5 67.1822 15.25ZM62.4251 14.625C62.9259 15.125 63.677 15.5 64.4281 15.5C65.1792 15.5 65.9303 15.25 66.4311 14.625C66.9318 14.125 67.3074 13.375 67.3074 12.5C67.3074 11.625 67.057 10.875 66.4311 10.375C65.9303 9.875 65.1792 9.5 64.4281 9.5C63.677 9.5 62.9259 9.75 62.4251 10.375C61.9244 10.875 61.5488 11.625 61.5488 12.5C61.5488 13.375 61.7992 14.125 62.4251 14.625Z" fill="#373A36" stroke="#373A36" stroke-width="0.2" stroke-miterlimit="10"/>
<path d="M73.1911 16.375C72.0644 16.375 71.1881 16 70.437 15.25C69.6859 14.5 69.3104 13.625 69.3104 12.5C69.3104 11.375 69.6859 10.5 70.437 9.75C71.1881 9 72.0644 8.625 73.1911 8.625C74.3178 8.625 75.1941 9 75.9452 9.875L75.3193 10.5C74.8185 9.875 74.0674 9.5 73.1911 9.5C72.3148 9.5 71.6889 9.75 71.063 10.375C70.437 10.875 70.1867 11.625 70.1867 12.5C70.1867 13.375 70.437 14.125 71.063 14.625C71.5637 15.125 72.3148 15.5 73.1911 15.5C74.0674 15.5 74.8185 15.125 75.4444 14.375L76.0704 15C75.6948 15.375 75.3193 15.75 74.8185 16C74.3178 16.25 73.817 16.375 73.1911 16.375Z" fill="#373A36" stroke="#373A36" stroke-width="0.2" stroke-miterlimit="10"/>
<path d="M80.0763 16.25H79.0748V9.625H76.9467V8.75H82.0793V9.625H79.9511V16.25H80.0763Z" fill="#373A36" stroke="#373A36" stroke-width="0.2" stroke-miterlimit="10"/>
<path d="M88.7141 8.75L85.8348 15.125C85.4593 16 84.8333 16.5 84.0822 16.5C83.8319 16.5 83.5815 16.5 83.3311 16.375L83.5815 15.5C83.7067 15.625 83.9571 15.625 84.0822 15.625C84.3326 15.625 84.4578 15.625 84.583 15.5C84.7082 15.375 84.8333 15.25 84.9585 15L85.2089 14.375L82.7052 8.875H83.8319L85.7096 13.125L87.5874 8.75H88.7141Z" fill="#373A36" stroke="#373A36" stroke-width="0.2" stroke-miterlimit="10"/>
<path d="M89.8407 16.25V8.75H95.2237V16.25H94.2222V9.625H90.717V16.25H89.8407Z" fill="#373A36" stroke="#373A36" stroke-width="0.2" stroke-miterlimit="10"/>
<path d="M96.9763 16.25V8.75H97.9777V12H101.733V8.75H102.735V16.25H101.733V12.875H97.9777V16.25H96.9763Z" fill="#373A36" stroke="#373A36" stroke-width="0.2" stroke-miterlimit="10"/>
<path d="M110.621 15.25C109.87 16 108.994 16.375 107.867 16.375C106.741 16.375 105.864 16 105.113 15.25C104.362 14.5 103.987 13.625 103.987 12.5C103.987 11.375 104.362 10.5 105.113 9.75C105.864 9 106.741 8.625 107.867 8.625C108.994 8.625 109.87 9 110.621 9.75C111.373 10.5 111.748 11.375 111.748 12.5C111.623 13.625 111.247 14.5 110.621 15.25ZM105.739 14.625C106.24 15.125 106.991 15.5 107.742 15.5C108.493 15.5 109.244 15.25 109.745 14.625C110.246 14.125 110.621 13.375 110.621 12.5C110.621 11.625 110.371 10.875 109.745 10.375C109.244 9.875 108.493 9.5 107.742 9.5C106.991 9.5 106.24 9.75 105.739 10.375C105.238 10.875 104.863 11.625 104.863 12.5C104.863 13.375 105.238 14.125 105.739 14.625Z" fill="#373A36" stroke="#373A36" stroke-width="0.2" stroke-miterlimit="10"/>
<path d="M115.629 16.25V8.75H118.383C119.009 8.75 119.51 9 119.885 9.375C120.261 9.75 120.511 10.25 120.511 10.75C120.511 11.125 120.386 11.375 120.261 11.75C120.136 12 119.885 12.25 119.51 12.375C119.885 12.5 120.136 12.75 120.386 13C120.636 13.25 120.761 13.625 120.761 14.125C120.761 14.75 120.511 15.25 120.136 15.625C119.635 16 119.134 16.25 118.508 16.25H115.629ZM116.63 12H118.383C118.758 12 119.009 11.875 119.259 11.625C119.51 11.375 119.635 11.125 119.635 10.875C119.635 10.625 119.384 10.25 119.259 10C119.009 9.75 118.758 9.625 118.383 9.625H116.63V12ZM116.63 15.375H118.633C119.009 15.375 119.259 15.25 119.51 15C119.76 14.75 119.885 14.5 119.885 14.125C119.885 13.875 119.76 13.5 119.51 13.25C119.259 13 119.009 12.875 118.633 12.875H116.756V15.375H116.63Z" fill="#373A36" stroke="#373A36" stroke-width="0.2" stroke-miterlimit="10"/>
<defs>
<clipPath id="clip0">
<rect x="11.6" y="10" width="30.0444" height="30" fill="white"/>
</clipPath>
</defs>
</svg>
