<svg width="69" height="27" viewBox="0 0 69 27" fill="none" xmlns="http://www.w3.org/2000/svg">
<g clip-path="url(#clip0)">
<path d="M33.0334 13.1275V21.0103H30.5352V1.55167H37.161C38.7593 1.52064 40.2955 2.12581 41.4593 3.24305C42.6231 4.28271 43.2748 5.78788 43.2438 7.3396C43.2748 8.90685 42.6231 10.412 41.4593 11.4672C40.2955 12.5689 38.8679 13.1275 37.1765 13.1275H33.0334ZM33.0334 3.94133V10.7379H37.2231C38.1541 10.7689 39.0541 10.3965 39.6903 9.72926C41.0093 8.45685 41.0248 6.36202 39.7524 5.04305L39.6903 4.98098C39.0541 4.29823 38.1541 3.92581 37.2231 3.95685L33.0334 3.94133ZM49.0007 7.26202C50.8472 7.26202 52.3059 7.75857 53.3765 8.73616C54.4472 9.72926 54.9748 11.0793 54.9748 12.8017V20.9948H52.5852V19.1482H52.4765C51.4369 20.6689 50.0714 21.4293 48.349 21.4293C46.8903 21.4293 45.649 20.9948 44.6714 20.1258C43.7093 19.3189 43.1662 18.1241 43.1972 16.8672C43.1972 15.4862 43.7248 14.4 44.7645 13.5775C45.8041 12.7551 47.2007 12.3517 48.9386 12.3517C50.4283 12.3517 51.6386 12.631 52.6007 13.1586V12.5844C52.6007 11.731 52.2283 10.9241 51.5765 10.381C50.9093 9.79133 50.0559 9.46547 49.1714 9.46547C47.7748 9.46547 46.6731 10.0551 45.8507 11.2344L43.6472 9.8534C44.8421 8.13098 46.6265 7.26202 49.0007 7.26202ZM45.7731 16.9293C45.7731 17.581 46.0834 18.1862 46.5955 18.5586C47.1541 18.9931 47.8369 19.2258 48.5352 19.2103C49.5903 19.2103 50.599 18.7913 51.3438 18.0465C52.1662 17.2706 52.5852 16.3551 52.5852 15.2999C51.8093 14.6793 50.7231 14.3689 49.3265 14.3689C48.3179 14.3689 47.4645 14.6172 46.7817 15.0982C46.1145 15.5948 45.7731 16.2 45.7731 16.9293ZM68.6921 7.6965L60.3438 26.8758H57.7679L60.8714 20.1724L55.3783 7.71202H58.0938L62.0507 17.2706H62.1128L65.9766 7.71202L68.6921 7.6965Z" fill="#5F6368"/>
<path d="M22.9316 11.4208C22.9316 10.6604 22.8696 9.9001 22.7454 9.15527H12.2092V13.4535H18.2454C17.9972 14.8346 17.1903 16.076 16.011 16.8518V19.6449H19.611C21.7213 17.7053 22.9316 14.8346 22.9316 11.4208Z" fill="#4285F4"/>
<path d="M12.2093 22.3448C15.2196 22.3448 17.7645 21.3517 19.611 19.6448L16.011 16.8517C15.0024 17.5344 13.7145 17.9223 12.2093 17.9223C9.29204 17.9223 6.82479 15.9517 5.94031 13.3137H2.23169V16.1999C4.12479 19.9551 7.98859 22.3448 12.2093 22.3448Z" fill="#34A853"/>
<path d="M5.94028 13.3136C5.47476 11.9326 5.47476 10.4274 5.94028 9.03085V6.16016H2.23165C1.44364 7.71338 1.03296 9.43053 1.03296 11.1722C1.03296 12.9139 1.44364 14.6311 2.23165 16.1843L5.94028 13.3136Z" fill="#FBBC04"/>
<path d="M12.2093 4.42236C13.8076 4.39132 15.3438 4.99649 16.492 6.09822L19.6731 2.91718C17.6558 1.00856 14.9869 -0.0310916 12.2093 -5.71438e-05C7.98859 -5.71438e-05 4.12479 2.3896 2.23169 6.16029L5.94031 9.04649C6.82479 6.39305 9.29204 4.42236 12.2093 4.42236Z" fill="#EA4335"/>
</g>
<defs>
<clipPath id="clip0">
<rect x="0.881592" width="67.8104" height="27" fill="white"/>
</clipPath>
</defs>
</svg>
