<svg width="66" height="66" viewBox="0 0 66 66" fill="none" xmlns="http://www.w3.org/2000/svg">
<path d="M50.36 29.85L41.4 18.65V9.69C41.4 7.1 39.3 5 36.71 5H18.09C15.5 5 13.4 7.1 13.4 9.69V43.29C13.4 45.88 15.5 47.98 18.09 47.98H26.49V50.43C26.49 56.31 31.25 61.07 37.13 61.07H51.69C52.18 61.07 52.6 60.65 52.6 60.16V36.36C52.6 33.98 51.83 31.67 50.36 29.85ZM36.71 6.89C38.25 6.89 39.51 8.15 39.51 9.69V34.19L35.8 30.2V6.89H36.71ZM33.91 28.17L32.3 26.49C31.95 26.14 31.53 25.79 31.11 25.58V6.89H33.91V28.17ZM15.29 43.29V9.69C15.29 8.15 16.55 6.89 18.09 6.89H29.29V25.16C28.17 25.16 27.05 25.58 26.28 26.35L26.21 26.42C24.6 28.03 24.53 30.55 25.93 32.23L29.29 36.22V46.09H18.09C16.55 46.09 15.29 44.83 15.29 43.29ZM34.05 46.09H31.18V38.46L33.98 41.75V44.62C33.91 45.11 33.98 45.6 34.05 46.09ZM50.71 59.11H37.06C32.23 59.11 28.31 55.19 28.31 50.36V47.91H34.4C35.45 51.69 38.25 54.84 42.03 56.24L42.66 54.49C38.53 52.95 35.8 48.96 35.8 44.62V41.4C35.8 41.19 35.73 40.98 35.59 40.77L27.33 31.04C26.49 30.06 26.56 28.66 27.54 27.68C28.03 27.26 28.66 26.98 29.29 26.98C29.92 26.98 30.55 27.26 30.97 27.75L43.5 41.05L44.83 39.79L41.33 36.08V21.66L48.82 31.04C50.01 32.51 50.64 34.4 50.64 36.29V59.11H50.71ZM19.91 21.8H18.02V9.69H19.91V21.8ZM24.6 17.11H22.71V9.69H24.6V17.11ZM24.6 35.8H19C18.51 35.8 18.09 36.22 18.09 36.71V42.31C18.09 42.8 18.51 43.22 19 43.22H24.6C25.09 43.22 25.51 42.8 25.51 42.31V36.71C25.51 36.22 25.09 35.8 24.6 35.8ZM23.69 41.4H19.98V37.69H23.69V41.4Z" fill="url(#paint0_linear)"/>
<defs>
<linearGradient id="paint0_linear" x1="13.4" y1="61.07" x2="66.0607" y2="24.2535" gradientUnits="userSpaceOnUse">
<stop stop-color="#FE5000"/>
<stop offset="1" stop-color="#FE9800"/>
</linearGradient>
</defs>
</svg>
