<svg width="66" height="66" viewBox="0 0 66 66" fill="none" xmlns="http://www.w3.org/2000/svg">
<g clip-path="url(#clip0)">
<path fill-rule="evenodd" clip-rule="evenodd" d="M55.3904 19.2681L58.6309 16.0276C59.0152 15.6433 59.227 15.1323 59.227 14.5888C59.227 14.0454 59.0152 13.5344 58.6311 13.1501L57.1209 11.64C56.3276 10.8468 55.0369 10.8468 54.2436 11.64L51.0029 14.8806C46.7166 11.4208 41.5793 9.29285 36.1023 8.70852V6.20464H38.3754C39.4771 6.20464 40.3734 5.30836 40.3734 4.2066V3.0293C40.3734 1.35893 39.0145 0 37.3441 0H28.6559C26.9855 0 25.6266 1.35893 25.6266 3.0293V4.2066C25.6266 5.30836 26.5228 6.20464 27.6246 6.20464H29.8977V8.70865C23.3971 9.40229 17.3737 12.2687 12.6858 16.9567C7.25961 22.3829 4.2713 29.5974 4.2713 37.271C4.2713 44.2036 6.77453 50.8982 11.3199 56.1215L14.1597 58.9603C19.3817 63.4999 26.0726 66 33 66C40.6737 66 47.8881 63.0117 53.3143 57.5855C58.7405 52.1593 61.7288 44.9448 61.7288 37.2712C61.7288 30.6411 59.4965 24.3553 55.3904 19.2681ZM6.2049 37.2709C6.2049 43.737 8.53939 49.9808 12.7786 54.8522L15.4284 57.5011C20.2983 61.7348 26.5387 64.0664 33 64.0664C47.775 64.0664 59.7953 52.0459 59.7953 37.2709C59.7953 22.4959 47.7751 10.4756 33.0001 10.4756C18.2251 10.4756 6.2049 22.4959 6.2049 37.2709ZM55.7536 13.0073C55.7146 12.9681 55.6505 12.9678 55.6108 13.0074L52.4702 16.1482C52.7558 16.412 53.038 16.6803 53.3145 16.9568C53.5908 17.2332 53.8592 17.5155 54.123 17.8011L57.2638 14.6602C57.2835 14.6405 57.2934 14.6166 57.2934 14.5888C57.2934 14.561 57.2833 14.537 57.2638 14.5174L55.7536 13.0073ZM27.5602 3.0293V4.2066C27.5602 4.24218 27.589 4.27105 27.6246 4.27105H38.3754C38.4108 4.27105 38.4398 4.24218 38.4398 4.2066V3.0293C38.4398 2.42511 37.9482 1.93359 37.3441 1.93359H28.6559C28.0517 1.93359 27.5602 2.42511 27.5602 3.0293ZM31.8313 6.20464V8.56737C32.2197 8.5519 32.609 8.54223 33.0001 8.5421C33.391 8.5421 33.7804 8.5519 34.1688 8.56737V6.20464H31.8313Z" fill="url(#paint0_linear)"/>
<path fill-rule="evenodd" clip-rule="evenodd" d="M48.853 18.6461C44.4379 14.8848 38.8081 12.8132 32.9999 12.8132C19.5139 12.8132 8.54218 23.785 8.54218 37.271C8.54218 50.757 19.5139 61.7289 32.9999 61.7289C46.486 61.7289 57.4577 50.7572 57.4577 37.2711C57.4577 31.4502 55.3781 25.8106 51.6018 21.391L48.853 18.6461ZM55.5241 37.2711C55.5241 31.9103 53.6091 26.7168 50.1317 22.6471L47.599 20.118C43.5335 16.6544 38.3488 14.7468 32.9999 14.7468C20.58 14.7468 10.4758 24.8511 10.4758 37.271C10.4758 49.6909 20.5801 59.7953 32.9999 59.7953C45.4198 59.7953 55.5241 49.691 55.5241 37.2711Z" fill="url(#paint1_linear)"/>
<path d="M33.9668 20.1867V18.0511C33.9668 17.5172 33.5341 17.0844 33 17.0844C32.4659 17.0844 32.0332 17.5172 32.0332 18.0511V20.1867C32.0332 20.7207 32.4659 21.1535 33 21.1535C33.5341 21.1535 33.9668 20.7207 33.9668 20.1867Z" fill="url(#paint2_linear)"/>
<path d="M32.0332 54.3555V56.4911C32.0332 57.025 32.4659 57.4579 33 57.4579C33.5341 57.4579 33.9668 57.025 33.9668 56.4911V54.3555C33.9668 53.8215 33.5341 53.3887 33 53.3887C32.4659 53.3887 32.0332 53.8214 32.0332 54.3555Z" fill="url(#paint3_linear)"/>
<path d="M50.0844 38.2378H52.22C52.7541 38.2378 53.1868 37.8049 53.1868 37.271C53.1868 36.7371 52.7541 36.3042 52.22 36.3042H50.0845C49.5505 36.3042 49.1177 36.7371 49.1177 37.271C49.1177 37.8049 49.5505 38.2378 50.0844 38.2378Z" fill="url(#paint4_linear)"/>
<path d="M13.78 36.3042C13.246 36.3042 12.8132 36.7371 12.8132 37.271C12.8132 37.8049 13.246 38.2378 13.78 38.2378H15.9155C16.4495 38.2378 16.8823 37.8049 16.8823 37.271C16.8823 36.7371 16.4495 36.3042 15.9155 36.3042H13.78Z" fill="url(#paint5_linear)"/>
<path d="M21.6032 24.507L20.093 22.9968C19.7156 22.6192 19.1034 22.6193 18.7258 22.9968C18.3483 23.3744 18.3483 23.9866 18.726 24.364L20.2361 25.874C20.4248 26.0629 20.6723 26.1572 20.9197 26.1572C21.1671 26.1572 21.4146 26.0629 21.6034 25.874C21.9809 25.4966 21.9809 24.8845 21.6032 24.507Z" fill="url(#paint6_linear)"/>
<path d="M45.7641 48.6679C45.3866 48.2902 44.7744 48.2903 44.3967 48.6679C44.0192 49.0454 44.0192 49.6576 44.3969 50.035L45.907 51.5451C46.0957 51.7339 46.3432 51.8283 46.5906 51.8283C46.838 51.8283 47.0855 51.7339 47.2743 51.5451C47.6519 51.1675 47.6519 50.5553 47.2742 50.1779L45.7641 48.6679Z" fill="url(#paint7_linear)"/>
<path d="M20.236 48.6679L18.7259 50.1779C18.3482 50.5555 18.3482 51.1675 18.7257 51.5451C18.9146 51.7339 19.1619 51.8283 19.4094 51.8283C19.6568 51.8283 19.9043 51.7339 20.093 51.5451L21.6032 50.0351C21.9809 49.6575 21.9809 49.0455 21.6033 48.6679C21.2257 48.2905 20.6136 48.2903 20.236 48.6679Z" fill="url(#paint8_linear)"/>
<path d="M47.2742 22.9968C46.8966 22.6193 46.2844 22.6192 45.907 22.9968L44.3969 24.5069C44.0192 24.8844 44.0192 25.4965 44.3967 25.8742C44.5856 26.063 44.833 26.1574 45.0805 26.1574C45.3278 26.1574 45.5753 26.063 45.764 25.8742L47.2742 24.3642C47.6517 23.9866 47.6517 23.3745 47.2742 22.9968Z" fill="url(#paint9_linear)"/>
<path d="M35.3364 40.9748C35.5253 41.1637 35.7727 41.258 36.0202 41.258C36.2675 41.258 36.515 41.1637 36.7037 40.9748C37.0814 40.5973 37.0814 39.9852 36.7039 39.6076L35.767 38.6706C36.3544 37.5069 36.1647 36.0482 35.1939 35.0774C34.2229 34.1066 32.7642 33.9168 31.6005 34.5043L24.6234 27.5271C24.2459 27.1495 23.6338 27.1495 23.2561 27.5271C22.8786 27.9046 22.8786 28.5168 23.2561 28.8943L30.2333 35.8716C29.6459 37.0352 29.8356 38.4939 30.8063 39.4647C31.4111 40.0695 32.2056 40.3719 33.0001 40.3719C33.4808 40.3719 33.9609 40.2593 34.3997 40.0378L35.3364 40.9748ZM32.1736 38.0975C31.9528 37.8768 31.8312 37.5833 31.8312 37.2711C31.8312 36.9589 31.9528 36.6654 32.1736 36.4447C32.3943 36.224 32.6878 36.1023 33 36.1023C33.3122 36.1023 33.6057 36.2239 33.8264 36.4447C34.0472 36.6654 34.1688 36.9589 34.1688 37.2711C34.1688 37.5833 34.0472 37.8768 33.8264 38.0975C33.6057 38.3182 33.3122 38.4399 33 38.4399C32.6878 38.4399 32.3943 38.3183 32.1736 38.0975Z" fill="url(#paint10_linear)"/>
</g>
<defs>
<linearGradient id="paint0_linear" x1="16.1219" y1="66" x2="67.6281" y2="51.9667" gradientUnits="userSpaceOnUse">
<stop stop-color="#FE5000"/>
<stop offset="1" stop-color="#FCA92A"/>
</linearGradient>
<linearGradient id="paint1_linear" x1="18.631" y1="61.7289" x2="61.5329" y2="48.3021" gradientUnits="userSpaceOnUse">
<stop stop-color="#FE5000"/>
<stop offset="1" stop-color="#FCA92A"/>
</linearGradient>
<linearGradient id="paint2_linear" x1="32.432" y1="21.1535" x2="34.2537" y2="20.8826" gradientUnits="userSpaceOnUse">
<stop stop-color="#FE5000"/>
<stop offset="1" stop-color="#FCA92A"/>
</linearGradient>
<linearGradient id="paint3_linear" x1="32.432" y1="57.4579" x2="34.2537" y2="57.187" gradientUnits="userSpaceOnUse">
<stop stop-color="#FE5000"/>
<stop offset="1" stop-color="#FCA92A"/>
</linearGradient>
<linearGradient id="paint4_linear" x1="49.957" y1="38.2378" x2="52.6899" y2="36.4379" gradientUnits="userSpaceOnUse">
<stop stop-color="#FE5000"/>
<stop offset="1" stop-color="#FCA92A"/>
</linearGradient>
<linearGradient id="paint5_linear" x1="13.6525" y1="38.2378" x2="16.3854" y2="36.4379" gradientUnits="userSpaceOnUse">
<stop stop-color="#FE5000"/>
<stop offset="1" stop-color="#FCA92A"/>
</linearGradient>
<linearGradient id="paint6_linear" x1="19.153" y1="26.1572" x2="22.1734" y2="25.2119" gradientUnits="userSpaceOnUse">
<stop stop-color="#FE5000"/>
<stop offset="1" stop-color="#FCA92A"/>
</linearGradient>
<linearGradient id="paint7_linear" x1="44.8239" y1="51.8283" x2="47.8444" y2="50.8829" gradientUnits="userSpaceOnUse">
<stop stop-color="#FE5000"/>
<stop offset="1" stop-color="#FCA92A"/>
</linearGradient>
<linearGradient id="paint8_linear" x1="19.1529" y1="51.8283" x2="22.1733" y2="50.8829" gradientUnits="userSpaceOnUse">
<stop stop-color="#FE5000"/>
<stop offset="1" stop-color="#FCA92A"/>
</linearGradient>
<linearGradient id="paint9_linear" x1="44.8239" y1="26.1574" x2="47.8442" y2="25.2121" gradientUnits="userSpaceOnUse">
<stop stop-color="#FE5000"/>
<stop offset="1" stop-color="#FCA92A"/>
</linearGradient>
<linearGradient id="paint10_linear" x1="25.8634" y1="41.258" x2="38.1546" y2="37.4113" gradientUnits="userSpaceOnUse">
<stop stop-color="#FE5000"/>
<stop offset="1" stop-color="#FCA92A"/>
</linearGradient>
<clipPath id="clip0">
<rect width="66" height="66" fill="white"/>
</clipPath>
</defs>
</svg>
