<svg width="56" height="56" viewBox="0 0 56 56" fill="none" xmlns="http://www.w3.org/2000/svg">
<g clip-path="url(#clip0)">
<path d="M52.7088 13.7452H46.2159L43.4318 7.70817C43.2628 7.33774 42.8054 7.16754 42.4375 7.33774L39.7131 8.60921L31.4602 2.67232C31.1321 2.43204 30.6549 2.51213 30.4162 2.85253L22.7003 13.7452H3.29121C2.8736 13.7452 2.54547 14.0856 2.54547 14.496V41.4974C2.54547 41.9079 2.88354 42.2483 3.29121 42.2483H9.78411L12.5682 48.2853C12.7372 48.6557 13.1847 48.8259 13.5625 48.6557L16.287 47.3842L24.5398 53.3211C24.8679 53.5614 25.3452 53.4813 25.5838 53.1409L33.2997 42.2483H52.6989C53.1165 42.2483 53.4446 41.9079 53.4446 41.4974V14.496C53.4546 14.0856 53.1165 13.7452 52.7088 13.7452ZM42.3878 9.01969L44.5654 13.7452H32.2656L42.3878 9.01969ZM31.2017 4.34426L38.162 9.34006L28.7259 13.7452H24.5398L31.2017 4.34426ZM20.0455 35.4804V40.6564C20.0455 40.6865 20.0455 40.7165 20.0554 40.7465H15.571C15.571 40.7165 15.581 40.6865 15.581 40.6564V35.4804V34.0788V15.2469H20.0554V34.0788V35.4804H20.0455ZM4.03695 40.7465V15.2469H14.179V34.0788H9.70456C9.31678 34.0788 9.00854 34.3892 9.00854 34.7796C9.00854 35.1701 9.31678 35.4804 9.70456 35.4804H14.179V40.6564C14.179 40.6865 14.179 40.7165 14.1889 40.7465H4.03695ZM13.6122 46.9738L11.4347 42.2483H23.7344L13.6122 46.9738ZM24.7983 51.6592L17.8381 46.6634L27.2742 42.2583H31.4602L24.7983 51.6592ZM51.9631 40.7465H21.4375C21.4375 40.7165 21.4475 40.6865 21.4475 40.6564V35.4804H34.1747C34.5625 35.4804 34.8708 35.1701 34.8708 34.7796C34.8708 34.3892 34.5625 34.0788 34.1747 34.0788H21.4375V15.2469H23.0781H45.7287H51.9631V40.7465ZM39.2458 24.1172H40.5483V19.5719H44.287C46.4148 19.5719 47.608 20.6532 47.608 22.5154C47.608 24.3875 46.4148 25.4988 44.287 25.4988H42.1392V26.4199H45.0029V27.2909H42.1392V29.2332H40.5483V27.2909H39.2458V26.4199H40.5483V25.4988H39.2458V24.1172ZM44.0583 24.1172C45.4801 24.1172 46.0171 23.5065 46.0171 22.5154C46.0171 21.5242 45.4801 20.9435 44.0583 20.9435H42.1392V24.1172H44.0583Z" fill="url(#paint0_linear)"/>
</g>
<defs>
<linearGradient id="paint0_linear" x1="2.54547" y1="53.4596" x2="53.4713" y2="2.56028" gradientUnits="userSpaceOnUse">
<stop stop-color="#FE5000"/>
<stop offset="1" stop-color="#FE9800"/>
</linearGradient>
<clipPath id="clip0">
<rect x="2.54547" y="2.54547" width="50.9091" height="50.9091" fill="white"/>
</clipPath>
</defs>
</svg>
