<svg width="65" height="29" viewBox="0 0 65 29" fill="none" xmlns="http://www.w3.org/2000/svg">
<g clip-path="url(#clip0)">
<path d="M15.3704 29.0001V14.2749H17.743V15.3565C18.0693 14.8281 18.7077 14.4522 19.2077 14.2855C19.7113 14.1188 20.2291 14.0337 20.7611 14.0337C22.0733 14.0337 23.4742 14.477 24.6126 15.658C25.6624 16.7503 26.2192 18.0803 26.2192 19.6549C26.2192 20.3784 26.0809 21.0877 25.8043 21.7722C25.5383 22.4567 25.1552 23.0596 24.6658 23.5632C24.148 24.1058 23.5593 24.5137 22.9103 24.7903C22.2648 25.0634 21.6584 25.2053 20.8675 25.2053C20.2894 25.2053 19.7326 25.1166 19.2077 24.9322C18.6899 24.7655 17.9664 24.3506 17.704 23.8931V28.9965H15.3704V29.0001ZM20.6831 16.1261C19.8177 16.1261 19.0623 16.3957 18.4452 17.0305C17.8139 17.6902 17.5657 18.6335 17.5657 19.5734C17.5657 20.5735 17.8033 21.5488 18.4204 22.2085C19.041 22.8717 19.8071 23.1022 20.7008 23.1022C21.6052 23.1022 22.3393 22.7333 22.8961 22.1694C23.538 21.5169 23.8395 20.6338 23.8395 19.6798C23.8395 18.6371 23.5309 17.7114 22.9103 17.0553C22.3819 16.4879 21.6087 16.1261 20.6831 16.1261Z" fill="#164193"/>
<path d="M42.4835 29.0001L44.4873 24.3577L39.8945 14.2749H42.3948L45.6576 21.8432L48.6686 14.2749H51.1831L44.9412 29.0001H42.4835Z" fill="#164193"/>
<path d="M36.1281 25.0137V23.9001C35.8657 24.3541 35.1422 24.7726 34.6244 24.9393C34.096 25.1237 33.5356 25.2123 32.9646 25.2123C32.1702 25.2123 31.5673 25.074 30.9183 24.7974C30.2728 24.5208 29.6841 24.1094 29.1663 23.5668C28.6733 23.0667 28.2903 22.4602 28.0279 21.7793C27.7512 21.0913 27.6094 20.3855 27.6094 19.662C27.6094 18.0874 28.1662 16.7574 29.2195 15.6651C30.3615 14.4805 31.7624 14.0408 33.0746 14.0408C33.603 14.0408 34.1208 14.1259 34.6244 14.2926C35.128 14.4593 35.7664 14.8352 36.0927 15.3636V14.2819H38.4618V25.0208H36.1281V25.0137ZM30.9183 17.0553C30.2976 17.715 29.9926 18.6406 29.9926 19.6798C29.9926 20.6302 30.2976 21.5169 30.936 22.1694C31.4928 22.7333 32.227 23.1022 33.1313 23.1022C34.0251 23.1022 34.7876 22.8716 35.4082 22.2084C36.0288 21.5488 36.2629 20.5735 36.2629 19.5734C36.2629 18.6335 36.0182 17.6937 35.3905 17.0305C34.7663 16.3921 34.0144 16.1261 33.1526 16.1261C32.2199 16.1261 31.4538 16.4879 30.9183 17.0553Z" fill="#164193"/>
<path d="M53.6693 7.46186L53.5487 0.290771H55.8114V9.33798H52.5557L50.3037 1.91154H50.2469L50.3746 9.33798H48.1296V0.290771H51.5166L53.6197 7.46186H53.6693Z" fill="#164193"/>
<path d="M12.5687 1.13485L11.3203 9.41955H8.85547L10.5436 0.290771H14.6115L16.2996 9.41955H13.8419L12.6219 1.13485H12.5687Z" fill="#164193"/>
<path d="M23.2189 7.27744L24.3503 0.290771H28.0706L28.2763 9.41955H25.9888L25.9249 1.21287H25.8788L24.3538 9.41955H22.0415L20.5094 1.21287H20.4562L20.3994 9.41955H18.1155L18.3247 0.290771H22.0486L23.1728 7.27744H23.2189Z" fill="#164193"/>
<path d="M42.3702 8.05059C43.0121 8.05059 43.2036 7.61436 43.2497 7.39448C43.2674 7.29517 43.2674 7.16395 43.2674 7.04337V0.290771H45.5869V6.83767C45.5869 7.00791 45.5691 7.34837 45.562 7.44058C45.406 9.14646 44.0512 9.69263 42.3702 9.69263C40.6927 9.69263 39.345 9.14646 39.1889 7.44058C39.1783 7.34837 39.1606 7.00791 39.1676 6.83767V0.290771H41.48V7.04692C41.4729 7.16395 41.4835 7.29872 41.4977 7.39802C41.5403 7.61791 41.7389 8.05059 42.3702 8.05059Z" fill="#164193"/>
<path d="M5.00739 6.84481C5.09251 7.06824 5.06768 7.35196 5.02513 7.5222C4.95065 7.8272 4.74495 8.13929 4.1314 8.13929C3.56395 8.13929 3.21994 7.80947 3.21994 7.3094L3.21285 6.42277H0.769287V7.12853C0.769287 9.16779 2.36877 9.78134 4.08175 9.78134C5.74153 9.78134 7.09985 9.22099 7.31264 7.69952C7.42613 6.90865 7.34456 6.39085 7.30555 6.19934C6.92252 4.28067 3.45047 3.72031 3.19157 2.64926C3.14546 2.46129 3.1561 2.27333 3.18093 2.17048C3.25186 1.86548 3.45047 1.54983 4.01791 1.54983C4.55698 1.54983 4.87263 1.88676 4.87263 2.37263V2.94362H7.15305V2.3017C7.15305 0.308548 5.36205 0 4.06756 0C2.4468 0 1.11685 0.539073 0.875683 2.03216C0.811846 2.43647 0.804752 2.79821 0.893416 3.25926C1.29063 5.12829 4.53925 5.66381 5.00739 6.84481Z" fill="#164193"/>
<path d="M34.7062 6.83432C34.7984 7.05066 34.7594 7.33084 34.7239 7.50107C34.653 7.79898 34.4437 8.10398 33.8444 8.10398C33.2769 8.10398 32.9365 7.7777 32.9365 7.28473V6.40519H30.5071V7.10741C30.5071 9.12893 32.0959 9.7283 33.7983 9.7283C35.4261 9.7283 36.7738 9.17504 36.9901 7.66421C37.1001 6.88398 37.0185 6.37327 36.9795 6.17467C36.6 4.28437 33.167 3.72401 32.9152 2.66005C32.8691 2.48273 32.8833 2.29121 32.901 2.19191C32.9613 1.9011 33.1599 1.58545 33.7273 1.58545C34.2629 1.58545 34.5714 1.91173 34.5714 2.39406V2.95796H36.8234V2.32668C36.8234 0.358353 35.0537 0.0498047 33.7805 0.0498047C32.1704 0.0498047 30.8511 0.574692 30.6206 2.05714C30.5461 2.45435 30.539 2.81255 30.6383 3.2736C31.0284 5.12844 34.2416 5.66042 34.7062 6.83432Z" fill="#164193"/>
<path d="M61.4256 7.95834C62.0817 7.95834 62.3158 7.54695 62.3583 7.29869C62.3725 7.19584 62.3796 7.06462 62.3796 6.95113V5.62827H61.4469V4.29123H64.6813V6.74543C64.6813 6.91566 64.6742 7.04334 64.6494 7.34834C64.4969 9.00102 63.0534 9.60393 61.4327 9.60393C59.819 9.60393 58.3791 9.00102 58.2337 7.34834C58.1982 7.04334 58.1982 6.91566 58.1982 6.74543V2.90099C58.1982 2.73785 58.216 2.44703 58.2408 2.30162C58.4394 0.5851 59.819 0.0424805 61.4362 0.0424805C63.057 0.0424805 64.4827 0.578007 64.6458 2.30162C64.6813 2.5818 64.6636 2.90099 64.6636 2.90099L64.6671 3.1989H62.3654V2.68819C62.3654 2.68819 62.3654 2.46831 62.3335 2.33709C62.2945 2.14203 62.1172 1.67743 61.4185 1.67743C60.7624 1.67743 60.5638 2.1172 60.5141 2.33709C60.4858 2.45767 60.4787 2.62436 60.4787 2.77331V6.95113C60.4787 7.06816 60.4858 7.19584 60.4964 7.29869C60.5319 7.54695 60.7588 7.95834 61.4256 7.95834Z" fill="#164193"/>
</g>
<defs>
<clipPath id="clip0">
<rect x="0.769287" width="63.9085" height="29" fill="white"/>
</clipPath>
</defs>
</svg>
