<svg width="56" height="56" viewBox="0 0 56 56" fill="none" xmlns="http://www.w3.org/2000/svg">
<path fill-rule="evenodd" clip-rule="evenodd" d="M36 0.95L36 17.3137L32.4648 14.2199C32.3039 14.0791 32.0856 14 31.8581 14C31.6305 14 31.4122 14.0791 31.2513 14.2199C31.0904 14.3606 31 14.5516 31 14.7507C31 14.9497 31.0904 15.1407 31.2513 15.2815L36.3933 19.7797C36.4729 19.8496 36.5674 19.905 36.6715 19.9427C36.7757 19.9805 36.8873 20 37 20C37.1127 20 37.2243 19.9805 37.3285 19.9427C37.4326 19.905 37.5271 19.8496 37.6067 19.7797L42.7487 15.2815C42.9096 15.1407 43 14.9497 43 14.7507C43 14.5516 42.9096 14.3606 42.7487 14.2199C42.5878 14.0791 42.3695 14 42.1419 14C41.9144 14 41.6961 14.0791 41.5352 14.2199L38 17.3137L38 0.95C38 0.698045 37.8946 0.456408 37.7071 0.278248C37.5196 0.100088 37.2652 0 37 0C36.7348 0 36.4804 0.100088 36.2929 0.278248C36.1054 0.456407 36 0.698044 36 0.95ZM31.2727 23.0352V25.8378C37.5244 24.9458 45.9999 26.1955 46 29.5922V44.3451C46 46.8964 41.1871 48.292 36.1818 48.4296V50.902C36.1818 53.5921 30.8309 55 25.5455 55C20.26 55 14.9091 53.5922 14.9091 50.902V45.9843C14.9091 44.8656 15.8369 43.9831 17.2937 43.3297C13.3108 42.861 10 41.5425 10 39.4274V23.0352C10 17.6549 31.2727 17.6549 31.2727 23.0352ZM29.6363 23.0909C29.6363 22.2575 26.4595 20.6364 20.6364 20.6364C14.8132 20.6364 11.6363 22.2576 11.6364 23.0909C11.6364 23.9243 14.8133 25.5455 20.6364 25.5455C26.4595 25.5455 29.6363 23.9243 29.6363 23.0909ZM20.6363 27.1819C17.1383 27.1819 13.6217 26.5626 11.6363 25.3677L11.6364 28C11.6364 28.8334 14.8132 30.4545 20.6364 30.4545C22.0609 30.4545 23.445 30.3262 24.7273 30.1205V29.6364C24.7273 27.9629 26.793 26.8114 29.6363 26.1808V25.3677C27.651 26.5626 24.1342 27.1819 20.6363 27.1819ZM26.8552 42.0026C26.6813 41.916 26.5193 41.825 26.3636 41.7313V41.9848C26.528 41.9891 26.6914 41.9957 26.8552 42.0026ZM20.6363 32.091C17.1383 32.091 13.6217 31.4717 11.6363 30.2768V33.7273C11.6363 34.5607 14.8131 36.1818 20.6363 36.1818C22.0608 36.1818 23.4449 36.0535 24.7272 35.8478V31.7699C23.4292 31.9638 22.0526 32.091 20.6363 32.091ZM11.6363 36.0041V39.4546C11.6363 40.2879 14.8132 41.9091 20.6363 41.9091C22.0608 41.9091 23.4449 41.7808 24.7272 41.5751V37.4972C23.4292 37.6911 22.0526 37.8183 20.6363 37.8183C17.1383 37.8183 13.6217 37.199 11.6363 36.0041ZM25.5455 53.3637C31.3686 53.3637 34.5454 51.7425 34.5454 50.9091L34.5453 48.435C34.5078 48.4339 34.4698 48.4331 34.4319 48.4324C34.3835 48.4315 34.3351 48.4306 34.2875 48.4288C32.2637 49.525 28.8937 50.0909 25.5454 50.0909C22.0474 50.0909 18.5308 49.4717 16.5454 48.2768V50.9091C16.5454 51.7425 19.7224 53.3637 25.5455 53.3637ZM16.5455 46C16.5455 46.8334 19.7223 48.4546 25.5455 48.4546C31.3686 48.4546 34.5454 46.8334 34.5454 46C34.5454 45.1666 31.3686 43.5455 25.5455 43.5455C19.7224 43.5455 16.5455 45.1666 16.5455 46ZM36.1818 46.7899C41.4645 46.6424 44.3636 45.1556 44.3636 44.3637L44.3635 41.7313C42.3782 42.9262 38.8615 43.5455 35.3635 43.5455C34.9618 43.5455 34.5605 43.5346 34.1604 43.5184C35.4082 44.1515 36.1818 44.9778 36.1818 46V46.7899ZM35.3636 41.9091C41.1867 41.9091 44.3636 40.288 44.3636 39.4546V36.8222C42.3783 38.0172 38.8616 38.6364 35.3636 38.6364C31.8657 38.6364 28.3489 38.0172 26.3637 36.8222V39.4546C26.3637 40.288 29.5405 41.9091 35.3636 41.9091ZM35.3636 37C41.1867 37 44.3636 35.3789 44.3636 34.5455V31.9132C42.3783 33.1081 38.8616 33.7273 35.3636 33.7273C31.8657 33.7273 28.3489 33.1081 26.3637 31.9132V34.5455C26.3637 35.3789 29.5405 37 35.3636 37ZM26.3637 29.6364C26.3637 30.4698 29.5405 32.091 35.3636 32.091C41.1867 32.091 44.3636 30.4698 44.3636 29.6364C44.3636 28.803 41.1867 27.1819 35.3636 27.1819C29.5405 27.1819 26.3637 28.803 26.3637 29.6364Z" fill="url(#paint0_linear)"/>
<defs>
<linearGradient id="paint0_linear" x1="17.425" y1="55" x2="50.6956" y2="48.1845" gradientUnits="userSpaceOnUse">
<stop stop-color="#FE5000"/>
<stop offset="1" stop-color="#FCA92A"/>
</linearGradient>
</defs>
</svg>
