<svg width="56" height="56" viewBox="0 0 56 56" fill="none" xmlns="http://www.w3.org/2000/svg">
<g clip-path="url(#clip0)">
<path d="M52.7088 13.7462H46.2159L43.4318 7.70914C43.2628 7.33871 42.8054 7.16851 42.4375 7.33871L39.7131 8.61019L31.4602 2.67329C31.1321 2.43302 30.6549 2.51311 30.4162 2.8535L22.7003 13.7462H3.29121C2.8736 13.7462 2.54547 14.0865 2.54547 14.497V41.4984C2.54547 41.9089 2.88354 42.2492 3.29121 42.2492H9.78411L12.5682 48.2863C12.7372 48.6567 13.1847 48.8269 13.5625 48.6567L16.287 47.3852L24.5398 53.3221C24.8679 53.5624 25.3452 53.4823 25.5838 53.1419L33.2997 42.2492H52.6989C53.1165 42.2492 53.4446 41.9089 53.4446 41.4984V14.497C53.4546 14.0865 53.1165 13.7462 52.7088 13.7462ZM42.3878 9.02066L44.5654 13.7462H32.2656L42.3878 9.02066ZM31.2017 4.34524L38.162 9.34104L28.7259 13.7462H24.5398L31.2017 4.34524ZM20.0455 35.4814V40.6574C20.0455 40.6874 20.0455 40.7175 20.0554 40.7475H15.571C15.571 40.7175 15.581 40.6874 15.581 40.6574V35.4814V34.0798V15.2479H20.0554V34.0798V35.4814H20.0455ZM4.03695 40.7475V15.2479H14.179V34.0798H9.70456C9.31678 34.0798 9.00854 34.3901 9.00854 34.7806C9.00854 35.171 9.31678 35.4814 9.70456 35.4814H14.179V40.6574C14.179 40.6874 14.179 40.7175 14.1889 40.7475H4.03695ZM13.6122 46.9747L11.4347 42.2492H23.7344L13.6122 46.9747ZM24.7983 51.6602L17.8381 46.6644L27.2742 42.2593H31.4602L24.7983 51.6602ZM51.9631 40.7475H21.4375C21.4375 40.7175 21.4475 40.6874 21.4475 40.6574V35.4814H34.1747C34.5625 35.4814 34.8708 35.171 34.8708 34.7806C34.8708 34.3901 34.5625 34.0798 34.1747 34.0798H21.4375V15.2479H23.0781H45.7287H51.9631V40.7475ZM39.2458 24.1182H40.5483V19.5729H44.287C46.4148 19.5729 47.608 20.6542 47.608 22.5163C47.608 24.3885 46.4148 25.4998 44.287 25.4998H42.1392V26.4209H45.0029V27.2919H42.1392V29.2341H40.5483V27.2919H39.2458V26.4209H40.5483V25.4998H39.2458V24.1182ZM44.0583 24.1182C45.4801 24.1182 46.0171 23.5075 46.0171 22.5163C46.0171 21.5252 45.4801 20.9445 44.0583 20.9445H42.1392V24.1182H44.0583Z" fill="url(#paint0_linear)"/>
</g>
<defs>
<linearGradient id="paint0_linear" x1="13.0435" y1="53.4606" x2="57.6894" y2="39.4952" gradientUnits="userSpaceOnUse">
<stop stop-color="#FE5000"/>
<stop offset="1" stop-color="#FCA92A"/>
</linearGradient>
<clipPath id="clip0">
<rect width="50.9091" height="50.9091" fill="white" transform="translate(2.54547 2.54541)"/>
</clipPath>
</defs>
</svg>
