<svg width="100" height="100" viewBox="0 0 100 100" fill="none" xmlns="http://www.w3.org/2000/svg">
<path d="M71.77 25H28.229C25.0712 25 22.5 27.5712 22.5 30.7291V69.6868C22.5 72.8447 25.0712 75.4159 28.229 75.4159H55.7286C56.361 75.4159 56.8744 74.9025 56.8744 74.27C56.8744 73.6375 56.361 73.1242 55.7286 73.1242H28.229C26.3338 73.1242 24.7916 71.582 24.7916 69.6867V36.4582H75.2074V60.5203C75.2074 61.1528 75.7207 61.6661 76.3532 61.6661C76.9857 61.6661 77.4991 61.1528 77.4991 60.5203V30.7291C77.4991 27.5712 74.9278 25 71.77 25ZM75.2075 34.1666H24.7916V30.7291C24.7916 28.8339 26.3338 27.2917 28.229 27.2917H71.7699C73.6651 27.2917 75.2074 28.8339 75.2074 30.7291V34.1666H75.2075Z" fill="url(#paint0_linear)"/>
<path d="M28.2298 31.8751C28.8627 31.8751 29.3757 31.3621 29.3757 30.7292C29.3757 30.0964 28.8627 29.5834 28.2298 29.5834C27.597 29.5834 27.084 30.0964 27.084 30.7292C27.084 31.3621 27.597 31.8751 28.2298 31.8751Z" fill="url(#paint1_linear)"/>
<path d="M32.8119 31.8751C33.4447 31.8751 33.9577 31.3621 33.9577 30.7292C33.9577 30.0964 33.4447 29.5834 32.8119 29.5834C32.179 29.5834 31.666 30.0964 31.666 30.7292C31.666 31.3621 32.179 31.8751 32.8119 31.8751Z" fill="url(#paint2_linear)"/>
<path d="M37.3959 31.8751C38.0287 31.8751 38.5417 31.3621 38.5417 30.7292C38.5417 30.0964 38.0287 29.5834 37.3959 29.5834C36.763 29.5834 36.25 30.0964 36.25 30.7292C36.25 31.3621 36.763 31.8751 37.3959 31.8751Z" fill="url(#paint3_linear)"/>
<path d="M77.1645 66.5838L61.1231 50.5425C60.7954 50.2171 60.305 50.1185 59.8741 50.295C59.4456 50.4715 59.166 50.8908 59.166 51.3537V74.2699C59.166 74.7328 59.4456 75.1522 59.8741 75.3264C60.305 75.5074 60.7931 75.4089 61.1231 75.0789L64.5949 71.6071L67.4067 77.0841C67.5465 77.3591 67.7917 77.5631 68.0827 77.6547C68.195 77.6891 68.3119 77.7075 68.4265 77.7075C68.6121 77.7075 68.7955 77.6616 68.965 77.5722L73.4543 75.1867C74.0043 74.8957 74.222 74.215 73.9378 73.6582L71.3437 68.541H76.3532C76.8161 68.541 77.2355 68.2614 77.412 67.8329C77.5907 67.4042 77.4922 66.9116 77.1645 66.5838ZM69.4783 66.2492C69.0796 66.2492 68.7106 66.4554 68.5021 66.7946C68.2936 67.1337 68.2752 67.5577 68.4562 67.9129L71.3849 73.6924L68.9146 75.0055L65.9149 69.1642C65.7476 68.8388 65.4359 68.6119 65.0739 68.5545C65.0143 68.5454 64.9548 68.5408 64.8952 68.5408C64.5949 68.5408 64.3017 68.6599 64.0839 68.8777L61.4577 71.5039V54.1197L73.5873 66.2492H69.4783Z" fill="url(#paint4_linear)"/>
<circle cx="50" cy="50" r="49.5" stroke="url(#paint5_linear)"/>
<defs>
<linearGradient id="paint0_linear" x1="22.5" y1="75.4159" x2="72.7256" y2="20.6244" gradientUnits="userSpaceOnUse">
<stop stop-color="#FE5000"/>
<stop offset="1" stop-color="#FE9800"/>
</linearGradient>
<linearGradient id="paint1_linear" x1="27.084" y1="31.8751" x2="29.3757" y2="29.5834" gradientUnits="userSpaceOnUse">
<stop stop-color="#FE5000"/>
<stop offset="1" stop-color="#FE9800"/>
</linearGradient>
<linearGradient id="paint2_linear" x1="31.666" y1="31.8751" x2="33.9577" y2="29.5834" gradientUnits="userSpaceOnUse">
<stop stop-color="#FE5000"/>
<stop offset="1" stop-color="#FE9800"/>
</linearGradient>
<linearGradient id="paint3_linear" x1="36.25" y1="31.8751" x2="38.5417" y2="29.5834" gradientUnits="userSpaceOnUse">
<stop stop-color="#FE5000"/>
<stop offset="1" stop-color="#FE9800"/>
</linearGradient>
<linearGradient id="paint4_linear" x1="59.166" y1="77.7075" x2="84.5505" y2="60.7833" gradientUnits="userSpaceOnUse">
<stop stop-color="#FE5000"/>
<stop offset="1" stop-color="#FE9800"/>
</linearGradient>
<linearGradient id="paint5_linear" x1="0" y1="100" x2="100" y2="0" gradientUnits="userSpaceOnUse">
<stop stop-color="#FE5000"/>
<stop offset="1" stop-color="#FE9800"/>
</linearGradient>
</defs>
</svg>
