<svg width="28" height="28" viewBox="0 0 28 28" fill="none" xmlns="http://www.w3.org/2000/svg">
<path d="M24.9091 14.1008V10.7276C24.9091 9.58382 24.0219 8.6536 22.901 8.5634L19.7683 3.09181C19.478 2.58576 19.0093 2.22408 18.4484 2.07389C17.8901 1.92472 17.3063 2.00306 16.8067 2.29388L6.0679 8.54581H4.18183C2.97854 8.54581 2 9.5243 2 10.7276V23.8185C2 25.0218 2.97849 26.0004 4.18183 26.0004H22.7273C23.9306 26.0004 24.9091 25.0219 24.9091 23.8185V20.4453C25.5427 20.2194 26 19.6196 26 18.9095V15.6367C26 14.9265 25.5427 14.3268 24.9091 14.1008ZM17.3558 3.23668C17.603 3.09232 17.8912 3.05397 18.166 3.1275C18.4446 3.20206 18.6769 3.38211 18.8212 3.63406L19.8841 5.49056C19.3993 5.70605 18.8819 5.81855 18.3637 5.81855C17.1922 5.81855 16.1187 5.28689 15.3982 4.37635L17.3558 3.23668ZM14.4506 4.92801C15.3759 6.17538 16.8003 6.90949 18.3637 6.90949C19.0714 6.90949 19.773 6.74264 20.425 6.43536L21.6333 8.54586H8.23608L14.4506 4.92801ZM23.8182 23.8185C23.8182 24.4199 23.3287 24.9094 22.7273 24.9094H4.18183C3.58047 24.9094 3.09094 24.4199 3.09094 23.8185V10.7276C3.09094 10.1263 3.58047 9.63675 4.18183 9.63675H22.7273C23.3287 9.63675 23.8182 10.1263 23.8182 10.7276V14.0004H20.5455C18.7408 14.0004 17.2727 15.4684 17.2727 17.2731C17.2727 19.0778 18.7408 20.5458 20.5455 20.5458H23.8182V23.8185ZM24.9091 18.9095C24.9091 19.2104 24.6646 19.4549 24.3637 19.4549H20.5455C19.3422 19.4549 18.3636 18.4764 18.3636 17.2731C18.3636 16.0698 19.3421 15.0913 20.5455 15.0913H24.3637C24.6646 15.0913 24.9091 15.3357 24.9091 15.6367V18.9095Z" fill="url(#paint0_linear)"/>
<path d="M20.5455 16.1821C19.9441 16.1821 19.4546 16.6716 19.4546 17.273C19.4546 17.8743 19.9441 18.3638 20.5455 18.3638C21.1468 18.3638 21.6364 17.8743 21.6364 17.273C21.6364 16.6716 21.1469 16.1821 20.5455 16.1821Z" fill="url(#paint1_linear)"/>
<defs>
<linearGradient id="paint0_linear" x1="6.95" y1="26.0004" x2="27.9995" y2="19.4127" gradientUnits="userSpaceOnUse">
<stop stop-color="#FE5000"/>
<stop offset="1" stop-color="#FCA92A"/>
</linearGradient>
<linearGradient id="paint1_linear" x1="19.9046" y1="18.3638" x2="21.8181" y2="17.765" gradientUnits="userSpaceOnUse">
<stop stop-color="#FE5000"/>
<stop offset="1" stop-color="#FCA92A"/>
</linearGradient>
</defs>
</svg>
