<svg width="56" height="56" viewBox="0 0 56 56" fill="none" xmlns="http://www.w3.org/2000/svg">
<path d="M46.9999 11.9999H8.99996C6.244 11.9999 4 14.2439 4 16.9999V38.9999C4 41.7559 6.244 43.9999 8.99996 43.9999H46.9999C49.7558 43.9999 51.9998 41.7559 51.9998 38.9999V16.9999C51.9999 14.2439 49.7559 11.9999 46.9999 11.9999ZM49.9999 38.9998C49.9999 40.6539 48.654 41.9998 46.9999 41.9998H8.99996C7.34593 41.9998 5.99996 40.6539 5.99996 38.9998V16.9999C5.99996 15.3459 7.34593 13.9999 8.99996 13.9999H46.9999C48.6539 13.9999 49.9998 15.3459 49.9998 16.9999V38.9998H49.9999Z" fill="url(#paint0_linear)"/>
<path d="M50.9999 17.9999H5.00003C4.44803 17.9999 4 18.4479 4 18.9999V24.9999C4 25.5519 4.44803 25.9999 5.00003 25.9999H51C51.552 25.9999 52 25.5519 52 24.9999V18.9999C51.9999 18.4479 51.5519 17.9999 50.9999 17.9999ZM49.9999 23.9999H5.99996V19.9998H49.9998V23.9999H49.9999Z" fill="url(#paint1_linear)"/>
<path d="M23 32H11C10.448 32 10 32.448 10 33C10 33.552 10.448 34 11 34H23C23.552 34 24 33.5519 24 32.9999C24 32.4479 23.552 32 23 32Z" fill="url(#paint2_linear)"/>
<path d="M23 35.9999H11C10.448 35.9999 10 36.4479 10 36.9999C10 37.5519 10.448 37.9999 11 37.9999H23C23.552 37.9999 24 37.5519 24 36.9999C23.9999 36.4479 23.552 35.9999 23 35.9999Z" fill="url(#paint3_linear)"/>
<path d="M43 29.9999H41C39.346 29.9999 38 31.3458 38 32.9999V34.9998C38 36.6539 39.346 37.9998 41 37.9998H43C44.654 37.9998 46 36.6539 46 34.9998V32.9999C46 31.3459 44.654 29.9999 43 29.9999ZM44 34.9999C44 35.5519 43.552 36 43 36H41C40.448 36 40 35.5519 40 34.9999V33C40 32.448 40.448 31.9999 41 31.9999H43C43.552 31.9999 44 32.448 44 33V34.9999Z" fill="url(#paint4_linear)"/>
<defs>
<linearGradient id="paint0_linear" x1="13.9" y1="43.9999" x2="51.7752" y2="26.2194" gradientUnits="userSpaceOnUse">
<stop stop-color="#FE5000"/>
<stop offset="1" stop-color="#FCA92A"/>
</linearGradient>
<linearGradient id="paint1_linear" x1="13.9" y1="25.9999" x2="24.1124" y2="6.82313" gradientUnits="userSpaceOnUse">
<stop stop-color="#FE5000"/>
<stop offset="1" stop-color="#FCA92A"/>
</linearGradient>
<linearGradient id="paint2_linear" x1="12.8875" y1="34" x2="15.2121" y2="28.9073" gradientUnits="userSpaceOnUse">
<stop stop-color="#FE5000"/>
<stop offset="1" stop-color="#FCA92A"/>
</linearGradient>
<linearGradient id="paint3_linear" x1="12.8875" y1="37.9999" x2="15.2122" y2="32.9071" gradientUnits="userSpaceOnUse">
<stop stop-color="#FE5000"/>
<stop offset="1" stop-color="#FCA92A"/>
</linearGradient>
<linearGradient id="paint4_linear" x1="39.65" y1="37.9998" x2="46.6664" y2="35.8039" gradientUnits="userSpaceOnUse">
<stop stop-color="#FE5000"/>
<stop offset="1" stop-color="#FCA92A"/>
</linearGradient>
</defs>
</svg>
