<svg width="56" height="56" viewBox="0 0 56 56" fill="none" xmlns="http://www.w3.org/2000/svg">
<path d="M44.1066 15.4504L46.7987 12.7583L43.2365 9.19606L40.1657 12.2669C36.8696 10.1583 32.9901 8.87874 28.8342 8.7252V7.03622H33.8704V4.51811C33.8704 3.12598 32.7444 2 31.3523 2H24.6476C23.2554 2 22.1295 3.12598 22.1295 4.51811V7.03622H27.1657V8.73543C23.0098 8.88898 19.1302 10.1685 15.8342 12.2772L12.7633 9.2063L9.20111 12.7685L11.8932 15.4606C7.84993 19.5551 5.35229 25.1748 5.35229 31.3575C5.36253 43.8457 15.5169 54 28.0051 54C40.4932 54 50.6476 43.8457 50.6476 31.3575C50.6476 25.1646 48.1499 19.5449 44.1066 15.4504ZM43.2468 11.5709L44.4342 12.7583L42.8885 14.3039C42.4688 13.9354 42.0287 13.5772 41.5783 13.2394L43.2468 11.5709ZM23.8082 5.35748V4.51811C23.8082 4.05748 24.1869 3.67874 24.6476 3.67874H31.3523C31.8129 3.67874 32.1917 4.05748 32.1917 4.51811V5.35748H23.8082ZM11.5759 12.7583L12.7633 11.5709L14.4318 13.2394C13.9814 13.5772 13.5515 13.9354 13.1216 14.3039L11.5759 12.7583ZM28.0051 52.3213C16.4484 52.3213 7.04127 42.9142 7.04127 31.3575C7.04127 19.8008 16.4484 10.3835 28.0051 10.3835C39.5617 10.3835 48.9688 19.7906 48.9688 31.3472C48.9688 42.9039 39.5617 52.3213 28.0051 52.3213Z" fill="url(#paint0_linear)"/>
<path d="M28.0052 13.741C18.291 13.741 10.3887 21.6433 10.3887 31.3575C10.3887 41.0717 18.291 48.9638 28.0052 48.9638C37.7194 48.9638 45.6217 41.0614 45.6217 31.3473C45.6217 21.6331 37.7194 13.741 28.0052 13.741ZM28.8446 47.2441V45.6063H27.1658V47.2441C19.0485 46.8142 12.5383 40.304 12.1084 32.1866H13.7462V30.5079H12.1084C12.5383 22.3906 19.0485 15.8803 27.1658 15.4504V17.0882H28.8446V15.4504C36.9619 15.8803 43.4721 22.3906 43.9021 30.5079H42.2643V32.1969H43.9021C43.4721 40.3142 36.9619 46.8244 28.8446 47.2441Z" fill="url(#paint1_linear)"/>
<path d="M28.0052 28C26.1524 28 24.6477 29.5047 24.6477 31.3575C24.6477 33.2102 26.1524 34.715 28.0052 34.715C29.8579 34.715 31.3627 33.2102 31.3627 31.3575C31.3627 29.5047 29.8579 28 28.0052 28ZM28.0052 33.0362C27.0839 33.0362 26.3264 32.289 26.3264 31.3575C26.3264 30.4362 27.0737 29.6787 28.0052 29.6787C28.9264 29.6787 29.6839 30.426 29.6839 31.3575C29.6839 32.2787 28.9264 33.0362 28.0052 33.0362Z" fill="url(#paint2_linear)"/>
<path d="M28.8445 19.6166H27.1658V27.1607H28.8445V19.6166Z" fill="url(#paint3_linear)"/>
<path d="M23.8184 30.5182H18.7822V32.1969H23.8184V30.5182Z" fill="url(#paint4_linear)"/>
<defs>
<linearGradient id="paint0_linear" x1="14.6944" y1="54" x2="55.2949" y2="42.9317" gradientUnits="userSpaceOnUse">
<stop stop-color="#FE5000"/>
<stop offset="1" stop-color="#FCA92A"/>
</linearGradient>
<linearGradient id="paint1_linear" x1="17.6555" y1="48.9638" x2="48.5554" y2="39.2903" gradientUnits="userSpaceOnUse">
<stop stop-color="#FE5000"/>
<stop offset="1" stop-color="#FCA92A"/>
</linearGradient>
<linearGradient id="paint2_linear" x1="26.0327" y1="34.715" x2="31.9221" y2="32.8718" gradientUnits="userSpaceOnUse">
<stop stop-color="#FE5000"/>
<stop offset="1" stop-color="#FCA92A"/>
</linearGradient>
<linearGradient id="paint3_linear" x1="27.512" y1="27.1607" x2="29.1208" y2="27.0486" gradientUnits="userSpaceOnUse">
<stop stop-color="#FE5000"/>
<stop offset="1" stop-color="#FCA92A"/>
</linearGradient>
<linearGradient id="paint4_linear" x1="19.8209" y1="32.1969" x2="22.3985" y2="29.7769" gradientUnits="userSpaceOnUse">
<stop stop-color="#FE5000"/>
<stop offset="1" stop-color="#FCA92A"/>
</linearGradient>
</defs>
</svg>
