<svg width="66" height="66" viewBox="0 0 66 66" fill="none" xmlns="http://www.w3.org/2000/svg">
<g clip-path="url(#clip0)">
<path fill-rule="evenodd" clip-rule="evenodd" d="M55.3903 19.2681L58.6309 16.0276C59.0151 15.6433 59.2269 15.1323 59.2269 14.5888C59.2269 14.0454 59.0151 13.5344 58.631 13.1501L57.1209 11.64C56.3276 10.8468 55.0368 10.8468 54.2436 11.64L51.0028 14.8806C46.7166 11.4208 41.5793 9.29285 36.1022 8.70852V6.20464H38.3753C39.4771 6.20464 40.3734 5.30836 40.3734 4.2066V3.0293C40.3734 1.35893 39.0144 0 37.3441 0H28.6558C26.9854 0 25.6265 1.35893 25.6265 3.0293V4.2066C25.6265 5.30836 26.5228 6.20464 27.6245 6.20464H29.8977V8.70865C23.3971 9.40229 17.3737 12.2687 12.6857 16.9567C7.25954 22.3829 4.27124 29.5974 4.27124 37.271C4.27124 44.2036 6.77447 50.8982 11.3198 56.1215L14.1596 58.9603C19.3816 63.4999 26.0725 66 32.9999 66C40.6736 66 47.8881 63.0117 53.3143 57.5855C58.7404 52.1593 61.7288 44.9448 61.7288 37.2712C61.7288 30.6411 59.4965 24.3553 55.3903 19.2681ZM6.20483 37.2709C6.20483 43.737 8.53933 49.9808 12.7785 54.8522L15.4283 57.5011C20.2983 61.7348 26.5386 64.0664 32.9999 64.0664C47.7749 64.0664 59.7953 52.0459 59.7953 37.2709C59.7953 22.4959 47.775 10.4756 33.0001 10.4756C18.2251 10.4756 6.20483 22.4959 6.20483 37.2709ZM55.7536 13.0073C55.7145 12.9681 55.6504 12.9678 55.6107 13.0074L52.4702 16.1482C52.7557 16.412 53.0379 16.6803 53.3144 16.9568C53.5908 17.2332 53.8592 17.5155 54.1229 17.8011L57.2637 14.6602C57.2834 14.6405 57.2933 14.6166 57.2933 14.5888C57.2933 14.561 57.2833 14.537 57.2637 14.5174L55.7536 13.0073ZM27.5601 3.0293V4.2066C27.5601 4.24218 27.589 4.27105 27.6245 4.27105H38.3753C38.4108 4.27105 38.4398 4.24218 38.4398 4.2066V3.0293C38.4398 2.42511 37.9481 1.93359 37.3441 1.93359H28.6558C28.0516 1.93359 27.5601 2.42511 27.5601 3.0293ZM31.8313 6.20464V8.56737C32.2197 8.5519 32.609 8.54223 33.0001 8.5421C33.3909 8.5421 33.7803 8.5519 34.1687 8.56737V6.20464H31.8313Z" fill="url(#paint0_linear)"/>
<path fill-rule="evenodd" clip-rule="evenodd" d="M48.8529 18.6461C44.4379 14.8848 38.808 12.8133 32.9999 12.8133C19.5138 12.8133 8.54211 23.785 8.54211 37.271C8.54211 50.7571 19.5138 61.7289 32.9999 61.7289C46.4859 61.7289 57.4576 50.7572 57.4576 37.2712C57.4576 31.4503 55.378 25.8106 51.6017 21.3911L48.8529 18.6461ZM55.5241 37.2712C55.5241 31.9103 53.609 26.7168 50.1316 22.6471L47.5989 20.118C43.5335 16.6544 38.3487 14.7469 32.9999 14.7469C20.5799 14.7469 10.4757 24.8512 10.4757 37.271C10.4757 49.6909 20.58 59.7953 32.9999 59.7953C45.4197 59.7953 55.5241 49.691 55.5241 37.2712Z" fill="url(#paint1_linear)"/>
<path d="M33.9668 20.1868V18.0512C33.9668 17.5172 33.5341 17.0844 33 17.0844C32.4659 17.0844 32.0332 17.5172 32.0332 18.0512V20.1868C32.0332 20.7207 32.4659 21.1536 33 21.1536C33.5341 21.1536 33.9668 20.7207 33.9668 20.1868Z" fill="url(#paint2_linear)"/>
<path d="M32.0332 54.3555V56.4911C32.0332 57.025 32.4659 57.4579 33 57.4579C33.5341 57.4579 33.9668 57.025 33.9668 56.4911V54.3555C33.9668 53.8216 33.5341 53.3887 33 53.3887C32.4659 53.3887 32.0332 53.8214 32.0332 54.3555Z" fill="url(#paint3_linear)"/>
<path d="M50.0843 38.2378H52.2199C52.754 38.2378 53.1867 37.8049 53.1867 37.271C53.1867 36.7371 52.754 36.3042 52.2199 36.3042H50.0845C49.5504 36.3042 49.1177 36.7371 49.1177 37.271C49.1177 37.8049 49.5504 38.2378 50.0843 38.2378Z" fill="url(#paint4_linear)"/>
<path d="M13.78 36.3042C13.246 36.3042 12.8132 36.7371 12.8132 37.271C12.8132 37.8049 13.246 38.2378 13.78 38.2378H15.9155C16.4495 38.2378 16.8823 37.8049 16.8823 37.271C16.8823 36.7371 16.4495 36.3042 15.9155 36.3042H13.78Z" fill="url(#paint5_linear)"/>
<path d="M21.6031 24.507L20.093 22.9969C19.7155 22.6192 19.1034 22.6193 18.7258 22.9969C18.3482 23.3744 18.3482 23.9866 18.7259 24.364L20.2361 25.874C20.4248 26.0629 20.6723 26.1572 20.9196 26.1572C21.167 26.1572 21.4145 26.0629 21.6034 25.874C21.9808 25.4966 21.9808 24.8846 21.6031 24.507Z" fill="url(#paint6_linear)"/>
<path d="M45.764 48.6679C45.3866 48.2902 44.7744 48.2903 44.3967 48.6679C44.0191 49.0455 44.0191 49.6577 44.3968 50.0351L45.907 51.5451C46.0957 51.734 46.3432 51.8283 46.5906 51.8283C46.8379 51.8283 47.0854 51.734 47.2743 51.5451C47.6518 51.1675 47.6518 50.5554 47.2741 50.1779L45.764 48.6679Z" fill="url(#paint7_linear)"/>
<path d="M20.2359 48.6679L18.7258 50.1779C18.3481 50.5555 18.3481 51.1675 18.7257 51.5451C18.9145 51.7339 19.1619 51.8283 19.4094 51.8283C19.6568 51.8283 19.9043 51.7339 20.093 51.5451L21.6031 50.0351C21.9808 49.6575 21.9808 49.0455 21.6032 48.6679C21.2257 48.2905 20.6135 48.2904 20.2359 48.6679Z" fill="url(#paint8_linear)"/>
<path d="M47.2741 22.9969C46.8966 22.6193 46.2844 22.6192 45.9069 22.9969L44.3968 24.5069C44.0191 24.8844 44.0191 25.4965 44.3967 25.8742C44.5855 26.063 44.8329 26.1574 45.0804 26.1574C45.3278 26.1574 45.5753 26.063 45.764 25.8742L47.2741 24.3642C47.6517 23.9866 47.6517 23.3746 47.2741 22.9969Z" fill="url(#paint9_linear)"/>
<path d="M35.3364 40.9748C35.5252 41.1637 35.7726 41.2581 36.0201 41.2581C36.2675 41.2581 36.515 41.1637 36.7037 40.9748C37.0814 40.5973 37.0814 39.9852 36.7038 39.6077L35.7669 38.6706C36.3543 37.5069 36.1646 36.0482 35.1938 35.0774C34.2229 34.1066 32.7642 33.9168 31.6004 34.5043L24.6234 27.5271C24.2458 27.1495 23.6338 27.1495 23.2561 27.5271C22.8785 27.9047 22.8785 28.5168 23.2561 28.8943L30.2332 35.8716C29.6458 37.0352 29.8356 38.4939 30.8062 39.4647C31.4111 40.0695 32.2055 40.372 33.0001 40.372C33.4808 40.372 33.9608 40.2593 34.3996 40.0378L35.3364 40.9748ZM32.1735 38.0975C31.9527 37.8768 31.8312 37.5833 31.8312 37.2711C31.8312 36.9589 31.9527 36.6654 32.1735 36.4447C32.3942 36.224 32.6877 36.1023 33 36.1023C33.3122 36.1023 33.6057 36.2239 33.8264 36.4447C34.0472 36.6654 34.1687 36.9589 34.1687 37.2711C34.1687 37.5833 34.0472 37.8768 33.8264 38.0975C33.6057 38.3182 33.3122 38.4399 33 38.4399C32.6877 38.4399 32.3942 38.3183 32.1735 38.0975Z" fill="url(#paint10_linear)"/>
</g>
<defs>
<linearGradient id="paint0_linear" x1="16.1219" y1="66" x2="67.628" y2="51.9667" gradientUnits="userSpaceOnUse">
<stop stop-color="#FE5000"/>
<stop offset="1" stop-color="#FCA92A"/>
</linearGradient>
<linearGradient id="paint1_linear" x1="18.6309" y1="61.7289" x2="61.5328" y2="48.3021" gradientUnits="userSpaceOnUse">
<stop stop-color="#FE5000"/>
<stop offset="1" stop-color="#FCA92A"/>
</linearGradient>
<linearGradient id="paint2_linear" x1="32.432" y1="21.1536" x2="34.2537" y2="20.8826" gradientUnits="userSpaceOnUse">
<stop stop-color="#FE5000"/>
<stop offset="1" stop-color="#FCA92A"/>
</linearGradient>
<linearGradient id="paint3_linear" x1="32.432" y1="57.4579" x2="34.2537" y2="57.187" gradientUnits="userSpaceOnUse">
<stop stop-color="#FE5000"/>
<stop offset="1" stop-color="#FCA92A"/>
</linearGradient>
<linearGradient id="paint4_linear" x1="49.9569" y1="38.2378" x2="52.6898" y2="36.4379" gradientUnits="userSpaceOnUse">
<stop stop-color="#FE5000"/>
<stop offset="1" stop-color="#FCA92A"/>
</linearGradient>
<linearGradient id="paint5_linear" x1="13.6525" y1="38.2378" x2="16.3854" y2="36.4379" gradientUnits="userSpaceOnUse">
<stop stop-color="#FE5000"/>
<stop offset="1" stop-color="#FCA92A"/>
</linearGradient>
<linearGradient id="paint6_linear" x1="19.1529" y1="26.1572" x2="22.1733" y2="25.2119" gradientUnits="userSpaceOnUse">
<stop stop-color="#FE5000"/>
<stop offset="1" stop-color="#FCA92A"/>
</linearGradient>
<linearGradient id="paint7_linear" x1="44.8238" y1="51.8283" x2="47.8443" y2="50.8829" gradientUnits="userSpaceOnUse">
<stop stop-color="#FE5000"/>
<stop offset="1" stop-color="#FCA92A"/>
</linearGradient>
<linearGradient id="paint8_linear" x1="19.1528" y1="51.8283" x2="22.1732" y2="50.8829" gradientUnits="userSpaceOnUse">
<stop stop-color="#FE5000"/>
<stop offset="1" stop-color="#FCA92A"/>
</linearGradient>
<linearGradient id="paint9_linear" x1="44.8238" y1="26.1574" x2="47.8442" y2="25.2121" gradientUnits="userSpaceOnUse">
<stop stop-color="#FE5000"/>
<stop offset="1" stop-color="#FCA92A"/>
</linearGradient>
<linearGradient id="paint10_linear" x1="25.8633" y1="41.2581" x2="38.1545" y2="37.4113" gradientUnits="userSpaceOnUse">
<stop stop-color="#FE5000"/>
<stop offset="1" stop-color="#FCA92A"/>
</linearGradient>
<clipPath id="clip0">
<rect width="66" height="66" fill="white"/>
</clipPath>
</defs>
</svg>
