<svg width="66" height="66" viewBox="0 0 66 66" fill="none" xmlns="http://www.w3.org/2000/svg">
<path d="M52.7909 9H13.2082C10.3375 9 8 11.3375 8 14.2083V49.6244C8 52.4951 10.3375 54.8326 13.2082 54.8326H38.2078C38.7828 54.8326 39.2495 54.3659 39.2495 53.7909C39.2495 53.2159 38.7828 52.7492 38.2078 52.7492H13.2082C11.4853 52.7492 10.0833 51.3472 10.0833 49.6243V19.4165H55.9158V41.2911C55.9158 41.8661 56.3825 42.3328 56.9574 42.3328C57.5324 42.3328 57.9991 41.8661 57.9991 41.2911V14.2083C57.9991 11.3375 55.6617 9 52.7909 9ZM55.9159 17.3333H10.0833V14.2083C10.0833 12.4854 11.4853 11.0834 13.2082 11.0834H52.7908C54.5137 11.0834 55.9158 12.4854 55.9158 14.2083V17.3333H55.9159Z" fill="url(#paint0_linear)"/>
<path d="M13.2082 15.25C13.7835 15.25 14.2499 14.7837 14.2499 14.2084C14.2499 13.633 13.7835 13.1667 13.2082 13.1667C12.6329 13.1667 12.1665 13.633 12.1665 14.2084C12.1665 14.7837 12.6329 15.25 13.2082 15.25Z" fill="url(#paint1_linear)"/>
<path d="M17.3747 15.25C17.95 15.25 18.4164 14.7837 18.4164 14.2084C18.4164 13.633 17.95 13.1667 17.3747 13.1667C16.7994 13.1667 16.333 13.633 16.333 14.2084C16.333 14.7837 16.7994 15.25 17.3747 15.25Z" fill="url(#paint2_linear)"/>
<path d="M21.5414 15.25C22.1167 15.25 22.5831 14.7837 22.5831 14.2084C22.5831 13.633 22.1167 13.1667 21.5414 13.1667C20.9661 13.1667 20.4998 13.633 20.4998 14.2084C20.4998 14.7837 20.9661 15.25 21.5414 15.25Z" fill="url(#paint3_linear)"/>
<path d="M57.695 46.8034L43.1119 32.2204C42.814 31.9246 42.3682 31.835 41.9765 31.9954C41.587 32.1558 41.3328 32.5371 41.3328 32.9579V53.7908C41.3328 54.2116 41.587 54.5929 41.9765 54.7513C42.3682 54.9158 42.8119 54.8263 43.1119 54.5263L46.2681 51.3701L48.8243 56.3492C48.9514 56.5992 49.1743 56.7846 49.4389 56.8679C49.5409 56.8992 49.6472 56.9159 49.7514 56.9159C49.9201 56.9159 50.0868 56.8742 50.2409 56.7929L54.3221 54.6242C54.8221 54.3597 55.02 53.7409 54.7616 53.2347L52.4034 48.5827H56.9575C57.3783 48.5827 57.7595 48.3285 57.92 47.939C58.0825 47.5492 57.9929 47.1014 57.695 46.8034ZM50.7076 46.4992C50.3451 46.4992 50.0097 46.6867 49.8201 46.995C49.6306 47.3033 49.6139 47.6888 49.7784 48.0117L52.4409 53.2658L50.1951 54.4596L47.4681 49.1492C47.3161 48.8534 47.0327 48.6472 46.7036 48.595C46.6494 48.5867 46.5953 48.5825 46.5411 48.5825C46.2681 48.5825 46.0015 48.6908 45.8036 48.8888L43.4161 51.2762V35.4724L54.443 46.4992H50.7076Z" fill="url(#paint4_linear)"/>
<defs>
<linearGradient id="paint0_linear" x1="8" y1="54.8326" x2="53.6597" y2="5.02215" gradientUnits="userSpaceOnUse">
<stop stop-color="#FE5000"/>
<stop offset="1" stop-color="#FE9800"/>
</linearGradient>
<linearGradient id="paint1_linear" x1="12.1665" y1="15.25" x2="14.2499" y2="13.1667" gradientUnits="userSpaceOnUse">
<stop stop-color="#FE5000"/>
<stop offset="1" stop-color="#FE9800"/>
</linearGradient>
<linearGradient id="paint2_linear" x1="16.333" y1="15.25" x2="18.4164" y2="13.1667" gradientUnits="userSpaceOnUse">
<stop stop-color="#FE5000"/>
<stop offset="1" stop-color="#FE9800"/>
</linearGradient>
<linearGradient id="paint3_linear" x1="20.4998" y1="15.25" x2="22.5831" y2="13.1667" gradientUnits="userSpaceOnUse">
<stop stop-color="#FE5000"/>
<stop offset="1" stop-color="#FE9800"/>
</linearGradient>
<linearGradient id="paint4_linear" x1="41.3328" y1="56.9159" x2="64.4096" y2="41.5302" gradientUnits="userSpaceOnUse">
<stop stop-color="#FE5000"/>
<stop offset="1" stop-color="#FE9800"/>
</linearGradient>
</defs>
</svg>
