<svg width="44" height="44" viewBox="0 0 44 44" fill="none" xmlns="http://www.w3.org/2000/svg">
<path fill-rule="evenodd" clip-rule="evenodd" d="M35.9986 9.01577C35.9983 9.00666 35.998 8.99755 35.9973 8.98843C35.9947 8.95231 35.9912 8.91684 35.984 8.88169C35.984 8.88169 35.984 8.88169 35.984 8.88136C35.9768 8.84622 35.9667 8.81139 35.9554 8.77755C35.9524 8.76909 35.9495 8.76062 35.9462 8.75216C35.9342 8.71994 35.9205 8.68838 35.9049 8.65778C35.9039 8.65616 35.9033 8.65453 35.9023 8.6529C35.8854 8.62101 35.8659 8.59074 35.8447 8.56113C35.8395 8.55364 35.834 8.54648 35.8284 8.539C35.806 8.50971 35.7825 8.48139 35.7562 8.45503L28.217 0.915835C28.1906 0.889474 28.1623 0.866042 28.133 0.843587C28.1255 0.838054 28.1181 0.832196 28.1106 0.826989C28.081 0.805835 28.051 0.786309 28.0194 0.769711C28.0172 0.768409 28.0149 0.767758 28.0129 0.766457C27.983 0.750835 27.9518 0.737492 27.9202 0.725451C27.9114 0.722197 27.9029 0.719267 27.8938 0.716339C27.86 0.704948 27.8258 0.694859 27.7903 0.6877C27.79 0.6877 27.7897 0.6877 27.7897 0.6877C27.7549 0.680865 27.7194 0.67696 27.6836 0.674356C27.6745 0.674031 27.6654 0.67338 27.6562 0.673055C27.6468 0.672729 27.6374 0.671753 27.6279 0.671753H8.75196C8.29178 0.671753 7.91882 1.04471 7.91882 1.50489V37.1649C7.91882 37.6251 8.29178 37.998 8.75196 37.998H21.2952V42.495C21.2952 42.798 21.4598 43.0772 21.7251 43.224C21.9906 43.3708 22.3144 43.362 22.5712 43.2009L25.7443 41.2102L28.9173 43.2009C29.0524 43.2855 29.2063 43.3281 29.3603 43.3281C29.4989 43.3281 29.6379 43.2936 29.7635 43.2243C30.0287 43.0775 30.1934 42.7983 30.1934 42.495V37.998H35.1668C35.627 37.998 35.9999 37.6251 35.9999 37.1649V9.04408C35.9999 9.03465 35.999 9.02521 35.9986 9.01577ZM28.4611 3.51644L33.1556 8.21095H28.4611V3.51644ZM20.8841 26.4048C20.8255 26.2457 20.7302 25.9856 20.7279 25.8792C20.793 25.7985 21.0189 25.6556 21.1572 25.5684C21.454 25.381 21.7905 25.1681 22.0346 24.8355C22.2809 24.4993 22.3812 24.1111 22.4697 23.7687C22.5084 23.619 22.5709 23.3772 22.6243 23.2858C22.6536 23.2796 22.7151 23.2708 22.8306 23.2708C22.9233 23.2708 23.0272 23.276 23.1372 23.2815C23.2634 23.2877 23.3936 23.2942 23.5296 23.2942C23.8297 23.2942 24.0718 23.2604 24.2915 23.1872C24.6752 23.0596 24.9821 22.8126 25.2529 22.5945C25.4026 22.4741 25.6532 22.2723 25.7404 22.26C25.8357 22.2723 26.086 22.4741 26.2357 22.5945C26.5065 22.8126 26.8137 23.0596 27.1974 23.1872C27.4171 23.2604 27.6589 23.2942 27.9592 23.2942C28.0949 23.2942 28.2254 23.2877 28.3514 23.2815C28.4614 23.276 28.5652 23.2708 28.6583 23.2708C28.7738 23.2708 28.835 23.2793 28.8646 23.2858C28.918 23.3772 28.9805 23.619 29.0189 23.7687C29.1074 24.1111 29.208 24.4993 29.4543 24.8355C29.6981 25.1681 30.0346 25.3806 30.3317 25.5684C30.4697 25.656 30.6956 25.7985 30.7606 25.8792C30.7584 25.9856 30.663 26.2457 30.6048 26.4048C30.4808 26.7423 30.3405 27.125 30.3405 27.5491C30.3405 27.9731 30.4808 28.3558 30.6044 28.6936C30.663 28.8528 30.7584 29.1128 30.7606 29.2192C30.6956 29.2999 30.4697 29.4425 30.3317 29.53C30.0346 29.7175 29.6981 29.9303 29.4543 30.2629C29.208 30.5991 29.1074 30.9874 29.0189 31.3297C28.9805 31.4791 28.9177 31.7212 28.8646 31.8127C28.835 31.8189 28.7738 31.8277 28.6583 31.8277C28.5652 31.8277 28.4614 31.8224 28.3514 31.8169C28.2254 31.8107 28.0949 31.8042 27.9592 31.8042C27.6589 31.8042 27.4171 31.8381 27.1974 31.9113C26.8137 32.0389 26.5065 32.2862 26.2357 32.5039C26.0883 32.623 25.8422 32.8206 25.7443 32.8382C25.6463 32.8206 25.4006 32.623 25.2532 32.5039C24.9821 32.2862 24.6752 32.0389 24.2915 31.9113C24.0718 31.8381 23.8297 31.8042 23.5296 31.8042C23.3939 31.8042 23.2634 31.8107 23.1372 31.8169C23.0275 31.8224 22.9237 31.8277 22.8306 31.8277C22.7151 31.8277 22.6539 31.8189 22.6243 31.8127C22.5709 31.7212 22.5084 31.4794 22.4697 31.3297C22.3815 30.9874 22.2809 30.5991 22.0346 30.2629C21.7908 29.9303 21.4543 29.7175 21.1572 29.53C21.0192 29.4428 20.7933 29.2999 20.7282 29.2192C20.7305 29.1131 20.8259 28.8528 20.8841 28.6936C21.0081 28.3562 21.1484 27.9734 21.1484 27.5494C21.1484 27.125 21.0078 26.7423 20.8841 26.4048ZM28.5271 40.9889L26.1872 39.5208C25.9164 39.3512 25.5721 39.3512 25.3013 39.5208L22.9614 40.9889V33.4913C23.0499 33.4887 23.1368 33.4855 23.2211 33.4812C23.3314 33.4754 23.4356 33.4702 23.5296 33.4702C23.6774 33.4702 23.7405 33.4838 23.7649 33.492C23.8642 33.5252 24.0549 33.6788 24.2082 33.8021C24.5971 34.1152 25.081 34.5047 25.7443 34.5047C26.4075 34.5047 26.8915 34.1152 27.2804 33.8021C27.4336 33.6788 27.6244 33.5252 27.7233 33.4923C27.748 33.4842 27.8112 33.4705 27.9589 33.4705C28.053 33.4705 28.1571 33.4757 28.2674 33.4812C28.3517 33.4855 28.4386 33.489 28.5268 33.4913V40.9889H28.5271ZM30.1934 36.3318V32.8199C30.4411 32.4834 30.5446 32.0851 30.6321 31.7466C30.678 31.5689 30.7408 31.3258 30.7981 31.248C30.855 31.1699 31.0669 31.0362 31.2215 30.9385C31.6315 30.6795 32.1418 30.357 32.3446 29.7471C32.545 29.1454 32.3364 28.5768 32.1688 28.1199C32.0927 27.9126 32.0064 27.6773 32.0064 27.5491C32.0064 27.4208 32.0927 27.1859 32.1688 26.9786C32.3364 26.5216 32.545 25.9528 32.3446 25.351C32.1418 24.7415 31.6315 24.419 31.2215 24.1599C31.0669 24.0623 30.855 23.9282 30.7981 23.8507C30.7408 23.7726 30.678 23.5295 30.6321 23.3518C30.5123 22.8881 30.3633 22.3107 29.853 21.9365C29.4468 21.639 28.9766 21.6045 28.658 21.6045C28.5232 21.6045 28.3931 21.611 28.2674 21.6176C28.1571 21.6231 28.053 21.6283 27.9592 21.6283C27.8112 21.6283 27.748 21.6146 27.7236 21.6065C27.6247 21.5736 27.434 21.42 27.2807 21.2963C26.8915 20.9836 26.4075 20.594 25.7443 20.594C25.0814 20.594 24.5971 20.9836 24.2082 21.2963C24.0549 21.4197 23.8642 21.5736 23.7653 21.6065C23.7409 21.6146 23.6774 21.6283 23.5296 21.6283C23.4359 21.6283 23.3314 21.6231 23.2211 21.6172C23.0955 21.611 22.9657 21.6045 22.8306 21.6045C22.5123 21.6045 22.042 21.639 21.6362 21.9365C21.1256 22.3107 20.9762 22.8881 20.8565 23.3518C20.8106 23.5295 20.7478 23.7726 20.6908 23.8504C20.6335 23.9282 20.4217 24.0623 20.2671 24.1599C19.857 24.419 19.3471 24.7415 19.144 25.351C18.9435 25.9531 19.1521 26.5216 19.3197 26.9786C19.3959 27.1859 19.4821 27.4208 19.4821 27.5491C19.4821 27.6773 19.3959 27.9126 19.3197 28.1199C19.1521 28.5768 18.9435 29.1454 19.144 29.7474C19.3471 30.357 19.8574 30.6795 20.2671 30.9385C20.422 31.0362 20.6335 31.1703 20.6908 31.248C20.7478 31.3258 20.8106 31.5689 20.8565 31.7466C20.944 32.0851 21.0478 32.4837 21.2955 32.8199V36.3318H9.58509V2.33802H26.7948V9.04408C26.7948 9.50426 27.1678 9.87722 27.6279 9.87722H34.3337V36.3318H30.1934Z" fill="#7F94A8"/>
<path fill-rule="evenodd" clip-rule="evenodd" d="M12.8229 9.87721H23.5566C24.0165 9.87721 24.3898 9.50425 24.3898 9.04407C24.3898 8.5839 24.0165 8.21094 23.5566 8.21094H12.8229C12.3627 8.21094 11.9897 8.5839 11.9897 9.04407C11.9897 9.50425 12.363 9.87721 12.8229 9.87721Z" fill="#7F94A8"/>
<path fill-rule="evenodd" clip-rule="evenodd" d="M31.1889 12.4164H12.8229C12.3627 12.4164 11.9897 12.7893 11.9897 13.2495C11.9897 13.7097 12.3627 14.0827 12.8229 14.0827H31.1889C31.6491 14.0827 32.0221 13.7097 32.0221 13.2495C32.0221 12.7893 31.6491 12.4164 31.1889 12.4164Z" fill="#7F94A8"/>
<path fill-rule="evenodd" clip-rule="evenodd" d="M27.8564 16.6217H12.8229C12.3627 16.6217 11.9897 16.995 11.9897 17.4548C11.9897 17.915 12.3627 18.288 12.8229 18.288H27.8564C28.3166 18.288 28.6895 17.915 28.6895 17.4548C28.6895 16.995 28.3166 16.6217 27.8564 16.6217Z" fill="#7F94A8"/>
<path fill-rule="evenodd" clip-rule="evenodd" d="M31.189 16.6217C30.7301 16.6217 30.3558 16.996 30.3558 17.4548C30.3558 17.9137 30.7301 18.288 31.189 18.288C31.6482 18.288 32.0221 17.9137 32.0221 17.4548C32.0221 16.996 31.6482 16.6217 31.189 16.6217Z" fill="#7F94A8"/>
</svg>
