<svg width="44" height="44" viewBox="0 0 44 44" fill="none" xmlns="http://www.w3.org/2000/svg">
<g clip-path="url(#clip0)">
<path d="M5.9265 32.085H10.1329V30.4808H1.60422C1.10515 30.4808 0.695202 30.0798 0.686291 29.5807V21.7917C0.695202 21.5332 0.811054 21.2837 1.00712 21.1233C1.20318 20.954 1.46162 20.8738 1.72007 20.9094L9.15262 21.961V14.0561C9.16153 13.5749 9.55366 13.1917 10.0438 13.2006C10.0527 13.2006 10.0527 13.2006 10.0616 13.2006H16.4426L28.3311 0.349573C28.643 0.0109193 29.1599 -0.0336404 29.5253 0.24263L31.7711 1.95372C32.1365 2.22999 32.2256 2.74688 31.985 3.1301L31.9672 3.14792C31.9939 3.2103 32.0206 3.27269 32.0385 3.33507L36.7439 22.9324C36.7529 22.977 36.7618 23.0304 36.7618 23.0839C37.1628 23.28 37.5193 23.5384 37.8312 23.8682L43.7576 30.1689C43.9983 30.4184 44.0696 30.7927 43.927 31.1136C43.7844 31.4344 43.4635 31.6394 43.1071 31.6394H35.1042C33.3396 31.6394 31.8691 30.2402 31.8691 28.4756V23.6008C31.878 23.4582 31.9137 23.3245 31.985 23.1998L27.3062 10.5805L24.2494 15.5088C26.1031 17.1931 27.1636 19.5815 27.1547 22.0947V24.5098C27.529 24.6257 27.7875 24.9822 27.7785 25.3743V29.5807C27.7785 30.0709 27.4132 30.4808 26.923 30.4808H23.3226V32.085H27.5201C30.7908 32.085 33.4465 34.7407 33.4465 38.0114C33.4465 41.2821 30.7908 43.9378 27.5201 43.9378H5.9265C2.65583 43.9378 7.24792e-05 41.2821 7.24792e-05 38.0114C7.24792e-05 34.7407 2.65583 32.085 5.9265 32.085ZM16.2822 15.179C16.1574 15.1345 16.0415 15.0721 15.9435 14.9919C15.9346 14.983 15.9346 14.9741 15.9257 14.9741H10.935V22.2105L16.2822 22.9681V15.179ZM33.6604 28.4756C33.6604 29.251 34.3288 29.857 35.1131 29.857H41.0484L36.539 25.0713C36.2716 24.795 35.933 24.6079 35.5497 24.5276C35.5408 24.5276 35.5408 24.5366 35.5319 24.5366C35.4161 24.5187 35.2913 24.5098 35.1665 24.5098H33.6604V28.4756ZM28.6697 9.12783L33.7317 22.7274H34.8635L30.666 5.25114L28.4559 8.78917C28.5539 8.87829 28.6252 8.99415 28.6697 9.12783ZM26.4774 8.57529L30.0422 2.87165L29.0886 2.14087L18.8488 13.1828C20.2569 13.2808 21.6115 13.7086 22.8146 14.4304L26.4774 8.57529ZM25.3723 22.0947C25.3812 19.8578 24.3296 17.7546 22.5383 16.4178C21.2907 15.4731 19.7667 14.9651 18.2071 14.9741H18.0646V23.2087C18.0646 23.2176 18.0824 23.2176 18.0824 23.2265L25.3723 24.2514V22.0947ZM25.9962 28.6984V26.1407L16.9506 24.8663L9.8121 23.8593L2.46868 22.8166V28.6984H25.9962ZM11.9153 30.4808V32.085H21.5402V30.4808H11.9153ZM5.9265 42.1555H27.5201C29.8105 42.1555 31.6641 40.3018 31.6641 38.0114C31.6641 35.721 29.8105 33.8674 27.5201 33.8674H5.9265C3.63614 33.8674 1.78246 35.721 1.78246 38.0114C1.78246 40.3018 3.63614 42.1555 5.9265 42.1555Z" fill="#7F94A8"/>
<path d="M16.9417 34.0724C19.0805 34.0724 20.8184 35.8013 20.8184 37.9491C20.8184 40.0969 19.0894 41.8258 16.9417 41.8258C14.8028 41.8258 13.065 40.0969 13.065 37.9491C13.0739 35.8102 14.8028 34.0813 16.9417 34.0724ZM14.8474 37.958C14.8563 39.1076 15.792 40.0345 16.9417 40.0434C18.1002 40.0434 19.036 39.1076 19.036 37.9491C19.036 36.7905 18.1002 35.8548 16.9417 35.8548C15.7831 35.8548 14.8474 36.7905 14.8474 37.9491C14.8474 37.9491 14.8474 37.9491 14.8474 37.958Z" fill="#7F94A8"/>
<path d="M7.06716 34.0724C9.20602 34.0724 10.9438 35.8013 10.9438 37.9491C10.9438 40.0969 9.21493 41.8258 7.06716 41.8258C4.91938 41.8258 3.19046 40.0969 3.19046 37.9491C3.19938 35.8102 4.92829 34.0813 7.06716 34.0724ZM4.97285 37.958C4.98176 39.1076 5.91752 40.0345 7.06716 40.0434C8.22571 40.0434 9.16146 39.1076 9.16146 37.9491C9.16146 36.7905 8.22571 35.8548 7.06716 35.8548C5.9086 35.8548 4.97285 36.7905 4.97285 37.9491C4.97285 37.9491 4.97285 37.9491 4.97285 37.958Z" fill="#7F94A8"/>
<path d="M26.8162 34.0724C28.955 34.0724 30.6929 35.8013 30.6929 37.9491C30.6929 40.0969 28.964 41.8258 26.8162 41.8258C24.6684 41.8258 22.9395 40.0969 22.9395 37.9491C22.9484 35.8102 24.6773 34.0813 26.8162 34.0724ZM24.7219 37.958C24.7308 39.1076 25.6665 40.0345 26.8162 40.0434C27.9747 40.0434 28.9105 39.1076 28.9105 37.9491C28.9105 36.7905 27.9747 35.8548 26.8162 35.8548C25.6576 35.8548 24.7219 36.7905 24.7219 37.9491C24.7219 37.9491 24.7219 37.9491 24.7219 37.958Z" fill="#7F94A8"/>
</g>
<defs>
<clipPath id="clip0">
<rect width="44" height="44" transform="matrix(-1 0 0 1 44 0)" fill="white"/>
</clipPath>
</defs>
</svg>
