<svg width="56" height="56" viewBox="0 0 56 56" fill="none" xmlns="http://www.w3.org/2000/svg">
<g clip-path="url(#clip0)">
<path d="M28.0269 4.84615C28.9154 4.84615 29.6423 5.57308 29.6423 6.46154C29.6423 7.35 28.9154 8.07692 28.0269 8.07692C27.1385 8.07692 26.4115 7.35 26.4115 6.46154C26.4115 5.57308 27.1385 4.84615 28.0269 4.84615ZM49.5385 12.9231C49.5385 10.5404 47.6135 8.61539 45.2308 8.61539H39.2538C38.4596 7.72692 37.4365 7.05385 36.2519 6.71731C35.2558 6.43462 34.5019 5.66731 34.2058 4.67115C33.4385 1.97885 30.9481 0 28 0C25.0519 0 22.5615 1.97885 21.7942 4.67115C21.5115 5.66731 20.7442 6.42115 19.7481 6.71731C18.5769 7.05385 17.5538 7.72692 16.7461 8.61539H10.7692C8.38653 8.61539 6.46153 10.5404 6.46153 12.9231V51.6923C6.46153 54.075 8.38653 56 10.7692 56C20.6635 56 32.8192 56 45.2308 56C47.6135 56 49.5385 54.075 49.5385 51.6923C49.5385 39.4558 49.5385 27.7442 49.5385 12.9231ZM17.2308 12.8827C17.2442 10.9846 18.5231 9.30192 20.3404 8.77692C22.05 8.27885 23.3692 6.97308 23.8538 5.26346C24.3923 3.43269 26.0885 2.15385 28 2.15385C29.9115 2.15385 31.6077 3.43269 32.1461 5.26346C32.6442 6.97308 33.95 8.29231 35.6596 8.77692C37.4904 9.31538 38.7692 11.0115 38.7692 12.9231V15.0769H17.2308V12.8827ZM45.2308 53.8462C33.7211 53.8462 22.2385 53.8462 10.7692 53.8462C9.58461 53.8462 8.61538 52.8769 8.61538 51.6923V12.9231C8.61538 11.7385 9.58461 10.7692 10.7692 10.7692H15.4404C15.2115 11.4288 15.0769 12.1288 15.0769 12.8692V17.2308H40.9231V12.9231C40.9231 12.1692 40.7885 11.4423 40.5461 10.7692H45.2308C46.4154 10.7692 47.3846 11.7385 47.3846 12.9231C47.3846 19.075 47.3846 47.9635 47.3846 51.6923C47.3846 52.8769 46.4154 53.8462 45.2308 53.8462Z" fill="url(#paint0_linear)"/>
<path d="M24.44 30.64L25.66 32.54L27.38 31.24V42H29.68V27.96H28.02L24.44 30.64Z" fill="url(#paint1_linear)"/>
</g>
<defs>
<linearGradient id="paint0_linear" x1="15.3461" y1="56" x2="54.5553" y2="46.5606" gradientUnits="userSpaceOnUse">
<stop stop-color="#FE5000"/>
<stop offset="1" stop-color="#FCA92A"/>
</linearGradient>
<linearGradient id="paint1_linear" x1="25.65" y1="49" x2="33.283" y2="48.265" gradientUnits="userSpaceOnUse">
<stop stop-color="#FE5000"/>
<stop offset="1" stop-color="#FCA92A"/>
</linearGradient>
<clipPath id="clip0">
<rect width="56" height="56" fill="white"/>
</clipPath>
</defs>
</svg>
