<svg width="66" height="66" viewBox="0 0 66 66" fill="none" xmlns="http://www.w3.org/2000/svg">
<path d="M52.7909 9H13.2082C10.3375 9 8 11.3375 8 14.2083V49.6244C8 52.4951 10.3375 54.8326 13.2082 54.8326H38.2078C38.7828 54.8326 39.2495 54.3659 39.2495 53.7909C39.2495 53.2159 38.7828 52.7492 38.2078 52.7492H13.2082C11.4853 52.7492 10.0833 51.3472 10.0833 49.6243V19.4165H55.9158V41.2911C55.9158 41.8661 56.3825 42.3328 56.9574 42.3328C57.5324 42.3328 57.9991 41.8661 57.9991 41.2911V14.2083C57.9991 11.3375 55.6617 9 52.7909 9ZM55.9159 17.3333H10.0833V14.2083C10.0833 12.4854 11.4853 11.0834 13.2082 11.0834H52.7908C54.5137 11.0834 55.9158 12.4854 55.9158 14.2083V17.3333H55.9159Z" fill="url(#paint0_linear)"/>
<path d="M13.2082 15.25C13.7836 15.25 14.2499 14.7836 14.2499 14.2083C14.2499 13.633 13.7836 13.1666 13.2082 13.1666C12.6329 13.1666 12.1666 13.633 12.1666 14.2083C12.1666 14.7836 12.6329 15.25 13.2082 15.25Z" fill="url(#paint1_linear)"/>
<path d="M17.3748 15.25C17.9501 15.25 18.4165 14.7836 18.4165 14.2083C18.4165 13.633 17.9501 13.1666 17.3748 13.1666C16.7995 13.1666 16.3331 13.633 16.3331 14.2083C16.3331 14.7836 16.7995 15.25 17.3748 15.25Z" fill="url(#paint2_linear)"/>
<path d="M21.5414 15.25C22.1167 15.25 22.5831 14.7836 22.5831 14.2083C22.5831 13.633 22.1167 13.1666 21.5414 13.1666C20.9661 13.1666 20.4998 13.633 20.4998 14.2083C20.4998 14.7836 20.9661 15.25 21.5414 15.25Z" fill="url(#paint3_linear)"/>
<path d="M57.6949 46.8034L43.1118 32.2203C42.8139 31.9245 42.3681 31.8349 41.9764 31.9953C41.5868 32.1558 41.3326 32.537 41.3326 32.9578V53.7908C41.3326 54.2116 41.5868 54.5928 41.9764 54.7512C42.3681 54.9157 42.8118 54.8262 43.1118 54.5262L46.268 51.37L48.8242 56.3491C48.9513 56.5991 49.1742 56.7846 49.4388 56.8679C49.5408 56.8991 49.6471 56.9158 49.7512 56.9158C49.92 56.9158 50.0867 56.8741 50.2408 56.7929L54.322 54.6241C54.822 54.3596 55.0199 53.7409 54.7615 53.2346L52.4033 48.5827H56.9574C57.3782 48.5827 57.7594 48.3285 57.9199 47.9389C58.0824 47.5492 57.9928 47.1013 57.6949 46.8034ZM50.7075 46.4992C50.345 46.4992 50.0095 46.6867 49.82 46.995C49.6305 47.3033 49.6138 47.6887 49.7783 48.0117L52.4408 53.2658L50.195 54.4595L47.468 49.1491C47.3159 48.8534 47.0325 48.6471 46.7034 48.595C46.6493 48.5867 46.5951 48.5825 46.541 48.5825C46.268 48.5825 46.0014 48.6908 45.8035 48.8887L43.416 51.2762V35.4723L54.4429 46.4992H50.7075Z" fill="url(#paint4_linear)"/>
<defs>
<linearGradient id="paint0_linear" x1="8" y1="54.8326" x2="53.6597" y2="5.02215" gradientUnits="userSpaceOnUse">
<stop stop-color="#FE5000"/>
<stop offset="1" stop-color="#FE9800"/>
</linearGradient>
<linearGradient id="paint1_linear" x1="12.1666" y1="15.25" x2="14.2499" y2="13.1666" gradientUnits="userSpaceOnUse">
<stop stop-color="#FE5000"/>
<stop offset="1" stop-color="#FE9800"/>
</linearGradient>
<linearGradient id="paint2_linear" x1="16.3331" y1="15.25" x2="18.4165" y2="13.1666" gradientUnits="userSpaceOnUse">
<stop stop-color="#FE5000"/>
<stop offset="1" stop-color="#FE9800"/>
</linearGradient>
<linearGradient id="paint3_linear" x1="20.4998" y1="15.25" x2="22.5831" y2="13.1666" gradientUnits="userSpaceOnUse">
<stop stop-color="#FE5000"/>
<stop offset="1" stop-color="#FE9800"/>
</linearGradient>
<linearGradient id="paint4_linear" x1="41.3326" y1="56.9158" x2="64.4094" y2="41.5302" gradientUnits="userSpaceOnUse">
<stop stop-color="#FE5000"/>
<stop offset="1" stop-color="#FE9800"/>
</linearGradient>
</defs>
</svg>
