<svg width="20" height="20" viewBox="0 0 20 20" fill="none" xmlns="http://www.w3.org/2000/svg">
<circle cx="10" cy="10" r="9.5" fill="white" stroke="#E5E5E5"/>
<path d="M9.04891 11.792C9.01691 11.392 9.04491 11.048 9.13291 10.76C9.22891 10.472 9.35691 10.216 9.51691 9.992C9.67691 9.768 9.85291 9.568 10.0449 9.392C10.2449 9.216 10.4289 9.04 10.5969 8.864C10.7729 8.688 10.9169 8.5 11.0289 8.3C11.1489 8.1 11.2089 7.868 11.2089 7.604C11.2089 7.252 11.1009 6.964 10.8849 6.74C10.6769 6.516 10.3089 6.404 9.78091 6.404C9.46091 6.404 9.13291 6.464 8.79691 6.584C8.46891 6.704 8.18891 6.832 7.95691 6.968L7.57291 6.104C7.90891 5.896 8.26491 5.736 8.64091 5.624C9.01691 5.504 9.48091 5.444 10.0329 5.444C10.4249 5.444 10.7689 5.496 11.0649 5.6C11.3609 5.704 11.6089 5.848 11.8089 6.032C12.0089 6.208 12.1569 6.42 12.2529 6.668C12.3569 6.908 12.4089 7.168 12.4089 7.448C12.4089 7.824 12.3489 8.148 12.2289 8.42C12.1089 8.684 11.9609 8.92 11.7849 9.128C11.6089 9.336 11.4169 9.528 11.2089 9.704C11.0009 9.88 10.8089 10.068 10.6329 10.268C10.4569 10.46 10.3089 10.676 10.1889 10.916C10.0689 11.156 10.0089 11.448 10.0089 11.792H9.04891ZM8.78491 13.388C8.78491 13.156 8.85691 12.972 9.00091 12.836C9.15291 12.7 9.34891 12.632 9.58891 12.632C9.82891 12.632 10.0209 12.7 10.1649 12.836C10.3169 12.972 10.3929 13.156 10.3929 13.388C10.3929 13.604 10.3169 13.784 10.1649 13.928C10.0209 14.072 9.82891 14.144 9.58891 14.144C9.34891 14.144 9.15291 14.072 9.00091 13.928C8.85691 13.784 8.78491 13.604 8.78491 13.388Z" fill="#838383"/>
</svg>
