<svg width="56" height="56" viewBox="0 0 56 56" fill="none" xmlns="http://www.w3.org/2000/svg">
<g clip-path="url(#clip0)">
<path d="M56.0002 28.0004C56.0021 24.0458 53.2451 20.6257 49.3801 19.7878C48.4662 7.98141 38.1536 -0.848843 26.346 0.0649218C15.8086 0.880345 7.43681 9.25144 6.62132 19.7878C5.04503 20.1346 3.59988 20.9227 2.45492 22.0602C-0.822482 25.3433 -0.817698 30.6614 2.46565 33.9385C3.70885 35.1793 5.30975 35.9992 7.04318 36.2829C7.17315 36.355 7.3184 36.395 7.46691 36.3996C7.52606 36.398 7.5851 36.3917 7.64331 36.3809C7.66781 36.3751 7.69173 36.3676 7.71518 36.3585C7.94198 36.3762 8.16691 36.3996 8.40025 36.3996H10.2669C10.7823 36.3996 11.2002 35.9817 11.2002 35.4663V20.5344C11.2002 20.019 10.7823 19.6011 10.2669 19.6011H8.51131C9.52013 8.8379 19.064 0.930389 29.8282 1.93899C39.1959 2.81683 46.614 10.2343 47.492 19.6011H45.7336C45.2181 19.6011 44.8002 20.019 44.8002 20.5344V35.4663C44.8002 35.9817 45.2181 36.3996 45.7336 36.3996H47.6002V38.2661C47.6002 45.4651 41.9722 50.9367 34.3898 51.297C33.8505 49.3114 31.8035 48.1389 29.8177 48.6783C27.8319 49.2177 26.6593 51.2644 27.1987 53.25C27.7381 55.2356 29.7851 56.4081 31.7709 55.8687C33.0776 55.5138 34.0888 54.478 34.4122 53.1635C43.0474 52.7874 49.4669 46.5197 49.4669 38.2661V36.1858C51.0083 35.8298 52.4204 35.0524 53.5456 33.9405C55.1206 32.3651 56.0037 30.2279 56.0002 28.0004ZM9.33358 34.5331H8.40025C8.12666 34.5331 7.85331 34.5169 7.58171 34.4845C3.99993 34.0487 1.4496 30.792 1.88547 27.2105C2.24935 24.2207 4.61022 21.8672 7.60131 21.5124C7.8665 21.4815 8.13331 21.4665 8.40025 21.4676H9.33358V34.5331ZM30.8002 54.1312C29.7693 54.1312 28.9336 53.2956 28.9336 52.2647C28.9336 51.2339 29.7693 50.3982 30.8002 50.3982C31.8312 50.3982 32.6669 51.2339 32.6669 52.2647C32.6669 53.2956 31.8312 54.1312 30.8002 54.1312ZM48.4216 34.4836C48.149 34.5166 47.8747 34.5331 47.6002 34.5331H46.6669V21.4676H47.6002C51.2085 21.4571 54.1421 24.3733 54.1527 27.9812C54.1623 31.2862 51.7019 34.0778 48.4216 34.4836Z" fill="url(#paint0_linear)"/>
</g>
<defs>
<linearGradient id="paint0_linear" x1="0" y1="55.9999" x2="56" y2="-0.000305175" gradientUnits="userSpaceOnUse">
<stop stop-color="#FE5000"/>
<stop offset="1" stop-color="#FE9800"/>
</linearGradient>
<clipPath id="clip0">
<rect width="56.0002" height="56" fill="white"/>
</clipPath>
</defs>
</svg>
