<?xml version="1.0" encoding="utf-8"?>
<!-- Generator: Adobe Illustrator 24.1.0, SVG Export Plug-In . SVG Version: 6.00 Build 0)  -->
<svg version="1.1" id="Слой_1" xmlns="http://www.w3.org/2000/svg" xmlns:xlink="http://www.w3.org/1999/xlink" x="0px" y="0px"
	 viewBox="0 0 56 56" style="enable-background:new 0 0 56 56;" xml:space="preserve">
<style type="text/css">
	.st0{fill:none;stroke:url(#SVGID_1_);stroke-width:2;}
	.st1{fill:url(#SVGID_2_);}
</style>
<linearGradient id="SVGID_1_" gradientUnits="userSpaceOnUse" x1="9.6941" y1="27.498" x2="46.6415" y2="37.4094" gradientTransform="matrix(1 0 0 -1 0 58)">
	<stop  offset="0" style="stop-color:#FE5000"/>
	<stop  offset="1" style="stop-color:#FCA92A"/>
</linearGradient>
<path class="st0" d="M10.5,4.5h35c0.7,0,1.3,0.3,1.8,0.7C47.7,5.7,48,6.3,48,7v22.7v0c0,3.3-0.9,6.6-2.6,9.4
	c-1.7,2.8-4.1,5.2-7.1,6.7l0,0L28,51.4l-10.3-5.5l0,0c-2.9-1.6-5.4-3.9-7.1-6.7C8.9,36.3,8,33.1,8,29.8v0V7c0-0.7,0.3-1.3,0.7-1.8
	C9.2,4.8,9.8,4.5,10.5,4.5z"/>
<linearGradient id="SVGID_2_" gradientUnits="userSpaceOnUse" x1="20.8862" y1="28.7504" x2="38.5899" y2="36.2685" gradientTransform="matrix(1 0 0 -1 0 58)">
	<stop  offset="0" style="stop-color:#FE5000"/>
	<stop  offset="1" style="stop-color:#FCA92A"/>
</linearGradient>
<path class="st1" d="M38.2,17l-13,13l-5.7-5.7L18,25.8l7.2,7.2l14.5-14.5L38.2,17z"/>
</svg>
