<svg width="56" height="56" viewBox="0 0 56 56" fill="none" xmlns="http://www.w3.org/2000/svg">
<path d="M28.5088 16.1636C30.7997 16.1636 32.5815 14.2545 32.5815 12.0909C32.5815 9.8 30.6724 8.01818 28.5088 8.01818C26.2179 8.01818 24.4361 9.92727 24.4361 12.0909C24.4361 14.2545 26.3452 16.1636 28.5088 16.1636ZM28.5088 9.54545C29.9088 9.54545 31.0543 10.6909 31.0543 12.0909C31.0543 13.4909 29.9088 14.6364 28.5088 14.6364C27.1088 14.6364 25.9634 13.4909 25.9634 12.0909C26.0906 10.6909 27.2361 9.54545 28.5088 9.54545ZM12.9815 47.4727C9.79972 45.1818 7.25426 42 5.47244 38.5636C3.56335 34.8727 2.67244 30.9273 2.67244 26.8545C2.79972 20.1091 5.34517 13.7455 10.1815 9.03636C15.0179 4.32727 21.3815 1.65455 28.127 1.65455C32.1997 1.65455 36.0179 2.54545 39.4543 4.32727L42.7633 6.36364C49.5088 11.3273 53.4543 19.0909 53.4543 27.1091C53.4543 32.9636 51.4179 38.6909 47.5997 43.1455C46.5815 44.4182 45.9452 45.8182 45.6906 47.3455C45.4361 48.4909 45.1815 50.2727 45.8179 52.0545C45.9452 52.5636 45.8179 53.3273 45.4361 53.7091C44.927 54.2182 44.4179 54.2182 43.9088 54.2182C42.2543 53.7091 40.5997 52.9455 38.9452 52.0545C37.6724 51.2909 36.1452 51.1636 34.6179 51.5455C32.4543 52.0545 30.2906 52.4364 27.8724 52.4364C23.7997 52.4364 19.9815 51.4182 16.4179 49.5091L12.9815 47.4727ZM15.527 50.9091C19.3452 52.8182 23.4179 53.9636 27.7452 53.9636C30.1633 53.9636 32.4543 53.7091 34.8724 53.0727C35.8906 52.8182 37.0361 52.9455 37.927 53.4545C39.5815 54.3455 41.4906 55.2364 43.2724 55.7455C43.527 55.8727 43.9088 55.8727 44.1634 55.8727C45.0543 55.8727 45.8179 55.4909 46.4543 54.8545C47.3452 53.9636 47.5997 52.6909 47.2179 51.5455C46.8361 50.4 46.8361 49.2545 47.0906 47.4727C47.2179 46.2 47.9815 45.0545 48.6179 44.0364C52.6906 39.3273 54.727 33.0909 54.8543 26.8545C54.8543 18.2 50.6543 9.92727 43.527 4.83636L40.0906 2.8C36.2724 0.890909 32.1997 0 27.9997 0C20.8724 0 14.127 2.8 8.90881 7.89091C3.8179 12.9818 1.0179 19.7273 0.890625 26.8545C0.890625 31.1818 1.90881 35.5091 3.8179 39.3273C5.72699 43.0182 8.52699 46.3273 11.9634 48.8727L15.527 50.9091ZM20.1088 39.5818V40.4727C20.1088 42 21.3815 43.2727 22.9088 43.2727H34.2361C35.7634 43.2727 37.0361 42 37.0361 40.4727V39.5818C37.0361 38.0545 35.7634 36.7818 34.2361 36.7818H32.7088V21C32.7088 20.1091 32.1997 19.2182 31.4361 18.7091C30.6724 18.2 29.6543 18.0727 28.7634 18.4545C27.3634 18.9636 25.9634 19.3455 24.4361 19.4727L21.7634 19.6C20.7452 19.7273 19.8543 20.4909 19.8543 21.5091V23.0364C19.8543 24.1818 20.7452 24.9455 21.7634 24.9455H24.0543C24.1815 24.9455 24.1815 25.0727 24.1815 25.0727V36.6545H22.9088C21.3815 36.6545 20.1088 37.9273 20.1088 39.5818ZM25.327 38.3091C25.8361 38.3091 26.2179 37.9273 26.2179 37.4182V25.0727C26.2179 24.1818 25.4543 23.2909 24.4361 23.2909H22.1452C22.0179 23.2909 21.8906 23.1636 21.8906 23.0364V21.3818C21.8906 21.2545 22.0179 21.1273 22.1452 21.1273L24.8179 21C26.4724 20.8727 28.127 20.4909 29.6543 19.8545C30.0361 19.7273 30.4179 19.7273 30.7997 19.9818C31.1815 20.1091 31.3088 20.4909 31.3088 20.8727V37.5455C31.3088 38.0545 31.6906 38.4364 32.1997 38.4364H34.4906C35.127 38.4364 35.7634 38.9455 35.7634 39.7091V40.6C35.7634 41.2364 35.2543 41.8727 34.4906 41.8727H23.0361C22.3997 41.8727 21.7634 41.3636 21.7634 40.6V39.7091C21.7634 39.0727 22.2724 38.4364 23.0361 38.4364L25.327 38.3091Z" fill="url(#paint0_linear)"/>
<defs>
<linearGradient id="paint0_linear" x1="12.0206" y1="55.8727" x2="59.6353" y2="41.4801" gradientUnits="userSpaceOnUse">
<stop stop-color="#FE5000"/>
<stop offset="1" stop-color="#FCA92A"/>
</linearGradient>
</defs>
</svg>
