<svg width="56" height="56" viewBox="0 0 56 56" fill="none" xmlns="http://www.w3.org/2000/svg">
<path d="M54.9986 38.3C54.9987 38.2878 55 38.2757 55 38.2635C55 38.2608 54.9996 38.2581 54.9995 38.2553C54.9994 38.2355 54.998 38.2157 54.9965 38.1957C54.9958 38.1861 54.9953 38.1764 54.9943 38.1668C54.9924 38.1497 54.9894 38.1326 54.9865 38.1155C54.9844 38.1032 54.9826 38.0909 54.9799 38.0788C54.977 38.0656 54.9733 38.0525 54.9698 38.0393C54.9656 38.0236 54.9616 38.0078 54.9566 37.9926C54.9533 37.9825 54.9493 37.9725 54.9456 37.9625C54.9391 37.9446 54.9325 37.927 54.9248 37.9098C54.9236 37.9071 54.9228 37.9043 54.9215 37.9015L45.6696 17.547V14.879H45.7279C46.7247 14.879 47.5357 14.0681 47.5357 13.0713V12.9327C47.5357 12.0407 46.8965 11.2902 46.016 11.148L30.7409 8.68304V7.11681C31.3206 6.46706 31.6739 5.61111 31.6739 4.67387C31.6739 2.64811 30.0258 1 28.0001 1C25.9743 1 24.3262 2.64811 24.3262 4.67387C24.3262 5.61111 24.6795 6.46706 25.2592 7.11681V8.59802L9.97494 11.1455C9.09975 11.2914 8.46446 12.0413 8.46446 12.9286V13.0713C8.46446 14.0681 9.27539 14.879 10.2722 14.879H10.3305V17.547L1.07849 37.9015C1.07721 37.9042 1.07639 37.9071 1.07523 37.9098C1.06765 37.9269 1.061 37.9446 1.05447 37.9624C1.05073 37.9724 1.04677 37.9824 1.04339 37.9926C1.03837 38.0078 1.03429 38.0236 1.03021 38.0393C1.02671 38.0525 1.02298 38.0656 1.02006 38.0788C1.01749 38.0909 1.01563 38.1032 1.01353 38.1155C1.01061 38.1326 1.00758 38.1497 1.00571 38.1668C1.00467 38.1764 1.00432 38.1862 1.0035 38.1959C1.00198 38.2157 1.0007 38.2355 1.00047 38.2552C1.00047 38.258 1 38.2607 1 38.2634C1 38.2757 1.00128 38.2878 1.0014 38.3001C1.00187 38.3099 1.00175 38.3198 1.00257 38.3296C1.05715 41.9276 5.5178 44.7365 11.2053 44.7365C16.8928 44.7365 21.3534 41.9276 21.4079 38.3297C21.4087 38.3199 21.4086 38.31 21.409 38.3001C21.4092 38.2879 21.4104 38.2759 21.4104 38.2636C21.4104 38.2609 21.4101 38.2583 21.41 38.2555C21.4099 38.2356 21.4085 38.2158 21.4069 38.1959C21.4062 38.1862 21.4058 38.1765 21.4047 38.1669C21.4029 38.1498 21.3998 38.1328 21.3969 38.1156C21.3948 38.1034 21.3931 38.091 21.3904 38.0789C21.3875 38.0657 21.3837 38.0526 21.3802 38.0395C21.376 38.0237 21.3721 38.008 21.3671 37.9927C21.3638 37.9827 21.3597 37.9726 21.3561 37.9626C21.3496 37.9447 21.3429 37.9271 21.3352 37.9099C21.334 37.9072 21.3332 37.9044 21.3319 37.9016L12.08 17.547V14.879H25.2592V33.8834C24.7035 34.1922 24.3262 34.7848 24.3262 35.4644V48.3504L18.7851 50.082C17.6348 50.4416 16.8619 51.4929 16.8619 52.6982V54.1253C16.8619 54.6084 17.2534 55 17.7366 55H38.2635C38.7467 55 39.1383 54.6084 39.1383 54.1253V52.6981C39.1383 51.4928 38.3654 50.4415 37.215 50.0819L31.6739 48.3504V35.4644C31.6739 34.7848 31.2966 34.1922 30.7409 33.8834V14.879H43.9201V17.547L34.6681 37.9016C34.6668 37.9043 34.666 37.9072 34.6648 37.9099C34.6572 37.927 34.6506 37.9447 34.644 37.9625C34.6403 37.9725 34.6363 37.9825 34.6329 37.9927C34.6279 38.008 34.6238 38.0237 34.6198 38.0395C34.6163 38.0526 34.6125 38.0657 34.6096 38.0789C34.6071 38.091 34.6052 38.1034 34.6031 38.1156C34.6002 38.1328 34.5971 38.1498 34.5953 38.1669C34.5942 38.1765 34.5939 38.1863 34.5931 38.196C34.5915 38.2158 34.5903 38.2356 34.59 38.2553C34.59 38.2581 34.5896 38.2608 34.5896 38.2635C34.5896 38.2759 34.5908 38.2879 34.591 38.3002C34.5914 38.31 34.5913 38.3199 34.5921 38.3297C34.6467 41.9276 39.1074 44.7365 44.7948 44.7365C50.4823 44.7365 54.943 41.9276 54.9974 38.3297C54.9982 38.3198 54.9981 38.3099 54.9986 38.3ZM11.2053 19.8504L19.1772 37.3888H3.23336L11.2053 19.8504ZM11.2053 42.987C7.15494 42.987 3.66022 41.298 2.90189 39.1382H19.5088C18.7503 41.298 15.2556 42.987 11.2053 42.987ZM29.9245 35.4644V48.1188H26.0757V35.4644C26.0757 35.4322 26.1019 35.406 26.134 35.406H29.8661C29.8982 35.406 29.9245 35.4322 29.9245 35.4644ZM27.0087 33.6566V8.21069C27.3243 8.29933 27.6566 8.34773 28.0001 8.34773C28.3435 8.34773 28.6758 8.29933 28.9914 8.21069V33.6566H27.0087ZM28.0001 2.74946C29.0612 2.74946 29.9245 3.61276 29.9245 4.67387C29.9245 5.73497 29.0612 6.59827 28.0001 6.59827C26.939 6.59827 26.0757 5.73497 26.0757 4.67387C26.0757 3.61276 26.939 2.74946 28.0001 2.74946ZM10.2722 13.1296C10.2402 13.1296 10.2139 13.1035 10.2139 13.0713V12.9286C10.2139 12.8999 10.2344 12.8758 10.2627 12.8711L25.2592 10.3717V13.1296H10.2722ZM37.3888 52.6981V53.2505H18.6113V52.6981C18.6113 52.2621 18.8909 51.8818 19.307 51.7518L25.3345 49.8682H30.6658L36.6932 51.7518C37.1092 51.8819 37.3888 52.2621 37.3888 52.6981ZM30.7409 10.4552L45.7371 12.8752C45.7656 12.8798 45.7862 12.904 45.7862 12.9328V13.0714C45.7862 13.1036 45.76 13.1297 45.7279 13.1297H30.7409V10.4552ZM44.7948 19.8504L52.7668 37.3888H36.8229L44.7948 19.8504ZM44.7948 42.987C40.7445 42.987 37.2498 41.298 36.4915 39.1382H53.0983C52.3399 41.298 48.8452 42.987 44.7948 42.987Z" fill="url(#paint0_linear)"/>
<defs>
<linearGradient id="paint0_linear" x1="12.1375" y1="55" x2="59.4988" y2="40.1775" gradientUnits="userSpaceOnUse">
<stop stop-color="#FE5000"/>
<stop offset="1" stop-color="#FCA92A"/>
</linearGradient>
</defs>
</svg>
