<svg width="56" height="56" viewBox="0 0 56 56" fill="none" xmlns="http://www.w3.org/2000/svg">
<g clip-path="url(#clip0)">
<path d="M27.5654 4.84615C28.4538 4.84615 29.1808 5.57308 29.1808 6.46154C29.1808 7.35 28.4538 8.07692 27.5654 8.07692C26.6769 8.07692 25.95 7.35 25.95 6.46154C25.95 5.57308 26.6769 4.84615 27.5654 4.84615ZM49.0769 12.9231C49.0769 10.5404 47.1519 8.61539 44.7692 8.61539H38.7923C37.9981 7.72692 36.975 7.05385 35.7904 6.71731C34.7942 6.43462 34.0404 5.66731 33.7442 4.67115C32.9769 1.97885 30.4865 0 27.5385 0C24.5904 0 22.1 1.97885 21.3327 4.67115C21.05 5.66731 20.2827 6.42115 19.2865 6.71731C18.1154 7.05385 17.0923 7.72692 16.2846 8.61539H10.3077C7.925 8.61539 6 10.5404 6 12.9231V51.6923C6 54.075 7.925 56 10.3077 56C20.2019 56 32.3577 56 44.7692 56C47.1519 56 49.0769 54.075 49.0769 51.6923C49.0769 39.4558 49.0769 27.7442 49.0769 12.9231ZM16.7692 12.8827C16.7827 10.9846 18.0615 9.30192 19.8788 8.77692C21.5885 8.27885 22.9077 6.97308 23.3923 5.26346C23.9308 3.43269 25.6269 2.15385 27.5385 2.15385C29.45 2.15385 31.1462 3.43269 31.6846 5.26346C32.1827 6.97308 33.4885 8.29231 35.1981 8.77692C37.0288 9.31538 38.3077 11.0115 38.3077 12.9231V15.0769H16.7692V12.8827ZM44.7692 53.8462C33.2596 53.8462 21.7769 53.8462 10.3077 53.8462C9.12308 53.8462 8.15385 52.8769 8.15385 51.6923V12.9231C8.15385 11.7385 9.12308 10.7692 10.3077 10.7692H14.9788C14.75 11.4288 14.6154 12.1288 14.6154 12.8692V17.2308H40.4615V12.9231C40.4615 12.1692 40.3269 11.4423 40.0846 10.7692H44.7692C45.9538 10.7692 46.9231 11.7385 46.9231 12.9231C46.9231 19.075 46.9231 47.9635 46.9231 51.6923C46.9231 52.8769 45.9538 53.8462 44.7692 53.8462ZM36.4904 26.1827L23.5404 39.1327L17.8462 33.425L16.325 34.9462L23.5538 42.175L38.025 27.7038L36.4904 26.1827Z" fill="url(#paint0_linear)"/>
</g>
<defs>
<linearGradient id="paint0_linear" x1="14.8846" y1="56" x2="54.0938" y2="46.5606" gradientUnits="userSpaceOnUse">
<stop stop-color="#FE5000"/>
<stop offset="1" stop-color="#FCA92A"/>
</linearGradient>
<clipPath id="clip0">
<rect width="56" height="56" fill="white"/>
</clipPath>
</defs>
</svg>
