<svg width="56" height="56" viewBox="0 0 56 56" fill="none" xmlns="http://www.w3.org/2000/svg">
<path d="M45.1236 14.5134L47.9551 11.6381L44.1798 7.8044L40.9438 11.0905C37.4382 8.89976 33.2584 7.53056 28.9438 7.39364V5.47677H34.3371V2.73839C34.3371 1.23227 33.1236 0 31.6404 0H24.4944C23.0112 0 21.7978 1.23227 21.7978 2.73839V5.47677H27.191V7.25672C22.7416 7.53056 18.5618 8.89976 15.0562 11.0905L11.8202 7.8044L8.04494 11.6381L10.8764 14.5134C6.5618 18.8949 4 24.9193 4 31.6284C4 45.0465 14.7865 56 28 56C41.2135 56 52 45.0465 52 31.6284C52 25.0562 49.3034 19.0318 45.1236 14.5134ZM44.1798 10.4059L45.3933 11.6381L43.7753 13.2812C43.3708 12.8704 42.8315 12.4597 42.427 12.1858L44.1798 10.4059ZM23.5506 3.69682V2.73839C23.5506 2.19071 23.9551 1.77995 24.4944 1.77995H31.6404C32.1798 1.77995 32.5843 2.19071 32.5843 2.73839V3.69682H23.5506ZM10.6067 11.6381L11.8202 10.4059L13.573 12.1858C13.0337 12.5966 12.6292 12.8704 12.2247 13.2812L10.6067 11.6381ZM28 54.22C15.7303 54.22 5.75281 44.088 5.75281 31.6284C5.75281 19.1687 15.7303 9.17359 28 9.17359C40.2697 9.17359 50.2472 19.3056 50.2472 31.7653C50.2472 44.088 40.2697 54.22 28 54.22ZM28 12.7335C17.7528 12.7335 9.39326 21.2225 9.39326 31.6284C9.39326 42.0342 17.7528 50.5232 28 50.5232C38.2472 50.5232 46.6067 42.0342 46.6067 31.6284C46.6067 21.2225 38.2472 12.7335 28 12.7335ZM28.9438 48.7433V46.9633H27.191V48.7433C18.5618 48.3325 11.6854 41.3496 11.1461 32.5868H12.8989V30.8068H11.1461C11.5506 22.044 18.5618 15.0611 27.0562 14.6504V16.4303H28.809V14.6504C37.4382 15.0611 44.4494 22.044 44.8539 30.8068H43.1011V32.5868H44.8539C44.4494 41.3496 37.4382 48.3325 28.9438 48.7433ZM28 28.0685C25.9775 28.0685 24.4944 29.7115 24.4944 31.6284C24.4944 33.6822 26.1124 35.1883 28 35.1883C30.0225 35.1883 31.5056 33.5452 31.5056 31.6284C31.5056 29.7115 30.0225 28.0685 28 28.0685ZM28 33.5452C27.0562 33.5452 26.2472 32.7237 26.2472 31.7653C26.2472 30.8068 27.0562 29.9853 28 29.9853C28.9438 29.9853 29.7528 30.8068 29.7528 31.7653C29.7528 32.7237 28.9438 33.5452 28 33.5452ZM28.9438 19.0318H27.191V27.11H28.9438V19.0318ZM23.5506 30.8068H18.1573V32.5868H23.5506V30.8068Z" fill="url(#paint0_linear)"/>
<defs>
<linearGradient id="paint0_linear" x1="13.9" y1="56" x2="57.0194" y2="44.4329" gradientUnits="userSpaceOnUse">
<stop stop-color="#FE5000"/>
<stop offset="1" stop-color="#FCA92A"/>
</linearGradient>
</defs>
</svg>
