<svg width="225" height="51" viewBox="0 0 225 51" fill="none" xmlns="http://www.w3.org/2000/svg">
<g clip-path="url(#clip0)">
<path d="M77.7 12.4889C77.3 11.3889 76.7 11.0889 75.5 11.0889H72.1C70.9 11.0889 70.3 11.3889 69.9 12.5889L59.5 40.5889C59.1 41.7889 59.4 42.3889 60.7 42.3889H63.7C65.9 42.3889 66.5 41.9889 66.9 40.7889L68.3 36.6889H79.1L80.5 40.7889C80.9 42.0889 81.6 42.3889 83.8 42.3889H87C88.3 42.3889 88.6 41.7889 88.2 40.5889L77.7 12.4889ZM70.2 30.7889L72.5 23.8889C73.6 20.7889 73.5 18.4889 73.5 18.4889H73.9C73.9 18.4889 74 20.6889 75 23.8889L77.3 30.6889C77.3 30.7889 70.2 30.7889 70.2 30.7889ZM107.7 11.0889H86.8C85.4 11.0889 85 11.4889 85 12.8889V15.8889C85 17.1889 85.4 17.6889 86.8 17.6889H93.7V40.5889C93.7 41.9889 94.1 42.3889 95.5 42.3889H99C100.4 42.3889 100.8 41.9889 100.8 40.5889V17.5889H107.6C109 17.5889 109.4 17.1889 109.4 15.7889V12.8889C109.5 11.5889 109 11.0889 107.7 11.0889ZM126.4 22.5889H119.3V17.4889H132.5C133.8 17.4889 134.3 16.9889 134.3 15.6889V12.8889C134.3 11.4889 133.8 11.0889 132.5 11.0889H114C112.7 11.0889 112.2 11.4889 112.2 12.8889V40.5889C112.2 41.8889 112.7 42.2889 114 42.2889H126.5C132.6 42.2889 136.5 38.4889 136.5 32.4889C136.5 26.2889 132.5 22.5889 126.4 22.5889ZM125.4 35.9889H119.3V28.9889H125.4C127.7 28.9889 129 30.3889 129 32.4889C129.1 34.4889 127.8 35.9889 125.4 35.9889Z" fill="#2A2C29"/>
<path d="M150.2 47.789H150.7V5.68896H150.2V47.789ZM166.5 17.689C166.1 17.689 165.4 17.489 165 17.189L164.7 17.589C165 17.989 165.9 18.189 166.5 18.189C167.6 18.189 168.4 17.689 168.4 16.789C168.4 16.289 168.1 15.789 167.4 15.689C168 15.489 168.2 14.989 168.2 14.589C168.2 13.789 167.6 13.389 166.5 13.389C165.8 13.389 165.1 13.589 164.7 13.989L164.9 14.389C165.2 14.089 165.7 13.889 166.4 13.889C167.1 13.889 167.6 14.189 167.6 14.689C167.6 15.189 167.2 15.589 166.6 15.589H166V15.989H166.8C167.5 15.989 167.9 16.289 167.9 16.789C167.9 17.389 167.3 17.689 166.5 17.689ZM190 13.489H189.5V18.189H190V13.489ZM202.1 15.289H199.7V15.889H202.1V15.289ZM193.4 18.089L190.9 15.689L193.2 13.489H192.5L190.2 15.789L192.6 18.189L193.4 18.089ZM173.4 14.189V18.089H173.9V13.389H173.4L170.3 17.289V13.389H169.8V18.089H170.3L173.4 14.189ZM158.8 15.689H162.3L163.4 18.189H164L160.8 10.889H160.3L157.1 18.189H157.7L158.8 15.689ZM160.6 11.589L162.1 15.089H159.1L160.6 11.589ZM181.3 18.089H181.8V13.989H183.7V13.489H179.4V13.989H181.3V18.089ZM196.1 13.389C194.6 13.389 193.6 14.389 193.6 15.789C193.6 17.189 194.6 18.189 196.1 18.189C197.6 18.189 198.6 17.189 198.6 15.789C198.6 14.389 197.6 13.389 196.1 13.389ZM196.1 17.689C195 17.689 194.2 16.889 194.2 15.789C194.2 14.689 195 13.889 196.1 13.889C197.2 13.889 198 14.689 198 15.789C198 16.889 197.3 17.689 196.1 17.689ZM177 13.389C176.4 13.389 175.9 13.589 175.5 13.789L175.6 14.189C176 13.989 176.4 13.789 176.9 13.789C178.1 13.789 178.1 14.489 178.1 15.589C177.7 15.289 177.2 15.189 176.8 15.189C175.8 15.189 175 15.689 175 16.689C175 17.589 175.6 18.089 176.4 18.089C177.3 18.089 177.7 17.689 178 17.289V17.989H178.5V15.089C178.7 14.089 178.3 13.389 177 13.389ZM178.2 16.989C177.9 17.289 177.6 17.689 176.8 17.689C176.2 17.689 175.8 17.389 175.8 16.789C175.8 16.089 176.4 15.789 177.1 15.789C177.6 15.789 178 15.889 178.3 16.189V16.989H178.2ZM188.4 17.489L188.1 17.089C187.8 17.489 187.2 17.689 186.6 17.689C185.5 17.689 184.7 16.989 184.7 15.789C184.7 14.689 185.6 13.889 186.5 13.889C187 13.889 187.6 13.989 188 14.389L188.3 13.989C187.9 13.589 187.2 13.389 186.5 13.389C185.2 13.389 184.2 14.489 184.2 15.789C184.2 17.289 185.2 18.189 186.7 18.189C187.3 18.189 188 17.989 188.4 17.489ZM196.4 25.089C195.8 25.089 195.3 25.289 194.9 25.489L195 25.889C195.4 25.689 195.8 25.489 196.3 25.489C197.5 25.489 197.5 26.189 197.5 27.289C197.1 26.989 196.6 26.889 196.2 26.889C195.2 26.889 194.4 27.389 194.4 28.389C194.4 29.289 195 29.789 195.8 29.789C196.7 29.789 197.1 29.389 197.4 28.989V29.689H197.9V26.889C198.1 25.789 197.7 25.089 196.4 25.089ZM197.6 28.689C197.3 28.989 197 29.389 196.2 29.389C195.6 29.389 195.2 29.089 195.2 28.489C195.2 27.789 195.8 27.489 196.5 27.489C197 27.489 197.4 27.589 197.7 27.889V28.689H197.6ZM188.8 25.189H188.1L185.8 27.489L188.2 29.889H188.9L186.4 27.489L188.8 25.189ZM203.2 27.189H200.2V25.189H199.7V29.889H200.2V27.789H203.2V29.889H203.7V25.189H203.2V27.189ZM191.6 25.089C190.1 25.089 189.2 26.189 189.2 27.489C189.2 28.989 190.2 29.889 191.7 29.889C192.3 29.889 193 29.689 193.4 29.189L193.2 28.789C192.9 29.089 192.3 29.389 191.7 29.389C190.6 29.389 189.8 28.689 189.8 27.589H193.7C193.7 27.489 193.7 27.289 193.7 27.189C193.7 25.889 192.8 25.089 191.6 25.089ZM189.8 27.189C189.9 26.289 190.5 25.589 191.5 25.589C192.5 25.589 193.1 26.189 193.1 27.189H189.8ZM215.7 29.089V25.189H215.2V29.889H215.7L218.8 25.989V29.889H219.3V25.189H218.8L215.7 29.089ZM224.5 25.189L221.4 29.089V25.189H220.9V29.889H221.4L224.5 25.989V29.889H225V25.189C225.1 25.189 224.5 25.189 224.5 25.189ZM223.1 24.089C223.9 24.089 224.5 23.489 224.5 22.789H224C224 23.289 223.6 23.689 223.1 23.689C222.5 23.689 222.1 23.289 222.1 22.789H221.6C221.6 23.489 222.1 24.089 223.1 24.089ZM159.9 29.789H160.5V23.089H163.2V22.589H157.2V23.089H159.9V29.789ZM207.4 29.389C206.3 29.389 205.5 28.689 205.5 27.489C205.5 26.389 206.4 25.589 207.3 25.589C207.8 25.589 208.4 25.689 208.8 26.089L209.1 25.689C208.7 25.289 208 25.089 207.3 25.089C206 25.089 205 26.189 205 27.489C205 28.989 206 29.889 207.5 29.889C208.2 29.889 208.9 29.589 209.3 29.089L209 28.689C208.6 29.189 208 29.389 207.4 29.389ZM214 25.189H213.3L211 27.489L213.4 29.889H214.1L211.6 27.489L214 25.189ZM210.2 29.789H210.7V25.089H210.2V29.789ZM181.3 25.089C179.8 25.089 178.8 26.089 178.8 27.489C178.8 28.889 179.8 29.889 181.3 29.889C182.8 29.889 183.8 28.889 183.8 27.489C183.8 26.089 182.8 25.089 181.3 25.089ZM181.3 29.389C180.2 29.389 179.4 28.589 179.4 27.489C179.4 26.389 180.2 25.589 181.3 25.589C182.4 25.589 183.2 26.389 183.2 27.489C183.2 28.589 182.4 29.389 181.3 29.389ZM177.9 27.489C177.9 26.089 176.9 25.089 175.4 25.089C173.9 25.089 172.9 26.089 172.9 27.489C172.9 28.889 173.9 29.889 175.4 29.889C176.9 29.889 177.9 28.889 177.9 27.489ZM173.6 27.489C173.6 26.389 174.4 25.589 175.5 25.589C176.6 25.589 177.4 26.389 177.4 27.489C177.4 28.589 176.6 29.389 175.5 29.389C174.4 29.389 173.6 28.589 173.6 27.489ZM185 29.789H185.5V25.089H185V29.789ZM171.9 29.789H172.6L170.7 27.389L172.5 25.089H171.9L170.4 26.989L168.9 25.089H168.2L170 27.389L168.1 29.789H168.7L170.3 27.689L171.9 29.789ZM166.5 29.789H167V25.089H166.5L163.4 28.989V25.089H162.9V29.789H163.4L166.5 25.889V29.789ZM178.2 36.889H177.5L175.2 39.189L177.6 41.589H178.3L175.8 39.189L178.2 36.889ZM165.6 36.789C165 36.789 164.5 36.989 164.1 37.189L164.2 37.589C164.6 37.389 165 37.189 165.5 37.189C166.7 37.189 166.7 37.889 166.7 38.989C166.3 38.689 165.8 38.589 165.4 38.589C164.4 38.589 163.6 39.089 163.6 40.089C163.6 40.989 164.2 41.489 165 41.489C165.9 41.489 166.3 41.089 166.6 40.689V41.389H167.1V38.489C167.3 37.489 166.9 36.789 165.6 36.789ZM166.8 40.389C166.5 40.689 166.2 41.089 165.4 41.089C164.8 41.089 164.4 40.789 164.4 40.189C164.4 39.489 165 39.189 165.7 39.189C166.2 39.189 166.6 39.289 166.9 39.589V40.389H166.8ZM174.4 41.489H174.9V36.889H174.4V41.489ZM172.4 38.889H169.4V36.889H168.9V41.589H169.4V39.489H172.4V41.589H172.9V36.889H172.4V38.889ZM160.1 37.189C159.8 37.189 159.3 37.189 158.9 37.289V34.789H162.3V34.289H158.3V41.589C158.7 41.589 159.3 41.589 159.9 41.589C161.6 41.589 162.7 40.789 162.7 39.289C162.7 37.989 161.8 37.189 160.1 37.189ZM160 40.989C159.6 40.989 159.2 40.989 158.9 40.989V37.789C159.3 37.689 159.8 37.689 160.1 37.689C161.5 37.689 162.2 38.289 162.2 39.289C162.1 40.389 161.4 40.989 160 40.989Z" fill="#2A2C29"/>
<path d="M41.6 0.989014H8.3C3.7 0.989014 0 4.68901 0 9.28901V42.589C0 47.189 3.7 50.889 8.3 50.889H41.6C46.2 50.889 49.9 47.189 49.9 42.589V9.28901C49.9 4.68901 46.2 0.989014 41.6 0.989014ZM47.3 41.689C47.2 41.789 47.1 41.789 47 41.789C40.6 37.889 33 35.689 25 35.689C17 35.689 9.4 37.889 2.9 41.789C2.8 41.889 2.6 41.789 2.6 41.689C2.5 41.589 2.5 41.389 2.7 41.389C8.5 36.889 13.6 31.189 17.4 24.389C21.3 17.689 23.7 10.489 24.7 3.18901C24.7 3.08901 24.8 2.98901 25 2.98901C25.1 2.98901 25.2 3.08901 25.3 3.18901C26.3 10.489 28.7 17.689 32.6 24.389C36.5 31.089 41.5 36.789 47.4 41.289C47.4 41.389 47.4 41.589 47.3 41.689Z" fill="#FE5000"/>
</g>
<defs>
<clipPath id="clip0">
<rect y="0.888916" width="225" height="50" fill="white"/>
</clipPath>
</defs>
</svg>
