<svg width="100" height="100" viewBox="0 0 100 100" fill="none" xmlns="http://www.w3.org/2000/svg">
<path d="M71.77 25H28.229C25.0712 25 22.5 27.5712 22.5 30.7291V69.6868C22.5 72.8447 25.0712 75.4159 28.229 75.4159H55.7286C56.361 75.4159 56.8744 74.9025 56.8744 74.27C56.8744 73.6375 56.361 73.1242 55.7286 73.1242H28.229C26.3338 73.1242 24.7916 71.582 24.7916 69.6867V36.4582H75.2074V60.5203C75.2074 61.1528 75.7207 61.6661 76.3532 61.6661C76.9857 61.6661 77.4991 61.1528 77.4991 60.5203V30.7291C77.4991 27.5712 74.9278 25 71.77 25ZM75.2075 34.1666H24.7916V30.7291C24.7916 28.8339 26.3338 27.2917 28.229 27.2917H71.7699C73.6651 27.2917 75.2074 28.8339 75.2074 30.7291V34.1666H75.2075Z" fill="url(#paint0_linear)"/>
<path d="M28.229 31.8747C28.8619 31.8747 29.3749 31.3617 29.3749 30.7289C29.3749 30.096 28.8619 29.583 28.229 29.583C27.5962 29.583 27.0832 30.096 27.0832 30.7289C27.0832 31.3617 27.5962 31.8747 28.229 31.8747Z" fill="url(#paint1_linear)"/>
<path d="M32.8123 31.8747C33.4451 31.8747 33.9581 31.3617 33.9581 30.7289C33.9581 30.096 33.4451 29.583 32.8123 29.583C32.1795 29.583 31.6664 30.096 31.6664 30.7289C31.6664 31.3617 32.1795 31.8747 32.8123 31.8747Z" fill="url(#paint2_linear)"/>
<path d="M37.3956 31.8747C38.0284 31.8747 38.5415 31.3617 38.5415 30.7289C38.5415 30.096 38.0284 29.583 37.3956 29.583C36.7628 29.583 36.2498 30.096 36.2498 30.7289C36.2498 31.3617 36.7628 31.8747 37.3956 31.8747Z" fill="url(#paint3_linear)"/>
<path d="M77.1644 66.5835L61.123 50.5421C60.7953 50.2167 60.3049 50.1181 59.8741 50.2946C59.4456 50.4711 59.166 50.8905 59.166 51.3533V74.2696C59.166 74.7324 59.4456 75.1518 59.8741 75.326C60.3049 75.507 60.793 75.4085 61.123 75.0785L64.5949 71.6067L67.4067 77.0838C67.5464 77.3588 67.7917 77.5627 68.0827 77.6544C68.1949 77.6887 68.3118 77.7071 68.4264 77.7071C68.612 77.7071 68.7954 77.6612 68.9649 77.5719L73.4542 75.1863C74.0042 74.8953 74.222 74.2147 73.9377 73.6578L71.3436 68.5406H76.3532C76.816 68.5406 77.2354 68.261 77.4119 67.8325C77.5907 67.4038 77.4921 66.9112 77.1644 66.5835ZM69.4783 66.2488C69.0795 66.2488 68.7106 66.4551 68.5021 66.7942C68.2935 67.1333 68.2752 67.5573 68.4562 67.9126L71.3849 73.6921L68.9145 75.0052L65.9148 69.1638C65.7476 68.8384 65.4359 68.6115 65.0738 68.5542C65.0142 68.545 64.9547 68.5404 64.8951 68.5404C64.5949 68.5404 64.3016 68.6596 64.0839 68.8773L61.4577 71.5035V54.1193L73.5872 66.2488H69.4783Z" fill="url(#paint4_linear)"/>
<circle cx="50" cy="50" r="49.5" stroke="url(#paint5_linear)"/>
<defs>
<linearGradient id="paint0_linear" x1="22.5" y1="75.4159" x2="72.7256" y2="20.6244" gradientUnits="userSpaceOnUse">
<stop stop-color="#FE5000"/>
<stop offset="1" stop-color="#FE9800"/>
</linearGradient>
<linearGradient id="paint1_linear" x1="27.0832" y1="31.8747" x2="29.3749" y2="29.583" gradientUnits="userSpaceOnUse">
<stop stop-color="#FE5000"/>
<stop offset="1" stop-color="#FE9800"/>
</linearGradient>
<linearGradient id="paint2_linear" x1="31.6664" y1="31.8747" x2="33.9581" y2="29.583" gradientUnits="userSpaceOnUse">
<stop stop-color="#FE5000"/>
<stop offset="1" stop-color="#FE9800"/>
</linearGradient>
<linearGradient id="paint3_linear" x1="36.2498" y1="31.8747" x2="38.5415" y2="29.583" gradientUnits="userSpaceOnUse">
<stop stop-color="#FE5000"/>
<stop offset="1" stop-color="#FE9800"/>
</linearGradient>
<linearGradient id="paint4_linear" x1="59.166" y1="77.7071" x2="84.5505" y2="60.7829" gradientUnits="userSpaceOnUse">
<stop stop-color="#FE5000"/>
<stop offset="1" stop-color="#FE9800"/>
</linearGradient>
<linearGradient id="paint5_linear" x1="0" y1="100" x2="100" y2="0" gradientUnits="userSpaceOnUse">
<stop stop-color="#FE5000"/>
<stop offset="1" stop-color="#FE9800"/>
</linearGradient>
</defs>
</svg>
