<svg width="100" height="100" viewBox="0 0 100 100" fill="none" xmlns="http://www.w3.org/2000/svg">
<circle cx="50" cy="50" r="49.5" fill="white" stroke="url(#paint0_linear)"/>
<g clip-path="url(#clip0)">
<path d="M74.2676 37.0029H67.8906L65.1562 31.0737C64.9902 30.7098 64.541 30.5427 64.1797 30.7098L61.5039 31.9586L53.3984 26.1277C53.0762 25.8917 52.6074 25.9704 52.373 26.3047L44.7949 37.0029H25.7324C25.3223 37.0029 25 37.3372 25 37.7403V64.2595C25 64.6627 25.332 64.997 25.7324 64.997H32.1094L34.8438 70.9262C35.0098 71.29 35.4492 71.4572 35.8203 71.29L38.4961 70.0412L46.6016 75.8721C46.9238 76.1081 47.3926 76.0294 47.627 75.6951L55.2051 64.997H74.2578C74.668 64.997 74.9902 64.6627 74.9902 64.2595V37.7403C75 37.3372 74.668 37.0029 74.2676 37.0029ZM64.1309 32.3618L66.2695 37.0029H54.1895L64.1309 32.3618ZM53.1445 27.7698L59.9805 32.6764L50.7129 37.0029H46.6016L53.1445 27.7698ZM42.1875 58.35V63.4336C42.1875 63.4631 42.1875 63.4925 42.1973 63.522H37.793C37.793 63.4925 37.8027 63.4631 37.8027 63.4336V58.35V56.9734V38.4778H42.1973V56.9734V58.35H42.1875ZM26.4648 63.522V38.4778H36.4258V56.9734H32.0312C31.6504 56.9734 31.3477 57.2782 31.3477 57.6617C31.3477 58.0452 31.6504 58.35 32.0312 58.35H36.4258V63.4336C36.4258 63.4631 36.4258 63.4925 36.4355 63.522H26.4648ZM35.8691 69.6381L33.7305 64.997H45.8105L35.8691 69.6381ZM46.8555 74.2398L40.0195 69.3333L49.2871 65.0068H53.3984L46.8555 74.2398ZM73.5352 63.522H43.5547C43.5547 63.4925 43.5645 63.4631 43.5645 63.4336V58.35H56.0645C56.4453 58.35 56.748 58.0452 56.748 57.6617C56.748 57.2782 56.4453 56.9734 56.0645 56.9734H43.5547V38.4778H45.166H67.4121H73.5352V63.522ZM61.0449 47.1897H62.3242V42.7256H65.9961C68.0859 42.7256 69.2578 43.7875 69.2578 45.6164C69.2578 47.4552 68.0859 48.5466 65.9961 48.5466H63.8867V49.4512H66.6992V50.3067H63.8867V52.2143H62.3242V50.3067H61.0449V49.4512H62.3242V48.5466H61.0449V47.1897ZM65.7715 47.1897C67.168 47.1897 67.6953 46.5899 67.6953 45.6164C67.6953 44.643 67.168 44.0727 65.7715 44.0727H63.8867V47.1897H65.7715Z" fill="url(#paint1_linear)"/>
</g>
<defs>
<linearGradient id="paint0_linear" x1="0" y1="100" x2="100" y2="0" gradientUnits="userSpaceOnUse">
<stop stop-color="#FE5000"/>
<stop offset="1" stop-color="#FE9800"/>
</linearGradient>
<linearGradient id="paint1_linear" x1="25" y1="76.0081" x2="75.0164" y2="26.0177" gradientUnits="userSpaceOnUse">
<stop stop-color="#FE5000"/>
<stop offset="1" stop-color="#FE9800"/>
</linearGradient>
<clipPath id="clip0">
<rect x="25" y="26" width="50" height="50" fill="white"/>
</clipPath>
</defs>
</svg>
