<svg width="100" height="100" viewBox="0 0 100 100" fill="none" xmlns="http://www.w3.org/2000/svg">
<circle cx="50" cy="50" r="49.5" fill="white" stroke="url(#paint0_linear)"/>
<g clip-path="url(#clip0)">
<path d="M74.8995 67.5229L72.9175 60.6329C72.8703 60.4913 72.7759 60.3498 72.6815 60.2554C71.4545 56.5272 68.4343 53.6485 64.6117 52.6575L64.0454 52.5631C63.196 52.3272 62.2521 52.6103 61.6386 53.3182C59.5622 55.6778 56.9195 55.8665 54.1352 55.8665C51.3508 55.8665 48.7081 55.6778 46.6317 53.3182C46.0182 52.6103 45.0743 52.3272 44.2249 52.5631L43.6586 52.7047C40.7799 53.4598 38.3259 55.3002 36.7686 57.7542H30.8224C30.7752 57.7542 30.7752 57.7542 30.7281 57.707C30.7281 57.6598 30.6809 57.6126 30.6809 57.5183L31.9078 53.1294C32.9933 49.6844 35.0697 48.6462 39.1282 47.608C39.3169 47.5608 39.4585 47.4664 39.5529 47.372C39.8833 47.6552 40.2608 47.8911 40.6383 48.0799C40.7799 48.1743 40.9215 48.1743 41.063 48.1743C41.3934 48.1743 41.7237 47.9855 41.9125 47.6552C42.1485 47.1833 41.9597 46.617 41.4878 46.381C39.317 45.2484 37.7596 42.0394 37.7596 38.7359C37.7596 35.8101 40.1664 33.4033 43.0923 33.4033C43.6586 33.4033 44.1777 33.4977 44.6968 33.6392C44.1777 34.9134 43.8945 36.282 43.8945 37.7449C43.8945 45.8147 48.7553 52.6103 54.5127 52.6103C60.1757 52.6103 65.178 45.6731 65.178 37.7449C65.178 31.846 60.4117 27.0796 54.5127 27.0796C50.7845 27.0796 47.4811 29.0145 45.5935 31.9403C44.7912 31.6572 43.9417 31.5156 43.0923 31.5156C40.5439 31.5156 38.2787 32.8842 37.0046 34.9134C36.9102 34.819 36.8158 34.7718 36.7214 34.7247C36.0135 34.3471 35.3057 34.2055 34.5034 34.2055C31.8607 34.1583 29.737 36.282 29.737 38.9247C29.737 40.4349 30.1618 41.8506 30.8224 42.9832C28.6516 43.5495 26.7168 44.399 25.8201 47.2777L25.065 50.0148C24.9235 50.4867 25.0179 51.0058 25.301 51.3833C25.5842 51.8081 26.1033 52.044 26.6224 52.044H30.2561C30.2089 52.2328 30.1146 52.4216 30.0674 52.6103L28.8404 57.0463C28.6516 57.6598 28.7932 58.3205 29.2179 58.8396C29.5955 59.3587 30.1618 59.6419 30.8224 59.6419H35.8248C35.6832 59.9722 35.5888 60.3026 35.4944 60.6329L33.5124 67.5701C33.3236 68.3724 33.4652 69.2218 33.9843 69.8825C34.5034 70.5432 35.2585 70.9207 36.0607 70.9207H64.3758H65.9803H72.3512C73.1534 70.9207 73.9557 70.5432 74.4276 69.8825C74.9467 69.2218 75.1355 68.3724 74.8995 67.5229ZM46.7261 33.7808C46.7732 33.7336 46.8204 33.6864 46.8676 33.592C46.9148 33.5449 46.9148 33.4505 46.962 33.4033C48.425 30.7605 51.2565 28.9673 54.5127 28.9673C58.4296 28.9673 61.733 31.5628 62.8656 35.1022C61.2139 35.4325 59.4678 34.7718 58.4296 33.3561C58.0993 32.9314 57.533 32.837 57.1082 33.1673C56.9195 33.3089 56.8251 33.4505 56.7779 33.6392C56.7307 33.6864 56.7307 33.7336 56.6835 33.7808C55.3621 36.4707 50.9261 37.6033 45.8766 36.6123C46.0182 35.6213 46.3013 34.6775 46.7261 33.7808ZM49.3688 38.8303C53.1441 38.8303 56.2588 37.6505 57.8633 35.4325C59.0431 36.4707 60.506 37.037 62.0634 37.037C62.4409 37.037 62.8656 36.9899 63.2432 36.8955C63.2904 37.1786 63.2904 37.4146 63.2904 37.6977C63.2904 44.6349 59.1847 50.7226 54.5127 50.7226C50.0295 50.7226 46.1126 45.1068 45.7822 38.5C47.0092 38.7359 48.2362 38.8303 49.3688 38.8303ZM26.9999 50.1563L27.6606 47.7968C28.2269 45.8619 29.4067 45.2956 31.7663 44.7293C31.9078 44.6821 32.0494 44.6349 32.1438 44.5405C32.3798 44.7293 32.5685 44.8709 32.8517 45.0124C32.9933 45.1068 33.1348 45.1068 33.2764 45.1068C33.6067 45.1068 33.9371 44.9181 34.1259 44.5877C34.3618 44.1158 34.173 43.5495 33.7483 43.3135C32.5213 42.6529 31.6247 40.8124 31.6247 38.9247C31.6247 37.3202 32.8989 36.046 34.5034 36.046C35.0225 36.046 35.4472 36.1404 35.872 36.3764C36.0135 36.4236 36.1079 36.4707 36.2495 36.4707C36.0135 37.1786 35.872 37.9337 35.872 38.7359C35.872 41.4259 36.7686 44.0686 38.1843 45.9091C35.3528 46.617 32.8517 47.5608 31.2 50.1563H26.9999ZM72.9647 68.7499C72.8703 68.8443 72.6815 69.033 72.3512 69.033H65.9803H64.3758H36.0607C35.7304 69.033 35.5416 68.8443 35.4472 68.7499C35.3057 68.5611 35.2585 68.278 35.3057 68.0892L37.2877 61.1992C38.2315 57.943 40.8271 55.3946 44.1305 54.5452L44.6968 54.4036C44.8384 54.3564 45.0743 54.4508 45.2159 54.5924C47.8115 57.5654 51.0205 57.8014 54.1352 57.8014C57.2498 57.8014 60.4588 57.5654 63.0544 54.5924C63.196 54.4508 63.3847 54.3564 63.6207 54.4036L64.187 54.5452C67.4432 55.3946 70.086 57.943 71.0298 61.1992L71.8792 64.1251C71.9264 64.2667 71.9736 64.3611 72.068 64.4554L73.1062 68.042C73.1534 68.278 73.1062 68.5611 72.9647 68.7499Z" fill="url(#paint1_linear)"/>
</g>
<defs>
<linearGradient id="paint0_linear" x1="0" y1="100" x2="100" y2="0" gradientUnits="userSpaceOnUse">
<stop stop-color="#FE5000"/>
<stop offset="1" stop-color="#FE9800"/>
</linearGradient>
<linearGradient id="paint1_linear" x1="25" y1="70.9207" x2="68.4651" y2="21.3496" gradientUnits="userSpaceOnUse">
<stop stop-color="#FE5000"/>
<stop offset="1" stop-color="#FE9800"/>
</linearGradient>
<clipPath id="clip0">
<rect x="25" y="24" width="50" height="50" fill="white"/>
</clipPath>
</defs>
</svg>
