<svg width="56" height="56" viewBox="0 0 56 56" fill="none" xmlns="http://www.w3.org/2000/svg">
<path d="M46.1606 12.4027H35.3675V7.49306C35.3666 6.81135 35.0953 6.15783 34.6132 5.67583C34.1312 5.19382 33.4776 4.92269 32.7959 4.92188H9.79038C9.10866 4.92269 8.4551 5.19382 7.97301 5.67583C7.49093 6.15783 7.21968 6.81135 7.21875 7.49306V48.5069C7.21968 49.1887 7.49093 49.8422 7.97301 50.3242C8.4551 50.8062 9.10866 51.0773 9.79038 51.0781H32.7959C33.4776 51.0773 34.1312 50.8062 34.6132 50.3242C35.0953 49.8422 35.3666 49.1887 35.3675 48.5069V38.9624H46.1606C46.8554 38.9613 47.5213 38.6847 48.0126 38.1934C48.5038 37.7021 48.7802 37.0361 48.7812 36.3414V15.0238C48.7802 14.329 48.5038 13.663 48.0126 13.1717C47.5213 12.6804 46.8554 12.4038 46.1606 12.4027ZM43.0728 13.9339V37.4312H41.5656V13.9339H43.0728ZM33.8362 48.5069C33.8359 48.7827 33.7262 49.0471 33.5311 49.2421C33.3361 49.437 33.0717 49.5466 32.7959 49.5469H9.79038C9.51456 49.5468 9.25007 49.4372 9.055 49.2422C8.85993 49.0472 8.75023 48.7828 8.75 48.5069V7.49306C8.75023 7.21725 8.85993 6.95281 9.055 6.75782C9.25007 6.56283 9.51456 6.45324 9.79038 6.45312H32.7959C33.0717 6.45336 33.3361 6.56298 33.5311 6.75795C33.7262 6.95291 33.8359 7.21729 33.8362 7.49306V48.5069ZM35.3675 13.9339H40.0343V37.4312H35.3675V13.9339ZM47.25 36.3414C47.2497 36.6302 47.1348 36.9072 46.9306 37.1115C46.7264 37.3157 46.4495 37.4307 46.1606 37.4312H44.604V13.9339H46.1606C46.4495 13.9343 46.7265 14.0492 46.9307 14.2535C47.1349 14.4579 47.2498 14.7349 47.25 15.0238V36.3414Z" fill="#7F94A8"/>
<path d="M31.2248 8.64062H11.3623C11.1592 8.64062 10.9645 8.72129 10.8209 8.86487C10.6773 9.00845 10.5967 9.20319 10.5967 9.40625V18.3448C10.5967 18.5479 10.6773 18.7426 10.8209 18.8862C10.9645 19.0298 11.1592 19.1104 11.3623 19.1104H31.2248C31.4279 19.1104 31.6226 19.0298 31.7662 18.8862C31.9098 18.7426 31.9904 18.5479 31.9904 18.3448V9.40625C31.9904 9.20319 31.9098 9.00845 31.7662 8.86487C31.6226 8.72129 31.4279 8.64062 31.2248 8.64062ZM30.4592 17.5792H12.1279V10.1719H30.4592V17.5792Z" fill="#7F94A8"/>
<path d="M31.2248 21.7502H24.1732C23.9702 21.7502 23.7754 21.8309 23.6318 21.9745C23.4883 22.1181 23.4076 22.3128 23.4076 22.5159V26.1909C23.4076 26.3939 23.4883 26.5887 23.6318 26.7322C23.7754 26.8758 23.9702 26.9565 24.1732 26.9565H31.2248C31.4279 26.9565 31.6226 26.8758 31.7662 26.7322C31.9098 26.5887 31.9905 26.3939 31.9905 26.1909V22.5159C31.9905 22.3128 31.9098 22.1181 31.7662 21.9745C31.6226 21.8309 31.4279 21.7502 31.2248 21.7502ZM30.4592 25.4252H24.9375V23.2815H30.4592V25.4252Z" fill="#7F94A8"/>
<path d="M31.2248 28.4375H24.1732C24.0727 28.4374 23.9731 28.4572 23.8802 28.4957C23.7872 28.5341 23.7028 28.5905 23.6317 28.6616C23.5606 28.7327 23.5042 28.8171 23.4658 28.9101C23.4273 29.003 23.4075 29.1026 23.4076 29.2031V32.8781C23.4076 33.0812 23.4883 33.2759 23.6318 33.4195C23.7754 33.5631 23.9702 33.6437 24.1732 33.6437H31.2248C31.4279 33.6437 31.6226 33.5631 31.7662 33.4195C31.9098 33.2759 31.9905 33.0812 31.9905 32.8781V29.2031C31.9905 29.1026 31.9708 29.003 31.9323 28.9101C31.8939 28.8171 31.8375 28.7327 31.7663 28.6616C31.6952 28.5905 31.6108 28.5341 31.5179 28.4957C31.425 28.4572 31.3254 28.4374 31.2248 28.4375ZM30.4592 32.1125H24.9375V29.9687H30.4592V32.1125Z" fill="#7F94A8"/>
<path d="M31.2248 35.1243H24.1732C24.0727 35.1242 23.9731 35.144 23.8802 35.1824C23.7872 35.2209 23.7028 35.2773 23.6317 35.3484C23.5606 35.4195 23.5042 35.5039 23.4658 35.5968C23.4273 35.6898 23.4075 35.7893 23.4076 35.8899V46.3711C23.4075 46.4716 23.4273 46.5712 23.4658 46.6641C23.5042 46.7571 23.5606 46.8415 23.6317 46.9126C23.7028 46.9837 23.7872 47.0401 23.8802 47.0785C23.9731 47.117 24.0727 47.1368 24.1732 47.1367H31.2248C31.3254 47.1368 31.425 47.117 31.5179 47.0785C31.6108 47.0401 31.6952 46.9837 31.7663 46.9126C31.8375 46.8415 31.8939 46.7571 31.9323 46.6641C31.9708 46.5712 31.9905 46.4716 31.9905 46.3711V35.8899C31.9905 35.7893 31.9708 35.6898 31.9323 35.5968C31.8939 35.5039 31.8375 35.4195 31.7663 35.3484C31.6952 35.2773 31.6108 35.2209 31.5179 35.1824C31.425 35.144 31.3254 35.1242 31.2248 35.1243ZM30.4592 45.6055H24.9375V36.6555H30.4592V45.6055Z" fill="#7F94A8"/>
<path d="M15.036 21.7502H11.361C11.158 21.7502 10.9632 21.8309 10.8196 21.9745C10.6761 22.1181 10.5954 22.3128 10.5954 22.5159V26.1909C10.5954 26.3939 10.6761 26.5887 10.8196 26.7322C10.9632 26.8758 11.158 26.9565 11.361 26.9565H15.036C15.2391 26.9565 15.4338 26.8758 15.5774 26.7322C15.721 26.5887 15.8016 26.3939 15.8016 26.1909V22.5159C15.8016 22.3128 15.721 22.1181 15.5774 21.9745C15.4338 21.8309 15.2391 21.7502 15.036 21.7502ZM14.2704 25.4252H12.1266V23.2815H14.2704V25.4252Z" fill="#7F94A8"/>
<path d="M21.4423 21.7502H17.7673C17.5643 21.7504 17.3696 21.8311 17.2261 21.9746C17.0825 22.1182 17.0018 22.3128 17.0017 22.5159V26.1909C17.0018 26.3939 17.0825 26.5886 17.2261 26.7321C17.3696 26.8757 17.5643 26.9564 17.7673 26.9565H21.4423C21.6454 26.9565 21.8401 26.8758 21.9837 26.7322C22.1273 26.5887 22.208 26.3939 22.208 26.1909V22.5159C22.208 22.3128 22.1273 22.1181 21.9837 21.9745C21.8401 21.8309 21.6454 21.7502 21.4423 21.7502ZM20.6767 25.4252H18.533V23.2815H20.6767V25.4252Z" fill="#7F94A8"/>
<path d="M15.036 28.4375H11.361C11.2605 28.4374 11.1609 28.4572 11.068 28.4957C10.975 28.5341 10.8906 28.5905 10.8195 28.6616C10.7484 28.7327 10.692 28.8171 10.6536 28.9101C10.6151 29.003 10.5953 29.1026 10.5954 29.2031V32.8781C10.5954 33.0812 10.6761 33.2759 10.8196 33.4195C10.9632 33.5631 11.158 33.6437 11.361 33.6437H15.036C15.2391 33.6437 15.4338 33.5631 15.5774 33.4195C15.721 33.2759 15.8016 33.0812 15.8016 32.8781V29.2031C15.8017 29.1026 15.7819 29.003 15.7435 28.9101C15.705 28.8171 15.6486 28.7327 15.5775 28.6616C15.5064 28.5905 15.422 28.5341 15.3291 28.4957C15.2362 28.4572 15.1366 28.4374 15.036 28.4375ZM14.2704 32.1125H12.1266V29.9687H14.2704V32.1125Z" fill="#7F94A8"/>
<path d="M21.4423 28.4375H17.7673C17.5643 28.4375 17.3695 28.5182 17.226 28.6617C17.0824 28.8053 17.0017 29.0001 17.0017 29.2031V32.8781C17.0018 33.0811 17.0825 33.2758 17.2261 33.4194C17.3696 33.5629 17.5643 33.6436 17.7673 33.6437H21.4423C21.6454 33.6437 21.8401 33.5631 21.9837 33.4195C22.1273 33.2759 22.208 33.0812 22.208 32.8781V29.2031C22.208 29.1026 22.1883 29.003 22.1498 28.9101C22.1113 28.8171 22.0549 28.7327 21.9838 28.6616C21.9127 28.5905 21.8283 28.5341 21.7354 28.4957C21.6425 28.4572 21.5429 28.4374 21.4423 28.4375ZM20.6767 32.1125H18.533V29.9687H20.6767V32.1125Z" fill="#7F94A8"/>
<path d="M15.036 35.1243H11.361C11.2605 35.1242 11.1609 35.144 11.068 35.1824C10.975 35.2209 10.8906 35.2773 10.8195 35.3484C10.7484 35.4195 10.692 35.5039 10.6536 35.5968C10.6151 35.6898 10.5953 35.7893 10.5954 35.8899V39.5649C10.5954 39.7679 10.6761 39.9627 10.8196 40.1063C10.9632 40.2499 11.158 40.3305 11.361 40.3305H15.036C15.2391 40.3305 15.4338 40.2499 15.5774 40.1063C15.721 39.9627 15.8016 39.7679 15.8016 39.5649V35.8899C15.8017 35.7893 15.7819 35.6898 15.7435 35.5968C15.705 35.5039 15.6486 35.4195 15.5775 35.3484C15.5064 35.2773 15.422 35.2209 15.3291 35.1824C15.2362 35.144 15.1366 35.1242 15.036 35.1243ZM14.2704 38.7993H12.1266V36.6555H14.2704V38.7993Z" fill="#7F94A8"/>
<path d="M21.4423 35.1243H17.7673C17.5643 35.1243 17.3695 35.2049 17.226 35.3485C17.0824 35.4921 17.0017 35.6868 17.0017 35.8899V39.5649C17.0018 39.7679 17.0825 39.9626 17.2261 40.1061C17.3696 40.2497 17.5643 40.3304 17.7673 40.3305H21.4423C21.6454 40.3305 21.8401 40.2499 21.9837 40.1063C22.1273 39.9627 22.208 39.7679 22.208 39.5649V35.8899C22.208 35.7893 22.1883 35.6898 22.1498 35.5968C22.1113 35.5039 22.0549 35.4195 21.9838 35.3484C21.9127 35.2773 21.8283 35.2209 21.7354 35.1824C21.6425 35.144 21.5429 35.1242 21.4423 35.1243ZM20.6767 38.7993H18.533V36.6555H20.6767V38.7993Z" fill="#7F94A8"/>
<path d="M15.036 41.9309H11.361C11.2605 41.9309 11.1609 41.9506 11.068 41.9891C10.975 42.0275 10.8906 42.0839 10.8195 42.155C10.7484 42.2261 10.692 42.3106 10.6536 42.4035C10.6151 42.4964 10.5953 42.596 10.5954 42.6965V46.3715C10.5953 46.4721 10.6151 46.5717 10.6536 46.6646C10.692 46.7575 10.7484 46.8419 10.8195 46.913C10.8906 46.9841 10.975 47.0405 11.068 47.079C11.1609 47.1175 11.2605 47.1372 11.361 47.1372H15.036C15.1366 47.1372 15.2362 47.1175 15.3291 47.079C15.422 47.0405 15.5064 46.9841 15.5775 46.913C15.6486 46.8419 15.705 46.7575 15.7435 46.6646C15.7819 46.5717 15.8017 46.4721 15.8016 46.3715V42.6965C15.8017 42.596 15.7819 42.4964 15.7435 42.4035C15.705 42.3106 15.6486 42.2261 15.5775 42.155C15.5064 42.0839 15.422 42.0275 15.3291 41.9891C15.2362 41.9506 15.1366 41.9309 15.036 41.9309ZM14.2704 45.6059H12.1266V43.4622H14.2704V45.6059Z" fill="#7F94A8"/>
<path d="M21.4423 41.9309H17.7673C17.5643 41.9309 17.3695 42.0116 17.226 42.1552C17.0824 42.2987 17.0017 42.4935 17.0017 42.6965V46.3715C17.0017 46.5746 17.0824 46.7693 17.226 46.9129C17.3695 47.0565 17.5643 47.1372 17.7673 47.1372H21.4423C21.5429 47.1372 21.6425 47.1175 21.7354 47.079C21.8283 47.0405 21.9127 46.9841 21.9838 46.913C22.0549 46.8419 22.1113 46.7575 22.1498 46.6646C22.1883 46.5717 22.208 46.4721 22.208 46.3715V42.6965C22.208 42.596 22.1883 42.4964 22.1498 42.4035C22.1113 42.3106 22.0549 42.2261 21.9838 42.155C21.9127 42.0839 21.8283 42.0275 21.7354 41.9891C21.6425 41.9506 21.5429 41.9309 21.4423 41.9309ZM20.6767 45.6059H18.533V43.4622H20.6767V45.6059Z" fill="#7F94A8"/>
</svg>
