<svg width="25" height="25" viewBox="0 0 25 25" fill="none" xmlns="http://www.w3.org/2000/svg">
<path d="M12.5 1.5625C18.5303 1.5625 23.4375 6.46973 23.4375 12.5C23.4375 18.5303 18.5303 23.4375 12.5 23.4375C6.46973 23.4375 1.5625 18.5303 1.5625 12.5C1.5625 6.46973 6.46973 1.5625 12.5 1.5625ZM12.5 0C5.59692 0 0 5.59692 0 12.5C0 19.4031 5.59692 25 12.5 25C19.4031 25 25 19.4031 25 12.5C25 5.59692 19.4031 0 12.5 0ZM19.469 16.6791L19.3988 16.4655C19.234 15.9741 18.6908 15.4614 18.1903 15.3241L16.3428 14.8193C15.8423 14.6832 15.1282 14.8663 14.7601 15.2344L14.0918 15.9027C11.6626 15.2448 9.75708 13.3392 9.10095 10.91L9.76929 10.2417C10.1355 9.87549 10.3186 9.16138 10.1825 8.65906L9.67896 6.81152C9.54346 6.31104 9.0271 5.76782 8.53638 5.60303L8.32581 5.53284C7.83325 5.36804 7.12952 5.53467 6.76331 5.9021L5.76233 6.90308C5.58411 7.08008 5.46936 7.58789 5.46936 7.58972C5.43579 10.7666 6.68091 13.8257 8.927 16.0736C11.167 18.3136 14.2157 19.5569 17.3816 19.53C17.3987 19.53 17.9218 19.4183 18.1006 19.2401L19.1016 18.2391C19.4672 17.8741 19.632 17.1704 19.469 16.6791Z" fill="#333333"/>
</svg>
