<svg width="24" height="24" viewBox="0 0 24 24" fill="none" xmlns="http://www.w3.org/2000/svg">
<path d="M21.7683 11.2116H21.2449V8.06686C21.2449 6.78097 20.1981 5.73872 18.9167 5.73872H18.434L18.4385 4.57014C18.4385 3.70386 17.7346 3 16.8683 3H2.90853C1.86628 3 1.01354 3.83921 1 4.88146C1 4.89048 1 4.89951 1 4.90853V20.3121C1 21.1784 1.70386 21.8823 2.57014 21.8823H18.9212C20.2071 21.8823 21.2494 20.8355 21.2494 19.5541V16.4048H21.7728C22.4495 16.4048 23 15.8544 23 15.1776V12.4389C22.9955 11.7621 22.445 11.2116 21.7683 11.2116ZM2.90853 4.08285H16.8683C17.1345 4.08285 17.3556 4.29943 17.3556 4.56563L17.3511 5.73872H2.90853C2.45283 5.73872 2.08285 5.36874 2.08285 4.91304C2.08285 4.45734 2.45283 4.08285 2.90853 4.08285ZM20.162 19.5496C20.162 20.2354 19.6025 20.7949 18.9167 20.7949H2.56563C2.29943 20.7949 2.07834 20.5783 2.07834 20.3076V6.63208C2.33101 6.7539 2.61075 6.82157 2.90853 6.82157H18.9167C19.6025 6.82157 20.162 7.38105 20.162 8.06686V11.2116H16.4668C15.79 11.2116 15.2395 11.7621 15.2395 12.4389V15.1776C15.2395 15.8544 15.79 16.4048 16.4668 16.4048H20.162V19.5496ZM21.9126 15.1776C21.9126 15.2588 21.8495 15.322 21.7683 15.322H16.4713C16.3901 15.322 16.3269 15.2588 16.3269 15.1776V12.4389C16.3269 12.3622 16.3901 12.2945 16.4713 12.2945H21.7683C21.845 12.2945 21.9126 12.3577 21.9126 12.4389V15.1776Z" fill="#FE5000"/>
</svg>
